ISO-10303-21;
HEADER;
/* Generated by software containing ST-Developer
 * from STEP Tools, Inc. (www.steptools.com) 
 */

FILE_DESCRIPTION(
/* description */ (''),
/* implementation_level */ '2;1');

FILE_NAME(
/* name */ 'Encoder Mount.step',
/* time_stamp */ '2026-07-10T21:30:55-04:00',
/* author */ (''),
/* organization */ (''),
/* preprocessor_version */ 'ST-DEVELOPER v20.1',
/* originating_system */ 'Autodesk Translation Framework v15.8.0.0',
/* authorisation */ '');

FILE_SCHEMA (('AUTOMOTIVE_DESIGN { 1 0 10303 214 3 1 1 }'));
ENDSEC;

DATA;
#10=MECHANICAL_DESIGN_GEOMETRIC_PRESENTATION_REPRESENTATION('',(#13),#1628);
#11=SHAPE_REPRESENTATION_RELATIONSHIP('SRR','None',#1638,#12);
#12=ADVANCED_BREP_SHAPE_REPRESENTATION('',(#14),#1627);
#13=STYLED_ITEM('',(#1648),#14);
#14=MANIFOLD_SOLID_BREP('EncoderMount',#956);
#15=FACE_BOUND('',#120,.T.);
#16=FACE_BOUND('',#122,.T.);
#17=FACE_BOUND('',#123,.T.);
#18=FACE_BOUND('',#124,.T.);
#19=FACE_BOUND('',#125,.T.);
#20=FACE_BOUND('',#126,.T.);
#21=FACE_BOUND('',#157,.T.);
#22=FACE_BOUND('',#158,.T.);
#23=FACE_BOUND('',#159,.T.);
#24=FACE_BOUND('',#160,.T.);
#25=FACE_BOUND('',#161,.T.);
#26=FACE_BOUND('',#162,.T.);
#27=FACE_BOUND('',#164,.T.);
#28=FACE_BOUND('',#165,.T.);
#29=PLANE('',#973);
#30=PLANE('',#977);
#31=PLANE('',#981);
#32=PLANE('',#985);
#33=PLANE('',#986);
#34=PLANE('',#990);
#35=PLANE('',#994);
#36=PLANE('',#998);
#37=PLANE('',#1002);
#38=PLANE('',#1003);
#39=PLANE('',#1014);
#40=PLANE('',#1018);
#41=PLANE('',#1022);
#42=PLANE('',#1026);
#43=PLANE('',#1030);
#44=PLANE('',#1036);
#45=PLANE('',#1040);
#46=PLANE('',#1044);
#47=PLANE('',#1048);
#48=PLANE('',#1055);
#49=PLANE('',#1058);
#50=PLANE('',#1061);
#51=PLANE('',#1064);
#52=PLANE('',#1065);
#53=PLANE('',#1066);
#54=FACE_OUTER_BOUND('',#103,.T.);
#55=FACE_OUTER_BOUND('',#104,.T.);
#56=FACE_OUTER_BOUND('',#105,.T.);
#57=FACE_OUTER_BOUND('',#106,.T.);
#58=FACE_OUTER_BOUND('',#107,.T.);
#59=FACE_OUTER_BOUND('',#108,.T.);
#60=FACE_OUTER_BOUND('',#109,.T.);
#61=FACE_OUTER_BOUND('',#110,.T.);
#62=FACE_OUTER_BOUND('',#111,.T.);
#63=FACE_OUTER_BOUND('',#112,.T.);
#64=FACE_OUTER_BOUND('',#113,.T.);
#65=FACE_OUTER_BOUND('',#114,.T.);
#66=FACE_OUTER_BOUND('',#115,.T.);
#67=FACE_OUTER_BOUND('',#116,.T.);
#68=FACE_OUTER_BOUND('',#117,.T.);
#69=FACE_OUTER_BOUND('',#118,.T.);
#70=FACE_OUTER_BOUND('',#119,.T.);
#71=FACE_OUTER_BOUND('',#121,.T.);
#72=FACE_OUTER_BOUND('',#127,.T.);
#73=FACE_OUTER_BOUND('',#128,.T.);
#74=FACE_OUTER_BOUND('',#129,.T.);
#75=FACE_OUTER_BOUND('',#130,.T.);
#76=FACE_OUTER_BOUND('',#131,.T.);
#77=FACE_OUTER_BOUND('',#132,.T.);
#78=FACE_OUTER_BOUND('',#133,.T.);
#79=FACE_OUTER_BOUND('',#134,.T.);
#80=FACE_OUTER_BOUND('',#135,.T.);
#81=FACE_OUTER_BOUND('',#136,.T.);
#82=FACE_OUTER_BOUND('',#137,.T.);
#83=FACE_OUTER_BOUND('',#138,.T.);
#84=FACE_OUTER_BOUND('',#139,.T.);
#85=FACE_OUTER_BOUND('',#140,.T.);
#86=FACE_OUTER_BOUND('',#141,.T.);
#87=FACE_OUTER_BOUND('',#142,.T.);
#88=FACE_OUTER_BOUND('',#143,.T.);
#89=FACE_OUTER_BOUND('',#144,.T.);
#90=FACE_OUTER_BOUND('',#145,.T.);
#91=FACE_OUTER_BOUND('',#146,.T.);
#92=FACE_OUTER_BOUND('',#147,.T.);
#93=FACE_OUTER_BOUND('',#148,.T.);
#94=FACE_OUTER_BOUND('',#149,.T.);
#95=FACE_OUTER_BOUND('',#150,.T.);
#96=FACE_OUTER_BOUND('',#151,.T.);
#97=FACE_OUTER_BOUND('',#152,.T.);
#98=FACE_OUTER_BOUND('',#153,.T.);
#99=FACE_OUTER_BOUND('',#154,.T.);
#100=FACE_OUTER_BOUND('',#155,.T.);
#101=FACE_OUTER_BOUND('',#156,.T.);
#102=FACE_OUTER_BOUND('',#163,.T.);
#103=EDGE_LOOP('',(#613,#614,#615,#616));
#104=EDGE_LOOP('',(#617,#618,#619,#620));
#105=EDGE_LOOP('',(#621,#622,#623,#624));
#106=EDGE_LOOP('',(#625,#626,#627,#628));
#107=EDGE_LOOP('',(#629,#630,#631,#632));
#108=EDGE_LOOP('',(#633,#634,#635,#636));
#109=EDGE_LOOP('',(#637,#638,#639,#640));
#110=EDGE_LOOP('',(#641,#642,#643,#644));
#111=EDGE_LOOP('',(#645,#646,#647,#648));
#112=EDGE_LOOP('',(#649,#650,#651,#652));
#113=EDGE_LOOP('',(#653,#654,#655,#656));
#114=EDGE_LOOP('',(#657,#658,#659,#660));
#115=EDGE_LOOP('',(#661,#662,#663,#664));
#116=EDGE_LOOP('',(#665,#666,#667,#668));
#117=EDGE_LOOP('',(#669,#670,#671,#672));
#118=EDGE_LOOP('',(#673,#674,#675,#676));
#119=EDGE_LOOP('',(#677,#678,#679,#680,#681,#682,#683,#684));
#120=EDGE_LOOP('',(#685,#686,#687,#688,#689,#690,#691,#692));
#121=EDGE_LOOP('',(#693,#694,#695,#696,#697,#698,#699,#700));
#122=EDGE_LOOP('',(#701));
#123=EDGE_LOOP('',(#702,#703));
#124=EDGE_LOOP('',(#704));
#125=EDGE_LOOP('',(#705));
#126=EDGE_LOOP('',(#706,#707,#708,#709,#710,#711,#712,#713));
#127=EDGE_LOOP('',(#714,#715,#716,#717));
#128=EDGE_LOOP('',(#718,#719,#720,#721));
#129=EDGE_LOOP('',(#722,#723,#724,#725));
#130=EDGE_LOOP('',(#726,#727,#728,#729));
#131=EDGE_LOOP('',(#730,#731,#732,#733));
#132=EDGE_LOOP('',(#734,#735,#736,#737));
#133=EDGE_LOOP('',(#738,#739,#740,#741));
#134=EDGE_LOOP('',(#742,#743,#744,#745));
#135=EDGE_LOOP('',(#746,#747,#748,#749));
#136=EDGE_LOOP('',(#750,#751,#752,#753));
#137=EDGE_LOOP('',(#754,#755,#756,#757));
#138=EDGE_LOOP('',(#758,#759,#760,#761));
#139=EDGE_LOOP('',(#762,#763,#764,#765));
#140=EDGE_LOOP('',(#766,#767,#768,#769));
#141=EDGE_LOOP('',(#770,#771,#772,#773));
#142=EDGE_LOOP('',(#774,#775,#776,#777));
#143=EDGE_LOOP('',(#778,#779,#780,#781));
#144=EDGE_LOOP('',(#782,#783,#784,#785));
#145=EDGE_LOOP('',(#786,#787,#788,#789));
#146=EDGE_LOOP('',(#790,#791,#792,#793));
#147=EDGE_LOOP('',(#794,#795,#796,#797));
#148=EDGE_LOOP('',(#798,#799,#800,#801));
#149=EDGE_LOOP('',(#802,#803,#804,#805));
#150=EDGE_LOOP('',(#806,#807,#808,#809));
#151=EDGE_LOOP('',(#810,#811,#812,#813));
#152=EDGE_LOOP('',(#814,#815,#816,#817));
#153=EDGE_LOOP('',(#818,#819,#820,#821));
#154=EDGE_LOOP('',(#822,#823,#824,#825));
#155=EDGE_LOOP('',(#826,#827,#828,#829));
#156=EDGE_LOOP('',(#830,#831,#832,#833,#834,#835,#836,#837));
#157=EDGE_LOOP('',(#838));
#158=EDGE_LOOP('',(#839));
#159=EDGE_LOOP('',(#840,#841));
#160=EDGE_LOOP('',(#842));
#161=EDGE_LOOP('',(#843,#844,#845,#846,#847,#848,#849,#850));
#162=EDGE_LOOP('',(#851,#852,#853,#854,#855,#856,#857,#858));
#163=EDGE_LOOP('',(#859,#860,#861,#862,#863,#864,#865,#866));
#164=EDGE_LOOP('',(#867,#868,#869,#870,#871,#872,#873,#874));
#165=EDGE_LOOP('',(#875,#876,#877,#878,#879,#880,#881,#882));
#166=LINE('',#1356,#253);
#167=LINE('',#1359,#254);
#168=LINE('',#1362,#255);
#169=LINE('',#1364,#256);
#170=LINE('',#1365,#257);
#171=LINE('',#1370,#258);
#172=LINE('',#1374,#259);
#173=LINE('',#1376,#260);
#174=LINE('',#1377,#261);
#175=LINE('',#1383,#262);
#176=LINE('',#1386,#263);
#177=LINE('',#1389,#264);
#178=LINE('',#1391,#265);
#179=LINE('',#1392,#266);
#180=LINE('',#1397,#267);
#181=LINE('',#1401,#268);
#182=LINE('',#1403,#269);
#183=LINE('',#1404,#270);
#184=LINE('',#1407,#271);
#185=LINE('',#1409,#272);
#186=LINE('',#1410,#273);
#187=LINE('',#1416,#274);
#188=LINE('',#1419,#275);
#189=LINE('',#1421,#276);
#190=LINE('',#1422,#277);
#191=LINE('',#1428,#278);
#192=LINE('',#1430,#279);
#193=LINE('',#1431,#280);
#194=LINE('',#1437,#281);
#195=LINE('',#1440,#282);
#196=LINE('',#1442,#283);
#197=LINE('',#1443,#284);
#198=LINE('',#1451,#285);
#199=LINE('',#1455,#286);
#200=LINE('',#1459,#287);
#201=LINE('',#1463,#288);
#202=LINE('',#1470,#289);
#203=LINE('',#1478,#290);
#204=LINE('',#1482,#291);
#205=LINE('',#1484,#292);
#206=LINE('',#1486,#293);
#207=LINE('',#1487,#294);
#208=LINE('',#1493,#295);
#209=LINE('',#1496,#296);
#210=LINE('',#1498,#297);
#211=LINE('',#1499,#298);
#212=LINE('',#1505,#299);
#213=LINE('',#1508,#300);
#214=LINE('',#1510,#301);
#215=LINE('',#1511,#302);
#216=LINE('',#1517,#303);
#217=LINE('',#1520,#304);
#218=LINE('',#1522,#305);
#219=LINE('',#1523,#306);
#220=LINE('',#1529,#307);
#221=LINE('',#1531,#308);
#222=LINE('',#1532,#309);
#223=LINE('',#1540,#310);
#224=LINE('',#1543,#311);
#225=LINE('',#1546,#312);
#226=LINE('',#1548,#313);
#227=LINE('',#1549,#314);
#228=LINE('',#1555,#315);
#229=LINE('',#1558,#316);
#230=LINE('',#1560,#317);
#231=LINE('',#1561,#318);
#232=LINE('',#1567,#319);
#233=LINE('',#1570,#320);
#234=LINE('',#1572,#321);
#235=LINE('',#1573,#322);
#236=LINE('',#1579,#323);
#237=LINE('',#1581,#324);
#238=LINE('',#1582,#325);
#239=LINE('',#1586,#326);
#240=LINE('',#1590,#327);
#241=LINE('',#1593,#328);
#242=LINE('',#1596,#329);
#243=LINE('',#1599,#330);
#244=LINE('',#1600,#331);
#245=LINE('',#1604,#332);
#246=LINE('',#1607,#333);
#247=LINE('',#1608,#334);
#248=LINE('',#1612,#335);
#249=LINE('',#1615,#336);
#250=LINE('',#1616,#337);
#251=LINE('',#1620,#338);
#252=LINE('',#1622,#339);
#253=VECTOR('',#1073,0.393700787401575);
#254=VECTOR('',#1076,0.393700787401575);
#255=VECTOR('',#1079,0.393700787401575);
#256=VECTOR('',#1080,0.393700787401575);
#257=VECTOR('',#1081,0.393700787401575);
#258=VECTOR('',#1086,0.393700787401575);
#259=VECTOR('',#1091,0.393700787401575);
#260=VECTOR('',#1092,0.393700787401575);
#261=VECTOR('',#1093,0.393700787401575);
#262=VECTOR('',#1098,0.393700787401575);
#263=VECTOR('',#1101,0.393700787401575);
#264=VECTOR('',#1104,0.393700787401575);
#265=VECTOR('',#1105,0.393700787401575);
#266=VECTOR('',#1106,0.393700787401575);
#267=VECTOR('',#1111,0.393700787401575);
#268=VECTOR('',#1116,0.393700787401575);
#269=VECTOR('',#1117,0.393700787401575);
#270=VECTOR('',#1118,0.393700787401575);
#271=VECTOR('',#1121,0.393700787401575);
#272=VECTOR('',#1122,0.393700787401575);
#273=VECTOR('',#1123,0.393700787401575);
#274=VECTOR('',#1130,0.393700787401575);
#275=VECTOR('',#1133,0.393700787401575);
#276=VECTOR('',#1134,0.393700787401575);
#277=VECTOR('',#1135,0.393700787401575);
#278=VECTOR('',#1144,0.393700787401575);
#279=VECTOR('',#1145,0.393700787401575);
#280=VECTOR('',#1146,0.393700787401575);
#281=VECTOR('',#1153,0.393700787401575);
#282=VECTOR('',#1156,0.393700787401575);
#283=VECTOR('',#1157,0.393700787401575);
#284=VECTOR('',#1158,0.393700787401575);
#285=VECTOR('',#1169,0.393700787401575);
#286=VECTOR('',#1172,0.393700787401575);
#287=VECTOR('',#1175,0.393700787401575);
#288=VECTOR('',#1178,0.393700787401575);
#289=VECTOR('',#1185,0.393700787401575);
#290=VECTOR('',#1194,0.085);
#291=VECTOR('',#1197,0.393700787401575);
#292=VECTOR('',#1198,0.393700787401575);
#293=VECTOR('',#1199,0.393700787401575);
#294=VECTOR('',#1200,0.393700787401575);
#295=VECTOR('',#1207,0.393700787401575);
#296=VECTOR('',#1210,0.393700787401575);
#297=VECTOR('',#1211,0.393700787401575);
#298=VECTOR('',#1212,0.393700787401575);
#299=VECTOR('',#1219,0.393700787401575);
#300=VECTOR('',#1222,0.393700787401575);
#301=VECTOR('',#1223,0.393700787401575);
#302=VECTOR('',#1224,0.393700787401575);
#303=VECTOR('',#1231,0.393700787401575);
#304=VECTOR('',#1234,0.393700787401575);
#305=VECTOR('',#1235,0.393700787401575);
#306=VECTOR('',#1236,0.393700787401575);
#307=VECTOR('',#1245,0.393700787401575);
#308=VECTOR('',#1246,0.393700787401575);
#309=VECTOR('',#1247,0.393700787401575);
#310=VECTOR('',#1256,0.393700787401575);
#311=VECTOR('',#1259,0.393700787401575);
#312=VECTOR('',#1262,0.393700787401575);
#313=VECTOR('',#1263,0.393700787401575);
#314=VECTOR('',#1264,0.393700787401575);
#315=VECTOR('',#1271,0.393700787401575);
#316=VECTOR('',#1274,0.393700787401575);
#317=VECTOR('',#1275,0.393700787401575);
#318=VECTOR('',#1276,0.393700787401575);
#319=VECTOR('',#1283,0.393700787401575);
#320=VECTOR('',#1286,0.393700787401575);
#321=VECTOR('',#1287,0.393700787401575);
#322=VECTOR('',#1288,0.393700787401575);
#323=VECTOR('',#1295,0.393700787401575);
#324=VECTOR('',#1298,0.393700787401575);
#325=VECTOR('',#1299,0.393700787401575);
#326=VECTOR('',#1304,0.085);
#327=VECTOR('',#1309,0.0849999999999998);
#328=VECTOR('',#1312,0.393700787401575);
#329=VECTOR('',#1315,0.393700787401575);
#330=VECTOR('',#1318,0.393700787401575);
#331=VECTOR('',#1319,0.393700787401575);
#332=VECTOR('',#1324,0.393700787401575);
#333=VECTOR('',#1327,0.393700787401575);
#334=VECTOR('',#1328,0.393700787401575);
#335=VECTOR('',#1333,0.393700787401575);
#336=VECTOR('',#1336,0.393700787401575);
#337=VECTOR('',#1337,0.393700787401575);
#338=VECTOR('',#1342,0.393700787401575);
#339=VECTOR('',#1345,0.393700787401575);
#340=CIRCLE('',#971,0.0708333333333325);
#341=CIRCLE('',#972,0.0708333333333325);
#342=CIRCLE('',#975,0.0708333333333335);
#343=CIRCLE('',#976,0.0708333333333335);
#344=CIRCLE('',#979,0.133333333333333);
#345=CIRCLE('',#980,0.133333333333333);
#346=CIRCLE('',#983,0.133333333333333);
#347=CIRCLE('',#984,0.133333333333333);
#348=CIRCLE('',#988,0.0708333333333332);
#349=CIRCLE('',#989,0.0708333333333332);
#350=CIRCLE('',#992,0.070833333333333);
#351=CIRCLE('',#993,0.070833333333333);
#352=CIRCLE('',#996,0.133333333333333);
#353=CIRCLE('',#997,0.133333333333333);
#354=CIRCLE('',#1000,0.133333333333334);
#355=CIRCLE('',#1001,0.133333333333334);
#356=CIRCLE('',#1004,0.1);
#357=CIRCLE('',#1005,0.0999999999999998);
#358=CIRCLE('',#1006,0.0999999999999998);
#359=CIRCLE('',#1007,0.0999999999999999);
#360=CIRCLE('',#1008,0.085);
#361=CIRCLE('',#1009,0.085);
#362=CIRCLE('',#1010,0.085);
#363=CIRCLE('',#1011,0.0849999999999998);
#364=CIRCLE('',#1013,0.085);
#365=CIRCLE('',#1016,0.0500000000000001);
#366=CIRCLE('',#1017,0.0500000000000001);
#367=CIRCLE('',#1020,0.0500000000000001);
#368=CIRCLE('',#1021,0.0500000000000001);
#369=CIRCLE('',#1024,0.0499999999999996);
#370=CIRCLE('',#1025,0.0499999999999996);
#371=CIRCLE('',#1028,0.0499999999999996);
#372=CIRCLE('',#1029,0.0499999999999996);
#373=CIRCLE('',#1032,0.085);
#374=CIRCLE('',#1034,0.0499999999999999);
#375=CIRCLE('',#1035,0.0499999999999999);
#376=CIRCLE('',#1038,0.0500000000000001);
#377=CIRCLE('',#1039,0.0500000000000001);
#378=CIRCLE('',#1042,0.0499999999999992);
#379=CIRCLE('',#1043,0.0499999999999992);
#380=CIRCLE('',#1046,0.0499999999999989);
#381=CIRCLE('',#1047,0.0499999999999989);
#382=CIRCLE('',#1050,0.085);
#383=CIRCLE('',#1052,0.0849999999999998);
#384=CIRCLE('',#1054,0.1);
#385=CIRCLE('',#1057,0.0999999999999998);
#386=CIRCLE('',#1060,0.0999999999999998);
#387=CIRCLE('',#1063,0.0999999999999999);
#388=VERTEX_POINT('',#1352);
#389=VERTEX_POINT('',#1353);
#390=VERTEX_POINT('',#1355);
#391=VERTEX_POINT('',#1357);
#392=VERTEX_POINT('',#1361);
#393=VERTEX_POINT('',#1363);
#394=VERTEX_POINT('',#1367);
#395=VERTEX_POINT('',#1369);
#396=VERTEX_POINT('',#1373);
#397=VERTEX_POINT('',#1375);
#398=VERTEX_POINT('',#1379);
#399=VERTEX_POINT('',#1380);
#400=VERTEX_POINT('',#1382);
#401=VERTEX_POINT('',#1384);
#402=VERTEX_POINT('',#1388);
#403=VERTEX_POINT('',#1390);
#404=VERTEX_POINT('',#1394);
#405=VERTEX_POINT('',#1396);
#406=VERTEX_POINT('',#1400);
#407=VERTEX_POINT('',#1402);
#408=VERTEX_POINT('',#1406);
#409=VERTEX_POINT('',#1408);
#410=VERTEX_POINT('',#1412);
#411=VERTEX_POINT('',#1414);
#412=VERTEX_POINT('',#1418);
#413=VERTEX_POINT('',#1420);
#414=VERTEX_POINT('',#1427);
#415=VERTEX_POINT('',#1429);
#416=VERTEX_POINT('',#1433);
#417=VERTEX_POINT('',#1435);
#418=VERTEX_POINT('',#1439);
#419=VERTEX_POINT('',#1441);
#420=VERTEX_POINT('',#1449);
#421=VERTEX_POINT('',#1450);
#422=VERTEX_POINT('',#1452);
#423=VERTEX_POINT('',#1454);
#424=VERTEX_POINT('',#1456);
#425=VERTEX_POINT('',#1458);
#426=VERTEX_POINT('',#1460);
#427=VERTEX_POINT('',#1462);
#428=VERTEX_POINT('',#1465);
#429=VERTEX_POINT('',#1467);
#430=VERTEX_POINT('',#1468);
#431=VERTEX_POINT('',#1471);
#432=VERTEX_POINT('',#1473);
#433=VERTEX_POINT('',#1476);
#434=VERTEX_POINT('',#1480);
#435=VERTEX_POINT('',#1481);
#436=VERTEX_POINT('',#1483);
#437=VERTEX_POINT('',#1485);
#438=VERTEX_POINT('',#1489);
#439=VERTEX_POINT('',#1491);
#440=VERTEX_POINT('',#1495);
#441=VERTEX_POINT('',#1497);
#442=VERTEX_POINT('',#1501);
#443=VERTEX_POINT('',#1503);
#444=VERTEX_POINT('',#1507);
#445=VERTEX_POINT('',#1509);
#446=VERTEX_POINT('',#1513);
#447=VERTEX_POINT('',#1515);
#448=VERTEX_POINT('',#1519);
#449=VERTEX_POINT('',#1521);
#450=VERTEX_POINT('',#1528);
#451=VERTEX_POINT('',#1530);
#452=VERTEX_POINT('',#1536);
#453=VERTEX_POINT('',#1537);
#454=VERTEX_POINT('',#1539);
#455=VERTEX_POINT('',#1541);
#456=VERTEX_POINT('',#1545);
#457=VERTEX_POINT('',#1547);
#458=VERTEX_POINT('',#1551);
#459=VERTEX_POINT('',#1553);
#460=VERTEX_POINT('',#1557);
#461=VERTEX_POINT('',#1559);
#462=VERTEX_POINT('',#1563);
#463=VERTEX_POINT('',#1565);
#464=VERTEX_POINT('',#1569);
#465=VERTEX_POINT('',#1571);
#466=VERTEX_POINT('',#1575);
#467=VERTEX_POINT('',#1577);
#468=VERTEX_POINT('',#1584);
#469=VERTEX_POINT('',#1588);
#470=VERTEX_POINT('',#1592);
#471=VERTEX_POINT('',#1594);
#472=VERTEX_POINT('',#1598);
#473=VERTEX_POINT('',#1602);
#474=VERTEX_POINT('',#1606);
#475=VERTEX_POINT('',#1610);
#476=VERTEX_POINT('',#1614);
#477=VERTEX_POINT('',#1618);
#478=EDGE_CURVE('',#388,#389,#340,.T.);
#479=EDGE_CURVE('',#388,#390,#166,.T.);
#480=EDGE_CURVE('',#391,#390,#341,.T.);
#481=EDGE_CURVE('',#389,#391,#167,.T.);
#482=EDGE_CURVE('',#392,#388,#168,.T.);
#483=EDGE_CURVE('',#392,#393,#169,.T.);
#484=EDGE_CURVE('',#390,#393,#170,.T.);
#485=EDGE_CURVE('',#394,#392,#342,.T.);
#486=EDGE_CURVE('',#394,#395,#171,.T.);
#487=EDGE_CURVE('',#393,#395,#343,.T.);
#488=EDGE_CURVE('',#396,#394,#172,.T.);
#489=EDGE_CURVE('',#396,#397,#173,.T.);
#490=EDGE_CURVE('',#395,#397,#174,.T.);
#491=EDGE_CURVE('',#398,#399,#344,.T.);
#492=EDGE_CURVE('',#398,#400,#175,.T.);
#493=EDGE_CURVE('',#401,#400,#345,.T.);
#494=EDGE_CURVE('',#399,#401,#176,.T.);
#495=EDGE_CURVE('',#402,#398,#177,.T.);
#496=EDGE_CURVE('',#402,#403,#178,.T.);
#497=EDGE_CURVE('',#400,#403,#179,.T.);
#498=EDGE_CURVE('',#404,#402,#346,.T.);
#499=EDGE_CURVE('',#404,#405,#180,.T.);
#500=EDGE_CURVE('',#403,#405,#347,.T.);
#501=EDGE_CURVE('',#406,#404,#181,.T.);
#502=EDGE_CURVE('',#406,#407,#182,.T.);
#503=EDGE_CURVE('',#405,#407,#183,.T.);
#504=EDGE_CURVE('',#389,#408,#184,.T.);
#505=EDGE_CURVE('',#409,#391,#185,.T.);
#506=EDGE_CURVE('',#408,#409,#186,.T.);
#507=EDGE_CURVE('',#408,#410,#348,.T.);
#508=EDGE_CURVE('',#411,#409,#349,.T.);
#509=EDGE_CURVE('',#410,#411,#187,.T.);
#510=EDGE_CURVE('',#410,#412,#188,.T.);
#511=EDGE_CURVE('',#413,#411,#189,.T.);
#512=EDGE_CURVE('',#412,#413,#190,.T.);
#513=EDGE_CURVE('',#412,#396,#350,.T.);
#514=EDGE_CURVE('',#397,#413,#351,.T.);
#515=EDGE_CURVE('',#399,#414,#191,.T.);
#516=EDGE_CURVE('',#415,#401,#192,.T.);
#517=EDGE_CURVE('',#414,#415,#193,.T.);
#518=EDGE_CURVE('',#414,#416,#352,.T.);
#519=EDGE_CURVE('',#417,#415,#353,.T.);
#520=EDGE_CURVE('',#416,#417,#194,.T.);
#521=EDGE_CURVE('',#416,#418,#195,.T.);
#522=EDGE_CURVE('',#419,#417,#196,.T.);
#523=EDGE_CURVE('',#418,#419,#197,.T.);
#524=EDGE_CURVE('',#418,#406,#354,.T.);
#525=EDGE_CURVE('',#407,#419,#355,.T.);
#526=EDGE_CURVE('',#420,#421,#198,.T.);
#527=EDGE_CURVE('',#422,#420,#356,.T.);
#528=EDGE_CURVE('',#422,#423,#199,.T.);
#529=EDGE_CURVE('',#424,#423,#357,.T.);
#530=EDGE_CURVE('',#424,#425,#200,.T.);
#531=EDGE_CURVE('',#426,#425,#358,.T.);
#532=EDGE_CURVE('',#426,#427,#201,.T.);
#533=EDGE_CURVE('',#421,#427,#359,.T.);
#534=EDGE_CURVE('',#428,#428,#360,.T.);
#535=EDGE_CURVE('',#429,#430,#361,.T.);
#536=EDGE_CURVE('',#430,#429,#202,.T.);
#537=EDGE_CURVE('',#431,#431,#362,.T.);
#538=EDGE_CURVE('',#432,#432,#363,.T.);
#539=EDGE_CURVE('',#433,#433,#364,.T.);
#540=EDGE_CURVE('',#433,#428,#203,.T.);
#541=EDGE_CURVE('',#434,#435,#204,.T.);
#542=EDGE_CURVE('',#435,#436,#205,.T.);
#543=EDGE_CURVE('',#437,#436,#206,.T.);
#544=EDGE_CURVE('',#434,#437,#207,.T.);
#545=EDGE_CURVE('',#438,#434,#365,.T.);
#546=EDGE_CURVE('',#439,#437,#366,.T.);
#547=EDGE_CURVE('',#438,#439,#208,.T.);
#548=EDGE_CURVE('',#440,#438,#209,.T.);
#549=EDGE_CURVE('',#441,#439,#210,.T.);
#550=EDGE_CURVE('',#440,#441,#211,.T.);
#551=EDGE_CURVE('',#442,#440,#367,.T.);
#552=EDGE_CURVE('',#443,#441,#368,.T.);
#553=EDGE_CURVE('',#442,#443,#212,.T.);
#554=EDGE_CURVE('',#444,#442,#213,.T.);
#555=EDGE_CURVE('',#445,#443,#214,.T.);
#556=EDGE_CURVE('',#444,#445,#215,.T.);
#557=EDGE_CURVE('',#446,#444,#369,.T.);
#558=EDGE_CURVE('',#447,#445,#370,.T.);
#559=EDGE_CURVE('',#446,#447,#216,.T.);
#560=EDGE_CURVE('',#448,#446,#217,.T.);
#561=EDGE_CURVE('',#449,#447,#218,.T.);
#562=EDGE_CURVE('',#448,#449,#219,.T.);
#563=EDGE_CURVE('',#435,#448,#371,.T.);
#564=EDGE_CURVE('',#436,#449,#372,.T.);
#565=EDGE_CURVE('',#429,#450,#220,.T.);
#566=EDGE_CURVE('',#451,#450,#221,.T.);
#567=EDGE_CURVE('',#430,#451,#222,.T.);
#568=EDGE_CURVE('',#450,#451,#373,.T.);
#569=EDGE_CURVE('',#452,#453,#374,.T.);
#570=EDGE_CURVE('',#453,#454,#223,.T.);
#571=EDGE_CURVE('',#455,#454,#375,.T.);
#572=EDGE_CURVE('',#452,#455,#224,.T.);
#573=EDGE_CURVE('',#456,#452,#225,.T.);
#574=EDGE_CURVE('',#457,#455,#226,.T.);
#575=EDGE_CURVE('',#456,#457,#227,.T.);
#576=EDGE_CURVE('',#458,#456,#376,.T.);
#577=EDGE_CURVE('',#459,#457,#377,.T.);
#578=EDGE_CURVE('',#458,#459,#228,.T.);
#579=EDGE_CURVE('',#460,#458,#229,.T.);
#580=EDGE_CURVE('',#461,#459,#230,.T.);
#581=EDGE_CURVE('',#460,#461,#231,.T.);
#582=EDGE_CURVE('',#462,#460,#378,.T.);
#583=EDGE_CURVE('',#463,#461,#379,.T.);
#584=EDGE_CURVE('',#462,#463,#232,.T.);
#585=EDGE_CURVE('',#464,#462,#233,.T.);
#586=EDGE_CURVE('',#465,#463,#234,.T.);
#587=EDGE_CURVE('',#464,#465,#235,.T.);
#588=EDGE_CURVE('',#466,#464,#380,.T.);
#589=EDGE_CURVE('',#467,#465,#381,.T.);
#590=EDGE_CURVE('',#466,#467,#236,.T.);
#591=EDGE_CURVE('',#453,#466,#237,.T.);
#592=EDGE_CURVE('',#454,#467,#238,.T.);
#593=EDGE_CURVE('',#468,#468,#382,.T.);
#594=EDGE_CURVE('',#468,#431,#239,.T.);
#595=EDGE_CURVE('',#469,#469,#383,.T.);
#596=EDGE_CURVE('',#469,#432,#240,.T.);
#597=EDGE_CURVE('',#420,#470,#241,.T.);
#598=EDGE_CURVE('',#471,#470,#384,.T.);
#599=EDGE_CURVE('',#422,#471,#242,.T.);
#600=EDGE_CURVE('',#472,#471,#243,.T.);
#601=EDGE_CURVE('',#423,#472,#244,.T.);
#602=EDGE_CURVE('',#473,#472,#385,.T.);
#603=EDGE_CURVE('',#424,#473,#245,.T.);
#604=EDGE_CURVE('',#474,#473,#246,.T.);
#605=EDGE_CURVE('',#425,#474,#247,.T.);
#606=EDGE_CURVE('',#475,#474,#386,.T.);
#607=EDGE_CURVE('',#426,#475,#248,.T.);
#608=EDGE_CURVE('',#476,#475,#249,.T.);
#609=EDGE_CURVE('',#427,#476,#250,.T.);
#610=EDGE_CURVE('',#477,#476,#387,.T.);
#611=EDGE_CURVE('',#421,#477,#251,.T.);
#612=EDGE_CURVE('',#470,#477,#252,.T.);
#613=ORIENTED_EDGE('',*,*,#478,.F.);
#614=ORIENTED_EDGE('',*,*,#479,.T.);
#615=ORIENTED_EDGE('',*,*,#480,.F.);
#616=ORIENTED_EDGE('',*,*,#481,.F.);
#617=ORIENTED_EDGE('',*,*,#482,.F.);
#618=ORIENTED_EDGE('',*,*,#483,.T.);
#619=ORIENTED_EDGE('',*,*,#484,.F.);
#620=ORIENTED_EDGE('',*,*,#479,.F.);
#621=ORIENTED_EDGE('',*,*,#485,.F.);
#622=ORIENTED_EDGE('',*,*,#486,.T.);
#623=ORIENTED_EDGE('',*,*,#487,.F.);
#624=ORIENTED_EDGE('',*,*,#483,.F.);
#625=ORIENTED_EDGE('',*,*,#488,.F.);
#626=ORIENTED_EDGE('',*,*,#489,.T.);
#627=ORIENTED_EDGE('',*,*,#490,.F.);
#628=ORIENTED_EDGE('',*,*,#486,.F.);
#629=ORIENTED_EDGE('',*,*,#491,.F.);
#630=ORIENTED_EDGE('',*,*,#492,.T.);
#631=ORIENTED_EDGE('',*,*,#493,.F.);
#632=ORIENTED_EDGE('',*,*,#494,.F.);
#633=ORIENTED_EDGE('',*,*,#495,.F.);
#634=ORIENTED_EDGE('',*,*,#496,.T.);
#635=ORIENTED_EDGE('',*,*,#497,.F.);
#636=ORIENTED_EDGE('',*,*,#492,.F.);
#637=ORIENTED_EDGE('',*,*,#498,.F.);
#638=ORIENTED_EDGE('',*,*,#499,.T.);
#639=ORIENTED_EDGE('',*,*,#500,.F.);
#640=ORIENTED_EDGE('',*,*,#496,.F.);
#641=ORIENTED_EDGE('',*,*,#501,.F.);
#642=ORIENTED_EDGE('',*,*,#502,.T.);
#643=ORIENTED_EDGE('',*,*,#503,.F.);
#644=ORIENTED_EDGE('',*,*,#499,.F.);
#645=ORIENTED_EDGE('',*,*,#504,.F.);
#646=ORIENTED_EDGE('',*,*,#481,.T.);
#647=ORIENTED_EDGE('',*,*,#505,.F.);
#648=ORIENTED_EDGE('',*,*,#506,.F.);
#649=ORIENTED_EDGE('',*,*,#507,.F.);
#650=ORIENTED_EDGE('',*,*,#506,.T.);
#651=ORIENTED_EDGE('',*,*,#508,.F.);
#652=ORIENTED_EDGE('',*,*,#509,.F.);
#653=ORIENTED_EDGE('',*,*,#510,.F.);
#654=ORIENTED_EDGE('',*,*,#509,.T.);
#655=ORIENTED_EDGE('',*,*,#511,.F.);
#656=ORIENTED_EDGE('',*,*,#512,.F.);
#657=ORIENTED_EDGE('',*,*,#513,.F.);
#658=ORIENTED_EDGE('',*,*,#512,.T.);
#659=ORIENTED_EDGE('',*,*,#514,.F.);
#660=ORIENTED_EDGE('',*,*,#489,.F.);
#661=ORIENTED_EDGE('',*,*,#515,.F.);
#662=ORIENTED_EDGE('',*,*,#494,.T.);
#663=ORIENTED_EDGE('',*,*,#516,.F.);
#664=ORIENTED_EDGE('',*,*,#517,.F.);
#665=ORIENTED_EDGE('',*,*,#518,.F.);
#666=ORIENTED_EDGE('',*,*,#517,.T.);
#667=ORIENTED_EDGE('',*,*,#519,.F.);
#668=ORIENTED_EDGE('',*,*,#520,.F.);
#669=ORIENTED_EDGE('',*,*,#521,.F.);
#670=ORIENTED_EDGE('',*,*,#520,.T.);
#671=ORIENTED_EDGE('',*,*,#522,.F.);
#672=ORIENTED_EDGE('',*,*,#523,.F.);
#673=ORIENTED_EDGE('',*,*,#524,.F.);
#674=ORIENTED_EDGE('',*,*,#523,.T.);
#675=ORIENTED_EDGE('',*,*,#525,.F.);
#676=ORIENTED_EDGE('',*,*,#502,.F.);
#677=ORIENTED_EDGE('',*,*,#525,.T.);
#678=ORIENTED_EDGE('',*,*,#522,.T.);
#679=ORIENTED_EDGE('',*,*,#519,.T.);
#680=ORIENTED_EDGE('',*,*,#516,.T.);
#681=ORIENTED_EDGE('',*,*,#493,.T.);
#682=ORIENTED_EDGE('',*,*,#497,.T.);
#683=ORIENTED_EDGE('',*,*,#500,.T.);
#684=ORIENTED_EDGE('',*,*,#503,.T.);
#685=ORIENTED_EDGE('',*,*,#514,.T.);
#686=ORIENTED_EDGE('',*,*,#511,.T.);
#687=ORIENTED_EDGE('',*,*,#508,.T.);
#688=ORIENTED_EDGE('',*,*,#505,.T.);
#689=ORIENTED_EDGE('',*,*,#480,.T.);
#690=ORIENTED_EDGE('',*,*,#484,.T.);
#691=ORIENTED_EDGE('',*,*,#487,.T.);
#692=ORIENTED_EDGE('',*,*,#490,.T.);
#693=ORIENTED_EDGE('',*,*,#526,.F.);
#694=ORIENTED_EDGE('',*,*,#527,.F.);
#695=ORIENTED_EDGE('',*,*,#528,.T.);
#696=ORIENTED_EDGE('',*,*,#529,.F.);
#697=ORIENTED_EDGE('',*,*,#530,.T.);
#698=ORIENTED_EDGE('',*,*,#531,.F.);
#699=ORIENTED_EDGE('',*,*,#532,.T.);
#700=ORIENTED_EDGE('',*,*,#533,.F.);
#701=ORIENTED_EDGE('',*,*,#534,.F.);
#702=ORIENTED_EDGE('',*,*,#535,.F.);
#703=ORIENTED_EDGE('',*,*,#536,.F.);
#704=ORIENTED_EDGE('',*,*,#537,.F.);
#705=ORIENTED_EDGE('',*,*,#538,.F.);
#706=ORIENTED_EDGE('',*,*,#501,.T.);
#707=ORIENTED_EDGE('',*,*,#498,.T.);
#708=ORIENTED_EDGE('',*,*,#495,.T.);
#709=ORIENTED_EDGE('',*,*,#491,.T.);
#710=ORIENTED_EDGE('',*,*,#515,.T.);
#711=ORIENTED_EDGE('',*,*,#518,.T.);
#712=ORIENTED_EDGE('',*,*,#521,.T.);
#713=ORIENTED_EDGE('',*,*,#524,.T.);
#714=ORIENTED_EDGE('',*,*,#539,.F.);
#715=ORIENTED_EDGE('',*,*,#540,.T.);
#716=ORIENTED_EDGE('',*,*,#534,.T.);
#717=ORIENTED_EDGE('',*,*,#540,.F.);
#718=ORIENTED_EDGE('',*,*,#541,.T.);
#719=ORIENTED_EDGE('',*,*,#542,.T.);
#720=ORIENTED_EDGE('',*,*,#543,.F.);
#721=ORIENTED_EDGE('',*,*,#544,.F.);
#722=ORIENTED_EDGE('',*,*,#545,.T.);
#723=ORIENTED_EDGE('',*,*,#544,.T.);
#724=ORIENTED_EDGE('',*,*,#546,.F.);
#725=ORIENTED_EDGE('',*,*,#547,.F.);
#726=ORIENTED_EDGE('',*,*,#548,.T.);
#727=ORIENTED_EDGE('',*,*,#547,.T.);
#728=ORIENTED_EDGE('',*,*,#549,.F.);
#729=ORIENTED_EDGE('',*,*,#550,.F.);
#730=ORIENTED_EDGE('',*,*,#551,.T.);
#731=ORIENTED_EDGE('',*,*,#550,.T.);
#732=ORIENTED_EDGE('',*,*,#552,.F.);
#733=ORIENTED_EDGE('',*,*,#553,.F.);
#734=ORIENTED_EDGE('',*,*,#554,.T.);
#735=ORIENTED_EDGE('',*,*,#553,.T.);
#736=ORIENTED_EDGE('',*,*,#555,.F.);
#737=ORIENTED_EDGE('',*,*,#556,.F.);
#738=ORIENTED_EDGE('',*,*,#557,.T.);
#739=ORIENTED_EDGE('',*,*,#556,.T.);
#740=ORIENTED_EDGE('',*,*,#558,.F.);
#741=ORIENTED_EDGE('',*,*,#559,.F.);
#742=ORIENTED_EDGE('',*,*,#560,.T.);
#743=ORIENTED_EDGE('',*,*,#559,.T.);
#744=ORIENTED_EDGE('',*,*,#561,.F.);
#745=ORIENTED_EDGE('',*,*,#562,.F.);
#746=ORIENTED_EDGE('',*,*,#563,.T.);
#747=ORIENTED_EDGE('',*,*,#562,.T.);
#748=ORIENTED_EDGE('',*,*,#564,.F.);
#749=ORIENTED_EDGE('',*,*,#542,.F.);
#750=ORIENTED_EDGE('',*,*,#536,.T.);
#751=ORIENTED_EDGE('',*,*,#565,.T.);
#752=ORIENTED_EDGE('',*,*,#566,.F.);
#753=ORIENTED_EDGE('',*,*,#567,.F.);
#754=ORIENTED_EDGE('',*,*,#535,.T.);
#755=ORIENTED_EDGE('',*,*,#567,.T.);
#756=ORIENTED_EDGE('',*,*,#568,.F.);
#757=ORIENTED_EDGE('',*,*,#565,.F.);
#758=ORIENTED_EDGE('',*,*,#569,.T.);
#759=ORIENTED_EDGE('',*,*,#570,.T.);
#760=ORIENTED_EDGE('',*,*,#571,.F.);
#761=ORIENTED_EDGE('',*,*,#572,.F.);
#762=ORIENTED_EDGE('',*,*,#573,.T.);
#763=ORIENTED_EDGE('',*,*,#572,.T.);
#764=ORIENTED_EDGE('',*,*,#574,.F.);
#765=ORIENTED_EDGE('',*,*,#575,.F.);
#766=ORIENTED_EDGE('',*,*,#576,.T.);
#767=ORIENTED_EDGE('',*,*,#575,.T.);
#768=ORIENTED_EDGE('',*,*,#577,.F.);
#769=ORIENTED_EDGE('',*,*,#578,.F.);
#770=ORIENTED_EDGE('',*,*,#579,.T.);
#771=ORIENTED_EDGE('',*,*,#578,.T.);
#772=ORIENTED_EDGE('',*,*,#580,.F.);
#773=ORIENTED_EDGE('',*,*,#581,.F.);
#774=ORIENTED_EDGE('',*,*,#582,.T.);
#775=ORIENTED_EDGE('',*,*,#581,.T.);
#776=ORIENTED_EDGE('',*,*,#583,.F.);
#777=ORIENTED_EDGE('',*,*,#584,.F.);
#778=ORIENTED_EDGE('',*,*,#585,.T.);
#779=ORIENTED_EDGE('',*,*,#584,.T.);
#780=ORIENTED_EDGE('',*,*,#586,.F.);
#781=ORIENTED_EDGE('',*,*,#587,.F.);
#782=ORIENTED_EDGE('',*,*,#588,.T.);
#783=ORIENTED_EDGE('',*,*,#587,.T.);
#784=ORIENTED_EDGE('',*,*,#589,.F.);
#785=ORIENTED_EDGE('',*,*,#590,.F.);
#786=ORIENTED_EDGE('',*,*,#591,.T.);
#787=ORIENTED_EDGE('',*,*,#590,.T.);
#788=ORIENTED_EDGE('',*,*,#592,.F.);
#789=ORIENTED_EDGE('',*,*,#570,.F.);
#790=ORIENTED_EDGE('',*,*,#593,.F.);
#791=ORIENTED_EDGE('',*,*,#594,.T.);
#792=ORIENTED_EDGE('',*,*,#537,.T.);
#793=ORIENTED_EDGE('',*,*,#594,.F.);
#794=ORIENTED_EDGE('',*,*,#595,.F.);
#795=ORIENTED_EDGE('',*,*,#596,.T.);
#796=ORIENTED_EDGE('',*,*,#538,.T.);
#797=ORIENTED_EDGE('',*,*,#596,.F.);
#798=ORIENTED_EDGE('',*,*,#527,.T.);
#799=ORIENTED_EDGE('',*,*,#597,.T.);
#800=ORIENTED_EDGE('',*,*,#598,.F.);
#801=ORIENTED_EDGE('',*,*,#599,.F.);
#802=ORIENTED_EDGE('',*,*,#528,.F.);
#803=ORIENTED_EDGE('',*,*,#599,.T.);
#804=ORIENTED_EDGE('',*,*,#600,.F.);
#805=ORIENTED_EDGE('',*,*,#601,.F.);
#806=ORIENTED_EDGE('',*,*,#529,.T.);
#807=ORIENTED_EDGE('',*,*,#601,.T.);
#808=ORIENTED_EDGE('',*,*,#602,.F.);
#809=ORIENTED_EDGE('',*,*,#603,.F.);
#810=ORIENTED_EDGE('',*,*,#530,.F.);
#811=ORIENTED_EDGE('',*,*,#603,.T.);
#812=ORIENTED_EDGE('',*,*,#604,.F.);
#813=ORIENTED_EDGE('',*,*,#605,.F.);
#814=ORIENTED_EDGE('',*,*,#531,.T.);
#815=ORIENTED_EDGE('',*,*,#605,.T.);
#816=ORIENTED_EDGE('',*,*,#606,.F.);
#817=ORIENTED_EDGE('',*,*,#607,.F.);
#818=ORIENTED_EDGE('',*,*,#532,.F.);
#819=ORIENTED_EDGE('',*,*,#607,.T.);
#820=ORIENTED_EDGE('',*,*,#608,.F.);
#821=ORIENTED_EDGE('',*,*,#609,.F.);
#822=ORIENTED_EDGE('',*,*,#533,.T.);
#823=ORIENTED_EDGE('',*,*,#609,.T.);
#824=ORIENTED_EDGE('',*,*,#610,.F.);
#825=ORIENTED_EDGE('',*,*,#611,.F.);
#826=ORIENTED_EDGE('',*,*,#526,.T.);
#827=ORIENTED_EDGE('',*,*,#611,.T.);
#828=ORIENTED_EDGE('',*,*,#612,.F.);
#829=ORIENTED_EDGE('',*,*,#597,.F.);
#830=ORIENTED_EDGE('',*,*,#612,.T.);
#831=ORIENTED_EDGE('',*,*,#610,.T.);
#832=ORIENTED_EDGE('',*,*,#608,.T.);
#833=ORIENTED_EDGE('',*,*,#606,.T.);
#834=ORIENTED_EDGE('',*,*,#604,.T.);
#835=ORIENTED_EDGE('',*,*,#602,.T.);
#836=ORIENTED_EDGE('',*,*,#600,.T.);
#837=ORIENTED_EDGE('',*,*,#598,.T.);
#838=ORIENTED_EDGE('',*,*,#595,.T.);
#839=ORIENTED_EDGE('',*,*,#593,.T.);
#840=ORIENTED_EDGE('',*,*,#568,.T.);
#841=ORIENTED_EDGE('',*,*,#566,.T.);
#842=ORIENTED_EDGE('',*,*,#539,.T.);
#843=ORIENTED_EDGE('',*,*,#592,.T.);
#844=ORIENTED_EDGE('',*,*,#589,.T.);
#845=ORIENTED_EDGE('',*,*,#586,.T.);
#846=ORIENTED_EDGE('',*,*,#583,.T.);
#847=ORIENTED_EDGE('',*,*,#580,.T.);
#848=ORIENTED_EDGE('',*,*,#577,.T.);
#849=ORIENTED_EDGE('',*,*,#574,.T.);
#850=ORIENTED_EDGE('',*,*,#571,.T.);
#851=ORIENTED_EDGE('',*,*,#564,.T.);
#852=ORIENTED_EDGE('',*,*,#561,.T.);
#853=ORIENTED_EDGE('',*,*,#558,.T.);
#854=ORIENTED_EDGE('',*,*,#555,.T.);
#855=ORIENTED_EDGE('',*,*,#552,.T.);
#856=ORIENTED_EDGE('',*,*,#549,.T.);
#857=ORIENTED_EDGE('',*,*,#546,.T.);
#858=ORIENTED_EDGE('',*,*,#543,.T.);
#859=ORIENTED_EDGE('',*,*,#488,.T.);
#860=ORIENTED_EDGE('',*,*,#485,.T.);
#861=ORIENTED_EDGE('',*,*,#482,.T.);
#862=ORIENTED_EDGE('',*,*,#478,.T.);
#863=ORIENTED_EDGE('',*,*,#504,.T.);
#864=ORIENTED_EDGE('',*,*,#507,.T.);
#865=ORIENTED_EDGE('',*,*,#510,.T.);
#866=ORIENTED_EDGE('',*,*,#513,.T.);
#867=ORIENTED_EDGE('',*,*,#591,.F.);
#868=ORIENTED_EDGE('',*,*,#569,.F.);
#869=ORIENTED_EDGE('',*,*,#573,.F.);
#870=ORIENTED_EDGE('',*,*,#576,.F.);
#871=ORIENTED_EDGE('',*,*,#579,.F.);
#872=ORIENTED_EDGE('',*,*,#582,.F.);
#873=ORIENTED_EDGE('',*,*,#585,.F.);
#874=ORIENTED_EDGE('',*,*,#588,.F.);
#875=ORIENTED_EDGE('',*,*,#563,.F.);
#876=ORIENTED_EDGE('',*,*,#541,.F.);
#877=ORIENTED_EDGE('',*,*,#545,.F.);
#878=ORIENTED_EDGE('',*,*,#548,.F.);
#879=ORIENTED_EDGE('',*,*,#551,.F.);
#880=ORIENTED_EDGE('',*,*,#554,.F.);
#881=ORIENTED_EDGE('',*,*,#557,.F.);
#882=ORIENTED_EDGE('',*,*,#560,.F.);
#883=CYLINDRICAL_SURFACE('',#970,0.0708333333333325);
#884=CYLINDRICAL_SURFACE('',#974,0.0708333333333335);
#885=CYLINDRICAL_SURFACE('',#978,0.133333333333333);
#886=CYLINDRICAL_SURFACE('',#982,0.133333333333333);
#887=CYLINDRICAL_SURFACE('',#987,0.0708333333333332);
#888=CYLINDRICAL_SURFACE('',#991,0.070833333333333);
#889=CYLINDRICAL_SURFACE('',#995,0.133333333333333);
#890=CYLINDRICAL_SURFACE('',#999,0.133333333333334);
#891=CYLINDRICAL_SURFACE('',#1012,0.085);
#892=CYLINDRICAL_SURFACE('',#1015,0.0500000000000001);
#893=CYLINDRICAL_SURFACE('',#1019,0.0500000000000001);
#894=CYLINDRICAL_SURFACE('',#1023,0.0499999999999996);
#895=CYLINDRICAL_SURFACE('',#1027,0.0499999999999996);
#896=CYLINDRICAL_SURFACE('',#1031,0.085);
#897=CYLINDRICAL_SURFACE('',#1033,0.0499999999999999);
#898=CYLINDRICAL_SURFACE('',#1037,0.0500000000000001);
#899=CYLINDRICAL_SURFACE('',#1041,0.0499999999999992);
#900=CYLINDRICAL_SURFACE('',#1045,0.0499999999999989);
#901=CYLINDRICAL_SURFACE('',#1049,0.085);
#902=CYLINDRICAL_SURFACE('',#1051,0.0849999999999998);
#903=CYLINDRICAL_SURFACE('',#1053,0.1);
#904=CYLINDRICAL_SURFACE('',#1056,0.0999999999999998);
#905=CYLINDRICAL_SURFACE('',#1059,0.0999999999999998);
#906=CYLINDRICAL_SURFACE('',#1062,0.0999999999999999);
#907=ADVANCED_FACE('',(#54),#883,.F.);
#908=ADVANCED_FACE('',(#55),#29,.T.);
#909=ADVANCED_FACE('',(#56),#884,.F.);
#910=ADVANCED_FACE('',(#57),#30,.T.);
#911=ADVANCED_FACE('',(#58),#885,.T.);
#912=ADVANCED_FACE('',(#59),#31,.T.);
#913=ADVANCED_FACE('',(#60),#886,.T.);
#914=ADVANCED_FACE('',(#61),#32,.T.);
#915=ADVANCED_FACE('',(#62),#33,.T.);
#916=ADVANCED_FACE('',(#63),#887,.F.);
#917=ADVANCED_FACE('',(#64),#34,.T.);
#918=ADVANCED_FACE('',(#65),#888,.F.);
#919=ADVANCED_FACE('',(#66),#35,.T.);
#920=ADVANCED_FACE('',(#67),#889,.T.);
#921=ADVANCED_FACE('',(#68),#36,.T.);
#922=ADVANCED_FACE('',(#69),#890,.T.);
#923=ADVANCED_FACE('',(#70,#15),#37,.F.);
#924=ADVANCED_FACE('',(#71,#16,#17,#18,#19,#20),#38,.F.);
#925=ADVANCED_FACE('',(#72),#891,.F.);
#926=ADVANCED_FACE('',(#73),#39,.T.);
#927=ADVANCED_FACE('',(#74),#892,.F.);
#928=ADVANCED_FACE('',(#75),#40,.T.);
#929=ADVANCED_FACE('',(#76),#893,.F.);
#930=ADVANCED_FACE('',(#77),#41,.T.);
#931=ADVANCED_FACE('',(#78),#894,.F.);
#932=ADVANCED_FACE('',(#79),#42,.T.);
#933=ADVANCED_FACE('',(#80),#895,.F.);
#934=ADVANCED_FACE('',(#81),#43,.T.);
#935=ADVANCED_FACE('',(#82),#896,.F.);
#936=ADVANCED_FACE('',(#83),#897,.F.);
#937=ADVANCED_FACE('',(#84),#44,.T.);
#938=ADVANCED_FACE('',(#85),#898,.F.);
#939=ADVANCED_FACE('',(#86),#45,.T.);
#940=ADVANCED_FACE('',(#87),#899,.F.);
#941=ADVANCED_FACE('',(#88),#46,.T.);
#942=ADVANCED_FACE('',(#89),#900,.F.);
#943=ADVANCED_FACE('',(#90),#47,.T.);
#944=ADVANCED_FACE('',(#91),#901,.F.);
#945=ADVANCED_FACE('',(#92),#902,.F.);
#946=ADVANCED_FACE('',(#93),#903,.T.);
#947=ADVANCED_FACE('',(#94),#48,.T.);
#948=ADVANCED_FACE('',(#95),#904,.T.);
#949=ADVANCED_FACE('',(#96),#49,.T.);
#950=ADVANCED_FACE('',(#97),#905,.T.);
#951=ADVANCED_FACE('',(#98),#50,.T.);
#952=ADVANCED_FACE('',(#99),#906,.T.);
#953=ADVANCED_FACE('',(#100),#51,.T.);
#954=ADVANCED_FACE('',(#101,#21,#22,#23,#24,#25,#26),#52,.T.);
#955=ADVANCED_FACE('',(#102,#27,#28),#53,.F.);
#956=CLOSED_SHELL('',(#907,#908,#909,#910,#911,#912,#913,#914,#915,#916,
#917,#918,#919,#920,#921,#922,#923,#924,#925,#926,#927,#928,#929,#930,#931,
#932,#933,#934,#935,#936,#937,#938,#939,#940,#941,#942,#943,#944,#945,#946,
#947,#948,#949,#950,#951,#952,#953,#954,#955));
#957=DERIVED_UNIT_ELEMENT(#959,1.);
#958=DERIVED_UNIT_ELEMENT(#1632,-3.);
#959=(
MASS_UNIT()
NAMED_UNIT(*)
SI_UNIT(.KILO.,.GRAM.)
);
#960=DERIVED_UNIT((#957,#958));
#961=MEASURE_REPRESENTATION_ITEM('density measure',
POSITIVE_RATIO_MEASURE(7850.),#960);
#962=PROPERTY_DEFINITION_REPRESENTATION(#967,#964);
#963=PROPERTY_DEFINITION_REPRESENTATION(#968,#965);
#964=REPRESENTATION('material name',(#966),#1627);
#965=REPRESENTATION('density',(#961),#1627);
#966=DESCRIPTIVE_REPRESENTATION_ITEM('Steel','Steel');
#967=PROPERTY_DEFINITION('material property','material name',#1640);
#968=PROPERTY_DEFINITION('material property','density of part',#1640);
#969=AXIS2_PLACEMENT_3D('',#1350,#1067,#1068);
#970=AXIS2_PLACEMENT_3D('',#1351,#1069,#1070);
#971=AXIS2_PLACEMENT_3D('',#1354,#1071,#1072);
#972=AXIS2_PLACEMENT_3D('',#1358,#1074,#1075);
#973=AXIS2_PLACEMENT_3D('',#1360,#1077,#1078);
#974=AXIS2_PLACEMENT_3D('',#1366,#1082,#1083);
#975=AXIS2_PLACEMENT_3D('',#1368,#1084,#1085);
#976=AXIS2_PLACEMENT_3D('',#1371,#1087,#1088);
#977=AXIS2_PLACEMENT_3D('',#1372,#1089,#1090);
#978=AXIS2_PLACEMENT_3D('',#1378,#1094,#1095);
#979=AXIS2_PLACEMENT_3D('',#1381,#1096,#1097);
#980=AXIS2_PLACEMENT_3D('',#1385,#1099,#1100);
#981=AXIS2_PLACEMENT_3D('',#1387,#1102,#1103);
#982=AXIS2_PLACEMENT_3D('',#1393,#1107,#1108);
#983=AXIS2_PLACEMENT_3D('',#1395,#1109,#1110);
#984=AXIS2_PLACEMENT_3D('',#1398,#1112,#1113);
#985=AXIS2_PLACEMENT_3D('',#1399,#1114,#1115);
#986=AXIS2_PLACEMENT_3D('',#1405,#1119,#1120);
#987=AXIS2_PLACEMENT_3D('',#1411,#1124,#1125);
#988=AXIS2_PLACEMENT_3D('',#1413,#1126,#1127);
#989=AXIS2_PLACEMENT_3D('',#1415,#1128,#1129);
#990=AXIS2_PLACEMENT_3D('',#1417,#1131,#1132);
#991=AXIS2_PLACEMENT_3D('',#1423,#1136,#1137);
#992=AXIS2_PLACEMENT_3D('',#1424,#1138,#1139);
#993=AXIS2_PLACEMENT_3D('',#1425,#1140,#1141);
#994=AXIS2_PLACEMENT_3D('',#1426,#1142,#1143);
#995=AXIS2_PLACEMENT_3D('',#1432,#1147,#1148);
#996=AXIS2_PLACEMENT_3D('',#1434,#1149,#1150);
#997=AXIS2_PLACEMENT_3D('',#1436,#1151,#1152);
#998=AXIS2_PLACEMENT_3D('',#1438,#1154,#1155);
#999=AXIS2_PLACEMENT_3D('',#1444,#1159,#1160);
#1000=AXIS2_PLACEMENT_3D('',#1445,#1161,#1162);
#1001=AXIS2_PLACEMENT_3D('',#1446,#1163,#1164);
#1002=AXIS2_PLACEMENT_3D('',#1447,#1165,#1166);
#1003=AXIS2_PLACEMENT_3D('',#1448,#1167,#1168);
#1004=AXIS2_PLACEMENT_3D('',#1453,#1170,#1171);
#1005=AXIS2_PLACEMENT_3D('',#1457,#1173,#1174);
#1006=AXIS2_PLACEMENT_3D('',#1461,#1176,#1177);
#1007=AXIS2_PLACEMENT_3D('',#1464,#1179,#1180);
#1008=AXIS2_PLACEMENT_3D('',#1466,#1181,#1182);
#1009=AXIS2_PLACEMENT_3D('',#1469,#1183,#1184);
#1010=AXIS2_PLACEMENT_3D('',#1472,#1186,#1187);
#1011=AXIS2_PLACEMENT_3D('',#1474,#1188,#1189);
#1012=AXIS2_PLACEMENT_3D('',#1475,#1190,#1191);
#1013=AXIS2_PLACEMENT_3D('',#1477,#1192,#1193);
#1014=AXIS2_PLACEMENT_3D('',#1479,#1195,#1196);
#1015=AXIS2_PLACEMENT_3D('',#1488,#1201,#1202);
#1016=AXIS2_PLACEMENT_3D('',#1490,#1203,#1204);
#1017=AXIS2_PLACEMENT_3D('',#1492,#1205,#1206);
#1018=AXIS2_PLACEMENT_3D('',#1494,#1208,#1209);
#1019=AXIS2_PLACEMENT_3D('',#1500,#1213,#1214);
#1020=AXIS2_PLACEMENT_3D('',#1502,#1215,#1216);
#1021=AXIS2_PLACEMENT_3D('',#1504,#1217,#1218);
#1022=AXIS2_PLACEMENT_3D('',#1506,#1220,#1221);
#1023=AXIS2_PLACEMENT_3D('',#1512,#1225,#1226);
#1024=AXIS2_PLACEMENT_3D('',#1514,#1227,#1228);
#1025=AXIS2_PLACEMENT_3D('',#1516,#1229,#1230);
#1026=AXIS2_PLACEMENT_3D('',#1518,#1232,#1233);
#1027=AXIS2_PLACEMENT_3D('',#1524,#1237,#1238);
#1028=AXIS2_PLACEMENT_3D('',#1525,#1239,#1240);
#1029=AXIS2_PLACEMENT_3D('',#1526,#1241,#1242);
#1030=AXIS2_PLACEMENT_3D('',#1527,#1243,#1244);
#1031=AXIS2_PLACEMENT_3D('',#1533,#1248,#1249);
#1032=AXIS2_PLACEMENT_3D('',#1534,#1250,#1251);
#1033=AXIS2_PLACEMENT_3D('',#1535,#1252,#1253);
#1034=AXIS2_PLACEMENT_3D('',#1538,#1254,#1255);
#1035=AXIS2_PLACEMENT_3D('',#1542,#1257,#1258);
#1036=AXIS2_PLACEMENT_3D('',#1544,#1260,#1261);
#1037=AXIS2_PLACEMENT_3D('',#1550,#1265,#1266);
#1038=AXIS2_PLACEMENT_3D('',#1552,#1267,#1268);
#1039=AXIS2_PLACEMENT_3D('',#1554,#1269,#1270);
#1040=AXIS2_PLACEMENT_3D('',#1556,#1272,#1273);
#1041=AXIS2_PLACEMENT_3D('',#1562,#1277,#1278);
#1042=AXIS2_PLACEMENT_3D('',#1564,#1279,#1280);
#1043=AXIS2_PLACEMENT_3D('',#1566,#1281,#1282);
#1044=AXIS2_PLACEMENT_3D('',#1568,#1284,#1285);
#1045=AXIS2_PLACEMENT_3D('',#1574,#1289,#1290);
#1046=AXIS2_PLACEMENT_3D('',#1576,#1291,#1292);
#1047=AXIS2_PLACEMENT_3D('',#1578,#1293,#1294);
#1048=AXIS2_PLACEMENT_3D('',#1580,#1296,#1297);
#1049=AXIS2_PLACEMENT_3D('',#1583,#1300,#1301);
#1050=AXIS2_PLACEMENT_3D('',#1585,#1302,#1303);
#1051=AXIS2_PLACEMENT_3D('',#1587,#1305,#1306);
#1052=AXIS2_PLACEMENT_3D('',#1589,#1307,#1308);
#1053=AXIS2_PLACEMENT_3D('',#1591,#1310,#1311);
#1054=AXIS2_PLACEMENT_3D('',#1595,#1313,#1314);
#1055=AXIS2_PLACEMENT_3D('',#1597,#1316,#1317);
#1056=AXIS2_PLACEMENT_3D('',#1601,#1320,#1321);
#1057=AXIS2_PLACEMENT_3D('',#1603,#1322,#1323);
#1058=AXIS2_PLACEMENT_3D('',#1605,#1325,#1326);
#1059=AXIS2_PLACEMENT_3D('',#1609,#1329,#1330);
#1060=AXIS2_PLACEMENT_3D('',#1611,#1331,#1332);
#1061=AXIS2_PLACEMENT_3D('',#1613,#1334,#1335);
#1062=AXIS2_PLACEMENT_3D('',#1617,#1338,#1339);
#1063=AXIS2_PLACEMENT_3D('',#1619,#1340,#1341);
#1064=AXIS2_PLACEMENT_3D('',#1621,#1343,#1344);
#1065=AXIS2_PLACEMENT_3D('',#1623,#1346,#1347);
#1066=AXIS2_PLACEMENT_3D('',#1624,#1348,#1349);
#1067=DIRECTION('axis',(0.,0.,1.));
#1068=DIRECTION('refdir',(1.,0.,0.));
#1069=DIRECTION('center_axis',(0.,1.22464679914735E-16,1.));
#1070=DIRECTION('ref_axis',(1.,2.46830501074609E-14,-3.02280183072958E-30));
#1071=DIRECTION('center_axis',(0.,1.22464679914735E-16,1.));
#1072=DIRECTION('ref_axis',(1.,2.46830501074609E-14,-3.02280183072958E-30));
#1073=DIRECTION('',(0.,1.22464679914735E-16,1.));
#1074=DIRECTION('center_axis',(0.,-1.22464679914735E-16,-1.));
#1075=DIRECTION('ref_axis',(1.,2.46830501074609E-14,-3.02280183072958E-30));
#1076=DIRECTION('',(0.,1.22464679914735E-16,1.));
#1077=DIRECTION('center_axis',(0.,1.,-1.22464679914735E-16));
#1078=DIRECTION('ref_axis',(-1.,0.,0.));
#1079=DIRECTION('',(1.,0.,0.));
#1080=DIRECTION('',(0.,1.22464679914735E-16,1.));
#1081=DIRECTION('',(-1.,0.,0.));
#1082=DIRECTION('center_axis',(0.,1.22464679914735E-16,1.));
#1083=DIRECTION('ref_axis',(-4.93661002149211E-15,-1.,1.22464679914735E-16));
#1084=DIRECTION('center_axis',(0.,1.22464679914735E-16,1.));
#1085=DIRECTION('ref_axis',(-4.93661002149211E-15,-1.,1.22464679914735E-16));
#1086=DIRECTION('',(0.,1.22464679914735E-16,1.));
#1087=DIRECTION('center_axis',(0.,-1.22464679914735E-16,-1.));
#1088=DIRECTION('ref_axis',(-4.93661002149211E-15,-1.,1.22464679914735E-16));
#1089=DIRECTION('center_axis',(1.,0.,0.));
#1090=DIRECTION('ref_axis',(0.,1.,-1.22464679914735E-16));
#1091=DIRECTION('',(0.,-1.,1.22464679914735E-16));
#1092=DIRECTION('',(0.,1.22464679914735E-16,1.));
#1093=DIRECTION('',(0.,1.,-1.22464679914735E-16));
#1094=DIRECTION('center_axis',(0.,1.22464679914735E-16,1.));
#1095=DIRECTION('ref_axis',(6.55643518479424E-16,1.,-1.22464679914735E-16));
#1096=DIRECTION('center_axis',(0.,-1.22464679914735E-16,-1.));
#1097=DIRECTION('ref_axis',(6.55643518479424E-16,1.,-1.22464679914735E-16));
#1098=DIRECTION('',(0.,1.22464679914735E-16,1.));
#1099=DIRECTION('center_axis',(0.,1.22464679914735E-16,1.));
#1100=DIRECTION('ref_axis',(6.55643518479424E-16,1.,-1.22464679914735E-16));
#1101=DIRECTION('',(0.,1.22464679914735E-16,1.));
#1102=DIRECTION('center_axis',(2.25597769799371E-16,1.,-1.22464679914735E-16));
#1103=DIRECTION('ref_axis',(-1.,2.25597769799371E-16,-2.76277586679581E-32));
#1104=DIRECTION('',(1.,-2.25597769799371E-16,2.76277586679581E-32));
#1105=DIRECTION('',(0.,1.22464679914735E-16,1.));
#1106=DIRECTION('',(-1.,2.25597769799371E-16,-2.76277586679581E-32));
#1107=DIRECTION('center_axis',(0.,1.22464679914735E-16,1.));
#1108=DIRECTION('ref_axis',(-1.,2.62257407391769E-15,-3.21172694515013E-31));
#1109=DIRECTION('center_axis',(0.,-1.22464679914735E-16,-1.));
#1110=DIRECTION('ref_axis',(-1.,2.62257407391769E-15,-3.21172694515013E-31));
#1111=DIRECTION('',(0.,1.22464679914735E-16,1.));
#1112=DIRECTION('center_axis',(0.,1.22464679914735E-16,1.));
#1113=DIRECTION('ref_axis',(-1.,2.62257407391769E-15,-3.21172694515013E-31));
#1114=DIRECTION('center_axis',(-1.,-4.51195539598742E-16,5.52555173359162E-32));
#1115=DIRECTION('ref_axis',(4.51195539598742E-16,-1.,1.22464679914735E-16));
#1116=DIRECTION('',(-4.51195539598742E-16,1.,-1.22464679914735E-16));
#1117=DIRECTION('',(0.,1.22464679914735E-16,1.));
#1118=DIRECTION('',(4.51195539598742E-16,-1.,1.22464679914735E-16));
#1119=DIRECTION('center_axis',(-1.,-2.25597769799371E-16,2.76277586679582E-32));
#1120=DIRECTION('ref_axis',(2.25597769799371E-16,-1.,1.22464679914735E-16));
#1121=DIRECTION('',(-2.25597769799371E-16,1.,-1.22464679914735E-16));
#1122=DIRECTION('',(2.25597769799371E-16,-1.,1.22464679914735E-16));
#1123=DIRECTION('',(0.,1.22464679914735E-16,1.));
#1124=DIRECTION('center_axis',(0.,1.22464679914735E-16,1.));
#1125=DIRECTION('ref_axis',(0.,1.,-1.22464679914735E-16));
#1126=DIRECTION('center_axis',(0.,1.22464679914735E-16,1.));
#1127=DIRECTION('ref_axis',(0.,1.,-1.22464679914735E-16));
#1128=DIRECTION('center_axis',(0.,-1.22464679914735E-16,-1.));
#1129=DIRECTION('ref_axis',(0.,1.,-1.22464679914735E-16));
#1130=DIRECTION('',(0.,1.22464679914735E-16,1.));
#1131=DIRECTION('center_axis',(4.51195539598742E-16,-1.,1.22464679914735E-16));
#1132=DIRECTION('ref_axis',(1.,4.51195539598742E-16,-5.52555173359163E-32));
#1133=DIRECTION('',(-1.,-4.51195539598742E-16,5.52555173359163E-32));
#1134=DIRECTION('',(1.,4.51195539598742E-16,-5.52555173359163E-32));
#1135=DIRECTION('',(0.,1.22464679914735E-16,1.));
#1136=DIRECTION('center_axis',(0.,1.22464679914735E-16,1.));
#1137=DIRECTION('ref_axis',(-1.,4.93661002149215E-15,-6.04560366145911E-31));
#1138=DIRECTION('center_axis',(0.,1.22464679914735E-16,1.));
#1139=DIRECTION('ref_axis',(-1.,4.93661002149215E-15,-6.04560366145911E-31));
#1140=DIRECTION('center_axis',(0.,-1.22464679914735E-16,-1.));
#1141=DIRECTION('ref_axis',(-1.,4.93661002149215E-15,-6.04560366145911E-31));
#1142=DIRECTION('center_axis',(1.,2.25597769799371E-16,-2.76277586679582E-32));
#1143=DIRECTION('ref_axis',(-2.25597769799371E-16,1.,-1.22464679914735E-16));
#1144=DIRECTION('',(2.25597769799371E-16,-1.,1.22464679914735E-16));
#1145=DIRECTION('',(-2.25597769799371E-16,1.,-1.22464679914735E-16));
#1146=DIRECTION('',(0.,1.22464679914735E-16,1.));
#1147=DIRECTION('center_axis',(0.,1.22464679914735E-16,1.));
#1148=DIRECTION('ref_axis',(1.,1.31128703695885E-14,-1.60586347257508E-30));
#1149=DIRECTION('center_axis',(0.,-1.22464679914735E-16,-1.));
#1150=DIRECTION('ref_axis',(1.,1.31128703695885E-14,-1.60586347257508E-30));
#1151=DIRECTION('center_axis',(0.,1.22464679914735E-16,1.));
#1152=DIRECTION('ref_axis',(1.,1.31128703695885E-14,-1.60586347257508E-30));
#1153=DIRECTION('',(0.,1.22464679914735E-16,1.));
#1154=DIRECTION('center_axis',(0.,-1.,1.22464679914735E-16));
#1155=DIRECTION('ref_axis',(1.,0.,0.));
#1156=DIRECTION('',(-1.,0.,0.));
#1157=DIRECTION('',(1.,0.,0.));
#1158=DIRECTION('',(0.,1.22464679914735E-16,1.));
#1159=DIRECTION('center_axis',(0.,1.22464679914735E-16,1.));
#1160=DIRECTION('ref_axis',(-2.62257407391769E-15,-1.,1.22464679914735E-16));
#1161=DIRECTION('center_axis',(0.,-1.22464679914735E-16,-1.));
#1162=DIRECTION('ref_axis',(-2.62257407391769E-15,-1.,1.22464679914735E-16));
#1163=DIRECTION('center_axis',(0.,1.22464679914735E-16,1.));
#1164=DIRECTION('ref_axis',(-2.62257407391769E-15,-1.,1.22464679914735E-16));
#1165=DIRECTION('center_axis',(0.,-1.22464679914735E-16,-1.));
#1166=DIRECTION('ref_axis',(-1.,0.,0.));
#1167=DIRECTION('center_axis',(0.,-1.22464679914735E-16,-1.));
#1168=DIRECTION('ref_axis',(1.,0.,0.));
#1169=DIRECTION('',(0.,-1.,1.22464679914735E-16));
#1170=DIRECTION('center_axis',(0.,-1.22464679914735E-16,-1.));
#1171=DIRECTION('ref_axis',(0.,1.,-1.22464679914735E-16));
#1172=DIRECTION('',(-1.,-2.68981956299252E-16,3.29407891810272E-32));
#1173=DIRECTION('center_axis',(0.,-1.22464679914735E-16,-1.));
#1174=DIRECTION('ref_axis',(-1.,7.86772222175309E-15,-9.63518083545043E-31));
#1175=DIRECTION('',(-3.07644492925462E-16,-1.,1.22464679914735E-16));
#1176=DIRECTION('center_axis',(0.,-1.22464679914735E-16,-1.));
#1177=DIRECTION('ref_axis',(3.49676543189026E-15,-1.,1.22464679914735E-16));
#1178=DIRECTION('',(1.,0.,0.));
#1179=DIRECTION('center_axis',(0.,-1.22464679914735E-16,-1.));
#1180=DIRECTION('ref_axis',(1.,0.,0.));
#1181=DIRECTION('center_axis',(0.,1.22464679914735E-16,1.));
#1182=DIRECTION('ref_axis',(1.,0.,0.));
#1183=DIRECTION('center_axis',(0.,1.22464679914735E-16,1.));
#1184=DIRECTION('ref_axis',(0.159942245352434,-0.987126373951999,1.20888115421425E-16));
#1185=DIRECTION('',(-1.,0.,0.));
#1186=DIRECTION('center_axis',(0.,1.22464679914735E-16,1.));
#1187=DIRECTION('ref_axis',(1.,0.,0.));
#1188=DIRECTION('center_axis',(0.,1.22464679914735E-16,1.));
#1189=DIRECTION('ref_axis',(1.,0.,0.));
#1190=DIRECTION('center_axis',(0.,-1.22464679914735E-16,-1.));
#1191=DIRECTION('ref_axis',(1.,0.,0.));
#1192=DIRECTION('center_axis',(0.,1.22464679914735E-16,1.));
#1193=DIRECTION('ref_axis',(1.,0.,0.));
#1194=DIRECTION('',(0.,1.22464679914735E-16,1.));
#1195=DIRECTION('center_axis',(1.,0.,0.));
#1196=DIRECTION('ref_axis',(0.,-1.,1.22464679914735E-16));
#1197=DIRECTION('',(0.,-1.,1.22464679914735E-16));
#1198=DIRECTION('',(0.,-1.22464679914735E-16,-1.));
#1199=DIRECTION('',(0.,-1.,1.22464679914735E-16));
#1200=DIRECTION('',(0.,-1.22464679914735E-16,-1.));
#1201=DIRECTION('center_axis',(0.,-1.22464679914735E-16,-1.));
#1202=DIRECTION('ref_axis',(-1.,0.,0.));
#1203=DIRECTION('center_axis',(0.,1.22464679914735E-16,1.));
#1204=DIRECTION('ref_axis',(-1.,0.,0.));
#1205=DIRECTION('center_axis',(0.,1.22464679914735E-16,1.));
#1206=DIRECTION('ref_axis',(-1.,0.,0.));
#1207=DIRECTION('',(0.,-1.22464679914735E-16,-1.));
#1208=DIRECTION('center_axis',(0.,-1.,1.22464679914735E-16));
#1209=DIRECTION('ref_axis',(-1.,0.,0.));
#1210=DIRECTION('',(-1.,0.,0.));
#1211=DIRECTION('',(-1.,0.,0.));
#1212=DIRECTION('',(0.,-1.22464679914735E-16,-1.));
#1213=DIRECTION('center_axis',(0.,-1.22464679914735E-16,-1.));
#1214=DIRECTION('ref_axis',(3.49676543189025E-15,1.,-1.22464679914735E-16));
#1215=DIRECTION('center_axis',(0.,1.22464679914735E-16,1.));
#1216=DIRECTION('ref_axis',(3.49676543189025E-15,1.,-1.22464679914735E-16));
#1217=DIRECTION('center_axis',(0.,1.22464679914735E-16,1.));
#1218=DIRECTION('ref_axis',(3.49676543189025E-15,1.,-1.22464679914735E-16));
#1219=DIRECTION('',(0.,-1.22464679914735E-16,-1.));
#1220=DIRECTION('center_axis',(-1.,1.23104894199238E-15,-1.50760014640471E-31));
#1221=DIRECTION('ref_axis',(1.23104894199238E-15,1.,-1.22464679914735E-16));
#1222=DIRECTION('',(1.23104894199238E-15,1.,-1.22464679914735E-16));
#1223=DIRECTION('',(1.23104894199238E-15,1.,-1.22464679914735E-16));
#1224=DIRECTION('',(0.,-1.22464679914735E-16,-1.));
#1225=DIRECTION('center_axis',(0.,-1.22464679914735E-16,-1.));
#1226=DIRECTION('ref_axis',(1.,6.99353086378057E-15,-8.56460518706711E-31));
#1227=DIRECTION('center_axis',(0.,1.22464679914735E-16,1.));
#1228=DIRECTION('ref_axis',(1.,6.99353086378057E-15,-8.56460518706711E-31));
#1229=DIRECTION('center_axis',(0.,1.22464679914735E-16,1.));
#1230=DIRECTION('ref_axis',(1.,6.99353086378057E-15,-8.56460518706711E-31));
#1231=DIRECTION('',(0.,-1.22464679914735E-16,-1.));
#1232=DIRECTION('center_axis',(0.,1.,-1.22464679914735E-16));
#1233=DIRECTION('ref_axis',(1.,0.,0.));
#1234=DIRECTION('',(1.,0.,0.));
#1235=DIRECTION('',(1.,0.,0.));
#1236=DIRECTION('',(0.,-1.22464679914735E-16,-1.));
#1237=DIRECTION('center_axis',(0.,-1.22464679914735E-16,-1.));
#1238=DIRECTION('ref_axis',(0.,-1.,1.22464679914735E-16));
#1239=DIRECTION('center_axis',(0.,1.22464679914735E-16,1.));
#1240=DIRECTION('ref_axis',(0.,-1.,1.22464679914735E-16));
#1241=DIRECTION('center_axis',(0.,1.22464679914735E-16,1.));
#1242=DIRECTION('ref_axis',(0.,-1.,1.22464679914735E-16));
#1243=DIRECTION('center_axis',(0.,-1.,1.22464679914735E-16));
#1244=DIRECTION('ref_axis',(-1.,0.,0.));
#1245=DIRECTION('',(0.,-1.22464679914735E-16,-1.));
#1246=DIRECTION('',(-1.,0.,0.));
#1247=DIRECTION('',(0.,-1.22464679914735E-16,-1.));
#1248=DIRECTION('center_axis',(0.,-1.22464679914735E-16,-1.));
#1249=DIRECTION('ref_axis',(0.159942245352434,-0.987126373951999,1.20888115421425E-16));
#1250=DIRECTION('center_axis',(0.,1.22464679914735E-16,1.));
#1251=DIRECTION('ref_axis',(0.159942245352434,-0.987126373951999,1.20888115421425E-16));
#1252=DIRECTION('center_axis',(0.,-1.22464679914735E-16,-1.));
#1253=DIRECTION('ref_axis',(-1.,0.,0.));
#1254=DIRECTION('center_axis',(0.,1.22464679914735E-16,1.));
#1255=DIRECTION('ref_axis',(-1.,0.,0.));
#1256=DIRECTION('',(0.,-1.22464679914735E-16,-1.));
#1257=DIRECTION('center_axis',(0.,1.22464679914735E-16,1.));
#1258=DIRECTION('ref_axis',(-1.,0.,0.));
#1259=DIRECTION('',(0.,-1.22464679914735E-16,-1.));
#1260=DIRECTION('center_axis',(0.,-1.,1.22464679914735E-16));
#1261=DIRECTION('ref_axis',(-1.,0.,0.));
#1262=DIRECTION('',(-1.,0.,0.));
#1263=DIRECTION('',(-1.,0.,0.));
#1264=DIRECTION('',(0.,-1.22464679914735E-16,-1.));
#1265=DIRECTION('center_axis',(0.,-1.22464679914735E-16,-1.));
#1266=DIRECTION('ref_axis',(0.,1.,-1.22464679914735E-16));
#1267=DIRECTION('center_axis',(0.,1.22464679914735E-16,1.));
#1268=DIRECTION('ref_axis',(0.,1.,-1.22464679914735E-16));
#1269=DIRECTION('center_axis',(0.,1.22464679914735E-16,1.));
#1270=DIRECTION('ref_axis',(0.,1.,-1.22464679914735E-16));
#1271=DIRECTION('',(0.,-1.22464679914735E-16,-1.));
#1272=DIRECTION('center_axis',(-1.,0.,0.));
#1273=DIRECTION('ref_axis',(0.,1.,-1.22464679914735E-16));
#1274=DIRECTION('',(0.,1.,-1.22464679914735E-16));
#1275=DIRECTION('',(0.,1.,-1.22464679914735E-16));
#1276=DIRECTION('',(0.,-1.22464679914735E-16,-1.));
#1277=DIRECTION('center_axis',(0.,-1.22464679914735E-16,-1.));
#1278=DIRECTION('ref_axis',(1.,0.,0.));
#1279=DIRECTION('center_axis',(0.,1.22464679914735E-16,1.));
#1280=DIRECTION('ref_axis',(1.,0.,0.));
#1281=DIRECTION('center_axis',(0.,1.22464679914735E-16,1.));
#1282=DIRECTION('ref_axis',(1.,0.,0.));
#1283=DIRECTION('',(0.,-1.22464679914735E-16,-1.));
#1284=DIRECTION('center_axis',(0.,1.,-1.22464679914735E-16));
#1285=DIRECTION('ref_axis',(1.,0.,0.));
#1286=DIRECTION('',(1.,0.,0.));
#1287=DIRECTION('',(1.,0.,0.));
#1288=DIRECTION('',(0.,-1.22464679914735E-16,-1.));
#1289=DIRECTION('center_axis',(0.,-1.22464679914735E-16,-1.));
#1290=DIRECTION('ref_axis',(0.,-1.,1.22464679914735E-16));
#1291=DIRECTION('center_axis',(0.,1.22464679914735E-16,1.));
#1292=DIRECTION('ref_axis',(0.,-1.,1.22464679914735E-16));
#1293=DIRECTION('center_axis',(0.,1.22464679914735E-16,1.));
#1294=DIRECTION('ref_axis',(0.,-1.,1.22464679914735E-16));
#1295=DIRECTION('',(0.,-1.22464679914735E-16,-1.));
#1296=DIRECTION('center_axis',(1.,-1.23104894199238E-15,1.50760014640471E-31));
#1297=DIRECTION('ref_axis',(-1.23104894199238E-15,-1.,1.22464679914735E-16));
#1298=DIRECTION('',(-1.23104894199238E-15,-1.,1.22464679914735E-16));
#1299=DIRECTION('',(-1.23104894199238E-15,-1.,1.22464679914735E-16));
#1300=DIRECTION('center_axis',(0.,-1.22464679914735E-16,-1.));
#1301=DIRECTION('ref_axis',(1.,0.,0.));
#1302=DIRECTION('center_axis',(0.,1.22464679914735E-16,1.));
#1303=DIRECTION('ref_axis',(1.,0.,0.));
#1304=DIRECTION('',(0.,1.22464679914735E-16,1.));
#1305=DIRECTION('center_axis',(0.,-1.22464679914735E-16,-1.));
#1306=DIRECTION('ref_axis',(1.,0.,0.));
#1307=DIRECTION('center_axis',(0.,1.22464679914735E-16,1.));
#1308=DIRECTION('ref_axis',(1.,0.,0.));
#1309=DIRECTION('',(0.,1.22464679914735E-16,1.));
#1310=DIRECTION('center_axis',(0.,-1.22464679914735E-16,-1.));
#1311=DIRECTION('ref_axis',(0.,1.,-1.22464679914735E-16));
#1312=DIRECTION('',(0.,-1.22464679914735E-16,-1.));
#1313=DIRECTION('center_axis',(0.,-1.22464679914735E-16,-1.));
#1314=DIRECTION('ref_axis',(0.,1.,-1.22464679914735E-16));
#1315=DIRECTION('',(0.,-1.22464679914735E-16,-1.));
#1316=DIRECTION('center_axis',(-2.68981956299252E-16,1.,-1.22464679914735E-16));
#1317=DIRECTION('ref_axis',(1.,2.68981956299252E-16,-3.29407891810272E-32));
#1318=DIRECTION('',(1.,2.68981956299252E-16,-3.29407891810272E-32));
#1319=DIRECTION('',(0.,-1.22464679914735E-16,-1.));
#1320=DIRECTION('center_axis',(0.,-1.22464679914735E-16,-1.));
#1321=DIRECTION('ref_axis',(-1.,7.86772222175309E-15,-9.63518083545043E-31));
#1322=DIRECTION('center_axis',(0.,-1.22464679914735E-16,-1.));
#1323=DIRECTION('ref_axis',(-1.,7.86772222175309E-15,-9.63518083545043E-31));
#1324=DIRECTION('',(0.,-1.22464679914735E-16,-1.));
#1325=DIRECTION('center_axis',(-1.,3.07644492925462E-16,-3.76755843536478E-32));
#1326=DIRECTION('ref_axis',(3.07644492925462E-16,1.,-1.22464679914735E-16));
#1327=DIRECTION('',(3.07644492925462E-16,1.,-1.22464679914735E-16));
#1328=DIRECTION('',(0.,-1.22464679914735E-16,-1.));
#1329=DIRECTION('center_axis',(0.,-1.22464679914735E-16,-1.));
#1330=DIRECTION('ref_axis',(3.49676543189026E-15,-1.,1.22464679914735E-16));
#1331=DIRECTION('center_axis',(0.,-1.22464679914735E-16,-1.));
#1332=DIRECTION('ref_axis',(3.49676543189026E-15,-1.,1.22464679914735E-16));
#1333=DIRECTION('',(0.,-1.22464679914735E-16,-1.));
#1334=DIRECTION('center_axis',(0.,-1.,1.22464679914735E-16));
#1335=DIRECTION('ref_axis',(-1.,0.,0.));
#1336=DIRECTION('',(-1.,0.,0.));
#1337=DIRECTION('',(0.,-1.22464679914735E-16,-1.));
#1338=DIRECTION('center_axis',(0.,-1.22464679914735E-16,-1.));
#1339=DIRECTION('ref_axis',(1.,0.,0.));
#1340=DIRECTION('center_axis',(0.,-1.22464679914735E-16,-1.));
#1341=DIRECTION('ref_axis',(1.,0.,0.));
#1342=DIRECTION('',(0.,-1.22464679914735E-16,-1.));
#1343=DIRECTION('center_axis',(1.,0.,0.));
#1344=DIRECTION('ref_axis',(0.,-1.,1.22464679914735E-16));
#1345=DIRECTION('',(0.,-1.,1.22464679914735E-16));
#1346=DIRECTION('center_axis',(0.,-1.22464679914735E-16,-1.));
#1347=DIRECTION('ref_axis',(1.,0.,0.));
#1348=DIRECTION('center_axis',(0.,-1.22464679914735E-16,-1.));
#1349=DIRECTION('ref_axis',(1.,0.,0.));
#1350=CARTESIAN_POINT('',(0.,0.,0.));
#1351=CARTESIAN_POINT('Origin',(-0.773282527756782,0.17260440175069,0.0937499971840326));
#1352=CARTESIAN_POINT('',(-0.773282527756782,0.101771068417358,0.187499997184033));
#1353=CARTESIAN_POINT('',(-0.70244919442345,0.172604401750692,0.187499997184033));
#1354=CARTESIAN_POINT('Origin',(-0.773282527756782,0.17260440175069,0.187499997184033));
#1355=CARTESIAN_POINT('',(-0.773282527756782,0.101771068417358,0.249999997184033));
#1356=CARTESIAN_POINT('',(-0.773282527756782,0.101771068417358,0.0937499971840326));
#1357=CARTESIAN_POINT('',(-0.70244919442345,0.172604401750692,0.249999997184033));
#1358=CARTESIAN_POINT('Origin',(-0.773282527756782,0.17260440175069,0.249999997184033));
#1359=CARTESIAN_POINT('',(-0.70244919442345,0.172604401750692,0.0937499971840326));
#1360=CARTESIAN_POINT('Origin',(-0.773282527756782,0.101771068417358,0.0937499971840326));
#1361=CARTESIAN_POINT('',(-1.54828252775678,0.101771068417358,0.187499997184033));
#1362=CARTESIAN_POINT('',(-0.767147870607619,0.101771068417358,0.187499997184033));
#1363=CARTESIAN_POINT('',(-1.54828252775678,0.101771068417358,0.249999997184033));
#1364=CARTESIAN_POINT('',(-1.54828252775678,0.101771068417358,0.0937499971840326));
#1365=CARTESIAN_POINT('',(-1.54828252775678,0.101771068417358,0.249999997184033));
#1366=CARTESIAN_POINT('Origin',(-1.54828252775678,0.172604401750691,0.0937499971840326));
#1367=CARTESIAN_POINT('',(-1.61911586109012,0.172604401750691,0.187499997184033));
#1368=CARTESIAN_POINT('Origin',(-1.54828252775678,0.172604401750691,0.187499997184033));
#1369=CARTESIAN_POINT('',(-1.61911586109012,0.172604401750691,0.249999997184033));
#1370=CARTESIAN_POINT('',(-1.61911586109012,0.172604401750691,0.0937499971840326));
#1371=CARTESIAN_POINT('Origin',(-1.54828252775678,0.172604401750691,0.249999997184033));
#1372=CARTESIAN_POINT('Origin',(-1.61911586109012,0.172604401750691,0.0937499971840326));
#1373=CARTESIAN_POINT('',(-1.61911586109012,0.947604401750692,0.187499997184033));
#1374=CARTESIAN_POINT('',(-1.61911586109012,0.3505353199389,0.187499997184033));
#1375=CARTESIAN_POINT('',(-1.61911586109012,0.947604401750692,0.249999997184032));
#1376=CARTESIAN_POINT('',(-1.61911586109012,0.947604401750692,0.0937499971840325));
#1377=CARTESIAN_POINT('',(-1.61911586109012,0.947604401750692,0.249999997184032));
#1378=CARTESIAN_POINT('Origin',(-0.773282527756783,0.947604401750692,0.0937499971840325));
#1379=CARTESIAN_POINT('',(-0.773282527756783,1.08093773508403,0.187499997184032));
#1380=CARTESIAN_POINT('',(-0.63994919442345,0.947604401750692,0.187499997184033));
#1381=CARTESIAN_POINT('Origin',(-0.773282527756783,0.947604401750692,0.187499997184033));
#1382=CARTESIAN_POINT('',(-0.773282527756783,1.08093773508403,0.249999997184032));
#1383=CARTESIAN_POINT('',(-0.773282527756783,1.08093773508403,0.0937499971840325));
#1384=CARTESIAN_POINT('',(-0.63994919442345,0.947604401750692,0.249999997184032));
#1385=CARTESIAN_POINT('Origin',(-0.773282527756783,0.947604401750692,0.249999997184032));
#1386=CARTESIAN_POINT('',(-0.63994919442345,0.947604401750692,0.0937499971840325));
#1387=CARTESIAN_POINT('Origin',(-0.773282527756783,1.08093773508403,0.0937499971840325));
#1388=CARTESIAN_POINT('',(-1.54828252775678,1.08093773508403,0.187499997184032));
#1389=CARTESIAN_POINT('',(-0.767147870607619,1.08093773508402,0.187499997184032));
#1390=CARTESIAN_POINT('',(-1.54828252775678,1.08093773508403,0.249999997184032));
#1391=CARTESIAN_POINT('',(-1.54828252775678,1.08093773508403,0.0937499971840325));
#1392=CARTESIAN_POINT('',(-0.773282527756783,1.08093773508403,0.249999997184032));
#1393=CARTESIAN_POINT('Origin',(-1.54828252775678,0.947604401750692,0.0937499971840325));
#1394=CARTESIAN_POINT('',(-1.68161586109012,0.947604401750692,0.187499997184033));
#1395=CARTESIAN_POINT('Origin',(-1.54828252775678,0.947604401750692,0.187499997184033));
#1396=CARTESIAN_POINT('',(-1.68161586109012,0.947604401750692,0.249999997184032));
#1397=CARTESIAN_POINT('',(-1.68161586109012,0.947604401750692,0.0937499971840325));
#1398=CARTESIAN_POINT('Origin',(-1.54828252775678,0.947604401750692,0.249999997184032));
#1399=CARTESIAN_POINT('Origin',(-1.68161586109012,0.947604401750692,0.0937499971840325));
#1400=CARTESIAN_POINT('',(-1.68161586109012,0.172604401750691,0.187499997184033));
#1401=CARTESIAN_POINT('',(-1.68161586109012,0.738035319938901,0.187499997184033));
#1402=CARTESIAN_POINT('',(-1.68161586109012,0.172604401750691,0.249999997184033));
#1403=CARTESIAN_POINT('',(-1.68161586109012,0.172604401750691,0.0937499971840326));
#1404=CARTESIAN_POINT('',(-1.68161586109012,0.947604401750692,0.249999997184032));
#1405=CARTESIAN_POINT('Origin',(-0.70244919442345,0.947604401750692,0.0937499971840325));
#1406=CARTESIAN_POINT('',(-0.70244919442345,0.947604401750692,0.187499997184033));
#1407=CARTESIAN_POINT('',(-0.70244919442345,0.738035319938901,0.187499997184033));
#1408=CARTESIAN_POINT('',(-0.70244919442345,0.947604401750692,0.249999997184032));
#1409=CARTESIAN_POINT('',(-0.70244919442345,0.172604401750692,0.249999997184033));
#1410=CARTESIAN_POINT('',(-0.70244919442345,0.947604401750692,0.0937499971840325));
#1411=CARTESIAN_POINT('Origin',(-0.773282527756783,0.947604401750692,0.0937499971840325));
#1412=CARTESIAN_POINT('',(-0.773282527756783,1.01843773508403,0.187499997184033));
#1413=CARTESIAN_POINT('Origin',(-0.773282527756783,0.947604401750692,0.187499997184033));
#1414=CARTESIAN_POINT('',(-0.773282527756783,1.01843773508403,0.249999997184032));
#1415=CARTESIAN_POINT('Origin',(-0.773282527756783,0.947604401750692,0.249999997184032));
#1416=CARTESIAN_POINT('',(-0.773282527756783,1.01843773508403,0.0937499971840325));
#1417=CARTESIAN_POINT('Origin',(-1.54828252775678,1.01843773508402,0.0937499971840325));
#1418=CARTESIAN_POINT('',(-1.54828252775678,1.01843773508402,0.187499997184033));
#1419=CARTESIAN_POINT('',(-1.15464787060762,1.01843773508403,0.187499997184033));
#1420=CARTESIAN_POINT('',(-1.54828252775678,1.01843773508402,0.249999997184032));
#1421=CARTESIAN_POINT('',(-0.773282527756783,1.01843773508403,0.249999997184032));
#1422=CARTESIAN_POINT('',(-1.54828252775678,1.01843773508402,0.0937499971840325));
#1423=CARTESIAN_POINT('Origin',(-1.54828252775678,0.947604401750692,0.0937499971840325));
#1424=CARTESIAN_POINT('Origin',(-1.54828252775678,0.947604401750692,0.187499997184033));
#1425=CARTESIAN_POINT('Origin',(-1.54828252775678,0.947604401750692,0.249999997184032));
#1426=CARTESIAN_POINT('Origin',(-0.63994919442345,0.172604401750692,0.0937499971840326));
#1427=CARTESIAN_POINT('',(-0.63994919442345,0.172604401750692,0.187499997184033));
#1428=CARTESIAN_POINT('',(-0.63994919442345,0.3505353199389,0.187499997184033));
#1429=CARTESIAN_POINT('',(-0.63994919442345,0.172604401750692,0.249999997184033));
#1430=CARTESIAN_POINT('',(-0.63994919442345,0.172604401750692,0.249999997184033));
#1431=CARTESIAN_POINT('',(-0.63994919442345,0.172604401750692,0.0937499971840326));
#1432=CARTESIAN_POINT('Origin',(-0.773282527756782,0.17260440175069,0.0937499971840326));
#1433=CARTESIAN_POINT('',(-0.773282527756782,0.0392710684173574,0.187499997184033));
#1434=CARTESIAN_POINT('Origin',(-0.773282527756782,0.17260440175069,0.187499997184033));
#1435=CARTESIAN_POINT('',(-0.773282527756782,0.0392710684173574,0.249999997184033));
#1436=CARTESIAN_POINT('Origin',(-0.773282527756782,0.17260440175069,0.249999997184033));
#1437=CARTESIAN_POINT('',(-0.773282527756782,0.0392710684173574,0.0937499971840326));
#1438=CARTESIAN_POINT('Origin',(-1.54828252775678,0.0392710684173574,0.0937499971840326));
#1439=CARTESIAN_POINT('',(-1.54828252775678,0.0392710684173574,0.187499997184033));
#1440=CARTESIAN_POINT('',(-1.15464787060762,0.0392710684173574,0.187499997184033));
#1441=CARTESIAN_POINT('',(-1.54828252775678,0.0392710684173574,0.249999997184033));
#1442=CARTESIAN_POINT('',(-1.54828252775678,0.0392710684173574,0.249999997184033));
#1443=CARTESIAN_POINT('',(-1.54828252775678,0.0392710684173574,0.0937499971840326));
#1444=CARTESIAN_POINT('Origin',(-1.54828252775678,0.172604401750691,0.0937499971840326));
#1445=CARTESIAN_POINT('Origin',(-1.54828252775678,0.172604401750691,0.187499997184033));
#1446=CARTESIAN_POINT('Origin',(-1.54828252775678,0.172604401750691,0.249999997184033));
#1447=CARTESIAN_POINT('Origin',(-1.16078252775678,0.560104401750691,0.249999997184033));
#1448=CARTESIAN_POINT('Origin',(-0.761013213458455,0.52846623812711,0.187499997184033));
#1449=CARTESIAN_POINT('',(0.876388361344695,1.34677893546141,0.187499997184032));
#1450=CARTESIAN_POINT('',(0.876388361344695,-0.289846459207192,0.187499997184033));
#1451=CARTESIAN_POINT('',(0.876388361344695,0.84677893546141,0.187499997184033));
#1452=CARTESIAN_POINT('',(0.776388361344695,1.44677893546141,0.187499997184032));
#1453=CARTESIAN_POINT('Origin',(0.776388361344695,1.34677893546141,0.187499997184032));
#1454=CARTESIAN_POINT('',(-2.2984147882616,1.44677893546141,0.187499997184032));
#1455=CARTESIAN_POINT('',(-1.6484147882616,1.44677893546141,0.187499997184032));
#1456=CARTESIAN_POINT('',(-2.3984147882616,1.34677893546141,0.187499997184032));
#1457=CARTESIAN_POINT('Origin',(-2.2984147882616,1.34677893546141,0.187499997184032));
#1458=CARTESIAN_POINT('',(-2.3984147882616,-0.289846459207192,0.187499997184033));
#1459=CARTESIAN_POINT('',(-2.3984147882616,0.846778935461411,0.187499997184033));
#1460=CARTESIAN_POINT('',(-2.2984147882616,-0.389846459207192,0.187499997184033));
#1461=CARTESIAN_POINT('Origin',(-2.2984147882616,-0.289846459207192,0.187499997184033));
#1462=CARTESIAN_POINT('',(0.776388361344694,-0.389846459207192,0.187499997184033));
#1463=CARTESIAN_POINT('',(-2.2609147882616,-0.389846459207192,0.187499997184033));
#1464=CARTESIAN_POINT('Origin',(0.776388361344695,-0.289846459207192,0.187499997184033));
#1465=CARTESIAN_POINT('',(0.654085211738398,0.360164762233051,0.187499997184033));
#1466=CARTESIAN_POINT('Origin',(0.739085211738398,0.360164762233051,0.187499997184033));
#1467=CARTESIAN_POINT('',(-2.27450987911658,0.662074570660428,0.187499997184033));
#1468=CARTESIAN_POINT('',(-2.24731969740667,0.662074570660428,0.187499997184033));
#1469=CARTESIAN_POINT('Origin',(-2.26091478826162,0.745980312446348,0.187499997184033));
#1470=CARTESIAN_POINT('',(-2.27450987911658,0.662074570660428,0.187499997184033));
#1471=CARTESIAN_POINT('',(0.654085211738401,1.2459915338866,0.187499997184032));
#1472=CARTESIAN_POINT('Origin',(0.739085211738401,1.2459915338866,0.187499997184032));
#1473=CARTESIAN_POINT('',(-1.84591478826161,1.24598031244635,0.187499997184032));
#1474=CARTESIAN_POINT('Origin',(-1.76091478826161,1.24598031244635,0.187499997184032));
#1475=CARTESIAN_POINT('Origin',(0.739085211738398,0.360164762233051,0.187499997184033));
#1476=CARTESIAN_POINT('',(0.654085211738398,0.360164762233051,0.0937499971840326));
#1477=CARTESIAN_POINT('Origin',(0.739085211738398,0.360164762233051,0.0937499971840326));
#1478=CARTESIAN_POINT('',(0.654085211738398,0.360164762233051,0.187499997184033));
#1479=CARTESIAN_POINT('Origin',(-1.5979803044541,0.947653540792809,0.187499997184033));
#1480=CARTESIAN_POINT('',(-1.5979803044541,0.947653540792809,0.187499997184033));
#1481=CARTESIAN_POINT('',(-1.5979803044541,0.172653540792808,0.187499997184033));
#1482=CARTESIAN_POINT('',(-1.5979803044541,0.947653540792809,0.187499997184033));
#1483=CARTESIAN_POINT('',(-1.5979803044541,0.172653540792808,0.0937499971840326));
#1484=CARTESIAN_POINT('',(-1.5979803044541,0.172653540792808,0.187499997184033));
#1485=CARTESIAN_POINT('',(-1.5979803044541,0.947653540792809,0.0937499971840325));
#1486=CARTESIAN_POINT('',(-1.5979803044541,0.947653540792809,0.0937499971840325));
#1487=CARTESIAN_POINT('',(-1.5979803044541,0.947653540792809,0.187499997184033));
#1488=CARTESIAN_POINT('Origin',(-1.5479803044541,0.947653540792809,0.187499997184033));
#1489=CARTESIAN_POINT('',(-1.5479803044541,0.997653540792809,0.187499997184033));
#1490=CARTESIAN_POINT('Origin',(-1.5479803044541,0.947653540792809,0.187499997184033));
#1491=CARTESIAN_POINT('',(-1.5479803044541,0.997653540792809,0.0937499971840325));
#1492=CARTESIAN_POINT('Origin',(-1.5479803044541,0.947653540792809,0.0937499971840325));
#1493=CARTESIAN_POINT('',(-1.5479803044541,0.997653540792809,0.187499997184033));
#1494=CARTESIAN_POINT('Origin',(-1.4136053044541,0.997653540792809,0.187499997184033));
#1495=CARTESIAN_POINT('',(-1.4136053044541,0.997653540792809,0.187499997184033));
#1496=CARTESIAN_POINT('',(-1.4136053044541,0.997653540792809,0.187499997184033));
#1497=CARTESIAN_POINT('',(-1.4136053044541,0.997653540792809,0.0937499971840325));
#1498=CARTESIAN_POINT('',(-1.4136053044541,0.997653540792809,0.0937499971840325));
#1499=CARTESIAN_POINT('',(-1.4136053044541,0.997653540792809,0.187499997184033));
#1500=CARTESIAN_POINT('Origin',(-1.4136053044541,0.947653540792809,0.187499997184033));
#1501=CARTESIAN_POINT('',(-1.3636053044541,0.947653540792809,0.187499997184033));
#1502=CARTESIAN_POINT('Origin',(-1.4136053044541,0.947653540792809,0.187499997184033));
#1503=CARTESIAN_POINT('',(-1.3636053044541,0.947653540792809,0.0937499971840325));
#1504=CARTESIAN_POINT('Origin',(-1.4136053044541,0.947653540792809,0.0937499971840325));
#1505=CARTESIAN_POINT('',(-1.3636053044541,0.947653540792809,0.187499997184033));
#1506=CARTESIAN_POINT('Origin',(-1.3636053044541,0.172653540792809,0.187499997184033));
#1507=CARTESIAN_POINT('',(-1.3636053044541,0.172653540792809,0.187499997184033));
#1508=CARTESIAN_POINT('',(-1.3636053044541,0.52158208506771,0.187499997184033));
#1509=CARTESIAN_POINT('',(-1.3636053044541,0.172653540792809,0.0937499971840326));
#1510=CARTESIAN_POINT('',(-1.3636053044541,0.52158208506771,0.0937499971840326));
#1511=CARTESIAN_POINT('',(-1.3636053044541,0.172653540792809,0.187499997184033));
#1512=CARTESIAN_POINT('Origin',(-1.4136053044541,0.172653540792808,0.187499997184033));
#1513=CARTESIAN_POINT('',(-1.4136053044541,0.122653540792809,0.187499997184033));
#1514=CARTESIAN_POINT('Origin',(-1.4136053044541,0.172653540792808,0.187499997184033));
#1515=CARTESIAN_POINT('',(-1.4136053044541,0.122653540792809,0.0937499971840326));
#1516=CARTESIAN_POINT('Origin',(-1.4136053044541,0.172653540792808,0.0937499971840326));
#1517=CARTESIAN_POINT('',(-1.4136053044541,0.122653540792809,0.187499997184033));
#1518=CARTESIAN_POINT('Origin',(-1.5479803044541,0.122653540792809,0.187499997184033));
#1519=CARTESIAN_POINT('',(-1.5479803044541,0.122653540792809,0.187499997184033));
#1520=CARTESIAN_POINT('',(-1.5479803044541,0.122653540792809,0.187499997184033));
#1521=CARTESIAN_POINT('',(-1.5479803044541,0.122653540792809,0.0937499971840326));
#1522=CARTESIAN_POINT('',(-1.5479803044541,0.122653540792809,0.0937499971840326));
#1523=CARTESIAN_POINT('',(-1.5479803044541,0.122653540792809,0.187499997184033));
#1524=CARTESIAN_POINT('Origin',(-1.5479803044541,0.172653540792808,0.187499997184033));
#1525=CARTESIAN_POINT('Origin',(-1.5479803044541,0.172653540792808,0.187499997184033));
#1526=CARTESIAN_POINT('Origin',(-1.5479803044541,0.172653540792808,0.0937499971840326));
#1527=CARTESIAN_POINT('Origin',(-2.24731969740667,0.662074570660428,0.187499997184033));
#1528=CARTESIAN_POINT('',(-2.27450987911658,0.662074570660428,0.0937499971840326));
#1529=CARTESIAN_POINT('',(-2.27450987911658,0.662074570660428,0.187499997184033));
#1530=CARTESIAN_POINT('',(-2.24731969740667,0.662074570660428,0.0937499971840326));
#1531=CARTESIAN_POINT('',(-2.27450987911658,0.662074570660428,0.0937499971840326));
#1532=CARTESIAN_POINT('',(-2.24731969740667,0.662074570660428,0.187499997184033));
#1533=CARTESIAN_POINT('Origin',(-2.26091478826162,0.745980312446348,0.187499997184033));
#1534=CARTESIAN_POINT('Origin',(-2.26091478826162,0.745980312446348,0.0937499971840325));
#1535=CARTESIAN_POINT('Origin',(-0.907355304454102,0.947653540792809,0.187499997184033));
#1536=CARTESIAN_POINT('',(-0.907355304454102,0.997653540792809,0.187499997184033));
#1537=CARTESIAN_POINT('',(-0.957355304454102,0.947653540792809,0.187499997184033));
#1538=CARTESIAN_POINT('Origin',(-0.907355304454102,0.947653540792809,0.187499997184033));
#1539=CARTESIAN_POINT('',(-0.957355304454102,0.947653540792809,0.0937499971840325));
#1540=CARTESIAN_POINT('',(-0.957355304454102,0.947653540792809,0.187499997184033));
#1541=CARTESIAN_POINT('',(-0.907355304454102,0.997653540792809,0.0937499971840325));
#1542=CARTESIAN_POINT('Origin',(-0.907355304454102,0.947653540792809,0.0937499971840325));
#1543=CARTESIAN_POINT('',(-0.907355304454102,0.997653540792809,0.187499997184033));
#1544=CARTESIAN_POINT('Origin',(-0.772980304454102,0.997653540792809,0.187499997184033));
#1545=CARTESIAN_POINT('',(-0.772980304454102,0.997653540792809,0.187499997184033));
#1546=CARTESIAN_POINT('',(-0.772980304454102,0.997653540792809,0.187499997184033));
#1547=CARTESIAN_POINT('',(-0.772980304454102,0.997653540792809,0.0937499971840325));
#1548=CARTESIAN_POINT('',(-0.772980304454102,0.997653540792809,0.0937499971840325));
#1549=CARTESIAN_POINT('',(-0.772980304454102,0.997653540792809,0.187499997184033));
#1550=CARTESIAN_POINT('Origin',(-0.772980304454102,0.947653540792809,0.187499997184033));
#1551=CARTESIAN_POINT('',(-0.722980304454102,0.947653540792809,0.187499997184033));
#1552=CARTESIAN_POINT('Origin',(-0.772980304454102,0.947653540792809,0.187499997184033));
#1553=CARTESIAN_POINT('',(-0.722980304454102,0.947653540792809,0.0937499971840325));
#1554=CARTESIAN_POINT('Origin',(-0.772980304454102,0.947653540792809,0.0937499971840325));
#1555=CARTESIAN_POINT('',(-0.722980304454102,0.947653540792809,0.187499997184033));
#1556=CARTESIAN_POINT('Origin',(-0.722980304454102,0.172653540792808,0.187499997184033));
#1557=CARTESIAN_POINT('',(-0.722980304454102,0.172653540792808,0.187499997184033));
#1558=CARTESIAN_POINT('',(-0.722980304454102,0.172653540792808,0.187499997184033));
#1559=CARTESIAN_POINT('',(-0.722980304454102,0.172653540792808,0.0937499971840326));
#1560=CARTESIAN_POINT('',(-0.722980304454102,0.172653540792808,0.0937499971840326));
#1561=CARTESIAN_POINT('',(-0.722980304454102,0.172653540792808,0.187499997184033));
#1562=CARTESIAN_POINT('Origin',(-0.772980304454101,0.172653540792808,0.187499997184033));
#1563=CARTESIAN_POINT('',(-0.772980304454101,0.122653540792809,0.187499997184033));
#1564=CARTESIAN_POINT('Origin',(-0.772980304454101,0.172653540792808,0.187499997184033));
#1565=CARTESIAN_POINT('',(-0.772980304454101,0.122653540792809,0.0937499971840326));
#1566=CARTESIAN_POINT('Origin',(-0.772980304454101,0.172653540792808,0.0937499971840326));
#1567=CARTESIAN_POINT('',(-0.772980304454101,0.122653540792809,0.187499997184033));
#1568=CARTESIAN_POINT('Origin',(-0.907355304454103,0.122653540792809,0.187499997184033));
#1569=CARTESIAN_POINT('',(-0.907355304454103,0.122653540792809,0.187499997184033));
#1570=CARTESIAN_POINT('',(-0.907355304454103,0.122653540792809,0.187499997184033));
#1571=CARTESIAN_POINT('',(-0.907355304454103,0.122653540792809,0.0937499971840326));
#1572=CARTESIAN_POINT('',(-0.907355304454103,0.122653540792809,0.0937499971840326));
#1573=CARTESIAN_POINT('',(-0.907355304454103,0.122653540792809,0.187499997184033));
#1574=CARTESIAN_POINT('Origin',(-0.907355304454103,0.172653540792808,0.187499997184033));
#1575=CARTESIAN_POINT('',(-0.957355304454102,0.172653540792808,0.187499997184033));
#1576=CARTESIAN_POINT('Origin',(-0.907355304454103,0.172653540792808,0.187499997184033));
#1577=CARTESIAN_POINT('',(-0.957355304454102,0.172653540792808,0.0937499971840326));
#1578=CARTESIAN_POINT('Origin',(-0.907355304454103,0.172653540792808,0.0937499971840326));
#1579=CARTESIAN_POINT('',(-0.957355304454102,0.172653540792808,0.187499997184033));
#1580=CARTESIAN_POINT('Origin',(-0.957355304454102,0.947653540792809,0.187499997184033));
#1581=CARTESIAN_POINT('',(-0.957355304454102,0.52158208506771,0.187499997184033));
#1582=CARTESIAN_POINT('',(-0.957355304454102,0.52158208506771,0.0937499971840326));
#1583=CARTESIAN_POINT('Origin',(0.739085211738401,1.2459915338866,0.187499997184032));
#1584=CARTESIAN_POINT('',(0.654085211738401,1.2459915338866,0.0937499971840325));
#1585=CARTESIAN_POINT('Origin',(0.739085211738401,1.2459915338866,0.0937499971840325));
#1586=CARTESIAN_POINT('',(0.654085211738401,1.2459915338866,0.187499997184032));
#1587=CARTESIAN_POINT('Origin',(-1.76091478826161,1.24598031244635,0.187499997184032));
#1588=CARTESIAN_POINT('',(-1.84591478826161,1.24598031244635,0.0937499971840325));
#1589=CARTESIAN_POINT('Origin',(-1.76091478826161,1.24598031244635,0.0937499971840325));
#1590=CARTESIAN_POINT('',(-1.84591478826161,1.24598031244635,0.187499997184032));
#1591=CARTESIAN_POINT('Origin',(0.776388361344695,1.34677893546141,0.187499997184032));
#1592=CARTESIAN_POINT('',(0.876388361344695,1.34677893546141,0.0937499971840325));
#1593=CARTESIAN_POINT('',(0.876388361344695,1.34677893546141,0.187499997184032));
#1594=CARTESIAN_POINT('',(0.776388361344694,1.44677893546141,0.0937499971840325));
#1595=CARTESIAN_POINT('Origin',(0.776388361344695,1.34677893546141,0.0937499971840325));
#1596=CARTESIAN_POINT('',(0.776388361344695,1.44677893546141,0.187499997184032));
#1597=CARTESIAN_POINT('Origin',(-2.2984147882616,1.44677893546141,0.187499997184032));
#1598=CARTESIAN_POINT('',(-2.2984147882616,1.44677893546141,0.0937499971840325));
#1599=CARTESIAN_POINT('',(-1.6484147882616,1.44677893546141,0.0937499971840325));
#1600=CARTESIAN_POINT('',(-2.2984147882616,1.44677893546141,0.187499997184032));
#1601=CARTESIAN_POINT('Origin',(-2.2984147882616,1.34677893546141,0.187499997184032));
#1602=CARTESIAN_POINT('',(-2.3984147882616,1.34677893546141,0.0937499971840325));
#1603=CARTESIAN_POINT('Origin',(-2.2984147882616,1.34677893546141,0.0937499971840325));
#1604=CARTESIAN_POINT('',(-2.3984147882616,1.34677893546141,0.187499997184032));
#1605=CARTESIAN_POINT('Origin',(-2.3984147882616,-0.289846459207192,0.187499997184033));
#1606=CARTESIAN_POINT('',(-2.3984147882616,-0.289846459207192,0.0937499971840327));
#1607=CARTESIAN_POINT('',(-2.3984147882616,0.846778935461411,0.0937499971840325));
#1608=CARTESIAN_POINT('',(-2.3984147882616,-0.289846459207192,0.187499997184033));
#1609=CARTESIAN_POINT('Origin',(-2.2984147882616,-0.289846459207192,0.187499997184033));
#1610=CARTESIAN_POINT('',(-2.2984147882616,-0.389846459207192,0.0937499971840327));
#1611=CARTESIAN_POINT('Origin',(-2.2984147882616,-0.289846459207192,0.0937499971840327));
#1612=CARTESIAN_POINT('',(-2.2984147882616,-0.389846459207192,0.187499997184033));
#1613=CARTESIAN_POINT('Origin',(0.776388361344694,-0.389846459207192,0.187499997184033));
#1614=CARTESIAN_POINT('',(0.776388361344694,-0.389846459207192,0.0937499971840327));
#1615=CARTESIAN_POINT('',(-2.2609147882616,-0.389846459207192,0.0937499971840327));
#1616=CARTESIAN_POINT('',(0.776388361344694,-0.389846459207192,0.187499997184033));
#1617=CARTESIAN_POINT('Origin',(0.776388361344695,-0.289846459207192,0.187499997184033));
#1618=CARTESIAN_POINT('',(0.876388361344695,-0.289846459207192,0.0937499971840327));
#1619=CARTESIAN_POINT('Origin',(0.776388361344695,-0.289846459207192,0.0937499971840327));
#1620=CARTESIAN_POINT('',(0.876388361344695,-0.289846459207192,0.187499997184033));
#1621=CARTESIAN_POINT('Origin',(0.876388361344695,1.34677893546141,0.187499997184032));
#1622=CARTESIAN_POINT('',(0.876388361344695,0.84677893546141,0.0937499971840325));
#1623=CARTESIAN_POINT('Origin',(-0.761013213458455,0.52846623812711,0.0937499971840326));
#1624=CARTESIAN_POINT('Origin',(-0.761013213458455,0.52846623812711,0.187499997184033));
#1625=UNCERTAINTY_MEASURE_WITH_UNIT(LENGTH_MEASURE(0.000393700787401575),
#1630,'DISTANCE_ACCURACY_VALUE',
'Maximum model space distance between geometric entities at asserted c
onnectivities');
#1626=UNCERTAINTY_MEASURE_WITH_UNIT(LENGTH_MEASURE(0.000393700787401575),
#1630,'DISTANCE_ACCURACY_VALUE',
'Maximum model space distance between geometric entities at asserted c
onnectivities');
#1627=(
GEOMETRIC_REPRESENTATION_CONTEXT(3)
GLOBAL_UNCERTAINTY_ASSIGNED_CONTEXT((#1625))
GLOBAL_UNIT_ASSIGNED_CONTEXT((#1630,#1634,#1635))
REPRESENTATION_CONTEXT('','3D')
);
#1628=(
GEOMETRIC_REPRESENTATION_CONTEXT(3)
GLOBAL_UNCERTAINTY_ASSIGNED_CONTEXT((#1626))
GLOBAL_UNIT_ASSIGNED_CONTEXT((#1630,#1634,#1635))
REPRESENTATION_CONTEXT('','3D')
);
#1629=DIMENSIONAL_EXPONENTS(1.,0.,0.,0.,0.,0.,0.);
#1630=(
CONVERSION_BASED_UNIT('inch',#1633)
LENGTH_UNIT()
NAMED_UNIT(#1629)
);
#1631=(
LENGTH_UNIT()
NAMED_UNIT(*)
SI_UNIT(.MILLI.,.METRE.)
);
#1632=(
LENGTH_UNIT()
NAMED_UNIT(*)
SI_UNIT($,.METRE.)
);
#1633=LENGTH_MEASURE_WITH_UNIT(LENGTH_MEASURE(25.4),#1631);
#1634=(
NAMED_UNIT(*)
PLANE_ANGLE_UNIT()
SI_UNIT($,.RADIAN.)
);
#1635=(
NAMED_UNIT(*)
SI_UNIT($,.STERADIAN.)
SOLID_ANGLE_UNIT()
);
#1636=SHAPE_DEFINITION_REPRESENTATION(#1637,#1638);
#1637=PRODUCT_DEFINITION_SHAPE('',$,#1640);
#1638=SHAPE_REPRESENTATION('',(#969),#1627);
#1639=PRODUCT_DEFINITION_CONTEXT('part definition',#1644,'design');
#1640=PRODUCT_DEFINITION('Encoder Mount','Encoder Mount v17',#1641,#1639);
#1641=PRODUCT_DEFINITION_FORMATION('',$,#1646);
#1642=PRODUCT_RELATED_PRODUCT_CATEGORY('Encoder Mount v17',
'Encoder Mount v17',(#1646));
#1643=APPLICATION_PROTOCOL_DEFINITION('international standard',
'automotive_design',2009,#1644);
#1644=APPLICATION_CONTEXT(
'Core Data for Automotive Mechanical Design Process');
#1645=PRODUCT_CONTEXT('part definition',#1644,'mechanical');
#1646=PRODUCT('Encoder Mount','Encoder Mount v17',$,(#1645));
#1647=PRESENTATION_STYLE_ASSIGNMENT((#1649));
#1648=PRESENTATION_STYLE_ASSIGNMENT((#1650));
#1649=SURFACE_STYLE_USAGE(.BOTH.,#1651);
#1650=SURFACE_STYLE_USAGE(.BOTH.,#1652);
#1651=SURFACE_SIDE_STYLE('',(#1653));
#1652=SURFACE_SIDE_STYLE('',(#1654));
#1653=SURFACE_STYLE_FILL_AREA(#1655);
#1654=SURFACE_STYLE_FILL_AREA(#1656);
#1655=FILL_AREA_STYLE('Steel - Satin',(#1657));
#1656=FILL_AREA_STYLE('Nylon 12 (with Formlabs Fuse 1 3D Printer)',(#1658));
#1657=FILL_AREA_STYLE_COLOUR('Steel - Satin',#1659);
#1658=FILL_AREA_STYLE_COLOUR(
'Nylon 12 (with Formlabs Fuse 1 3D Printer)',#1660);
#1659=COLOUR_RGB('Steel - Satin',0.627450980392157,0.627450980392157,0.627450980392157);
#1660=COLOUR_RGB('Nylon 12 (with Formlabs Fuse 1 3D Printer)',0.247058823529412,
0.247058823529412,0.247058823529412);
ENDSEC;
END-ISO-10303-21;
