ISO-10303-21;
HEADER;
/* Generated by software containing ST-Developer
 * from STEP Tools, Inc. (www.steptools.com) 
 */

FILE_DESCRIPTION(
/* description */ (''),
/* implementation_level */ '2;1');

FILE_NAME(
/* name */ 'IRreceiverMount.step',
/* time_stamp */ '2026-07-10T21:32:45-04:00',
/* author */ (''),
/* organization */ (''),
/* preprocessor_version */ 'ST-DEVELOPER v20.1',
/* originating_system */ 'Autodesk Translation Framework v15.8.0.0',
/* authorisation */ '');

FILE_SCHEMA (('AUTOMOTIVE_DESIGN { 1 0 10303 214 3 1 1 }'));
ENDSEC;

DATA;
#10=MECHANICAL_DESIGN_GEOMETRIC_PRESENTATION_REPRESENTATION('',(#13,#14),
#1844);
#11=SHAPE_REPRESENTATION_RELATIONSHIP('SRR','None',#1854,#12);
#12=ADVANCED_BREP_SHAPE_REPRESENTATION('',(#15,#16),#1843);
#13=STYLED_ITEM('',(#1864),#15);
#14=STYLED_ITEM('',(#1864),#16);
#15=MANIFOLD_SOLID_BREP('IRmount',#1123);
#16=MANIFOLD_SOLID_BREP('IRcover',#1124);
#17=CIRCLE('',#1154,0.05);
#18=CIRCLE('',#1155,0.05);
#19=CIRCLE('',#1158,0.05);
#20=CIRCLE('',#1159,0.05);
#21=CIRCLE('',#1162,0.0500000000000001);
#22=CIRCLE('',#1163,0.0500000000000001);
#23=CIRCLE('',#1166,0.0499999999999999);
#24=CIRCLE('',#1167,0.0499999999999999);
#25=CIRCLE('',#1173,0.025);
#26=CIRCLE('',#1174,0.025);
#27=CIRCLE('',#1178,0.025);
#28=CIRCLE('',#1179,0.025);
#29=CIRCLE('',#1182,0.025);
#30=CIRCLE('',#1183,0.0250000000000003);
#31=CIRCLE('',#1186,0.0250000000000002);
#32=CIRCLE('',#1187,0.025);
#33=CIRCLE('',#1193,0.0250000000000002);
#34=CIRCLE('',#1196,0.025);
#35=CIRCLE('',#1201,0.025);
#36=CIRCLE('',#1204,0.025);
#37=CIRCLE('',#1207,0.025);
#38=CIRCLE('',#1210,0.025);
#39=CIRCLE('',#1215,0.025);
#40=CIRCLE('',#1218,0.0250000000000003);
#41=CYLINDRICAL_SURFACE('',#1153,0.05);
#42=CYLINDRICAL_SURFACE('',#1157,0.05);
#43=CYLINDRICAL_SURFACE('',#1161,0.0500000000000001);
#44=CYLINDRICAL_SURFACE('',#1165,0.0499999999999999);
#45=CYLINDRICAL_SURFACE('',#1192,0.0250000000000002);
#46=CYLINDRICAL_SURFACE('',#1195,0.025);
#47=CYLINDRICAL_SURFACE('',#1200,0.025);
#48=CYLINDRICAL_SURFACE('',#1203,0.025);
#49=CYLINDRICAL_SURFACE('',#1206,0.025);
#50=CYLINDRICAL_SURFACE('',#1209,0.025);
#51=CYLINDRICAL_SURFACE('',#1214,0.025);
#52=CYLINDRICAL_SURFACE('',#1217,0.0250000000000003);
#53=FACE_BOUND('',#132,.T.);
#54=FACE_BOUND('',#137,.T.);
#55=FACE_BOUND('',#142,.T.);
#56=FACE_BOUND('',#148,.T.);
#57=FACE_BOUND('',#180,.T.);
#58=FACE_OUTER_BOUND('',#117,.T.);
#59=FACE_OUTER_BOUND('',#118,.T.);
#60=FACE_OUTER_BOUND('',#119,.T.);
#61=FACE_OUTER_BOUND('',#120,.T.);
#62=FACE_OUTER_BOUND('',#121,.T.);
#63=FACE_OUTER_BOUND('',#122,.T.);
#64=FACE_OUTER_BOUND('',#123,.T.);
#65=FACE_OUTER_BOUND('',#124,.T.);
#66=FACE_OUTER_BOUND('',#125,.T.);
#67=FACE_OUTER_BOUND('',#126,.T.);
#68=FACE_OUTER_BOUND('',#127,.T.);
#69=FACE_OUTER_BOUND('',#128,.T.);
#70=FACE_OUTER_BOUND('',#129,.T.);
#71=FACE_OUTER_BOUND('',#130,.T.);
#72=FACE_OUTER_BOUND('',#131,.T.);
#73=FACE_OUTER_BOUND('',#133,.T.);
#74=FACE_OUTER_BOUND('',#134,.T.);
#75=FACE_OUTER_BOUND('',#135,.T.);
#76=FACE_OUTER_BOUND('',#136,.T.);
#77=FACE_OUTER_BOUND('',#138,.T.);
#78=FACE_OUTER_BOUND('',#139,.T.);
#79=FACE_OUTER_BOUND('',#140,.T.);
#80=FACE_OUTER_BOUND('',#141,.T.);
#81=FACE_OUTER_BOUND('',#143,.T.);
#82=FACE_OUTER_BOUND('',#144,.T.);
#83=FACE_OUTER_BOUND('',#145,.T.);
#84=FACE_OUTER_BOUND('',#146,.T.);
#85=FACE_OUTER_BOUND('',#147,.T.);
#86=FACE_OUTER_BOUND('',#149,.T.);
#87=FACE_OUTER_BOUND('',#150,.T.);
#88=FACE_OUTER_BOUND('',#151,.T.);
#89=FACE_OUTER_BOUND('',#152,.T.);
#90=FACE_OUTER_BOUND('',#153,.T.);
#91=FACE_OUTER_BOUND('',#154,.T.);
#92=FACE_OUTER_BOUND('',#155,.T.);
#93=FACE_OUTER_BOUND('',#156,.T.);
#94=FACE_OUTER_BOUND('',#157,.T.);
#95=FACE_OUTER_BOUND('',#158,.T.);
#96=FACE_OUTER_BOUND('',#159,.T.);
#97=FACE_OUTER_BOUND('',#160,.T.);
#98=FACE_OUTER_BOUND('',#161,.T.);
#99=FACE_OUTER_BOUND('',#162,.T.);
#100=FACE_OUTER_BOUND('',#163,.T.);
#101=FACE_OUTER_BOUND('',#164,.T.);
#102=FACE_OUTER_BOUND('',#165,.T.);
#103=FACE_OUTER_BOUND('',#166,.T.);
#104=FACE_OUTER_BOUND('',#167,.T.);
#105=FACE_OUTER_BOUND('',#168,.T.);
#106=FACE_OUTER_BOUND('',#169,.T.);
#107=FACE_OUTER_BOUND('',#170,.T.);
#108=FACE_OUTER_BOUND('',#171,.T.);
#109=FACE_OUTER_BOUND('',#172,.T.);
#110=FACE_OUTER_BOUND('',#173,.T.);
#111=FACE_OUTER_BOUND('',#174,.T.);
#112=FACE_OUTER_BOUND('',#175,.T.);
#113=FACE_OUTER_BOUND('',#176,.T.);
#114=FACE_OUTER_BOUND('',#177,.T.);
#115=FACE_OUTER_BOUND('',#178,.T.);
#116=FACE_OUTER_BOUND('',#179,.T.);
#117=EDGE_LOOP('',(#705,#706,#707,#708));
#118=EDGE_LOOP('',(#709,#710,#711,#712));
#119=EDGE_LOOP('',(#713,#714,#715,#716));
#120=EDGE_LOOP('',(#717,#718,#719,#720));
#121=EDGE_LOOP('',(#721,#722,#723,#724));
#122=EDGE_LOOP('',(#725,#726,#727,#728));
#123=EDGE_LOOP('',(#729,#730,#731,#732));
#124=EDGE_LOOP('',(#733,#734,#735,#736));
#125=EDGE_LOOP('',(#737,#738,#739,#740));
#126=EDGE_LOOP('',(#741,#742,#743,#744));
#127=EDGE_LOOP('',(#745,#746,#747,#748));
#128=EDGE_LOOP('',(#749,#750,#751,#752));
#129=EDGE_LOOP('',(#753,#754,#755,#756));
#130=EDGE_LOOP('',(#757,#758,#759,#760));
#131=EDGE_LOOP('',(#761,#762,#763,#764));
#132=EDGE_LOOP('',(#765,#766,#767,#768));
#133=EDGE_LOOP('',(#769,#770,#771,#772));
#134=EDGE_LOOP('',(#773,#774,#775,#776));
#135=EDGE_LOOP('',(#777,#778,#779,#780));
#136=EDGE_LOOP('',(#781,#782,#783,#784));
#137=EDGE_LOOP('',(#785,#786,#787,#788));
#138=EDGE_LOOP('',(#789,#790,#791,#792));
#139=EDGE_LOOP('',(#793,#794,#795,#796));
#140=EDGE_LOOP('',(#797,#798,#799,#800));
#141=EDGE_LOOP('',(#801,#802,#803,#804,#805,#806,#807,#808));
#142=EDGE_LOOP('',(#809,#810,#811,#812));
#143=EDGE_LOOP('',(#813,#814,#815,#816));
#144=EDGE_LOOP('',(#817,#818,#819,#820,#821,#822,#823,#824));
#145=EDGE_LOOP('',(#825,#826,#827,#828));
#146=EDGE_LOOP('',(#829,#830,#831,#832,#833,#834));
#147=EDGE_LOOP('',(#835,#836,#837,#838,#839,#840,#841,#842,#843,#844,#845,
#846));
#148=EDGE_LOOP('',(#847,#848,#849,#850));
#149=EDGE_LOOP('',(#851,#852,#853,#854));
#150=EDGE_LOOP('',(#855,#856,#857,#858,#859,#860));
#151=EDGE_LOOP('',(#861,#862,#863,#864));
#152=EDGE_LOOP('',(#865,#866,#867,#868,#869,#870));
#153=EDGE_LOOP('',(#871,#872,#873,#874));
#154=EDGE_LOOP('',(#875,#876,#877,#878,#879,#880));
#155=EDGE_LOOP('',(#881,#882,#883,#884));
#156=EDGE_LOOP('',(#885,#886,#887,#888));
#157=EDGE_LOOP('',(#889,#890,#891,#892));
#158=EDGE_LOOP('',(#893,#894,#895,#896));
#159=EDGE_LOOP('',(#897,#898,#899,#900));
#160=EDGE_LOOP('',(#901,#902,#903,#904));
#161=EDGE_LOOP('',(#905,#906,#907,#908));
#162=EDGE_LOOP('',(#909,#910,#911,#912,#913,#914));
#163=EDGE_LOOP('',(#915,#916,#917,#918));
#164=EDGE_LOOP('',(#919,#920,#921,#922,#923,#924));
#165=EDGE_LOOP('',(#925,#926,#927,#928));
#166=EDGE_LOOP('',(#929,#930,#931,#932));
#167=EDGE_LOOP('',(#933,#934,#935,#936));
#168=EDGE_LOOP('',(#937,#938,#939,#940,#941,#942,#943,#944));
#169=EDGE_LOOP('',(#945,#946,#947,#948));
#170=EDGE_LOOP('',(#949,#950,#951,#952));
#171=EDGE_LOOP('',(#953,#954,#955,#956));
#172=EDGE_LOOP('',(#957,#958,#959,#960,#961,#962));
#173=EDGE_LOOP('',(#963,#964,#965,#966));
#174=EDGE_LOOP('',(#967,#968,#969,#970,#971,#972));
#175=EDGE_LOOP('',(#973,#974,#975,#976));
#176=EDGE_LOOP('',(#977,#978,#979,#980));
#177=EDGE_LOOP('',(#981,#982,#983,#984));
#178=EDGE_LOOP('',(#985,#986,#987,#988,#989,#990,#991,#992));
#179=EDGE_LOOP('',(#993,#994,#995,#996,#997,#998,#999,#1000,#1001,#1002,
#1003,#1004,#1005,#1006,#1007,#1008,#1009,#1010,#1011,#1012));
#180=EDGE_LOOP('',(#1013,#1014,#1015,#1016));
#181=LINE('',#1525,#313);
#182=LINE('',#1527,#314);
#183=LINE('',#1529,#315);
#184=LINE('',#1530,#316);
#185=LINE('',#1533,#317);
#186=LINE('',#1535,#318);
#187=LINE('',#1536,#319);
#188=LINE('',#1539,#320);
#189=LINE('',#1541,#321);
#190=LINE('',#1542,#322);
#191=LINE('',#1544,#323);
#192=LINE('',#1545,#324);
#193=LINE('',#1550,#325);
#194=LINE('',#1552,#326);
#195=LINE('',#1554,#327);
#196=LINE('',#1555,#328);
#197=LINE('',#1558,#329);
#198=LINE('',#1560,#330);
#199=LINE('',#1561,#331);
#200=LINE('',#1564,#332);
#201=LINE('',#1566,#333);
#202=LINE('',#1567,#334);
#203=LINE('',#1569,#335);
#204=LINE('',#1570,#336);
#205=LINE('',#1575,#337);
#206=LINE('',#1577,#338);
#207=LINE('',#1579,#339);
#208=LINE('',#1580,#340);
#209=LINE('',#1583,#341);
#210=LINE('',#1585,#342);
#211=LINE('',#1586,#343);
#212=LINE('',#1589,#344);
#213=LINE('',#1591,#345);
#214=LINE('',#1592,#346);
#215=LINE('',#1594,#347);
#216=LINE('',#1595,#348);
#217=LINE('',#1599,#349);
#218=LINE('',#1601,#350);
#219=LINE('',#1603,#351);
#220=LINE('',#1604,#352);
#221=LINE('',#1610,#353);
#222=LINE('',#1613,#354);
#223=LINE('',#1615,#355);
#224=LINE('',#1616,#356);
#225=LINE('',#1622,#357);
#226=LINE('',#1625,#358);
#227=LINE('',#1627,#359);
#228=LINE('',#1628,#360);
#229=LINE('',#1634,#361);
#230=LINE('',#1637,#362);
#231=LINE('',#1639,#363);
#232=LINE('',#1640,#364);
#233=LINE('',#1650,#365);
#234=LINE('',#1652,#366);
#235=LINE('',#1654,#367);
#236=LINE('',#1655,#368);
#237=LINE('',#1658,#369);
#238=LINE('',#1660,#370);
#239=LINE('',#1664,#371);
#240=LINE('',#1668,#372);
#241=LINE('',#1670,#373);
#242=LINE('',#1672,#374);
#243=LINE('',#1674,#375);
#244=LINE('',#1676,#376);
#245=LINE('',#1678,#377);
#246=LINE('',#1680,#378);
#247=LINE('',#1682,#379);
#248=LINE('',#1684,#380);
#249=LINE('',#1686,#381);
#250=LINE('',#1687,#382);
#251=LINE('',#1690,#383);
#252=LINE('',#1692,#384);
#253=LINE('',#1694,#385);
#254=LINE('',#1695,#386);
#255=LINE('',#1698,#387);
#256=LINE('',#1700,#388);
#257=LINE('',#1701,#389);
#258=LINE('',#1704,#390);
#259=LINE('',#1708,#391);
#260=LINE('',#1711,#392);
#261=LINE('',#1714,#393);
#262=LINE('',#1716,#394);
#263=LINE('',#1717,#395);
#264=LINE('',#1720,#396);
#265=LINE('',#1722,#397);
#266=LINE('',#1726,#398);
#267=LINE('',#1730,#399);
#268=LINE('',#1732,#400);
#269=LINE('',#1733,#401);
#270=LINE('',#1736,#402);
#271=LINE('',#1740,#403);
#272=LINE('',#1743,#404);
#273=LINE('',#1746,#405);
#274=LINE('',#1748,#406);
#275=LINE('',#1749,#407);
#276=LINE('',#1752,#408);
#277=LINE('',#1753,#409);
#278=LINE('',#1756,#410);
#279=LINE('',#1757,#411);
#280=LINE('',#1759,#412);
#281=LINE('',#1762,#413);
#282=LINE('',#1765,#414);
#283=LINE('',#1768,#415);
#284=LINE('',#1769,#416);
#285=LINE('',#1773,#417);
#286=LINE('',#1776,#418);
#287=LINE('',#1777,#419);
#288=LINE('',#1780,#420);
#289=LINE('',#1781,#421);
#290=LINE('',#1784,#422);
#291=LINE('',#1785,#423);
#292=LINE('',#1789,#424);
#293=LINE('',#1792,#425);
#294=LINE('',#1793,#426);
#295=LINE('',#1797,#427);
#296=LINE('',#1800,#428);
#297=LINE('',#1801,#429);
#298=LINE('',#1805,#430);
#299=LINE('',#1808,#431);
#300=LINE('',#1809,#432);
#301=LINE('',#1813,#433);
#302=LINE('',#1816,#434);
#303=LINE('',#1817,#435);
#304=LINE('',#1820,#436);
#305=LINE('',#1821,#437);
#306=LINE('',#1824,#438);
#307=LINE('',#1825,#439);
#308=LINE('',#1829,#440);
#309=LINE('',#1832,#441);
#310=LINE('',#1833,#442);
#311=LINE('',#1837,#443);
#312=LINE('',#1839,#444);
#313=VECTOR('',#1225,0.393700787401575);
#314=VECTOR('',#1226,0.393700787401575);
#315=VECTOR('',#1227,0.393700787401575);
#316=VECTOR('',#1228,0.393700787401575);
#317=VECTOR('',#1231,0.393700787401575);
#318=VECTOR('',#1232,0.393700787401575);
#319=VECTOR('',#1233,0.393700787401575);
#320=VECTOR('',#1236,0.393700787401575);
#321=VECTOR('',#1237,0.393700787401575);
#322=VECTOR('',#1238,0.393700787401575);
#323=VECTOR('',#1241,0.393700787401575);
#324=VECTOR('',#1242,0.393700787401575);
#325=VECTOR('',#1247,0.393700787401575);
#326=VECTOR('',#1248,0.393700787401575);
#327=VECTOR('',#1249,0.393700787401575);
#328=VECTOR('',#1250,0.393700787401575);
#329=VECTOR('',#1253,0.393700787401575);
#330=VECTOR('',#1254,0.393700787401575);
#331=VECTOR('',#1255,0.393700787401575);
#332=VECTOR('',#1258,0.393700787401575);
#333=VECTOR('',#1259,0.393700787401575);
#334=VECTOR('',#1260,0.393700787401575);
#335=VECTOR('',#1263,0.393700787401575);
#336=VECTOR('',#1264,0.393700787401575);
#337=VECTOR('',#1269,0.393700787401575);
#338=VECTOR('',#1270,0.393700787401575);
#339=VECTOR('',#1271,0.393700787401575);
#340=VECTOR('',#1272,0.393700787401575);
#341=VECTOR('',#1275,0.393700787401575);
#342=VECTOR('',#1276,0.393700787401575);
#343=VECTOR('',#1277,0.393700787401575);
#344=VECTOR('',#1280,0.393700787401575);
#345=VECTOR('',#1281,0.393700787401575);
#346=VECTOR('',#1282,0.393700787401575);
#347=VECTOR('',#1285,0.393700787401575);
#348=VECTOR('',#1286,0.393700787401575);
#349=VECTOR('',#1289,0.393700787401575);
#350=VECTOR('',#1290,0.393700787401575);
#351=VECTOR('',#1291,0.393700787401575);
#352=VECTOR('',#1292,0.393700787401575);
#353=VECTOR('',#1299,0.393700787401575);
#354=VECTOR('',#1302,0.393700787401575);
#355=VECTOR('',#1303,0.393700787401575);
#356=VECTOR('',#1304,0.393700787401575);
#357=VECTOR('',#1311,0.393700787401575);
#358=VECTOR('',#1314,0.393700787401575);
#359=VECTOR('',#1315,0.393700787401575);
#360=VECTOR('',#1316,0.393700787401575);
#361=VECTOR('',#1323,0.393700787401575);
#362=VECTOR('',#1326,0.393700787401575);
#363=VECTOR('',#1327,0.393700787401575);
#364=VECTOR('',#1328,0.393700787401575);
#365=VECTOR('',#1343,0.393700787401575);
#366=VECTOR('',#1344,0.393700787401575);
#367=VECTOR('',#1345,0.393700787401575);
#368=VECTOR('',#1346,0.393700787401575);
#369=VECTOR('',#1349,0.393700787401575);
#370=VECTOR('',#1350,0.393700787401575);
#371=VECTOR('',#1353,0.393700787401575);
#372=VECTOR('',#1358,0.393700787401575);
#373=VECTOR('',#1359,0.393700787401575);
#374=VECTOR('',#1360,0.393700787401575);
#375=VECTOR('',#1361,0.393700787401575);
#376=VECTOR('',#1362,0.393700787401575);
#377=VECTOR('',#1363,0.393700787401575);
#378=VECTOR('',#1364,0.393700787401575);
#379=VECTOR('',#1365,0.393700787401575);
#380=VECTOR('',#1366,0.393700787401575);
#381=VECTOR('',#1367,0.393700787401575);
#382=VECTOR('',#1368,0.393700787401575);
#383=VECTOR('',#1369,0.393700787401575);
#384=VECTOR('',#1370,0.393700787401575);
#385=VECTOR('',#1371,0.393700787401575);
#386=VECTOR('',#1372,0.393700787401575);
#387=VECTOR('',#1375,0.393700787401575);
#388=VECTOR('',#1376,0.393700787401575);
#389=VECTOR('',#1377,0.393700787401575);
#390=VECTOR('',#1380,0.393700787401575);
#391=VECTOR('',#1383,0.393700787401575);
#392=VECTOR('',#1386,0.393700787401575);
#393=VECTOR('',#1389,0.393700787401575);
#394=VECTOR('',#1390,0.393700787401575);
#395=VECTOR('',#1391,0.393700787401575);
#396=VECTOR('',#1394,0.393700787401575);
#397=VECTOR('',#1395,0.393700787401575);
#398=VECTOR('',#1398,0.393700787401575);
#399=VECTOR('',#1403,0.393700787401575);
#400=VECTOR('',#1404,0.393700787401575);
#401=VECTOR('',#1405,0.393700787401575);
#402=VECTOR('',#1408,0.393700787401575);
#403=VECTOR('',#1411,0.393700787401575);
#404=VECTOR('',#1414,0.393700787401575);
#405=VECTOR('',#1417,0.393700787401575);
#406=VECTOR('',#1418,0.393700787401575);
#407=VECTOR('',#1419,0.393700787401575);
#408=VECTOR('',#1422,0.393700787401575);
#409=VECTOR('',#1423,0.393700787401575);
#410=VECTOR('',#1426,0.393700787401575);
#411=VECTOR('',#1427,0.393700787401575);
#412=VECTOR('',#1430,0.393700787401575);
#413=VECTOR('',#1433,0.393700787401575);
#414=VECTOR('',#1436,0.393700787401575);
#415=VECTOR('',#1439,0.393700787401575);
#416=VECTOR('',#1440,0.393700787401575);
#417=VECTOR('',#1445,0.393700787401575);
#418=VECTOR('',#1448,0.393700787401575);
#419=VECTOR('',#1449,0.393700787401575);
#420=VECTOR('',#1452,0.393700787401575);
#421=VECTOR('',#1453,0.393700787401575);
#422=VECTOR('',#1456,0.393700787401575);
#423=VECTOR('',#1457,0.393700787401575);
#424=VECTOR('',#1462,0.393700787401575);
#425=VECTOR('',#1465,0.393700787401575);
#426=VECTOR('',#1466,0.393700787401575);
#427=VECTOR('',#1471,0.393700787401575);
#428=VECTOR('',#1474,0.393700787401575);
#429=VECTOR('',#1475,0.393700787401575);
#430=VECTOR('',#1480,0.393700787401575);
#431=VECTOR('',#1483,0.393700787401575);
#432=VECTOR('',#1484,0.393700787401575);
#433=VECTOR('',#1489,0.393700787401575);
#434=VECTOR('',#1492,0.393700787401575);
#435=VECTOR('',#1493,0.393700787401575);
#436=VECTOR('',#1496,0.393700787401575);
#437=VECTOR('',#1497,0.393700787401575);
#438=VECTOR('',#1500,0.393700787401575);
#439=VECTOR('',#1501,0.393700787401575);
#440=VECTOR('',#1506,0.393700787401575);
#441=VECTOR('',#1509,0.393700787401575);
#442=VECTOR('',#1510,0.393700787401575);
#443=VECTOR('',#1515,0.393700787401575);
#444=VECTOR('',#1518,0.393700787401575);
#445=VERTEX_POINT('',#1523);
#446=VERTEX_POINT('',#1524);
#447=VERTEX_POINT('',#1526);
#448=VERTEX_POINT('',#1528);
#449=VERTEX_POINT('',#1532);
#450=VERTEX_POINT('',#1534);
#451=VERTEX_POINT('',#1538);
#452=VERTEX_POINT('',#1540);
#453=VERTEX_POINT('',#1548);
#454=VERTEX_POINT('',#1549);
#455=VERTEX_POINT('',#1551);
#456=VERTEX_POINT('',#1553);
#457=VERTEX_POINT('',#1557);
#458=VERTEX_POINT('',#1559);
#459=VERTEX_POINT('',#1563);
#460=VERTEX_POINT('',#1565);
#461=VERTEX_POINT('',#1573);
#462=VERTEX_POINT('',#1574);
#463=VERTEX_POINT('',#1576);
#464=VERTEX_POINT('',#1578);
#465=VERTEX_POINT('',#1582);
#466=VERTEX_POINT('',#1584);
#467=VERTEX_POINT('',#1588);
#468=VERTEX_POINT('',#1590);
#469=VERTEX_POINT('',#1597);
#470=VERTEX_POINT('',#1598);
#471=VERTEX_POINT('',#1600);
#472=VERTEX_POINT('',#1602);
#473=VERTEX_POINT('',#1606);
#474=VERTEX_POINT('',#1608);
#475=VERTEX_POINT('',#1612);
#476=VERTEX_POINT('',#1614);
#477=VERTEX_POINT('',#1618);
#478=VERTEX_POINT('',#1620);
#479=VERTEX_POINT('',#1624);
#480=VERTEX_POINT('',#1626);
#481=VERTEX_POINT('',#1630);
#482=VERTEX_POINT('',#1632);
#483=VERTEX_POINT('',#1636);
#484=VERTEX_POINT('',#1638);
#485=VERTEX_POINT('',#1648);
#486=VERTEX_POINT('',#1649);
#487=VERTEX_POINT('',#1651);
#488=VERTEX_POINT('',#1653);
#489=VERTEX_POINT('',#1657);
#490=VERTEX_POINT('',#1659);
#491=VERTEX_POINT('',#1661);
#492=VERTEX_POINT('',#1663);
#493=VERTEX_POINT('',#1667);
#494=VERTEX_POINT('',#1669);
#495=VERTEX_POINT('',#1671);
#496=VERTEX_POINT('',#1673);
#497=VERTEX_POINT('',#1675);
#498=VERTEX_POINT('',#1677);
#499=VERTEX_POINT('',#1679);
#500=VERTEX_POINT('',#1681);
#501=VERTEX_POINT('',#1683);
#502=VERTEX_POINT('',#1685);
#503=VERTEX_POINT('',#1688);
#504=VERTEX_POINT('',#1689);
#505=VERTEX_POINT('',#1691);
#506=VERTEX_POINT('',#1693);
#507=VERTEX_POINT('',#1697);
#508=VERTEX_POINT('',#1699);
#509=VERTEX_POINT('',#1703);
#510=VERTEX_POINT('',#1705);
#511=VERTEX_POINT('',#1707);
#512=VERTEX_POINT('',#1709);
#513=VERTEX_POINT('',#1713);
#514=VERTEX_POINT('',#1715);
#515=VERTEX_POINT('',#1719);
#516=VERTEX_POINT('',#1721);
#517=VERTEX_POINT('',#1723);
#518=VERTEX_POINT('',#1725);
#519=VERTEX_POINT('',#1729);
#520=VERTEX_POINT('',#1731);
#521=VERTEX_POINT('',#1735);
#522=VERTEX_POINT('',#1737);
#523=VERTEX_POINT('',#1739);
#524=VERTEX_POINT('',#1741);
#525=VERTEX_POINT('',#1745);
#526=VERTEX_POINT('',#1747);
#527=VERTEX_POINT('',#1751);
#528=VERTEX_POINT('',#1755);
#529=VERTEX_POINT('',#1761);
#530=VERTEX_POINT('',#1763);
#531=VERTEX_POINT('',#1767);
#532=VERTEX_POINT('',#1771);
#533=VERTEX_POINT('',#1775);
#534=VERTEX_POINT('',#1779);
#535=VERTEX_POINT('',#1783);
#536=VERTEX_POINT('',#1787);
#537=VERTEX_POINT('',#1791);
#538=VERTEX_POINT('',#1795);
#539=VERTEX_POINT('',#1799);
#540=VERTEX_POINT('',#1803);
#541=VERTEX_POINT('',#1807);
#542=VERTEX_POINT('',#1811);
#543=VERTEX_POINT('',#1815);
#544=VERTEX_POINT('',#1819);
#545=VERTEX_POINT('',#1823);
#546=VERTEX_POINT('',#1827);
#547=VERTEX_POINT('',#1831);
#548=VERTEX_POINT('',#1835);
#549=EDGE_CURVE('',#445,#446,#181,.T.);
#550=EDGE_CURVE('',#445,#447,#182,.T.);
#551=EDGE_CURVE('',#448,#447,#183,.T.);
#552=EDGE_CURVE('',#446,#448,#184,.T.);
#553=EDGE_CURVE('',#446,#449,#185,.T.);
#554=EDGE_CURVE('',#450,#448,#186,.T.);
#555=EDGE_CURVE('',#449,#450,#187,.T.);
#556=EDGE_CURVE('',#449,#451,#188,.T.);
#557=EDGE_CURVE('',#452,#450,#189,.T.);
#558=EDGE_CURVE('',#451,#452,#190,.T.);
#559=EDGE_CURVE('',#451,#445,#191,.T.);
#560=EDGE_CURVE('',#447,#452,#192,.T.);
#561=EDGE_CURVE('',#453,#454,#193,.T.);
#562=EDGE_CURVE('',#453,#455,#194,.T.);
#563=EDGE_CURVE('',#456,#455,#195,.T.);
#564=EDGE_CURVE('',#454,#456,#196,.T.);
#565=EDGE_CURVE('',#454,#457,#197,.T.);
#566=EDGE_CURVE('',#458,#456,#198,.T.);
#567=EDGE_CURVE('',#457,#458,#199,.T.);
#568=EDGE_CURVE('',#457,#459,#200,.T.);
#569=EDGE_CURVE('',#460,#458,#201,.T.);
#570=EDGE_CURVE('',#459,#460,#202,.T.);
#571=EDGE_CURVE('',#459,#453,#203,.T.);
#572=EDGE_CURVE('',#455,#460,#204,.T.);
#573=EDGE_CURVE('',#461,#462,#205,.T.);
#574=EDGE_CURVE('',#461,#463,#206,.T.);
#575=EDGE_CURVE('',#464,#463,#207,.T.);
#576=EDGE_CURVE('',#462,#464,#208,.T.);
#577=EDGE_CURVE('',#465,#461,#209,.T.);
#578=EDGE_CURVE('',#465,#466,#210,.T.);
#579=EDGE_CURVE('',#463,#466,#211,.T.);
#580=EDGE_CURVE('',#462,#467,#212,.T.);
#581=EDGE_CURVE('',#468,#464,#213,.T.);
#582=EDGE_CURVE('',#467,#468,#214,.T.);
#583=EDGE_CURVE('',#467,#465,#215,.T.);
#584=EDGE_CURVE('',#466,#468,#216,.T.);
#585=EDGE_CURVE('',#469,#470,#217,.T.);
#586=EDGE_CURVE('',#470,#471,#218,.T.);
#587=EDGE_CURVE('',#472,#471,#219,.T.);
#588=EDGE_CURVE('',#469,#472,#220,.T.);
#589=EDGE_CURVE('',#473,#469,#17,.T.);
#590=EDGE_CURVE('',#474,#472,#18,.T.);
#591=EDGE_CURVE('',#473,#474,#221,.T.);
#592=EDGE_CURVE('',#475,#473,#222,.T.);
#593=EDGE_CURVE('',#476,#474,#223,.T.);
#594=EDGE_CURVE('',#475,#476,#224,.T.);
#595=EDGE_CURVE('',#477,#475,#19,.T.);
#596=EDGE_CURVE('',#478,#476,#20,.T.);
#597=EDGE_CURVE('',#477,#478,#225,.T.);
#598=EDGE_CURVE('',#479,#477,#226,.T.);
#599=EDGE_CURVE('',#480,#478,#227,.T.);
#600=EDGE_CURVE('',#479,#480,#228,.T.);
#601=EDGE_CURVE('',#481,#479,#21,.T.);
#602=EDGE_CURVE('',#482,#480,#22,.T.);
#603=EDGE_CURVE('',#481,#482,#229,.T.);
#604=EDGE_CURVE('',#483,#481,#230,.T.);
#605=EDGE_CURVE('',#484,#482,#231,.T.);
#606=EDGE_CURVE('',#483,#484,#232,.T.);
#607=EDGE_CURVE('',#470,#483,#23,.T.);
#608=EDGE_CURVE('',#471,#484,#24,.T.);
#609=EDGE_CURVE('',#485,#486,#233,.T.);
#610=EDGE_CURVE('',#485,#487,#234,.T.);
#611=EDGE_CURVE('',#488,#487,#235,.T.);
#612=EDGE_CURVE('',#486,#488,#236,.T.);
#613=EDGE_CURVE('',#489,#488,#237,.T.);
#614=EDGE_CURVE('',#487,#490,#238,.T.);
#615=EDGE_CURVE('',#490,#491,#25,.T.);
#616=EDGE_CURVE('',#491,#492,#239,.T.);
#617=EDGE_CURVE('',#492,#489,#26,.T.);
#618=EDGE_CURVE('',#493,#486,#240,.T.);
#619=EDGE_CURVE('',#494,#493,#241,.T.);
#620=EDGE_CURVE('',#495,#494,#242,.T.);
#621=EDGE_CURVE('',#495,#496,#243,.T.);
#622=EDGE_CURVE('',#497,#496,#244,.T.);
#623=EDGE_CURVE('',#497,#498,#245,.T.);
#624=EDGE_CURVE('',#499,#498,#246,.T.);
#625=EDGE_CURVE('',#500,#499,#247,.T.);
#626=EDGE_CURVE('',#501,#500,#248,.T.);
#627=EDGE_CURVE('',#501,#502,#249,.T.);
#628=EDGE_CURVE('',#485,#502,#250,.T.);
#629=EDGE_CURVE('',#503,#504,#251,.T.);
#630=EDGE_CURVE('',#505,#503,#252,.T.);
#631=EDGE_CURVE('',#506,#505,#253,.T.);
#632=EDGE_CURVE('',#504,#506,#254,.T.);
#633=EDGE_CURVE('',#501,#507,#255,.T.);
#634=EDGE_CURVE('',#508,#507,#256,.T.);
#635=EDGE_CURVE('',#502,#508,#257,.T.);
#636=EDGE_CURVE('',#507,#509,#258,.T.);
#637=EDGE_CURVE('',#509,#510,#27,.T.);
#638=EDGE_CURVE('',#510,#511,#259,.T.);
#639=EDGE_CURVE('',#511,#512,#28,.T.);
#640=EDGE_CURVE('',#512,#508,#260,.T.);
#641=EDGE_CURVE('',#495,#513,#261,.T.);
#642=EDGE_CURVE('',#514,#513,#262,.T.);
#643=EDGE_CURVE('',#496,#514,#263,.T.);
#644=EDGE_CURVE('',#515,#514,#264,.T.);
#645=EDGE_CURVE('',#513,#516,#265,.T.);
#646=EDGE_CURVE('',#516,#517,#29,.T.);
#647=EDGE_CURVE('',#517,#518,#266,.T.);
#648=EDGE_CURVE('',#518,#515,#30,.T.);
#649=EDGE_CURVE('',#497,#519,#267,.T.);
#650=EDGE_CURVE('',#520,#519,#268,.T.);
#651=EDGE_CURVE('',#498,#520,#269,.T.);
#652=EDGE_CURVE('',#519,#521,#270,.T.);
#653=EDGE_CURVE('',#521,#522,#31,.T.);
#654=EDGE_CURVE('',#522,#523,#271,.T.);
#655=EDGE_CURVE('',#523,#524,#32,.T.);
#656=EDGE_CURVE('',#524,#520,#272,.T.);
#657=EDGE_CURVE('',#503,#525,#273,.T.);
#658=EDGE_CURVE('',#526,#525,#274,.T.);
#659=EDGE_CURVE('',#505,#526,#275,.T.);
#660=EDGE_CURVE('',#527,#526,#276,.T.);
#661=EDGE_CURVE('',#506,#527,#277,.T.);
#662=EDGE_CURVE('',#528,#527,#278,.T.);
#663=EDGE_CURVE('',#504,#528,#279,.T.);
#664=EDGE_CURVE('',#525,#528,#280,.T.);
#665=EDGE_CURVE('',#521,#529,#281,.T.);
#666=EDGE_CURVE('',#530,#529,#33,.T.);
#667=EDGE_CURVE('',#522,#530,#282,.T.);
#668=EDGE_CURVE('',#531,#530,#283,.T.);
#669=EDGE_CURVE('',#523,#531,#284,.T.);
#670=EDGE_CURVE('',#532,#531,#34,.T.);
#671=EDGE_CURVE('',#524,#532,#285,.T.);
#672=EDGE_CURVE('',#533,#532,#286,.T.);
#673=EDGE_CURVE('',#499,#533,#287,.T.);
#674=EDGE_CURVE('',#534,#533,#288,.T.);
#675=EDGE_CURVE('',#500,#534,#289,.T.);
#676=EDGE_CURVE('',#535,#534,#290,.T.);
#677=EDGE_CURVE('',#509,#535,#291,.T.);
#678=EDGE_CURVE('',#536,#535,#35,.T.);
#679=EDGE_CURVE('',#510,#536,#292,.T.);
#680=EDGE_CURVE('',#537,#536,#293,.T.);
#681=EDGE_CURVE('',#511,#537,#294,.T.);
#682=EDGE_CURVE('',#538,#537,#36,.T.);
#683=EDGE_CURVE('',#512,#538,#295,.T.);
#684=EDGE_CURVE('',#539,#538,#296,.T.);
#685=EDGE_CURVE('',#490,#539,#297,.T.);
#686=EDGE_CURVE('',#540,#539,#37,.T.);
#687=EDGE_CURVE('',#491,#540,#298,.T.);
#688=EDGE_CURVE('',#541,#540,#299,.T.);
#689=EDGE_CURVE('',#492,#541,#300,.T.);
#690=EDGE_CURVE('',#542,#541,#38,.T.);
#691=EDGE_CURVE('',#489,#542,#301,.T.);
#692=EDGE_CURVE('',#543,#542,#302,.T.);
#693=EDGE_CURVE('',#493,#543,#303,.T.);
#694=EDGE_CURVE('',#544,#543,#304,.T.);
#695=EDGE_CURVE('',#494,#544,#305,.T.);
#696=EDGE_CURVE('',#545,#544,#306,.T.);
#697=EDGE_CURVE('',#516,#545,#307,.T.);
#698=EDGE_CURVE('',#546,#545,#39,.T.);
#699=EDGE_CURVE('',#517,#546,#308,.T.);
#700=EDGE_CURVE('',#547,#546,#309,.T.);
#701=EDGE_CURVE('',#518,#547,#310,.T.);
#702=EDGE_CURVE('',#548,#547,#40,.T.);
#703=EDGE_CURVE('',#515,#548,#311,.T.);
#704=EDGE_CURVE('',#529,#548,#312,.T.);
#705=ORIENTED_EDGE('',*,*,#549,.F.);
#706=ORIENTED_EDGE('',*,*,#550,.T.);
#707=ORIENTED_EDGE('',*,*,#551,.F.);
#708=ORIENTED_EDGE('',*,*,#552,.F.);
#709=ORIENTED_EDGE('',*,*,#553,.F.);
#710=ORIENTED_EDGE('',*,*,#552,.T.);
#711=ORIENTED_EDGE('',*,*,#554,.F.);
#712=ORIENTED_EDGE('',*,*,#555,.F.);
#713=ORIENTED_EDGE('',*,*,#556,.F.);
#714=ORIENTED_EDGE('',*,*,#555,.T.);
#715=ORIENTED_EDGE('',*,*,#557,.F.);
#716=ORIENTED_EDGE('',*,*,#558,.F.);
#717=ORIENTED_EDGE('',*,*,#559,.F.);
#718=ORIENTED_EDGE('',*,*,#558,.T.);
#719=ORIENTED_EDGE('',*,*,#560,.F.);
#720=ORIENTED_EDGE('',*,*,#550,.F.);
#721=ORIENTED_EDGE('',*,*,#560,.T.);
#722=ORIENTED_EDGE('',*,*,#557,.T.);
#723=ORIENTED_EDGE('',*,*,#554,.T.);
#724=ORIENTED_EDGE('',*,*,#551,.T.);
#725=ORIENTED_EDGE('',*,*,#561,.F.);
#726=ORIENTED_EDGE('',*,*,#562,.T.);
#727=ORIENTED_EDGE('',*,*,#563,.F.);
#728=ORIENTED_EDGE('',*,*,#564,.F.);
#729=ORIENTED_EDGE('',*,*,#565,.F.);
#730=ORIENTED_EDGE('',*,*,#564,.T.);
#731=ORIENTED_EDGE('',*,*,#566,.F.);
#732=ORIENTED_EDGE('',*,*,#567,.F.);
#733=ORIENTED_EDGE('',*,*,#568,.F.);
#734=ORIENTED_EDGE('',*,*,#567,.T.);
#735=ORIENTED_EDGE('',*,*,#569,.F.);
#736=ORIENTED_EDGE('',*,*,#570,.F.);
#737=ORIENTED_EDGE('',*,*,#571,.F.);
#738=ORIENTED_EDGE('',*,*,#570,.T.);
#739=ORIENTED_EDGE('',*,*,#572,.F.);
#740=ORIENTED_EDGE('',*,*,#562,.F.);
#741=ORIENTED_EDGE('',*,*,#572,.T.);
#742=ORIENTED_EDGE('',*,*,#569,.T.);
#743=ORIENTED_EDGE('',*,*,#566,.T.);
#744=ORIENTED_EDGE('',*,*,#563,.T.);
#745=ORIENTED_EDGE('',*,*,#573,.F.);
#746=ORIENTED_EDGE('',*,*,#574,.T.);
#747=ORIENTED_EDGE('',*,*,#575,.F.);
#748=ORIENTED_EDGE('',*,*,#576,.F.);
#749=ORIENTED_EDGE('',*,*,#577,.F.);
#750=ORIENTED_EDGE('',*,*,#578,.T.);
#751=ORIENTED_EDGE('',*,*,#579,.F.);
#752=ORIENTED_EDGE('',*,*,#574,.F.);
#753=ORIENTED_EDGE('',*,*,#580,.F.);
#754=ORIENTED_EDGE('',*,*,#576,.T.);
#755=ORIENTED_EDGE('',*,*,#581,.F.);
#756=ORIENTED_EDGE('',*,*,#582,.F.);
#757=ORIENTED_EDGE('',*,*,#583,.F.);
#758=ORIENTED_EDGE('',*,*,#582,.T.);
#759=ORIENTED_EDGE('',*,*,#584,.F.);
#760=ORIENTED_EDGE('',*,*,#578,.F.);
#761=ORIENTED_EDGE('',*,*,#585,.T.);
#762=ORIENTED_EDGE('',*,*,#586,.T.);
#763=ORIENTED_EDGE('',*,*,#587,.F.);
#764=ORIENTED_EDGE('',*,*,#588,.F.);
#765=ORIENTED_EDGE('',*,*,#561,.T.);
#766=ORIENTED_EDGE('',*,*,#565,.T.);
#767=ORIENTED_EDGE('',*,*,#568,.T.);
#768=ORIENTED_EDGE('',*,*,#571,.T.);
#769=ORIENTED_EDGE('',*,*,#589,.T.);
#770=ORIENTED_EDGE('',*,*,#588,.T.);
#771=ORIENTED_EDGE('',*,*,#590,.F.);
#772=ORIENTED_EDGE('',*,*,#591,.F.);
#773=ORIENTED_EDGE('',*,*,#592,.T.);
#774=ORIENTED_EDGE('',*,*,#591,.T.);
#775=ORIENTED_EDGE('',*,*,#593,.F.);
#776=ORIENTED_EDGE('',*,*,#594,.F.);
#777=ORIENTED_EDGE('',*,*,#595,.T.);
#778=ORIENTED_EDGE('',*,*,#594,.T.);
#779=ORIENTED_EDGE('',*,*,#596,.F.);
#780=ORIENTED_EDGE('',*,*,#597,.F.);
#781=ORIENTED_EDGE('',*,*,#598,.T.);
#782=ORIENTED_EDGE('',*,*,#597,.T.);
#783=ORIENTED_EDGE('',*,*,#599,.F.);
#784=ORIENTED_EDGE('',*,*,#600,.F.);
#785=ORIENTED_EDGE('',*,*,#549,.T.);
#786=ORIENTED_EDGE('',*,*,#553,.T.);
#787=ORIENTED_EDGE('',*,*,#556,.T.);
#788=ORIENTED_EDGE('',*,*,#559,.T.);
#789=ORIENTED_EDGE('',*,*,#601,.T.);
#790=ORIENTED_EDGE('',*,*,#600,.T.);
#791=ORIENTED_EDGE('',*,*,#602,.F.);
#792=ORIENTED_EDGE('',*,*,#603,.F.);
#793=ORIENTED_EDGE('',*,*,#604,.T.);
#794=ORIENTED_EDGE('',*,*,#603,.T.);
#795=ORIENTED_EDGE('',*,*,#605,.F.);
#796=ORIENTED_EDGE('',*,*,#606,.F.);
#797=ORIENTED_EDGE('',*,*,#607,.T.);
#798=ORIENTED_EDGE('',*,*,#606,.T.);
#799=ORIENTED_EDGE('',*,*,#608,.F.);
#800=ORIENTED_EDGE('',*,*,#586,.F.);
#801=ORIENTED_EDGE('',*,*,#608,.T.);
#802=ORIENTED_EDGE('',*,*,#605,.T.);
#803=ORIENTED_EDGE('',*,*,#602,.T.);
#804=ORIENTED_EDGE('',*,*,#599,.T.);
#805=ORIENTED_EDGE('',*,*,#596,.T.);
#806=ORIENTED_EDGE('',*,*,#593,.T.);
#807=ORIENTED_EDGE('',*,*,#590,.T.);
#808=ORIENTED_EDGE('',*,*,#587,.T.);
#809=ORIENTED_EDGE('',*,*,#579,.T.);
#810=ORIENTED_EDGE('',*,*,#584,.T.);
#811=ORIENTED_EDGE('',*,*,#581,.T.);
#812=ORIENTED_EDGE('',*,*,#575,.T.);
#813=ORIENTED_EDGE('',*,*,#577,.T.);
#814=ORIENTED_EDGE('',*,*,#573,.T.);
#815=ORIENTED_EDGE('',*,*,#580,.T.);
#816=ORIENTED_EDGE('',*,*,#583,.T.);
#817=ORIENTED_EDGE('',*,*,#607,.F.);
#818=ORIENTED_EDGE('',*,*,#585,.F.);
#819=ORIENTED_EDGE('',*,*,#589,.F.);
#820=ORIENTED_EDGE('',*,*,#592,.F.);
#821=ORIENTED_EDGE('',*,*,#595,.F.);
#822=ORIENTED_EDGE('',*,*,#598,.F.);
#823=ORIENTED_EDGE('',*,*,#601,.F.);
#824=ORIENTED_EDGE('',*,*,#604,.F.);
#825=ORIENTED_EDGE('',*,*,#609,.F.);
#826=ORIENTED_EDGE('',*,*,#610,.T.);
#827=ORIENTED_EDGE('',*,*,#611,.F.);
#828=ORIENTED_EDGE('',*,*,#612,.F.);
#829=ORIENTED_EDGE('',*,*,#613,.T.);
#830=ORIENTED_EDGE('',*,*,#611,.T.);
#831=ORIENTED_EDGE('',*,*,#614,.T.);
#832=ORIENTED_EDGE('',*,*,#615,.T.);
#833=ORIENTED_EDGE('',*,*,#616,.T.);
#834=ORIENTED_EDGE('',*,*,#617,.T.);
#835=ORIENTED_EDGE('',*,*,#609,.T.);
#836=ORIENTED_EDGE('',*,*,#618,.F.);
#837=ORIENTED_EDGE('',*,*,#619,.F.);
#838=ORIENTED_EDGE('',*,*,#620,.F.);
#839=ORIENTED_EDGE('',*,*,#621,.T.);
#840=ORIENTED_EDGE('',*,*,#622,.F.);
#841=ORIENTED_EDGE('',*,*,#623,.T.);
#842=ORIENTED_EDGE('',*,*,#624,.F.);
#843=ORIENTED_EDGE('',*,*,#625,.F.);
#844=ORIENTED_EDGE('',*,*,#626,.F.);
#845=ORIENTED_EDGE('',*,*,#627,.T.);
#846=ORIENTED_EDGE('',*,*,#628,.F.);
#847=ORIENTED_EDGE('',*,*,#629,.F.);
#848=ORIENTED_EDGE('',*,*,#630,.F.);
#849=ORIENTED_EDGE('',*,*,#631,.F.);
#850=ORIENTED_EDGE('',*,*,#632,.F.);
#851=ORIENTED_EDGE('',*,*,#627,.F.);
#852=ORIENTED_EDGE('',*,*,#633,.T.);
#853=ORIENTED_EDGE('',*,*,#634,.F.);
#854=ORIENTED_EDGE('',*,*,#635,.F.);
#855=ORIENTED_EDGE('',*,*,#634,.T.);
#856=ORIENTED_EDGE('',*,*,#636,.T.);
#857=ORIENTED_EDGE('',*,*,#637,.T.);
#858=ORIENTED_EDGE('',*,*,#638,.T.);
#859=ORIENTED_EDGE('',*,*,#639,.T.);
#860=ORIENTED_EDGE('',*,*,#640,.T.);
#861=ORIENTED_EDGE('',*,*,#621,.F.);
#862=ORIENTED_EDGE('',*,*,#641,.T.);
#863=ORIENTED_EDGE('',*,*,#642,.F.);
#864=ORIENTED_EDGE('',*,*,#643,.F.);
#865=ORIENTED_EDGE('',*,*,#644,.T.);
#866=ORIENTED_EDGE('',*,*,#642,.T.);
#867=ORIENTED_EDGE('',*,*,#645,.T.);
#868=ORIENTED_EDGE('',*,*,#646,.T.);
#869=ORIENTED_EDGE('',*,*,#647,.T.);
#870=ORIENTED_EDGE('',*,*,#648,.T.);
#871=ORIENTED_EDGE('',*,*,#623,.F.);
#872=ORIENTED_EDGE('',*,*,#649,.T.);
#873=ORIENTED_EDGE('',*,*,#650,.F.);
#874=ORIENTED_EDGE('',*,*,#651,.F.);
#875=ORIENTED_EDGE('',*,*,#650,.T.);
#876=ORIENTED_EDGE('',*,*,#652,.T.);
#877=ORIENTED_EDGE('',*,*,#653,.T.);
#878=ORIENTED_EDGE('',*,*,#654,.T.);
#879=ORIENTED_EDGE('',*,*,#655,.T.);
#880=ORIENTED_EDGE('',*,*,#656,.T.);
#881=ORIENTED_EDGE('',*,*,#630,.T.);
#882=ORIENTED_EDGE('',*,*,#657,.T.);
#883=ORIENTED_EDGE('',*,*,#658,.F.);
#884=ORIENTED_EDGE('',*,*,#659,.F.);
#885=ORIENTED_EDGE('',*,*,#631,.T.);
#886=ORIENTED_EDGE('',*,*,#659,.T.);
#887=ORIENTED_EDGE('',*,*,#660,.F.);
#888=ORIENTED_EDGE('',*,*,#661,.F.);
#889=ORIENTED_EDGE('',*,*,#632,.T.);
#890=ORIENTED_EDGE('',*,*,#661,.T.);
#891=ORIENTED_EDGE('',*,*,#662,.F.);
#892=ORIENTED_EDGE('',*,*,#663,.F.);
#893=ORIENTED_EDGE('',*,*,#629,.T.);
#894=ORIENTED_EDGE('',*,*,#663,.T.);
#895=ORIENTED_EDGE('',*,*,#664,.F.);
#896=ORIENTED_EDGE('',*,*,#657,.F.);
#897=ORIENTED_EDGE('',*,*,#665,.T.);
#898=ORIENTED_EDGE('',*,*,#666,.F.);
#899=ORIENTED_EDGE('',*,*,#667,.F.);
#900=ORIENTED_EDGE('',*,*,#653,.F.);
#901=ORIENTED_EDGE('',*,*,#667,.T.);
#902=ORIENTED_EDGE('',*,*,#668,.F.);
#903=ORIENTED_EDGE('',*,*,#669,.F.);
#904=ORIENTED_EDGE('',*,*,#654,.F.);
#905=ORIENTED_EDGE('',*,*,#669,.T.);
#906=ORIENTED_EDGE('',*,*,#670,.F.);
#907=ORIENTED_EDGE('',*,*,#671,.F.);
#908=ORIENTED_EDGE('',*,*,#655,.F.);
#909=ORIENTED_EDGE('',*,*,#624,.T.);
#910=ORIENTED_EDGE('',*,*,#651,.T.);
#911=ORIENTED_EDGE('',*,*,#656,.F.);
#912=ORIENTED_EDGE('',*,*,#671,.T.);
#913=ORIENTED_EDGE('',*,*,#672,.F.);
#914=ORIENTED_EDGE('',*,*,#673,.F.);
#915=ORIENTED_EDGE('',*,*,#625,.T.);
#916=ORIENTED_EDGE('',*,*,#673,.T.);
#917=ORIENTED_EDGE('',*,*,#674,.F.);
#918=ORIENTED_EDGE('',*,*,#675,.F.);
#919=ORIENTED_EDGE('',*,*,#626,.T.);
#920=ORIENTED_EDGE('',*,*,#675,.T.);
#921=ORIENTED_EDGE('',*,*,#676,.F.);
#922=ORIENTED_EDGE('',*,*,#677,.F.);
#923=ORIENTED_EDGE('',*,*,#636,.F.);
#924=ORIENTED_EDGE('',*,*,#633,.F.);
#925=ORIENTED_EDGE('',*,*,#677,.T.);
#926=ORIENTED_EDGE('',*,*,#678,.F.);
#927=ORIENTED_EDGE('',*,*,#679,.F.);
#928=ORIENTED_EDGE('',*,*,#637,.F.);
#929=ORIENTED_EDGE('',*,*,#679,.T.);
#930=ORIENTED_EDGE('',*,*,#680,.F.);
#931=ORIENTED_EDGE('',*,*,#681,.F.);
#932=ORIENTED_EDGE('',*,*,#638,.F.);
#933=ORIENTED_EDGE('',*,*,#681,.T.);
#934=ORIENTED_EDGE('',*,*,#682,.F.);
#935=ORIENTED_EDGE('',*,*,#683,.F.);
#936=ORIENTED_EDGE('',*,*,#639,.F.);
#937=ORIENTED_EDGE('',*,*,#628,.T.);
#938=ORIENTED_EDGE('',*,*,#635,.T.);
#939=ORIENTED_EDGE('',*,*,#640,.F.);
#940=ORIENTED_EDGE('',*,*,#683,.T.);
#941=ORIENTED_EDGE('',*,*,#684,.F.);
#942=ORIENTED_EDGE('',*,*,#685,.F.);
#943=ORIENTED_EDGE('',*,*,#614,.F.);
#944=ORIENTED_EDGE('',*,*,#610,.F.);
#945=ORIENTED_EDGE('',*,*,#685,.T.);
#946=ORIENTED_EDGE('',*,*,#686,.F.);
#947=ORIENTED_EDGE('',*,*,#687,.F.);
#948=ORIENTED_EDGE('',*,*,#615,.F.);
#949=ORIENTED_EDGE('',*,*,#687,.T.);
#950=ORIENTED_EDGE('',*,*,#688,.F.);
#951=ORIENTED_EDGE('',*,*,#689,.F.);
#952=ORIENTED_EDGE('',*,*,#616,.F.);
#953=ORIENTED_EDGE('',*,*,#689,.T.);
#954=ORIENTED_EDGE('',*,*,#690,.F.);
#955=ORIENTED_EDGE('',*,*,#691,.F.);
#956=ORIENTED_EDGE('',*,*,#617,.F.);
#957=ORIENTED_EDGE('',*,*,#618,.T.);
#958=ORIENTED_EDGE('',*,*,#612,.T.);
#959=ORIENTED_EDGE('',*,*,#613,.F.);
#960=ORIENTED_EDGE('',*,*,#691,.T.);
#961=ORIENTED_EDGE('',*,*,#692,.F.);
#962=ORIENTED_EDGE('',*,*,#693,.F.);
#963=ORIENTED_EDGE('',*,*,#619,.T.);
#964=ORIENTED_EDGE('',*,*,#693,.T.);
#965=ORIENTED_EDGE('',*,*,#694,.F.);
#966=ORIENTED_EDGE('',*,*,#695,.F.);
#967=ORIENTED_EDGE('',*,*,#620,.T.);
#968=ORIENTED_EDGE('',*,*,#695,.T.);
#969=ORIENTED_EDGE('',*,*,#696,.F.);
#970=ORIENTED_EDGE('',*,*,#697,.F.);
#971=ORIENTED_EDGE('',*,*,#645,.F.);
#972=ORIENTED_EDGE('',*,*,#641,.F.);
#973=ORIENTED_EDGE('',*,*,#697,.T.);
#974=ORIENTED_EDGE('',*,*,#698,.F.);
#975=ORIENTED_EDGE('',*,*,#699,.F.);
#976=ORIENTED_EDGE('',*,*,#646,.F.);
#977=ORIENTED_EDGE('',*,*,#699,.T.);
#978=ORIENTED_EDGE('',*,*,#700,.F.);
#979=ORIENTED_EDGE('',*,*,#701,.F.);
#980=ORIENTED_EDGE('',*,*,#647,.F.);
#981=ORIENTED_EDGE('',*,*,#701,.T.);
#982=ORIENTED_EDGE('',*,*,#702,.F.);
#983=ORIENTED_EDGE('',*,*,#703,.F.);
#984=ORIENTED_EDGE('',*,*,#648,.F.);
#985=ORIENTED_EDGE('',*,*,#622,.T.);
#986=ORIENTED_EDGE('',*,*,#643,.T.);
#987=ORIENTED_EDGE('',*,*,#644,.F.);
#988=ORIENTED_EDGE('',*,*,#703,.T.);
#989=ORIENTED_EDGE('',*,*,#704,.F.);
#990=ORIENTED_EDGE('',*,*,#665,.F.);
#991=ORIENTED_EDGE('',*,*,#652,.F.);
#992=ORIENTED_EDGE('',*,*,#649,.F.);
#993=ORIENTED_EDGE('',*,*,#704,.T.);
#994=ORIENTED_EDGE('',*,*,#702,.T.);
#995=ORIENTED_EDGE('',*,*,#700,.T.);
#996=ORIENTED_EDGE('',*,*,#698,.T.);
#997=ORIENTED_EDGE('',*,*,#696,.T.);
#998=ORIENTED_EDGE('',*,*,#694,.T.);
#999=ORIENTED_EDGE('',*,*,#692,.T.);
#1000=ORIENTED_EDGE('',*,*,#690,.T.);
#1001=ORIENTED_EDGE('',*,*,#688,.T.);
#1002=ORIENTED_EDGE('',*,*,#686,.T.);
#1003=ORIENTED_EDGE('',*,*,#684,.T.);
#1004=ORIENTED_EDGE('',*,*,#682,.T.);
#1005=ORIENTED_EDGE('',*,*,#680,.T.);
#1006=ORIENTED_EDGE('',*,*,#678,.T.);
#1007=ORIENTED_EDGE('',*,*,#676,.T.);
#1008=ORIENTED_EDGE('',*,*,#674,.T.);
#1009=ORIENTED_EDGE('',*,*,#672,.T.);
#1010=ORIENTED_EDGE('',*,*,#670,.T.);
#1011=ORIENTED_EDGE('',*,*,#668,.T.);
#1012=ORIENTED_EDGE('',*,*,#666,.T.);
#1013=ORIENTED_EDGE('',*,*,#664,.T.);
#1014=ORIENTED_EDGE('',*,*,#662,.T.);
#1015=ORIENTED_EDGE('',*,*,#660,.T.);
#1016=ORIENTED_EDGE('',*,*,#658,.T.);
#1017=PLANE('',#1138);
#1018=PLANE('',#1139);
#1019=PLANE('',#1140);
#1020=PLANE('',#1141);
#1021=PLANE('',#1142);
#1022=PLANE('',#1143);
#1023=PLANE('',#1144);
#1024=PLANE('',#1145);
#1025=PLANE('',#1146);
#1026=PLANE('',#1147);
#1027=PLANE('',#1148);
#1028=PLANE('',#1149);
#1029=PLANE('',#1150);
#1030=PLANE('',#1151);
#1031=PLANE('',#1152);
#1032=PLANE('',#1156);
#1033=PLANE('',#1160);
#1034=PLANE('',#1164);
#1035=PLANE('',#1168);
#1036=PLANE('',#1169);
#1037=PLANE('',#1170);
#1038=PLANE('',#1171);
#1039=PLANE('',#1172);
#1040=PLANE('',#1175);
#1041=PLANE('',#1176);
#1042=PLANE('',#1177);
#1043=PLANE('',#1180);
#1044=PLANE('',#1181);
#1045=PLANE('',#1184);
#1046=PLANE('',#1185);
#1047=PLANE('',#1188);
#1048=PLANE('',#1189);
#1049=PLANE('',#1190);
#1050=PLANE('',#1191);
#1051=PLANE('',#1194);
#1052=PLANE('',#1197);
#1053=PLANE('',#1198);
#1054=PLANE('',#1199);
#1055=PLANE('',#1202);
#1056=PLANE('',#1205);
#1057=PLANE('',#1208);
#1058=PLANE('',#1211);
#1059=PLANE('',#1212);
#1060=PLANE('',#1213);
#1061=PLANE('',#1216);
#1062=PLANE('',#1219);
#1063=PLANE('',#1220);
#1064=ADVANCED_FACE('',(#58),#1017,.T.);
#1065=ADVANCED_FACE('',(#59),#1018,.T.);
#1066=ADVANCED_FACE('',(#60),#1019,.T.);
#1067=ADVANCED_FACE('',(#61),#1020,.T.);
#1068=ADVANCED_FACE('',(#62),#1021,.T.);
#1069=ADVANCED_FACE('',(#63),#1022,.T.);
#1070=ADVANCED_FACE('',(#64),#1023,.T.);
#1071=ADVANCED_FACE('',(#65),#1024,.T.);
#1072=ADVANCED_FACE('',(#66),#1025,.T.);
#1073=ADVANCED_FACE('',(#67),#1026,.T.);
#1074=ADVANCED_FACE('',(#68),#1027,.T.);
#1075=ADVANCED_FACE('',(#69),#1028,.T.);
#1076=ADVANCED_FACE('',(#70),#1029,.T.);
#1077=ADVANCED_FACE('',(#71),#1030,.T.);
#1078=ADVANCED_FACE('',(#72,#53),#1031,.T.);
#1079=ADVANCED_FACE('',(#73),#41,.T.);
#1080=ADVANCED_FACE('',(#74),#1032,.T.);
#1081=ADVANCED_FACE('',(#75),#42,.T.);
#1082=ADVANCED_FACE('',(#76,#54),#1033,.T.);
#1083=ADVANCED_FACE('',(#77),#43,.T.);
#1084=ADVANCED_FACE('',(#78),#1034,.T.);
#1085=ADVANCED_FACE('',(#79),#44,.T.);
#1086=ADVANCED_FACE('',(#80,#55),#1035,.T.);
#1087=ADVANCED_FACE('',(#81),#1036,.T.);
#1088=ADVANCED_FACE('',(#82),#1037,.F.);
#1089=ADVANCED_FACE('',(#83),#1038,.T.);
#1090=ADVANCED_FACE('',(#84),#1039,.F.);
#1091=ADVANCED_FACE('',(#85,#56),#1040,.F.);
#1092=ADVANCED_FACE('',(#86),#1041,.T.);
#1093=ADVANCED_FACE('',(#87),#1042,.F.);
#1094=ADVANCED_FACE('',(#88),#1043,.T.);
#1095=ADVANCED_FACE('',(#89),#1044,.F.);
#1096=ADVANCED_FACE('',(#90),#1045,.T.);
#1097=ADVANCED_FACE('',(#91),#1046,.F.);
#1098=ADVANCED_FACE('',(#92),#1047,.T.);
#1099=ADVANCED_FACE('',(#93),#1048,.T.);
#1100=ADVANCED_FACE('',(#94),#1049,.T.);
#1101=ADVANCED_FACE('',(#95),#1050,.T.);
#1102=ADVANCED_FACE('',(#96),#45,.T.);
#1103=ADVANCED_FACE('',(#97),#1051,.T.);
#1104=ADVANCED_FACE('',(#98),#46,.T.);
#1105=ADVANCED_FACE('',(#99),#1052,.T.);
#1106=ADVANCED_FACE('',(#100),#1053,.T.);
#1107=ADVANCED_FACE('',(#101),#1054,.T.);
#1108=ADVANCED_FACE('',(#102),#47,.T.);
#1109=ADVANCED_FACE('',(#103),#1055,.T.);
#1110=ADVANCED_FACE('',(#104),#48,.T.);
#1111=ADVANCED_FACE('',(#105),#1056,.T.);
#1112=ADVANCED_FACE('',(#106),#49,.T.);
#1113=ADVANCED_FACE('',(#107),#1057,.T.);
#1114=ADVANCED_FACE('',(#108),#50,.T.);
#1115=ADVANCED_FACE('',(#109),#1058,.T.);
#1116=ADVANCED_FACE('',(#110),#1059,.T.);
#1117=ADVANCED_FACE('',(#111),#1060,.T.);
#1118=ADVANCED_FACE('',(#112),#51,.T.);
#1119=ADVANCED_FACE('',(#113),#1061,.T.);
#1120=ADVANCED_FACE('',(#114),#52,.T.);
#1121=ADVANCED_FACE('',(#115),#1062,.T.);
#1122=ADVANCED_FACE('',(#116,#57),#1063,.T.);
#1123=CLOSED_SHELL('',(#1064,#1065,#1066,#1067,#1068,#1069,#1070,#1071,
#1072,#1073,#1074,#1075,#1076,#1077,#1078,#1079,#1080,#1081,#1082,#1083,
#1084,#1085,#1086,#1087,#1088));
#1124=CLOSED_SHELL('',(#1089,#1090,#1091,#1092,#1093,#1094,#1095,#1096,
#1097,#1098,#1099,#1100,#1101,#1102,#1103,#1104,#1105,#1106,#1107,#1108,
#1109,#1110,#1111,#1112,#1113,#1114,#1115,#1116,#1117,#1118,#1119,#1120,
#1121,#1122));
#1125=DERIVED_UNIT_ELEMENT(#1127,1.);
#1126=DERIVED_UNIT_ELEMENT(#1848,-3.);
#1127=(
MASS_UNIT()
NAMED_UNIT(*)
SI_UNIT(.KILO.,.GRAM.)
);
#1128=DERIVED_UNIT((#1125,#1126));
#1129=MEASURE_REPRESENTATION_ITEM('density measure',
POSITIVE_RATIO_MEASURE(7850.),#1128);
#1130=PROPERTY_DEFINITION_REPRESENTATION(#1135,#1132);
#1131=PROPERTY_DEFINITION_REPRESENTATION(#1136,#1133);
#1132=REPRESENTATION('material name',(#1134),#1843);
#1133=REPRESENTATION('density',(#1129),#1843);
#1134=DESCRIPTIVE_REPRESENTATION_ITEM('Steel','Steel');
#1135=PROPERTY_DEFINITION('material property','material name',#1856);
#1136=PROPERTY_DEFINITION('material property','density of part',#1856);
#1137=AXIS2_PLACEMENT_3D('',#1521,#1221,#1222);
#1138=AXIS2_PLACEMENT_3D('',#1522,#1223,#1224);
#1139=AXIS2_PLACEMENT_3D('',#1531,#1229,#1230);
#1140=AXIS2_PLACEMENT_3D('',#1537,#1234,#1235);
#1141=AXIS2_PLACEMENT_3D('',#1543,#1239,#1240);
#1142=AXIS2_PLACEMENT_3D('',#1546,#1243,#1244);
#1143=AXIS2_PLACEMENT_3D('',#1547,#1245,#1246);
#1144=AXIS2_PLACEMENT_3D('',#1556,#1251,#1252);
#1145=AXIS2_PLACEMENT_3D('',#1562,#1256,#1257);
#1146=AXIS2_PLACEMENT_3D('',#1568,#1261,#1262);
#1147=AXIS2_PLACEMENT_3D('',#1571,#1265,#1266);
#1148=AXIS2_PLACEMENT_3D('',#1572,#1267,#1268);
#1149=AXIS2_PLACEMENT_3D('',#1581,#1273,#1274);
#1150=AXIS2_PLACEMENT_3D('',#1587,#1278,#1279);
#1151=AXIS2_PLACEMENT_3D('',#1593,#1283,#1284);
#1152=AXIS2_PLACEMENT_3D('',#1596,#1287,#1288);
#1153=AXIS2_PLACEMENT_3D('',#1605,#1293,#1294);
#1154=AXIS2_PLACEMENT_3D('',#1607,#1295,#1296);
#1155=AXIS2_PLACEMENT_3D('',#1609,#1297,#1298);
#1156=AXIS2_PLACEMENT_3D('',#1611,#1300,#1301);
#1157=AXIS2_PLACEMENT_3D('',#1617,#1305,#1306);
#1158=AXIS2_PLACEMENT_3D('',#1619,#1307,#1308);
#1159=AXIS2_PLACEMENT_3D('',#1621,#1309,#1310);
#1160=AXIS2_PLACEMENT_3D('',#1623,#1312,#1313);
#1161=AXIS2_PLACEMENT_3D('',#1629,#1317,#1318);
#1162=AXIS2_PLACEMENT_3D('',#1631,#1319,#1320);
#1163=AXIS2_PLACEMENT_3D('',#1633,#1321,#1322);
#1164=AXIS2_PLACEMENT_3D('',#1635,#1324,#1325);
#1165=AXIS2_PLACEMENT_3D('',#1641,#1329,#1330);
#1166=AXIS2_PLACEMENT_3D('',#1642,#1331,#1332);
#1167=AXIS2_PLACEMENT_3D('',#1643,#1333,#1334);
#1168=AXIS2_PLACEMENT_3D('',#1644,#1335,#1336);
#1169=AXIS2_PLACEMENT_3D('',#1645,#1337,#1338);
#1170=AXIS2_PLACEMENT_3D('',#1646,#1339,#1340);
#1171=AXIS2_PLACEMENT_3D('',#1647,#1341,#1342);
#1172=AXIS2_PLACEMENT_3D('',#1656,#1347,#1348);
#1173=AXIS2_PLACEMENT_3D('',#1662,#1351,#1352);
#1174=AXIS2_PLACEMENT_3D('',#1665,#1354,#1355);
#1175=AXIS2_PLACEMENT_3D('',#1666,#1356,#1357);
#1176=AXIS2_PLACEMENT_3D('',#1696,#1373,#1374);
#1177=AXIS2_PLACEMENT_3D('',#1702,#1378,#1379);
#1178=AXIS2_PLACEMENT_3D('',#1706,#1381,#1382);
#1179=AXIS2_PLACEMENT_3D('',#1710,#1384,#1385);
#1180=AXIS2_PLACEMENT_3D('',#1712,#1387,#1388);
#1181=AXIS2_PLACEMENT_3D('',#1718,#1392,#1393);
#1182=AXIS2_PLACEMENT_3D('',#1724,#1396,#1397);
#1183=AXIS2_PLACEMENT_3D('',#1727,#1399,#1400);
#1184=AXIS2_PLACEMENT_3D('',#1728,#1401,#1402);
#1185=AXIS2_PLACEMENT_3D('',#1734,#1406,#1407);
#1186=AXIS2_PLACEMENT_3D('',#1738,#1409,#1410);
#1187=AXIS2_PLACEMENT_3D('',#1742,#1412,#1413);
#1188=AXIS2_PLACEMENT_3D('',#1744,#1415,#1416);
#1189=AXIS2_PLACEMENT_3D('',#1750,#1420,#1421);
#1190=AXIS2_PLACEMENT_3D('',#1754,#1424,#1425);
#1191=AXIS2_PLACEMENT_3D('',#1758,#1428,#1429);
#1192=AXIS2_PLACEMENT_3D('',#1760,#1431,#1432);
#1193=AXIS2_PLACEMENT_3D('',#1764,#1434,#1435);
#1194=AXIS2_PLACEMENT_3D('',#1766,#1437,#1438);
#1195=AXIS2_PLACEMENT_3D('',#1770,#1441,#1442);
#1196=AXIS2_PLACEMENT_3D('',#1772,#1443,#1444);
#1197=AXIS2_PLACEMENT_3D('',#1774,#1446,#1447);
#1198=AXIS2_PLACEMENT_3D('',#1778,#1450,#1451);
#1199=AXIS2_PLACEMENT_3D('',#1782,#1454,#1455);
#1200=AXIS2_PLACEMENT_3D('',#1786,#1458,#1459);
#1201=AXIS2_PLACEMENT_3D('',#1788,#1460,#1461);
#1202=AXIS2_PLACEMENT_3D('',#1790,#1463,#1464);
#1203=AXIS2_PLACEMENT_3D('',#1794,#1467,#1468);
#1204=AXIS2_PLACEMENT_3D('',#1796,#1469,#1470);
#1205=AXIS2_PLACEMENT_3D('',#1798,#1472,#1473);
#1206=AXIS2_PLACEMENT_3D('',#1802,#1476,#1477);
#1207=AXIS2_PLACEMENT_3D('',#1804,#1478,#1479);
#1208=AXIS2_PLACEMENT_3D('',#1806,#1481,#1482);
#1209=AXIS2_PLACEMENT_3D('',#1810,#1485,#1486);
#1210=AXIS2_PLACEMENT_3D('',#1812,#1487,#1488);
#1211=AXIS2_PLACEMENT_3D('',#1814,#1490,#1491);
#1212=AXIS2_PLACEMENT_3D('',#1818,#1494,#1495);
#1213=AXIS2_PLACEMENT_3D('',#1822,#1498,#1499);
#1214=AXIS2_PLACEMENT_3D('',#1826,#1502,#1503);
#1215=AXIS2_PLACEMENT_3D('',#1828,#1504,#1505);
#1216=AXIS2_PLACEMENT_3D('',#1830,#1507,#1508);
#1217=AXIS2_PLACEMENT_3D('',#1834,#1511,#1512);
#1218=AXIS2_PLACEMENT_3D('',#1836,#1513,#1514);
#1219=AXIS2_PLACEMENT_3D('',#1838,#1516,#1517);
#1220=AXIS2_PLACEMENT_3D('',#1840,#1519,#1520);
#1221=DIRECTION('axis',(0.,0.,1.));
#1222=DIRECTION('refdir',(1.,0.,0.));
#1223=DIRECTION('center_axis',(-1.,0.,0.));
#1224=DIRECTION('ref_axis',(0.,0.,1.));
#1225=DIRECTION('',(0.,0.,-1.));
#1226=DIRECTION('',(0.,1.,0.));
#1227=DIRECTION('',(0.,0.,1.));
#1228=DIRECTION('',(0.,1.,0.));
#1229=DIRECTION('center_axis',(0.,0.,-1.));
#1230=DIRECTION('ref_axis',(-1.,0.,0.));
#1231=DIRECTION('',(1.,9.08250761529937E-17,0.));
#1232=DIRECTION('',(-1.,0.,0.));
#1233=DIRECTION('',(0.,1.,0.));
#1234=DIRECTION('center_axis',(1.,0.,0.));
#1235=DIRECTION('ref_axis',(0.,0.,-1.));
#1236=DIRECTION('',(0.,0.,1.));
#1237=DIRECTION('',(0.,0.,-1.));
#1238=DIRECTION('',(0.,1.,0.));
#1239=DIRECTION('center_axis',(0.,0.,1.));
#1240=DIRECTION('ref_axis',(1.,0.,0.));
#1241=DIRECTION('',(-1.,-9.08250761529937E-17,0.));
#1242=DIRECTION('',(1.,0.,0.));
#1243=DIRECTION('center_axis',(0.,1.,0.));
#1244=DIRECTION('ref_axis',(0.,0.,1.));
#1245=DIRECTION('center_axis',(1.,0.,0.));
#1246=DIRECTION('ref_axis',(0.,0.,1.));
#1247=DIRECTION('',(0.,0.,-1.));
#1248=DIRECTION('',(0.,-1.,0.));
#1249=DIRECTION('',(0.,0.,1.));
#1250=DIRECTION('',(0.,-1.,0.));
#1251=DIRECTION('center_axis',(0.,0.,-1.));
#1252=DIRECTION('ref_axis',(1.,0.,0.));
#1253=DIRECTION('',(-1.,0.,0.));
#1254=DIRECTION('',(1.,0.,0.));
#1255=DIRECTION('',(0.,-1.,0.));
#1256=DIRECTION('center_axis',(-1.,0.,0.));
#1257=DIRECTION('ref_axis',(0.,0.,-1.));
#1258=DIRECTION('',(0.,0.,1.));
#1259=DIRECTION('',(0.,0.,-1.));
#1260=DIRECTION('',(0.,-1.,0.));
#1261=DIRECTION('center_axis',(0.,0.,1.));
#1262=DIRECTION('ref_axis',(-1.,0.,0.));
#1263=DIRECTION('',(1.,0.,0.));
#1264=DIRECTION('',(-1.,0.,0.));
#1265=DIRECTION('center_axis',(0.,-1.,0.));
#1266=DIRECTION('ref_axis',(0.,0.,-1.));
#1267=DIRECTION('center_axis',(0.,1.,0.));
#1268=DIRECTION('ref_axis',(-1.,0.,0.));
#1269=DIRECTION('',(1.,0.,0.));
#1270=DIRECTION('',(0.,0.,1.));
#1271=DIRECTION('',(-1.,0.,0.));
#1272=DIRECTION('',(0.,0.,1.));
#1273=DIRECTION('center_axis',(1.,0.,0.));
#1274=DIRECTION('ref_axis',(0.,1.,0.));
#1275=DIRECTION('',(0.,-1.,0.));
#1276=DIRECTION('',(0.,0.,1.));
#1277=DIRECTION('',(0.,1.,0.));
#1278=DIRECTION('center_axis',(-1.,0.,0.));
#1279=DIRECTION('ref_axis',(0.,-1.,0.));
#1280=DIRECTION('',(0.,1.,0.));
#1281=DIRECTION('',(0.,-1.,0.));
#1282=DIRECTION('',(0.,0.,1.));
#1283=DIRECTION('center_axis',(0.,-1.,0.));
#1284=DIRECTION('ref_axis',(1.,0.,0.));
#1285=DIRECTION('',(-1.,0.,0.));
#1286=DIRECTION('',(1.,0.,0.));
#1287=DIRECTION('center_axis',(0.,-1.,0.));
#1288=DIRECTION('ref_axis',(1.,0.,0.));
#1289=DIRECTION('',(1.,0.,0.));
#1290=DIRECTION('',(0.,0.,1.));
#1291=DIRECTION('',(1.,0.,0.));
#1292=DIRECTION('',(0.,0.,1.));
#1293=DIRECTION('center_axis',(0.,0.,1.));
#1294=DIRECTION('ref_axis',(-1.,-3.82458719112997E-16,0.));
#1295=DIRECTION('center_axis',(0.,0.,1.));
#1296=DIRECTION('ref_axis',(-1.,-3.82458719112997E-16,0.));
#1297=DIRECTION('center_axis',(0.,0.,1.));
#1298=DIRECTION('ref_axis',(-1.,-3.82458719112997E-16,0.));
#1299=DIRECTION('',(0.,0.,1.));
#1300=DIRECTION('center_axis',(-1.,-3.36227445374063E-17,0.));
#1301=DIRECTION('ref_axis',(3.36227445374063E-17,-1.,0.));
#1302=DIRECTION('',(3.36227445374063E-17,-1.,0.));
#1303=DIRECTION('',(3.36227445374063E-17,-1.,0.));
#1304=DIRECTION('',(0.,0.,1.));
#1305=DIRECTION('center_axis',(0.,0.,1.));
#1306=DIRECTION('ref_axis',(6.01006558606138E-15,1.,0.));
#1307=DIRECTION('center_axis',(0.,0.,1.));
#1308=DIRECTION('ref_axis',(6.01006558606138E-15,1.,0.));
#1309=DIRECTION('center_axis',(0.,0.,1.));
#1310=DIRECTION('ref_axis',(6.01006558606138E-15,1.,0.));
#1311=DIRECTION('',(0.,0.,1.));
#1312=DIRECTION('center_axis',(-9.08250761529937E-17,1.,0.));
#1313=DIRECTION('ref_axis',(-1.,-9.08250761529937E-17,0.));
#1314=DIRECTION('',(-1.,-9.08250761529937E-17,0.));
#1315=DIRECTION('',(-1.,-9.08250761529937E-17,0.));
#1316=DIRECTION('',(0.,0.,1.));
#1317=DIRECTION('center_axis',(0.,0.,1.));
#1318=DIRECTION('ref_axis',(1.,0.,0.));
#1319=DIRECTION('center_axis',(0.,0.,1.));
#1320=DIRECTION('ref_axis',(1.,0.,0.));
#1321=DIRECTION('center_axis',(0.,0.,1.));
#1322=DIRECTION('ref_axis',(1.,0.,0.));
#1323=DIRECTION('',(0.,0.,1.));
#1324=DIRECTION('center_axis',(1.,0.,0.));
#1325=DIRECTION('ref_axis',(0.,1.,0.));
#1326=DIRECTION('',(0.,1.,0.));
#1327=DIRECTION('',(0.,1.,0.));
#1328=DIRECTION('',(0.,0.,1.));
#1329=DIRECTION('center_axis',(0.,0.,1.));
#1330=DIRECTION('ref_axis',(-3.49676543189026E-15,-1.,0.));
#1331=DIRECTION('center_axis',(0.,0.,1.));
#1332=DIRECTION('ref_axis',(-3.49676543189026E-15,-1.,0.));
#1333=DIRECTION('center_axis',(0.,0.,1.));
#1334=DIRECTION('ref_axis',(-3.49676543189026E-15,-1.,0.));
#1335=DIRECTION('center_axis',(0.,0.,1.));
#1336=DIRECTION('ref_axis',(1.,0.,0.));
#1337=DIRECTION('center_axis',(0.,0.,1.));
#1338=DIRECTION('ref_axis',(1.,0.,0.));
#1339=DIRECTION('center_axis',(0.,0.,1.));
#1340=DIRECTION('ref_axis',(1.,0.,0.));
#1341=DIRECTION('center_axis',(1.3987061727561E-15,-1.,0.));
#1342=DIRECTION('ref_axis',(-1.,-1.3987061727561E-15,0.));
#1343=DIRECTION('',(1.,1.3987061727561E-15,0.));
#1344=DIRECTION('',(0.,0.,-1.));
#1345=DIRECTION('',(-1.,-1.3987061727561E-15,0.));
#1346=DIRECTION('',(0.,0.,-1.));
#1347=DIRECTION('center_axis',(0.,0.,1.));
#1348=DIRECTION('ref_axis',(-1.,0.,0.));
#1349=DIRECTION('',(0.,-1.,0.));
#1350=DIRECTION('',(-1.16558847729675E-15,1.,0.));
#1351=DIRECTION('center_axis',(0.,0.,-1.));
#1352=DIRECTION('ref_axis',(0.,1.,0.));
#1353=DIRECTION('',(1.,0.,0.));
#1354=DIRECTION('center_axis',(0.,0.,-1.));
#1355=DIRECTION('ref_axis',(1.,3.49676543189025E-15,0.));
#1356=DIRECTION('center_axis',(0.,0.,1.));
#1357=DIRECTION('ref_axis',(-1.,0.,0.));
#1358=DIRECTION('',(0.,1.,0.));
#1359=DIRECTION('',(-1.,-2.79741234551221E-16,0.));
#1360=DIRECTION('',(0.,-1.,0.));
#1361=DIRECTION('',(1.,0.,0.));
#1362=DIRECTION('',(2.3311769545935E-15,1.,0.));
#1363=DIRECTION('',(-1.,0.,0.));
#1364=DIRECTION('',(0.,-1.,0.));
#1365=DIRECTION('',(1.,0.,0.));
#1366=DIRECTION('',(0.,1.,0.));
#1367=DIRECTION('',(-1.,0.,0.));
#1368=DIRECTION('',(1.16558847729675E-15,-1.,0.));
#1369=DIRECTION('',(0.,-1.,0.));
#1370=DIRECTION('',(1.,0.,0.));
#1371=DIRECTION('',(-1.16558847729675E-16,1.,0.));
#1372=DIRECTION('',(-1.,0.,0.));
#1373=DIRECTION('center_axis',(0.,1.,0.));
#1374=DIRECTION('ref_axis',(1.,0.,0.));
#1375=DIRECTION('',(0.,0.,-1.));
#1376=DIRECTION('',(1.,0.,0.));
#1377=DIRECTION('',(0.,0.,-1.));
#1378=DIRECTION('center_axis',(0.,0.,1.));
#1379=DIRECTION('ref_axis',(-1.,0.,0.));
#1380=DIRECTION('',(0.,-1.,0.));
#1381=DIRECTION('center_axis',(0.,0.,-1.));
#1382=DIRECTION('ref_axis',(0.,-1.,0.));
#1383=DIRECTION('',(-1.,0.,0.));
#1384=DIRECTION('center_axis',(0.,0.,-1.));
#1385=DIRECTION('ref_axis',(-1.,-1.74838271594513E-15,0.));
#1386=DIRECTION('',(0.,1.,0.));
#1387=DIRECTION('center_axis',(0.,-1.,0.));
#1388=DIRECTION('ref_axis',(-1.,0.,0.));
#1389=DIRECTION('',(0.,0.,-1.));
#1390=DIRECTION('',(-1.,0.,0.));
#1391=DIRECTION('',(0.,0.,-1.));
#1392=DIRECTION('center_axis',(0.,0.,1.));
#1393=DIRECTION('ref_axis',(-1.,0.,0.));
#1394=DIRECTION('',(0.,-1.,0.));
#1395=DIRECTION('',(0.,1.,0.));
#1396=DIRECTION('center_axis',(0.,0.,-1.));
#1397=DIRECTION('ref_axis',(0.,1.,0.));
#1398=DIRECTION('',(1.,0.,0.));
#1399=DIRECTION('center_axis',(0.,0.,-1.));
#1400=DIRECTION('ref_axis',(1.,1.04902962956706E-14,0.));
#1401=DIRECTION('center_axis',(0.,1.,0.));
#1402=DIRECTION('ref_axis',(1.,0.,0.));
#1403=DIRECTION('',(0.,0.,-1.));
#1404=DIRECTION('',(1.,0.,0.));
#1405=DIRECTION('',(0.,0.,-1.));
#1406=DIRECTION('center_axis',(0.,0.,1.));
#1407=DIRECTION('ref_axis',(-1.,0.,0.));
#1408=DIRECTION('',(-2.3311769545935E-15,-1.,0.));
#1409=DIRECTION('center_axis',(0.,0.,-1.));
#1410=DIRECTION('ref_axis',(6.99353086378046E-15,-1.,0.));
#1411=DIRECTION('',(-1.,2.91397119324188E-16,0.));
#1412=DIRECTION('center_axis',(0.,0.,-1.));
#1413=DIRECTION('ref_axis',(-1.,8.74191357972566E-16,0.));
#1414=DIRECTION('',(0.,1.,0.));
#1415=DIRECTION('center_axis',(0.,-1.,0.));
#1416=DIRECTION('ref_axis',(1.,0.,0.));
#1417=DIRECTION('',(0.,0.,1.));
#1418=DIRECTION('',(1.,0.,0.));
#1419=DIRECTION('',(0.,0.,1.));
#1420=DIRECTION('center_axis',(1.,1.16558847729675E-16,0.));
#1421=DIRECTION('ref_axis',(-1.16558847729675E-16,1.,0.));
#1422=DIRECTION('',(-1.16558847729675E-16,1.,0.));
#1423=DIRECTION('',(0.,0.,1.));
#1424=DIRECTION('center_axis',(0.,1.,0.));
#1425=DIRECTION('ref_axis',(-1.,0.,0.));
#1426=DIRECTION('',(-1.,0.,0.));
#1427=DIRECTION('',(0.,0.,1.));
#1428=DIRECTION('center_axis',(-1.,0.,0.));
#1429=DIRECTION('ref_axis',(0.,-1.,0.));
#1430=DIRECTION('',(0.,-1.,0.));
#1431=DIRECTION('center_axis',(0.,0.,1.));
#1432=DIRECTION('ref_axis',(6.99353086378046E-15,-1.,0.));
#1433=DIRECTION('',(0.,0.,1.));
#1434=DIRECTION('center_axis',(0.,0.,1.));
#1435=DIRECTION('ref_axis',(6.99353086378046E-15,-1.,0.));
#1436=DIRECTION('',(0.,0.,1.));
#1437=DIRECTION('center_axis',(-2.91397119324188E-16,-1.,0.));
#1438=DIRECTION('ref_axis',(1.,-2.91397119324188E-16,0.));
#1439=DIRECTION('',(1.,-2.91397119324188E-16,0.));
#1440=DIRECTION('',(0.,0.,1.));
#1441=DIRECTION('center_axis',(0.,0.,1.));
#1442=DIRECTION('ref_axis',(-1.,8.74191357972566E-16,0.));
#1443=DIRECTION('center_axis',(0.,0.,1.));
#1444=DIRECTION('ref_axis',(-1.,8.74191357972566E-16,0.));
#1445=DIRECTION('',(0.,0.,1.));
#1446=DIRECTION('center_axis',(-1.,0.,0.));
#1447=DIRECTION('ref_axis',(0.,-1.,0.));
#1448=DIRECTION('',(0.,-1.,0.));
#1449=DIRECTION('',(0.,0.,1.));
#1450=DIRECTION('center_axis',(0.,-1.,0.));
#1451=DIRECTION('ref_axis',(1.,0.,0.));
#1452=DIRECTION('',(1.,0.,0.));
#1453=DIRECTION('',(0.,0.,1.));
#1454=DIRECTION('center_axis',(1.,0.,0.));
#1455=DIRECTION('ref_axis',(0.,1.,0.));
#1456=DIRECTION('',(0.,1.,0.));
#1457=DIRECTION('',(0.,0.,1.));
#1458=DIRECTION('center_axis',(0.,0.,1.));
#1459=DIRECTION('ref_axis',(0.,-1.,0.));
#1460=DIRECTION('center_axis',(0.,0.,1.));
#1461=DIRECTION('ref_axis',(0.,-1.,0.));
#1462=DIRECTION('',(0.,0.,1.));
#1463=DIRECTION('center_axis',(0.,-1.,0.));
#1464=DIRECTION('ref_axis',(1.,0.,0.));
#1465=DIRECTION('',(1.,0.,0.));
#1466=DIRECTION('',(0.,0.,1.));
#1467=DIRECTION('center_axis',(0.,0.,1.));
#1468=DIRECTION('ref_axis',(-1.,-1.74838271594513E-15,0.));
#1469=DIRECTION('center_axis',(0.,0.,1.));
#1470=DIRECTION('ref_axis',(-1.,-1.74838271594513E-15,0.));
#1471=DIRECTION('',(0.,0.,1.));
#1472=DIRECTION('center_axis',(-1.,-1.16558847729675E-15,0.));
#1473=DIRECTION('ref_axis',(1.16558847729675E-15,-1.,0.));
#1474=DIRECTION('',(1.16558847729675E-15,-1.,0.));
#1475=DIRECTION('',(0.,0.,1.));
#1476=DIRECTION('center_axis',(0.,0.,1.));
#1477=DIRECTION('ref_axis',(0.,1.,0.));
#1478=DIRECTION('center_axis',(0.,0.,1.));
#1479=DIRECTION('ref_axis',(0.,1.,0.));
#1480=DIRECTION('',(0.,0.,1.));
#1481=DIRECTION('center_axis',(0.,1.,0.));
#1482=DIRECTION('ref_axis',(-1.,0.,0.));
#1483=DIRECTION('',(-1.,0.,0.));
#1484=DIRECTION('',(0.,0.,1.));
#1485=DIRECTION('center_axis',(0.,0.,1.));
#1486=DIRECTION('ref_axis',(1.,3.49676543189025E-15,0.));
#1487=DIRECTION('center_axis',(0.,0.,1.));
#1488=DIRECTION('ref_axis',(1.,3.49676543189025E-15,0.));
#1489=DIRECTION('',(0.,0.,1.));
#1490=DIRECTION('center_axis',(1.,0.,0.));
#1491=DIRECTION('ref_axis',(0.,1.,0.));
#1492=DIRECTION('',(0.,1.,0.));
#1493=DIRECTION('',(0.,0.,1.));
#1494=DIRECTION('center_axis',(-2.79741234551221E-16,1.,0.));
#1495=DIRECTION('ref_axis',(-1.,-2.79741234551221E-16,0.));
#1496=DIRECTION('',(-1.,-2.79741234551221E-16,0.));
#1497=DIRECTION('',(0.,0.,1.));
#1498=DIRECTION('center_axis',(-1.,0.,0.));
#1499=DIRECTION('ref_axis',(0.,-1.,0.));
#1500=DIRECTION('',(0.,-1.,0.));
#1501=DIRECTION('',(0.,0.,1.));
#1502=DIRECTION('center_axis',(0.,0.,1.));
#1503=DIRECTION('ref_axis',(0.,1.,0.));
#1504=DIRECTION('center_axis',(0.,0.,1.));
#1505=DIRECTION('ref_axis',(0.,1.,0.));
#1506=DIRECTION('',(0.,0.,1.));
#1507=DIRECTION('center_axis',(0.,1.,0.));
#1508=DIRECTION('ref_axis',(-1.,0.,0.));
#1509=DIRECTION('',(-1.,0.,0.));
#1510=DIRECTION('',(0.,0.,1.));
#1511=DIRECTION('center_axis',(0.,0.,1.));
#1512=DIRECTION('ref_axis',(1.,1.04902962956706E-14,0.));
#1513=DIRECTION('center_axis',(0.,0.,1.));
#1514=DIRECTION('ref_axis',(1.,1.04902962956706E-14,0.));
#1515=DIRECTION('',(0.,0.,1.));
#1516=DIRECTION('center_axis',(1.,-2.3311769545935E-15,0.));
#1517=DIRECTION('ref_axis',(2.3311769545935E-15,1.,0.));
#1518=DIRECTION('',(2.3311769545935E-15,1.,0.));
#1519=DIRECTION('center_axis',(0.,0.,1.));
#1520=DIRECTION('ref_axis',(-1.,0.,0.));
#1521=CARTESIAN_POINT('',(0.,0.,0.));
#1522=CARTESIAN_POINT('Origin',(0.31475,0.6875,0.09475));
#1523=CARTESIAN_POINT('',(0.31475,0.6875,0.1865));
#1524=CARTESIAN_POINT('',(0.31475,0.6875,0.09475));
#1525=CARTESIAN_POINT('',(0.31475,0.6875,0.047375));
#1526=CARTESIAN_POINT('',(0.31475,0.75,0.1865));
#1527=CARTESIAN_POINT('',(0.31475,0.6875,0.1865));
#1528=CARTESIAN_POINT('',(0.31475,0.75,0.09475));
#1529=CARTESIAN_POINT('',(0.31475,0.75,0.1865));
#1530=CARTESIAN_POINT('',(0.31475,0.6875,0.09475));
#1531=CARTESIAN_POINT('Origin',(0.62275,0.6875,0.09475));
#1532=CARTESIAN_POINT('',(0.62275,0.6875,0.09475));
#1533=CARTESIAN_POINT('',(0.786375,0.6875,0.09475));
#1534=CARTESIAN_POINT('',(0.62275,0.75,0.09475));
#1535=CARTESIAN_POINT('',(0.31475,0.75,0.09475));
#1536=CARTESIAN_POINT('',(0.62275,0.6875,0.09475));
#1537=CARTESIAN_POINT('Origin',(0.62275,0.6875,0.1865));
#1538=CARTESIAN_POINT('',(0.62275,0.6875,0.1865));
#1539=CARTESIAN_POINT('',(0.62275,0.6875,0.09325));
#1540=CARTESIAN_POINT('',(0.62275,0.75,0.1865));
#1541=CARTESIAN_POINT('',(0.62275,0.75,0.09475));
#1542=CARTESIAN_POINT('',(0.62275,0.6875,0.1865));
#1543=CARTESIAN_POINT('Origin',(0.31475,0.6875,0.1865));
#1544=CARTESIAN_POINT('',(0.632375,0.6875,0.1865));
#1545=CARTESIAN_POINT('',(0.46875,0.75,0.1865));
#1546=CARTESIAN_POINT('Origin',(0.46875,0.75,0.140625));
#1547=CARTESIAN_POINT('Origin',(0.62275,-0.0625,0.09475));
#1548=CARTESIAN_POINT('',(0.62275,-0.0625,0.1865));
#1549=CARTESIAN_POINT('',(0.62275,-0.0625,0.09475));
#1550=CARTESIAN_POINT('',(0.62275,-0.0625,0.047375));
#1551=CARTESIAN_POINT('',(0.62275,-0.125,0.1865));
#1552=CARTESIAN_POINT('',(0.62275,-0.0625,0.1865));
#1553=CARTESIAN_POINT('',(0.62275,-0.125,0.09475));
#1554=CARTESIAN_POINT('',(0.62275,-0.125,0.1865));
#1555=CARTESIAN_POINT('',(0.62275,-0.0625,0.09475));
#1556=CARTESIAN_POINT('Origin',(0.31475,-0.0625,0.09475));
#1557=CARTESIAN_POINT('',(0.31475,-0.0625,0.09475));
#1558=CARTESIAN_POINT('',(0.151125,-0.0625,0.09475));
#1559=CARTESIAN_POINT('',(0.31475,-0.125,0.09475));
#1560=CARTESIAN_POINT('',(0.62275,-0.125,0.09475));
#1561=CARTESIAN_POINT('',(0.31475,-0.0625,0.09475));
#1562=CARTESIAN_POINT('Origin',(0.31475,-0.0625,0.1865));
#1563=CARTESIAN_POINT('',(0.31475,-0.0625,0.1865));
#1564=CARTESIAN_POINT('',(0.31475,-0.0625,0.09325));
#1565=CARTESIAN_POINT('',(0.31475,-0.125,0.1865));
#1566=CARTESIAN_POINT('',(0.31475,-0.125,0.09475));
#1567=CARTESIAN_POINT('',(0.31475,-0.0625,0.1865));
#1568=CARTESIAN_POINT('Origin',(0.62275,-0.0625,0.1865));
#1569=CARTESIAN_POINT('',(0.305125,-0.0625,0.1865));
#1570=CARTESIAN_POINT('',(0.46875,-0.125,0.1865));
#1571=CARTESIAN_POINT('Origin',(0.46875,-0.125,0.140625));
#1572=CARTESIAN_POINT('Origin',(0.9375,0.,0.));
#1573=CARTESIAN_POINT('',(0.,0.,0.0625));
#1574=CARTESIAN_POINT('',(0.9375,0.,0.0625));
#1575=CARTESIAN_POINT('',(0.,0.,0.0625));
#1576=CARTESIAN_POINT('',(0.,0.,0.1875));
#1577=CARTESIAN_POINT('',(0.,0.,0.));
#1578=CARTESIAN_POINT('',(0.9375,0.,0.1875));
#1579=CARTESIAN_POINT('',(0.,0.,0.1875));
#1580=CARTESIAN_POINT('',(0.9375,0.,0.));
#1581=CARTESIAN_POINT('Origin',(0.,0.,0.));
#1582=CARTESIAN_POINT('',(0.,0.625,0.0625));
#1583=CARTESIAN_POINT('',(0.,0.625,0.0625));
#1584=CARTESIAN_POINT('',(0.,0.625,0.1875));
#1585=CARTESIAN_POINT('',(0.,0.625,0.));
#1586=CARTESIAN_POINT('',(0.,0.625,0.1875));
#1587=CARTESIAN_POINT('Origin',(0.9375,0.625,0.));
#1588=CARTESIAN_POINT('',(0.9375,0.625,0.0625));
#1589=CARTESIAN_POINT('',(0.9375,0.,0.0625));
#1590=CARTESIAN_POINT('',(0.9375,0.625,0.1875));
#1591=CARTESIAN_POINT('',(0.9375,0.,0.1875));
#1592=CARTESIAN_POINT('',(0.9375,0.625,0.));
#1593=CARTESIAN_POINT('Origin',(0.,0.625,0.));
#1594=CARTESIAN_POINT('',(0.9375,0.625,0.0625));
#1595=CARTESIAN_POINT('',(0.9375,0.625,0.1875));
#1596=CARTESIAN_POINT('Origin',(-0.0125,-0.0625,0.));
#1597=CARTESIAN_POINT('',(-0.0125,-0.0625,0.));
#1598=CARTESIAN_POINT('',(0.95,-0.0625,0.));
#1599=CARTESIAN_POINT('',(-0.0125,-0.0625,0.));
#1600=CARTESIAN_POINT('',(0.95,-0.0625,0.1875));
#1601=CARTESIAN_POINT('',(0.95,-0.0625,0.));
#1602=CARTESIAN_POINT('',(-0.0125,-0.0625,0.1875));
#1603=CARTESIAN_POINT('',(-0.0125,-0.0625,0.1875));
#1604=CARTESIAN_POINT('',(-0.0125,-0.0625,0.));
#1605=CARTESIAN_POINT('Origin',(-0.0125,-0.0125,0.));
#1606=CARTESIAN_POINT('',(-0.0625,-0.0125,0.));
#1607=CARTESIAN_POINT('Origin',(-0.0125,-0.0125,0.));
#1608=CARTESIAN_POINT('',(-0.0625,-0.0125,0.1875));
#1609=CARTESIAN_POINT('Origin',(-0.0125,-0.0125,0.1875));
#1610=CARTESIAN_POINT('',(-0.0625,-0.0125,0.));
#1611=CARTESIAN_POINT('Origin',(-0.0625,0.6375,0.));
#1612=CARTESIAN_POINT('',(-0.0625,0.6375,0.));
#1613=CARTESIAN_POINT('',(-0.0625,0.6375,0.));
#1614=CARTESIAN_POINT('',(-0.0625,0.6375,0.1875));
#1615=CARTESIAN_POINT('',(-0.0625,0.6375,0.1875));
#1616=CARTESIAN_POINT('',(-0.0625,0.6375,0.));
#1617=CARTESIAN_POINT('Origin',(-0.0125,0.6375,0.));
#1618=CARTESIAN_POINT('',(-0.0124999999999997,0.6875,0.));
#1619=CARTESIAN_POINT('Origin',(-0.0125,0.6375,0.));
#1620=CARTESIAN_POINT('',(-0.0124999999999997,0.6875,0.1875));
#1621=CARTESIAN_POINT('Origin',(-0.0125,0.6375,0.1875));
#1622=CARTESIAN_POINT('',(-0.0124999999999997,0.6875,0.));
#1623=CARTESIAN_POINT('Origin',(0.95,0.6875,0.));
#1624=CARTESIAN_POINT('',(0.95,0.6875,0.));
#1625=CARTESIAN_POINT('',(0.95,0.6875,0.));
#1626=CARTESIAN_POINT('',(0.95,0.6875,0.1875));
#1627=CARTESIAN_POINT('',(0.95,0.6875,0.1875));
#1628=CARTESIAN_POINT('',(0.95,0.6875,0.));
#1629=CARTESIAN_POINT('Origin',(0.95,0.6375,0.));
#1630=CARTESIAN_POINT('',(1.,0.6375,0.));
#1631=CARTESIAN_POINT('Origin',(0.95,0.6375,0.));
#1632=CARTESIAN_POINT('',(1.,0.6375,0.1875));
#1633=CARTESIAN_POINT('Origin',(0.95,0.6375,0.1875));
#1634=CARTESIAN_POINT('',(1.,0.6375,0.));
#1635=CARTESIAN_POINT('Origin',(1.,-0.0125,0.));
#1636=CARTESIAN_POINT('',(1.,-0.0125,0.));
#1637=CARTESIAN_POINT('',(1.,-0.0125,0.));
#1638=CARTESIAN_POINT('',(1.,-0.0125,0.1875));
#1639=CARTESIAN_POINT('',(1.,-0.0125,0.1875));
#1640=CARTESIAN_POINT('',(1.,-0.0125,0.));
#1641=CARTESIAN_POINT('Origin',(0.95,-0.0125000000000001,0.));
#1642=CARTESIAN_POINT('Origin',(0.95,-0.0125000000000001,0.));
#1643=CARTESIAN_POINT('Origin',(0.95,-0.0125000000000001,0.1875));
#1644=CARTESIAN_POINT('Origin',(0.46875,0.3125,0.1875));
#1645=CARTESIAN_POINT('Origin',(0.46875,0.3125,0.0625));
#1646=CARTESIAN_POINT('Origin',(0.46875,0.3125,0.));
#1647=CARTESIAN_POINT('Origin',(0.3125,0.6885,0.1875));
#1648=CARTESIAN_POINT('',(0.1875,0.6885,0.1875));
#1649=CARTESIAN_POINT('',(0.3125,0.6885,0.1875));
#1650=CARTESIAN_POINT('',(0.390625,0.6885,0.1875));
#1651=CARTESIAN_POINT('',(0.1875,0.6885,0.09375));
#1652=CARTESIAN_POINT('',(0.1875,0.6885,0.1875));
#1653=CARTESIAN_POINT('',(0.3125,0.6885,0.09375));
#1654=CARTESIAN_POINT('',(0.25,0.6885,0.09375));
#1655=CARTESIAN_POINT('',(0.3125,0.6885,0.1875));
#1656=CARTESIAN_POINT('Origin',(0.25,0.71925,0.09375));
#1657=CARTESIAN_POINT('',(0.3125,0.725,0.09375));
#1658=CARTESIAN_POINT('',(0.3125,0.6875,0.09375));
#1659=CARTESIAN_POINT('',(0.1875,0.725,0.09375));
#1660=CARTESIAN_POINT('',(0.1875,0.725,0.09375));
#1661=CARTESIAN_POINT('',(0.2125,0.75,0.09375));
#1662=CARTESIAN_POINT('Origin',(0.2125,0.725,0.09375));
#1663=CARTESIAN_POINT('',(0.2875,0.75,0.09375));
#1664=CARTESIAN_POINT('',(0.2875,0.75,0.09375));
#1665=CARTESIAN_POINT('Origin',(0.2875,0.725,0.09375));
#1666=CARTESIAN_POINT('Origin',(0.46875,0.3125,0.1875));
#1667=CARTESIAN_POINT('',(0.3125,0.6875,0.1875));
#1668=CARTESIAN_POINT('',(0.3125,0.6875,0.1875));
#1669=CARTESIAN_POINT('',(0.625,0.6875,0.1875));
#1670=CARTESIAN_POINT('',(0.625,0.6875,0.1875));
#1671=CARTESIAN_POINT('',(0.625,0.6885,0.1875));
#1672=CARTESIAN_POINT('',(0.625,0.725,0.1875));
#1673=CARTESIAN_POINT('',(0.75,0.6885,0.1875));
#1674=CARTESIAN_POINT('',(0.609375,0.6885,0.1875));
#1675=CARTESIAN_POINT('',(0.75,-0.0635000000000001,0.1875));
#1676=CARTESIAN_POINT('',(0.75,-0.1,0.1875));
#1677=CARTESIAN_POINT('',(0.625,-0.0635,0.1875));
#1678=CARTESIAN_POINT('',(0.546875,-0.0635,0.1875));
#1679=CARTESIAN_POINT('',(0.625,-0.0625,0.1875));
#1680=CARTESIAN_POINT('',(0.625,-0.0625,0.1875));
#1681=CARTESIAN_POINT('',(0.3125,-0.0625,0.1875));
#1682=CARTESIAN_POINT('',(0.3125,-0.0625,0.1875));
#1683=CARTESIAN_POINT('',(0.3125,-0.0635,0.1875));
#1684=CARTESIAN_POINT('',(0.3125,-0.1,0.1875));
#1685=CARTESIAN_POINT('',(0.1875,-0.0635,0.1875));
#1686=CARTESIAN_POINT('',(0.328125,-0.0635,0.1875));
#1687=CARTESIAN_POINT('',(0.1875,0.725,0.1875));
#1688=CARTESIAN_POINT('',(0.625,0.625,0.1875));
#1689=CARTESIAN_POINT('',(0.625,0.,0.1875));
#1690=CARTESIAN_POINT('',(0.625,0.3125,0.1875));
#1691=CARTESIAN_POINT('',(0.3125,0.625,0.1875));
#1692=CARTESIAN_POINT('',(0.3125,0.625,0.1875));
#1693=CARTESIAN_POINT('',(0.3125,0.,0.1875));
#1694=CARTESIAN_POINT('',(0.3125,0.3125,0.1875));
#1695=CARTESIAN_POINT('',(0.625,0.,0.1875));
#1696=CARTESIAN_POINT('Origin',(0.1875,-0.0635,0.1875));
#1697=CARTESIAN_POINT('',(0.3125,-0.0635,0.09375));
#1698=CARTESIAN_POINT('',(0.3125,-0.0635,0.1875));
#1699=CARTESIAN_POINT('',(0.1875,-0.0635,0.09375));
#1700=CARTESIAN_POINT('',(0.25,-0.0635,0.09375));
#1701=CARTESIAN_POINT('',(0.1875,-0.0635,0.1875));
#1702=CARTESIAN_POINT('Origin',(0.25,-0.09425,0.09375));
#1703=CARTESIAN_POINT('',(0.3125,-0.1,0.09375));
#1704=CARTESIAN_POINT('',(0.3125,-0.1,0.09375));
#1705=CARTESIAN_POINT('',(0.2875,-0.125,0.09375));
#1706=CARTESIAN_POINT('Origin',(0.2875,-0.1,0.09375));
#1707=CARTESIAN_POINT('',(0.2125,-0.125,0.09375));
#1708=CARTESIAN_POINT('',(0.2125,-0.125,0.09375));
#1709=CARTESIAN_POINT('',(0.1875,-0.1,0.09375));
#1710=CARTESIAN_POINT('Origin',(0.2125,-0.1,0.09375));
#1711=CARTESIAN_POINT('',(0.1875,-0.0625,0.09375));
#1712=CARTESIAN_POINT('Origin',(0.75,0.6885,0.1875));
#1713=CARTESIAN_POINT('',(0.625,0.6885,0.09375));
#1714=CARTESIAN_POINT('',(0.625,0.6885,0.1875));
#1715=CARTESIAN_POINT('',(0.75,0.6885,0.09375));
#1716=CARTESIAN_POINT('',(0.6875,0.6885,0.09375));
#1717=CARTESIAN_POINT('',(0.75,0.6885,0.1875));
#1718=CARTESIAN_POINT('Origin',(0.6875,0.71925,0.09375));
#1719=CARTESIAN_POINT('',(0.75,0.725,0.09375));
#1720=CARTESIAN_POINT('',(0.75,0.6875,0.09375));
#1721=CARTESIAN_POINT('',(0.625,0.725,0.09375));
#1722=CARTESIAN_POINT('',(0.625,0.725,0.09375));
#1723=CARTESIAN_POINT('',(0.65,0.75,0.09375));
#1724=CARTESIAN_POINT('Origin',(0.65,0.725,0.09375));
#1725=CARTESIAN_POINT('',(0.725,0.75,0.09375));
#1726=CARTESIAN_POINT('',(0.725,0.75,0.09375));
#1727=CARTESIAN_POINT('Origin',(0.725,0.725,0.09375));
#1728=CARTESIAN_POINT('Origin',(0.625,-0.0635,0.1875));
#1729=CARTESIAN_POINT('',(0.75,-0.0635000000000001,0.09375));
#1730=CARTESIAN_POINT('',(0.75,-0.0635000000000001,0.1875));
#1731=CARTESIAN_POINT('',(0.625,-0.0635,0.09375));
#1732=CARTESIAN_POINT('',(0.6875,-0.0635,0.09375));
#1733=CARTESIAN_POINT('',(0.625,-0.0635,0.1875));
#1734=CARTESIAN_POINT('Origin',(0.6875,-0.09425,0.09375));
#1735=CARTESIAN_POINT('',(0.75,-0.1,0.09375));
#1736=CARTESIAN_POINT('',(0.75,-0.1,0.09375));
#1737=CARTESIAN_POINT('',(0.725,-0.125,0.09375));
#1738=CARTESIAN_POINT('Origin',(0.725,-0.0999999999999998,0.09375));
#1739=CARTESIAN_POINT('',(0.65,-0.125,0.09375));
#1740=CARTESIAN_POINT('',(0.65,-0.125,0.09375));
#1741=CARTESIAN_POINT('',(0.625,-0.1,0.09375));
#1742=CARTESIAN_POINT('Origin',(0.65,-0.1,0.09375));
#1743=CARTESIAN_POINT('',(0.625,-0.0625,0.09375));
#1744=CARTESIAN_POINT('Origin',(0.3125,0.625,0.1875));
#1745=CARTESIAN_POINT('',(0.625,0.625,0.25));
#1746=CARTESIAN_POINT('',(0.625,0.625,0.1875));
#1747=CARTESIAN_POINT('',(0.3125,0.625,0.25));
#1748=CARTESIAN_POINT('',(0.3125,0.625,0.25));
#1749=CARTESIAN_POINT('',(0.3125,0.625,0.1875));
#1750=CARTESIAN_POINT('Origin',(0.3125,0.,0.1875));
#1751=CARTESIAN_POINT('',(0.3125,0.,0.25));
#1752=CARTESIAN_POINT('',(0.3125,0.3125,0.25));
#1753=CARTESIAN_POINT('',(0.3125,0.,0.1875));
#1754=CARTESIAN_POINT('Origin',(0.625,0.,0.1875));
#1755=CARTESIAN_POINT('',(0.625,0.,0.25));
#1756=CARTESIAN_POINT('',(0.625,0.,0.25));
#1757=CARTESIAN_POINT('',(0.625,0.,0.1875));
#1758=CARTESIAN_POINT('Origin',(0.625,0.625,0.1875));
#1759=CARTESIAN_POINT('',(0.625,0.3125,0.25));
#1760=CARTESIAN_POINT('Origin',(0.725,-0.0999999999999998,0.1875));
#1761=CARTESIAN_POINT('',(0.75,-0.1,0.25));
#1762=CARTESIAN_POINT('',(0.75,-0.1,0.1875));
#1763=CARTESIAN_POINT('',(0.725,-0.125,0.25));
#1764=CARTESIAN_POINT('Origin',(0.725,-0.0999999999999998,0.25));
#1765=CARTESIAN_POINT('',(0.725,-0.125,0.1875));
#1766=CARTESIAN_POINT('Origin',(0.65,-0.125,0.1875));
#1767=CARTESIAN_POINT('',(0.65,-0.125,0.25));
#1768=CARTESIAN_POINT('',(0.65,-0.125,0.25));
#1769=CARTESIAN_POINT('',(0.65,-0.125,0.1875));
#1770=CARTESIAN_POINT('Origin',(0.65,-0.1,0.1875));
#1771=CARTESIAN_POINT('',(0.625,-0.1,0.25));
#1772=CARTESIAN_POINT('Origin',(0.65,-0.1,0.25));
#1773=CARTESIAN_POINT('',(0.625,-0.1,0.1875));
#1774=CARTESIAN_POINT('Origin',(0.625,-0.0625,0.1875));
#1775=CARTESIAN_POINT('',(0.625,-0.0625,0.25));
#1776=CARTESIAN_POINT('',(0.625,-0.0625,0.25));
#1777=CARTESIAN_POINT('',(0.625,-0.0625,0.1875));
#1778=CARTESIAN_POINT('Origin',(0.3125,-0.0625,0.1875));
#1779=CARTESIAN_POINT('',(0.3125,-0.0625,0.25));
#1780=CARTESIAN_POINT('',(0.3125,-0.0625,0.25));
#1781=CARTESIAN_POINT('',(0.3125,-0.0625,0.1875));
#1782=CARTESIAN_POINT('Origin',(0.3125,-0.1,0.1875));
#1783=CARTESIAN_POINT('',(0.3125,-0.1,0.25));
#1784=CARTESIAN_POINT('',(0.3125,-0.1,0.25));
#1785=CARTESIAN_POINT('',(0.3125,-0.1,0.1875));
#1786=CARTESIAN_POINT('Origin',(0.2875,-0.1,0.1875));
#1787=CARTESIAN_POINT('',(0.2875,-0.125,0.25));
#1788=CARTESIAN_POINT('Origin',(0.2875,-0.1,0.25));
#1789=CARTESIAN_POINT('',(0.2875,-0.125,0.1875));
#1790=CARTESIAN_POINT('Origin',(0.2125,-0.125,0.1875));
#1791=CARTESIAN_POINT('',(0.2125,-0.125,0.25));
#1792=CARTESIAN_POINT('',(0.2125,-0.125,0.25));
#1793=CARTESIAN_POINT('',(0.2125,-0.125,0.1875));
#1794=CARTESIAN_POINT('Origin',(0.2125,-0.1,0.1875));
#1795=CARTESIAN_POINT('',(0.1875,-0.1,0.25));
#1796=CARTESIAN_POINT('Origin',(0.2125,-0.1,0.25));
#1797=CARTESIAN_POINT('',(0.1875,-0.1,0.1875));
#1798=CARTESIAN_POINT('Origin',(0.1875,0.725,0.1875));
#1799=CARTESIAN_POINT('',(0.1875,0.725,0.25));
#1800=CARTESIAN_POINT('',(0.1875,0.725,0.25));
#1801=CARTESIAN_POINT('',(0.1875,0.725,0.1875));
#1802=CARTESIAN_POINT('Origin',(0.2125,0.725,0.1875));
#1803=CARTESIAN_POINT('',(0.2125,0.75,0.25));
#1804=CARTESIAN_POINT('Origin',(0.2125,0.725,0.25));
#1805=CARTESIAN_POINT('',(0.2125,0.75,0.1875));
#1806=CARTESIAN_POINT('Origin',(0.2875,0.75,0.1875));
#1807=CARTESIAN_POINT('',(0.2875,0.75,0.25));
#1808=CARTESIAN_POINT('',(0.2875,0.75,0.25));
#1809=CARTESIAN_POINT('',(0.2875,0.75,0.1875));
#1810=CARTESIAN_POINT('Origin',(0.2875,0.725,0.1875));
#1811=CARTESIAN_POINT('',(0.3125,0.725,0.25));
#1812=CARTESIAN_POINT('Origin',(0.2875,0.725,0.25));
#1813=CARTESIAN_POINT('',(0.3125,0.725,0.1875));
#1814=CARTESIAN_POINT('Origin',(0.3125,0.6875,0.1875));
#1815=CARTESIAN_POINT('',(0.3125,0.6875,0.25));
#1816=CARTESIAN_POINT('',(0.3125,0.6875,0.25));
#1817=CARTESIAN_POINT('',(0.3125,0.6875,0.1875));
#1818=CARTESIAN_POINT('Origin',(0.625,0.6875,0.1875));
#1819=CARTESIAN_POINT('',(0.625,0.6875,0.25));
#1820=CARTESIAN_POINT('',(0.625,0.6875,0.25));
#1821=CARTESIAN_POINT('',(0.625,0.6875,0.1875));
#1822=CARTESIAN_POINT('Origin',(0.625,0.725,0.1875));
#1823=CARTESIAN_POINT('',(0.625,0.725,0.25));
#1824=CARTESIAN_POINT('',(0.625,0.725,0.25));
#1825=CARTESIAN_POINT('',(0.625,0.725,0.1875));
#1826=CARTESIAN_POINT('Origin',(0.65,0.725,0.1875));
#1827=CARTESIAN_POINT('',(0.65,0.75,0.25));
#1828=CARTESIAN_POINT('Origin',(0.65,0.725,0.25));
#1829=CARTESIAN_POINT('',(0.65,0.75,0.1875));
#1830=CARTESIAN_POINT('Origin',(0.725,0.75,0.1875));
#1831=CARTESIAN_POINT('',(0.725,0.75,0.25));
#1832=CARTESIAN_POINT('',(0.725,0.75,0.25));
#1833=CARTESIAN_POINT('',(0.725,0.75,0.1875));
#1834=CARTESIAN_POINT('Origin',(0.725,0.725,0.1875));
#1835=CARTESIAN_POINT('',(0.75,0.725,0.25));
#1836=CARTESIAN_POINT('Origin',(0.725,0.725,0.25));
#1837=CARTESIAN_POINT('',(0.75,0.725,0.1875));
#1838=CARTESIAN_POINT('Origin',(0.75,-0.1,0.1875));
#1839=CARTESIAN_POINT('',(0.75,-0.1,0.25));
#1840=CARTESIAN_POINT('Origin',(0.46875,0.3125,0.25));
#1841=UNCERTAINTY_MEASURE_WITH_UNIT(LENGTH_MEASURE(0.000393700787401575),
#1846,'DISTANCE_ACCURACY_VALUE',
'Maximum model space distance between geometric entities at asserted c
onnectivities');
#1842=UNCERTAINTY_MEASURE_WITH_UNIT(LENGTH_MEASURE(0.000393700787401575),
#1846,'DISTANCE_ACCURACY_VALUE',
'Maximum model space distance between geometric entities at asserted c
onnectivities');
#1843=(
GEOMETRIC_REPRESENTATION_CONTEXT(3)
GLOBAL_UNCERTAINTY_ASSIGNED_CONTEXT((#1841))
GLOBAL_UNIT_ASSIGNED_CONTEXT((#1846,#1850,#1851))
REPRESENTATION_CONTEXT('','3D')
);
#1844=(
GEOMETRIC_REPRESENTATION_CONTEXT(3)
GLOBAL_UNCERTAINTY_ASSIGNED_CONTEXT((#1842))
GLOBAL_UNIT_ASSIGNED_CONTEXT((#1846,#1850,#1851))
REPRESENTATION_CONTEXT('','3D')
);
#1845=DIMENSIONAL_EXPONENTS(1.,0.,0.,0.,0.,0.,0.);
#1846=(
CONVERSION_BASED_UNIT('inch',#1849)
LENGTH_UNIT()
NAMED_UNIT(#1845)
);
#1847=(
LENGTH_UNIT()
NAMED_UNIT(*)
SI_UNIT(.MILLI.,.METRE.)
);
#1848=(
LENGTH_UNIT()
NAMED_UNIT(*)
SI_UNIT($,.METRE.)
);
#1849=LENGTH_MEASURE_WITH_UNIT(LENGTH_MEASURE(25.4),#1847);
#1850=(
NAMED_UNIT(*)
PLANE_ANGLE_UNIT()
SI_UNIT($,.RADIAN.)
);
#1851=(
NAMED_UNIT(*)
SI_UNIT($,.STERADIAN.)
SOLID_ANGLE_UNIT()
);
#1852=SHAPE_DEFINITION_REPRESENTATION(#1853,#1854);
#1853=PRODUCT_DEFINITION_SHAPE('',$,#1856);
#1854=SHAPE_REPRESENTATION('',(#1137),#1843);
#1855=PRODUCT_DEFINITION_CONTEXT('part definition',#1860,'design');
#1856=PRODUCT_DEFINITION('IRreceiverMount','IRreceiverMount v3',#1857,#1855);
#1857=PRODUCT_DEFINITION_FORMATION('',$,#1862);
#1858=PRODUCT_RELATED_PRODUCT_CATEGORY('IRreceiverMount v3',
'IRreceiverMount v3',(#1862));
#1859=APPLICATION_PROTOCOL_DEFINITION('international standard',
'automotive_design',2009,#1860);
#1860=APPLICATION_CONTEXT(
'Core Data for Automotive Mechanical Design Process');
#1861=PRODUCT_CONTEXT('part definition',#1860,'mechanical');
#1862=PRODUCT('IRreceiverMount','IRreceiverMount v3',$,(#1861));
#1863=PRESENTATION_STYLE_ASSIGNMENT((#1865));
#1864=PRESENTATION_STYLE_ASSIGNMENT((#1866));
#1865=SURFACE_STYLE_USAGE(.BOTH.,#1867);
#1866=SURFACE_STYLE_USAGE(.BOTH.,#1868);
#1867=SURFACE_SIDE_STYLE('',(#1869));
#1868=SURFACE_SIDE_STYLE('',(#1870));
#1869=SURFACE_STYLE_FILL_AREA(#1871);
#1870=SURFACE_STYLE_FILL_AREA(#1872);
#1871=FILL_AREA_STYLE('Steel - Satin',(#1873));
#1872=FILL_AREA_STYLE('Nylon 12 (with Formlabs Fuse 1 3D Printer)',(#1874));
#1873=FILL_AREA_STYLE_COLOUR('Steel - Satin',#1875);
#1874=FILL_AREA_STYLE_COLOUR(
'Nylon 12 (with Formlabs Fuse 1 3D Printer)',#1876);
#1875=COLOUR_RGB('Steel - Satin',0.627450980392157,0.627450980392157,0.627450980392157);
#1876=COLOUR_RGB('Nylon 12 (with Formlabs Fuse 1 3D Printer)',0.247058823529412,
0.247058823529412,0.247058823529412);
ENDSEC;
END-ISO-10303-21;
