ISO-10303-21;
HEADER;
/* Generated by software containing ST-Developer
 * from STEP Tools, Inc. (www.steptools.com) 
 */

FILE_DESCRIPTION(
/* description */ (''),
/* implementation_level */ '2;1');

FILE_NAME(
/* name */ 'Load Cell Mount.step',
/* time_stamp */ '2026-07-10T21:33:14-04:00',
/* author */ (''),
/* organization */ (''),
/* preprocessor_version */ 'ST-DEVELOPER v20.1',
/* originating_system */ 'Autodesk Translation Framework v15.8.0.0',
/* authorisation */ '');

FILE_SCHEMA (('AUTOMOTIVE_DESIGN { 1 0 10303 214 3 1 1 }'));
ENDSEC;

DATA;
#10=MECHANICAL_DESIGN_GEOMETRIC_PRESENTATION_REPRESENTATION('',(#13),#953);
#11=SHAPE_REPRESENTATION_RELATIONSHIP('SRR','None',#963,#12);
#12=ADVANCED_BREP_SHAPE_REPRESENTATION('',(#14),#952);
#13=STYLED_ITEM('',(#973),#14);
#14=MANIFOLD_SOLID_BREP('LoadCellMount',#557);
#15=FACE_BOUND('',#92,.T.);
#16=FACE_BOUND('',#93,.T.);
#17=FACE_BOUND('',#94,.T.);
#18=FACE_BOUND('',#95,.T.);
#19=FACE_BOUND('',#97,.T.);
#20=FACE_BOUND('',#98,.T.);
#21=FACE_BOUND('',#99,.T.);
#22=FACE_BOUND('',#100,.T.);
#23=PLANE('',#574);
#24=PLANE('',#578);
#25=PLANE('',#582);
#26=PLANE('',#586);
#27=PLANE('',#593);
#28=PLANE('',#597);
#29=PLANE('',#601);
#30=PLANE('',#605);
#31=PLANE('',#609);
#32=PLANE('',#613);
#33=PLANE('',#617);
#34=PLANE('',#621);
#35=PLANE('',#625);
#36=PLANE('',#626);
#37=FACE_OUTER_BOUND('',#65,.T.);
#38=FACE_OUTER_BOUND('',#66,.T.);
#39=FACE_OUTER_BOUND('',#67,.T.);
#40=FACE_OUTER_BOUND('',#68,.T.);
#41=FACE_OUTER_BOUND('',#69,.T.);
#42=FACE_OUTER_BOUND('',#70,.T.);
#43=FACE_OUTER_BOUND('',#71,.T.);
#44=FACE_OUTER_BOUND('',#72,.T.);
#45=FACE_OUTER_BOUND('',#73,.T.);
#46=FACE_OUTER_BOUND('',#74,.T.);
#47=FACE_OUTER_BOUND('',#75,.T.);
#48=FACE_OUTER_BOUND('',#76,.T.);
#49=FACE_OUTER_BOUND('',#77,.T.);
#50=FACE_OUTER_BOUND('',#78,.T.);
#51=FACE_OUTER_BOUND('',#79,.T.);
#52=FACE_OUTER_BOUND('',#80,.T.);
#53=FACE_OUTER_BOUND('',#81,.T.);
#54=FACE_OUTER_BOUND('',#82,.T.);
#55=FACE_OUTER_BOUND('',#83,.T.);
#56=FACE_OUTER_BOUND('',#84,.T.);
#57=FACE_OUTER_BOUND('',#85,.T.);
#58=FACE_OUTER_BOUND('',#86,.T.);
#59=FACE_OUTER_BOUND('',#87,.T.);
#60=FACE_OUTER_BOUND('',#88,.T.);
#61=FACE_OUTER_BOUND('',#89,.T.);
#62=FACE_OUTER_BOUND('',#90,.T.);
#63=FACE_OUTER_BOUND('',#91,.T.);
#64=FACE_OUTER_BOUND('',#96,.T.);
#65=EDGE_LOOP('',(#359,#360,#361,#362));
#66=EDGE_LOOP('',(#363,#364,#365,#366));
#67=EDGE_LOOP('',(#367,#368,#369,#370));
#68=EDGE_LOOP('',(#371,#372,#373,#374));
#69=EDGE_LOOP('',(#375,#376,#377,#378));
#70=EDGE_LOOP('',(#379,#380,#381,#382));
#71=EDGE_LOOP('',(#383,#384,#385,#386));
#72=EDGE_LOOP('',(#387,#388,#389,#390));
#73=EDGE_LOOP('',(#391,#392,#393,#394));
#74=EDGE_LOOP('',(#395,#396,#397,#398));
#75=EDGE_LOOP('',(#399,#400,#401,#402));
#76=EDGE_LOOP('',(#403,#404,#405,#406));
#77=EDGE_LOOP('',(#407,#408,#409,#410));
#78=EDGE_LOOP('',(#411,#412,#413,#414));
#79=EDGE_LOOP('',(#415,#416,#417,#418));
#80=EDGE_LOOP('',(#419,#420,#421,#422));
#81=EDGE_LOOP('',(#423,#424,#425,#426));
#82=EDGE_LOOP('',(#427,#428,#429,#430));
#83=EDGE_LOOP('',(#431,#432,#433,#434));
#84=EDGE_LOOP('',(#435,#436,#437,#438));
#85=EDGE_LOOP('',(#439,#440,#441,#442));
#86=EDGE_LOOP('',(#443,#444,#445,#446));
#87=EDGE_LOOP('',(#447,#448,#449,#450));
#88=EDGE_LOOP('',(#451,#452,#453,#454));
#89=EDGE_LOOP('',(#455,#456,#457,#458));
#90=EDGE_LOOP('',(#459,#460,#461,#462));
#91=EDGE_LOOP('',(#463,#464,#465,#466,#467,#468,#469,#470));
#92=EDGE_LOOP('',(#471,#472,#473,#474,#475,#476,#477,#478));
#93=EDGE_LOOP('',(#479));
#94=EDGE_LOOP('',(#480,#481,#482,#483,#484,#485,#486,#487));
#95=EDGE_LOOP('',(#488));
#96=EDGE_LOOP('',(#489,#490,#491,#492,#493,#494,#495,#496));
#97=EDGE_LOOP('',(#497,#498,#499,#500,#501,#502,#503,#504));
#98=EDGE_LOOP('',(#505));
#99=EDGE_LOOP('',(#506,#507,#508,#509,#510,#511,#512,#513));
#100=EDGE_LOOP('',(#514));
#101=LINE('',#796,#151);
#102=LINE('',#801,#152);
#103=LINE('',#803,#153);
#104=LINE('',#805,#154);
#105=LINE('',#806,#155);
#106=LINE('',#812,#156);
#107=LINE('',#815,#157);
#108=LINE('',#817,#158);
#109=LINE('',#818,#159);
#110=LINE('',#824,#160);
#111=LINE('',#827,#161);
#112=LINE('',#829,#162);
#113=LINE('',#830,#163);
#114=LINE('',#836,#164);
#115=LINE('',#839,#165);
#116=LINE('',#841,#166);
#117=LINE('',#842,#167);
#118=LINE('',#850,#168);
#119=LINE('',#855,#169);
#120=LINE('',#857,#170);
#121=LINE('',#859,#171);
#122=LINE('',#860,#172);
#123=LINE('',#866,#173);
#124=LINE('',#869,#174);
#125=LINE('',#871,#175);
#126=LINE('',#872,#176);
#127=LINE('',#878,#177);
#128=LINE('',#881,#178);
#129=LINE('',#883,#179);
#130=LINE('',#884,#180);
#131=LINE('',#890,#181);
#132=LINE('',#893,#182);
#133=LINE('',#895,#183);
#134=LINE('',#896,#184);
#135=LINE('',#903,#185);
#136=LINE('',#905,#186);
#137=LINE('',#907,#187);
#138=LINE('',#908,#188);
#139=LINE('',#914,#189);
#140=LINE('',#917,#190);
#141=LINE('',#919,#191);
#142=LINE('',#920,#192);
#143=LINE('',#926,#193);
#144=LINE('',#929,#194);
#145=LINE('',#931,#195);
#146=LINE('',#932,#196);
#147=LINE('',#938,#197);
#148=LINE('',#941,#198);
#149=LINE('',#943,#199);
#150=LINE('',#944,#200);
#151=VECTOR('',#633,0.0937500000000001);
#152=VECTOR('',#638,0.393700787401575);
#153=VECTOR('',#639,0.393700787401575);
#154=VECTOR('',#640,0.393700787401575);
#155=VECTOR('',#641,0.393700787401575);
#156=VECTOR('',#648,0.393700787401575);
#157=VECTOR('',#651,0.393700787401575);
#158=VECTOR('',#652,0.393700787401575);
#159=VECTOR('',#653,0.393700787401575);
#160=VECTOR('',#660,0.393700787401575);
#161=VECTOR('',#663,0.393700787401575);
#162=VECTOR('',#664,0.393700787401575);
#163=VECTOR('',#665,0.393700787401575);
#164=VECTOR('',#672,0.393700787401575);
#165=VECTOR('',#675,0.393700787401575);
#166=VECTOR('',#676,0.393700787401575);
#167=VECTOR('',#677,0.393700787401575);
#168=VECTOR('',#688,0.0937500000000001);
#169=VECTOR('',#693,0.393700787401575);
#170=VECTOR('',#694,0.393700787401575);
#171=VECTOR('',#695,0.393700787401575);
#172=VECTOR('',#696,0.393700787401575);
#173=VECTOR('',#703,0.393700787401575);
#174=VECTOR('',#706,0.393700787401575);
#175=VECTOR('',#707,0.393700787401575);
#176=VECTOR('',#708,0.393700787401575);
#177=VECTOR('',#715,0.393700787401575);
#178=VECTOR('',#718,0.393700787401575);
#179=VECTOR('',#719,0.393700787401575);
#180=VECTOR('',#720,0.393700787401575);
#181=VECTOR('',#727,0.393700787401575);
#182=VECTOR('',#730,0.393700787401575);
#183=VECTOR('',#731,0.393700787401575);
#184=VECTOR('',#732,0.393700787401575);
#185=VECTOR('',#741,0.393700787401575);
#186=VECTOR('',#742,0.393700787401575);
#187=VECTOR('',#743,0.393700787401575);
#188=VECTOR('',#744,0.393700787401575);
#189=VECTOR('',#751,0.393700787401575);
#190=VECTOR('',#754,0.393700787401575);
#191=VECTOR('',#755,0.393700787401575);
#192=VECTOR('',#756,0.393700787401575);
#193=VECTOR('',#763,0.393700787401575);
#194=VECTOR('',#766,0.393700787401575);
#195=VECTOR('',#767,0.393700787401575);
#196=VECTOR('',#768,0.393700787401575);
#197=VECTOR('',#775,0.393700787401575);
#198=VECTOR('',#778,0.393700787401575);
#199=VECTOR('',#779,0.393700787401575);
#200=VECTOR('',#780,0.393700787401575);
#201=CIRCLE('',#572,0.09375);
#202=CIRCLE('',#573,0.09375);
#203=CIRCLE('',#576,0.0199999999999993);
#204=CIRCLE('',#577,0.0199999999999993);
#205=CIRCLE('',#580,0.0199999999999995);
#206=CIRCLE('',#581,0.0199999999999995);
#207=CIRCLE('',#584,0.0200000000000002);
#208=CIRCLE('',#585,0.0200000000000002);
#209=CIRCLE('',#588,0.0199999999999999);
#210=CIRCLE('',#589,0.0199999999999999);
#211=CIRCLE('',#591,0.09375);
#212=CIRCLE('',#592,0.09375);
#213=CIRCLE('',#595,0.0200000000000002);
#214=CIRCLE('',#596,0.0200000000000002);
#215=CIRCLE('',#599,0.0200000000000002);
#216=CIRCLE('',#600,0.0200000000000002);
#217=CIRCLE('',#603,0.0199999999999993);
#218=CIRCLE('',#604,0.0199999999999993);
#219=CIRCLE('',#607,0.0199999999999995);
#220=CIRCLE('',#608,0.0199999999999995);
#221=CIRCLE('',#611,0.1);
#222=CIRCLE('',#612,0.1);
#223=CIRCLE('',#615,0.100000000000001);
#224=CIRCLE('',#616,0.100000000000001);
#225=CIRCLE('',#619,0.0999999999999995);
#226=CIRCLE('',#620,0.0999999999999995);
#227=CIRCLE('',#623,0.0999999999999998);
#228=CIRCLE('',#624,0.0999999999999998);
#229=VERTEX_POINT('',#793);
#230=VERTEX_POINT('',#795);
#231=VERTEX_POINT('',#799);
#232=VERTEX_POINT('',#800);
#233=VERTEX_POINT('',#802);
#234=VERTEX_POINT('',#804);
#235=VERTEX_POINT('',#808);
#236=VERTEX_POINT('',#810);
#237=VERTEX_POINT('',#814);
#238=VERTEX_POINT('',#816);
#239=VERTEX_POINT('',#820);
#240=VERTEX_POINT('',#822);
#241=VERTEX_POINT('',#826);
#242=VERTEX_POINT('',#828);
#243=VERTEX_POINT('',#832);
#244=VERTEX_POINT('',#834);
#245=VERTEX_POINT('',#838);
#246=VERTEX_POINT('',#840);
#247=VERTEX_POINT('',#847);
#248=VERTEX_POINT('',#849);
#249=VERTEX_POINT('',#853);
#250=VERTEX_POINT('',#854);
#251=VERTEX_POINT('',#856);
#252=VERTEX_POINT('',#858);
#253=VERTEX_POINT('',#862);
#254=VERTEX_POINT('',#864);
#255=VERTEX_POINT('',#868);
#256=VERTEX_POINT('',#870);
#257=VERTEX_POINT('',#874);
#258=VERTEX_POINT('',#876);
#259=VERTEX_POINT('',#880);
#260=VERTEX_POINT('',#882);
#261=VERTEX_POINT('',#886);
#262=VERTEX_POINT('',#888);
#263=VERTEX_POINT('',#892);
#264=VERTEX_POINT('',#894);
#265=VERTEX_POINT('',#901);
#266=VERTEX_POINT('',#902);
#267=VERTEX_POINT('',#904);
#268=VERTEX_POINT('',#906);
#269=VERTEX_POINT('',#910);
#270=VERTEX_POINT('',#912);
#271=VERTEX_POINT('',#916);
#272=VERTEX_POINT('',#918);
#273=VERTEX_POINT('',#922);
#274=VERTEX_POINT('',#924);
#275=VERTEX_POINT('',#928);
#276=VERTEX_POINT('',#930);
#277=VERTEX_POINT('',#934);
#278=VERTEX_POINT('',#936);
#279=VERTEX_POINT('',#940);
#280=VERTEX_POINT('',#942);
#281=EDGE_CURVE('',#229,#229,#201,.T.);
#282=EDGE_CURVE('',#229,#230,#101,.T.);
#283=EDGE_CURVE('',#230,#230,#202,.T.);
#284=EDGE_CURVE('',#231,#232,#102,.T.);
#285=EDGE_CURVE('',#232,#233,#103,.T.);
#286=EDGE_CURVE('',#234,#233,#104,.T.);
#287=EDGE_CURVE('',#231,#234,#105,.T.);
#288=EDGE_CURVE('',#235,#231,#203,.T.);
#289=EDGE_CURVE('',#236,#234,#204,.T.);
#290=EDGE_CURVE('',#235,#236,#106,.T.);
#291=EDGE_CURVE('',#237,#235,#107,.T.);
#292=EDGE_CURVE('',#238,#236,#108,.T.);
#293=EDGE_CURVE('',#237,#238,#109,.T.);
#294=EDGE_CURVE('',#239,#237,#205,.T.);
#295=EDGE_CURVE('',#240,#238,#206,.T.);
#296=EDGE_CURVE('',#239,#240,#110,.T.);
#297=EDGE_CURVE('',#241,#239,#111,.T.);
#298=EDGE_CURVE('',#242,#240,#112,.T.);
#299=EDGE_CURVE('',#241,#242,#113,.T.);
#300=EDGE_CURVE('',#243,#241,#207,.T.);
#301=EDGE_CURVE('',#244,#242,#208,.T.);
#302=EDGE_CURVE('',#243,#244,#114,.T.);
#303=EDGE_CURVE('',#245,#243,#115,.T.);
#304=EDGE_CURVE('',#246,#244,#116,.T.);
#305=EDGE_CURVE('',#245,#246,#117,.T.);
#306=EDGE_CURVE('',#232,#245,#209,.T.);
#307=EDGE_CURVE('',#233,#246,#210,.T.);
#308=EDGE_CURVE('',#247,#247,#211,.T.);
#309=EDGE_CURVE('',#247,#248,#118,.T.);
#310=EDGE_CURVE('',#248,#248,#212,.T.);
#311=EDGE_CURVE('',#249,#250,#119,.T.);
#312=EDGE_CURVE('',#250,#251,#120,.T.);
#313=EDGE_CURVE('',#252,#251,#121,.T.);
#314=EDGE_CURVE('',#249,#252,#122,.T.);
#315=EDGE_CURVE('',#253,#249,#213,.T.);
#316=EDGE_CURVE('',#254,#252,#214,.T.);
#317=EDGE_CURVE('',#253,#254,#123,.T.);
#318=EDGE_CURVE('',#255,#253,#124,.T.);
#319=EDGE_CURVE('',#256,#254,#125,.T.);
#320=EDGE_CURVE('',#255,#256,#126,.T.);
#321=EDGE_CURVE('',#257,#255,#215,.T.);
#322=EDGE_CURVE('',#258,#256,#216,.T.);
#323=EDGE_CURVE('',#257,#258,#127,.T.);
#324=EDGE_CURVE('',#259,#257,#128,.T.);
#325=EDGE_CURVE('',#260,#258,#129,.T.);
#326=EDGE_CURVE('',#259,#260,#130,.T.);
#327=EDGE_CURVE('',#261,#259,#217,.T.);
#328=EDGE_CURVE('',#262,#260,#218,.T.);
#329=EDGE_CURVE('',#261,#262,#131,.T.);
#330=EDGE_CURVE('',#263,#261,#132,.T.);
#331=EDGE_CURVE('',#264,#262,#133,.T.);
#332=EDGE_CURVE('',#263,#264,#134,.T.);
#333=EDGE_CURVE('',#250,#263,#219,.T.);
#334=EDGE_CURVE('',#251,#264,#220,.T.);
#335=EDGE_CURVE('',#265,#266,#135,.T.);
#336=EDGE_CURVE('',#265,#267,#136,.T.);
#337=EDGE_CURVE('',#268,#267,#137,.T.);
#338=EDGE_CURVE('',#266,#268,#138,.T.);
#339=EDGE_CURVE('',#269,#266,#221,.T.);
#340=EDGE_CURVE('',#270,#268,#222,.T.);
#341=EDGE_CURVE('',#269,#270,#139,.T.);
#342=EDGE_CURVE('',#269,#271,#140,.T.);
#343=EDGE_CURVE('',#272,#270,#141,.T.);
#344=EDGE_CURVE('',#271,#272,#142,.T.);
#345=EDGE_CURVE('',#273,#271,#223,.T.);
#346=EDGE_CURVE('',#274,#272,#224,.T.);
#347=EDGE_CURVE('',#273,#274,#143,.T.);
#348=EDGE_CURVE('',#273,#275,#144,.T.);
#349=EDGE_CURVE('',#276,#274,#145,.T.);
#350=EDGE_CURVE('',#275,#276,#146,.T.);
#351=EDGE_CURVE('',#277,#275,#225,.T.);
#352=EDGE_CURVE('',#278,#276,#226,.T.);
#353=EDGE_CURVE('',#277,#278,#147,.T.);
#354=EDGE_CURVE('',#277,#279,#148,.T.);
#355=EDGE_CURVE('',#280,#278,#149,.T.);
#356=EDGE_CURVE('',#279,#280,#150,.T.);
#357=EDGE_CURVE('',#265,#279,#227,.T.);
#358=EDGE_CURVE('',#267,#280,#228,.T.);
#359=ORIENTED_EDGE('',*,*,#281,.F.);
#360=ORIENTED_EDGE('',*,*,#282,.T.);
#361=ORIENTED_EDGE('',*,*,#283,.T.);
#362=ORIENTED_EDGE('',*,*,#282,.F.);
#363=ORIENTED_EDGE('',*,*,#284,.T.);
#364=ORIENTED_EDGE('',*,*,#285,.T.);
#365=ORIENTED_EDGE('',*,*,#286,.F.);
#366=ORIENTED_EDGE('',*,*,#287,.F.);
#367=ORIENTED_EDGE('',*,*,#288,.T.);
#368=ORIENTED_EDGE('',*,*,#287,.T.);
#369=ORIENTED_EDGE('',*,*,#289,.F.);
#370=ORIENTED_EDGE('',*,*,#290,.F.);
#371=ORIENTED_EDGE('',*,*,#291,.T.);
#372=ORIENTED_EDGE('',*,*,#290,.T.);
#373=ORIENTED_EDGE('',*,*,#292,.F.);
#374=ORIENTED_EDGE('',*,*,#293,.F.);
#375=ORIENTED_EDGE('',*,*,#294,.T.);
#376=ORIENTED_EDGE('',*,*,#293,.T.);
#377=ORIENTED_EDGE('',*,*,#295,.F.);
#378=ORIENTED_EDGE('',*,*,#296,.F.);
#379=ORIENTED_EDGE('',*,*,#297,.T.);
#380=ORIENTED_EDGE('',*,*,#296,.T.);
#381=ORIENTED_EDGE('',*,*,#298,.F.);
#382=ORIENTED_EDGE('',*,*,#299,.F.);
#383=ORIENTED_EDGE('',*,*,#300,.T.);
#384=ORIENTED_EDGE('',*,*,#299,.T.);
#385=ORIENTED_EDGE('',*,*,#301,.F.);
#386=ORIENTED_EDGE('',*,*,#302,.F.);
#387=ORIENTED_EDGE('',*,*,#303,.T.);
#388=ORIENTED_EDGE('',*,*,#302,.T.);
#389=ORIENTED_EDGE('',*,*,#304,.F.);
#390=ORIENTED_EDGE('',*,*,#305,.F.);
#391=ORIENTED_EDGE('',*,*,#306,.T.);
#392=ORIENTED_EDGE('',*,*,#305,.T.);
#393=ORIENTED_EDGE('',*,*,#307,.F.);
#394=ORIENTED_EDGE('',*,*,#285,.F.);
#395=ORIENTED_EDGE('',*,*,#308,.F.);
#396=ORIENTED_EDGE('',*,*,#309,.T.);
#397=ORIENTED_EDGE('',*,*,#310,.T.);
#398=ORIENTED_EDGE('',*,*,#309,.F.);
#399=ORIENTED_EDGE('',*,*,#311,.T.);
#400=ORIENTED_EDGE('',*,*,#312,.T.);
#401=ORIENTED_EDGE('',*,*,#313,.F.);
#402=ORIENTED_EDGE('',*,*,#314,.F.);
#403=ORIENTED_EDGE('',*,*,#315,.T.);
#404=ORIENTED_EDGE('',*,*,#314,.T.);
#405=ORIENTED_EDGE('',*,*,#316,.F.);
#406=ORIENTED_EDGE('',*,*,#317,.F.);
#407=ORIENTED_EDGE('',*,*,#318,.T.);
#408=ORIENTED_EDGE('',*,*,#317,.T.);
#409=ORIENTED_EDGE('',*,*,#319,.F.);
#410=ORIENTED_EDGE('',*,*,#320,.F.);
#411=ORIENTED_EDGE('',*,*,#321,.T.);
#412=ORIENTED_EDGE('',*,*,#320,.T.);
#413=ORIENTED_EDGE('',*,*,#322,.F.);
#414=ORIENTED_EDGE('',*,*,#323,.F.);
#415=ORIENTED_EDGE('',*,*,#324,.T.);
#416=ORIENTED_EDGE('',*,*,#323,.T.);
#417=ORIENTED_EDGE('',*,*,#325,.F.);
#418=ORIENTED_EDGE('',*,*,#326,.F.);
#419=ORIENTED_EDGE('',*,*,#327,.T.);
#420=ORIENTED_EDGE('',*,*,#326,.T.);
#421=ORIENTED_EDGE('',*,*,#328,.F.);
#422=ORIENTED_EDGE('',*,*,#329,.F.);
#423=ORIENTED_EDGE('',*,*,#330,.T.);
#424=ORIENTED_EDGE('',*,*,#329,.T.);
#425=ORIENTED_EDGE('',*,*,#331,.F.);
#426=ORIENTED_EDGE('',*,*,#332,.F.);
#427=ORIENTED_EDGE('',*,*,#333,.T.);
#428=ORIENTED_EDGE('',*,*,#332,.T.);
#429=ORIENTED_EDGE('',*,*,#334,.F.);
#430=ORIENTED_EDGE('',*,*,#312,.F.);
#431=ORIENTED_EDGE('',*,*,#335,.F.);
#432=ORIENTED_EDGE('',*,*,#336,.T.);
#433=ORIENTED_EDGE('',*,*,#337,.F.);
#434=ORIENTED_EDGE('',*,*,#338,.F.);
#435=ORIENTED_EDGE('',*,*,#339,.T.);
#436=ORIENTED_EDGE('',*,*,#338,.T.);
#437=ORIENTED_EDGE('',*,*,#340,.F.);
#438=ORIENTED_EDGE('',*,*,#341,.F.);
#439=ORIENTED_EDGE('',*,*,#342,.F.);
#440=ORIENTED_EDGE('',*,*,#341,.T.);
#441=ORIENTED_EDGE('',*,*,#343,.F.);
#442=ORIENTED_EDGE('',*,*,#344,.F.);
#443=ORIENTED_EDGE('',*,*,#345,.T.);
#444=ORIENTED_EDGE('',*,*,#344,.T.);
#445=ORIENTED_EDGE('',*,*,#346,.F.);
#446=ORIENTED_EDGE('',*,*,#347,.F.);
#447=ORIENTED_EDGE('',*,*,#348,.F.);
#448=ORIENTED_EDGE('',*,*,#347,.T.);
#449=ORIENTED_EDGE('',*,*,#349,.F.);
#450=ORIENTED_EDGE('',*,*,#350,.F.);
#451=ORIENTED_EDGE('',*,*,#351,.T.);
#452=ORIENTED_EDGE('',*,*,#350,.T.);
#453=ORIENTED_EDGE('',*,*,#352,.F.);
#454=ORIENTED_EDGE('',*,*,#353,.F.);
#455=ORIENTED_EDGE('',*,*,#354,.F.);
#456=ORIENTED_EDGE('',*,*,#353,.T.);
#457=ORIENTED_EDGE('',*,*,#355,.F.);
#458=ORIENTED_EDGE('',*,*,#356,.F.);
#459=ORIENTED_EDGE('',*,*,#357,.T.);
#460=ORIENTED_EDGE('',*,*,#356,.T.);
#461=ORIENTED_EDGE('',*,*,#358,.F.);
#462=ORIENTED_EDGE('',*,*,#336,.F.);
#463=ORIENTED_EDGE('',*,*,#358,.T.);
#464=ORIENTED_EDGE('',*,*,#355,.T.);
#465=ORIENTED_EDGE('',*,*,#352,.T.);
#466=ORIENTED_EDGE('',*,*,#349,.T.);
#467=ORIENTED_EDGE('',*,*,#346,.T.);
#468=ORIENTED_EDGE('',*,*,#343,.T.);
#469=ORIENTED_EDGE('',*,*,#340,.T.);
#470=ORIENTED_EDGE('',*,*,#337,.T.);
#471=ORIENTED_EDGE('',*,*,#334,.T.);
#472=ORIENTED_EDGE('',*,*,#331,.T.);
#473=ORIENTED_EDGE('',*,*,#328,.T.);
#474=ORIENTED_EDGE('',*,*,#325,.T.);
#475=ORIENTED_EDGE('',*,*,#322,.T.);
#476=ORIENTED_EDGE('',*,*,#319,.T.);
#477=ORIENTED_EDGE('',*,*,#316,.T.);
#478=ORIENTED_EDGE('',*,*,#313,.T.);
#479=ORIENTED_EDGE('',*,*,#308,.T.);
#480=ORIENTED_EDGE('',*,*,#307,.T.);
#481=ORIENTED_EDGE('',*,*,#304,.T.);
#482=ORIENTED_EDGE('',*,*,#301,.T.);
#483=ORIENTED_EDGE('',*,*,#298,.T.);
#484=ORIENTED_EDGE('',*,*,#295,.T.);
#485=ORIENTED_EDGE('',*,*,#292,.T.);
#486=ORIENTED_EDGE('',*,*,#289,.T.);
#487=ORIENTED_EDGE('',*,*,#286,.T.);
#488=ORIENTED_EDGE('',*,*,#281,.T.);
#489=ORIENTED_EDGE('',*,*,#357,.F.);
#490=ORIENTED_EDGE('',*,*,#335,.T.);
#491=ORIENTED_EDGE('',*,*,#339,.F.);
#492=ORIENTED_EDGE('',*,*,#342,.T.);
#493=ORIENTED_EDGE('',*,*,#345,.F.);
#494=ORIENTED_EDGE('',*,*,#348,.T.);
#495=ORIENTED_EDGE('',*,*,#351,.F.);
#496=ORIENTED_EDGE('',*,*,#354,.T.);
#497=ORIENTED_EDGE('',*,*,#333,.F.);
#498=ORIENTED_EDGE('',*,*,#311,.F.);
#499=ORIENTED_EDGE('',*,*,#315,.F.);
#500=ORIENTED_EDGE('',*,*,#318,.F.);
#501=ORIENTED_EDGE('',*,*,#321,.F.);
#502=ORIENTED_EDGE('',*,*,#324,.F.);
#503=ORIENTED_EDGE('',*,*,#327,.F.);
#504=ORIENTED_EDGE('',*,*,#330,.F.);
#505=ORIENTED_EDGE('',*,*,#310,.F.);
#506=ORIENTED_EDGE('',*,*,#306,.F.);
#507=ORIENTED_EDGE('',*,*,#284,.F.);
#508=ORIENTED_EDGE('',*,*,#288,.F.);
#509=ORIENTED_EDGE('',*,*,#291,.F.);
#510=ORIENTED_EDGE('',*,*,#294,.F.);
#511=ORIENTED_EDGE('',*,*,#297,.F.);
#512=ORIENTED_EDGE('',*,*,#300,.F.);
#513=ORIENTED_EDGE('',*,*,#303,.F.);
#514=ORIENTED_EDGE('',*,*,#283,.F.);
#515=CYLINDRICAL_SURFACE('',#571,0.09375);
#516=CYLINDRICAL_SURFACE('',#575,0.0199999999999993);
#517=CYLINDRICAL_SURFACE('',#579,0.0199999999999995);
#518=CYLINDRICAL_SURFACE('',#583,0.0200000000000002);
#519=CYLINDRICAL_SURFACE('',#587,0.0199999999999999);
#520=CYLINDRICAL_SURFACE('',#590,0.09375);
#521=CYLINDRICAL_SURFACE('',#594,0.0200000000000002);
#522=CYLINDRICAL_SURFACE('',#598,0.0200000000000002);
#523=CYLINDRICAL_SURFACE('',#602,0.0199999999999993);
#524=CYLINDRICAL_SURFACE('',#606,0.0199999999999995);
#525=CYLINDRICAL_SURFACE('',#610,0.1);
#526=CYLINDRICAL_SURFACE('',#614,0.100000000000001);
#527=CYLINDRICAL_SURFACE('',#618,0.0999999999999995);
#528=CYLINDRICAL_SURFACE('',#622,0.0999999999999998);
#529=ADVANCED_FACE('',(#37),#515,.F.);
#530=ADVANCED_FACE('',(#38),#23,.T.);
#531=ADVANCED_FACE('',(#39),#516,.F.);
#532=ADVANCED_FACE('',(#40),#24,.T.);
#533=ADVANCED_FACE('',(#41),#517,.F.);
#534=ADVANCED_FACE('',(#42),#25,.T.);
#535=ADVANCED_FACE('',(#43),#518,.F.);
#536=ADVANCED_FACE('',(#44),#26,.T.);
#537=ADVANCED_FACE('',(#45),#519,.F.);
#538=ADVANCED_FACE('',(#46),#520,.F.);
#539=ADVANCED_FACE('',(#47),#27,.T.);
#540=ADVANCED_FACE('',(#48),#521,.F.);
#541=ADVANCED_FACE('',(#49),#28,.T.);
#542=ADVANCED_FACE('',(#50),#522,.F.);
#543=ADVANCED_FACE('',(#51),#29,.T.);
#544=ADVANCED_FACE('',(#52),#523,.F.);
#545=ADVANCED_FACE('',(#53),#30,.T.);
#546=ADVANCED_FACE('',(#54),#524,.F.);
#547=ADVANCED_FACE('',(#55),#31,.T.);
#548=ADVANCED_FACE('',(#56),#525,.T.);
#549=ADVANCED_FACE('',(#57),#32,.T.);
#550=ADVANCED_FACE('',(#58),#526,.T.);
#551=ADVANCED_FACE('',(#59),#33,.T.);
#552=ADVANCED_FACE('',(#60),#527,.T.);
#553=ADVANCED_FACE('',(#61),#34,.T.);
#554=ADVANCED_FACE('',(#62),#528,.T.);
#555=ADVANCED_FACE('',(#63,#15,#16,#17,#18),#35,.T.);
#556=ADVANCED_FACE('',(#64,#19,#20,#21,#22),#36,.F.);
#557=CLOSED_SHELL('',(#529,#530,#531,#532,#533,#534,#535,#536,#537,#538,
#539,#540,#541,#542,#543,#544,#545,#546,#547,#548,#549,#550,#551,#552,#553,
#554,#555,#556));
#558=DERIVED_UNIT_ELEMENT(#560,1.);
#559=DERIVED_UNIT_ELEMENT(#957,-3.);
#560=(
MASS_UNIT()
NAMED_UNIT(*)
SI_UNIT(.KILO.,.GRAM.)
);
#561=DERIVED_UNIT((#558,#559));
#562=MEASURE_REPRESENTATION_ITEM('density measure',
POSITIVE_RATIO_MEASURE(7850.),#561);
#563=PROPERTY_DEFINITION_REPRESENTATION(#568,#565);
#564=PROPERTY_DEFINITION_REPRESENTATION(#569,#566);
#565=REPRESENTATION('material name',(#567),#952);
#566=REPRESENTATION('density',(#562),#952);
#567=DESCRIPTIVE_REPRESENTATION_ITEM('Steel','Steel');
#568=PROPERTY_DEFINITION('material property','material name',#965);
#569=PROPERTY_DEFINITION('material property','density of part',#965);
#570=AXIS2_PLACEMENT_3D('',#791,#627,#628);
#571=AXIS2_PLACEMENT_3D('',#792,#629,#630);
#572=AXIS2_PLACEMENT_3D('',#794,#631,#632);
#573=AXIS2_PLACEMENT_3D('',#797,#634,#635);
#574=AXIS2_PLACEMENT_3D('',#798,#636,#637);
#575=AXIS2_PLACEMENT_3D('',#807,#642,#643);
#576=AXIS2_PLACEMENT_3D('',#809,#644,#645);
#577=AXIS2_PLACEMENT_3D('',#811,#646,#647);
#578=AXIS2_PLACEMENT_3D('',#813,#649,#650);
#579=AXIS2_PLACEMENT_3D('',#819,#654,#655);
#580=AXIS2_PLACEMENT_3D('',#821,#656,#657);
#581=AXIS2_PLACEMENT_3D('',#823,#658,#659);
#582=AXIS2_PLACEMENT_3D('',#825,#661,#662);
#583=AXIS2_PLACEMENT_3D('',#831,#666,#667);
#584=AXIS2_PLACEMENT_3D('',#833,#668,#669);
#585=AXIS2_PLACEMENT_3D('',#835,#670,#671);
#586=AXIS2_PLACEMENT_3D('',#837,#673,#674);
#587=AXIS2_PLACEMENT_3D('',#843,#678,#679);
#588=AXIS2_PLACEMENT_3D('',#844,#680,#681);
#589=AXIS2_PLACEMENT_3D('',#845,#682,#683);
#590=AXIS2_PLACEMENT_3D('',#846,#684,#685);
#591=AXIS2_PLACEMENT_3D('',#848,#686,#687);
#592=AXIS2_PLACEMENT_3D('',#851,#689,#690);
#593=AXIS2_PLACEMENT_3D('',#852,#691,#692);
#594=AXIS2_PLACEMENT_3D('',#861,#697,#698);
#595=AXIS2_PLACEMENT_3D('',#863,#699,#700);
#596=AXIS2_PLACEMENT_3D('',#865,#701,#702);
#597=AXIS2_PLACEMENT_3D('',#867,#704,#705);
#598=AXIS2_PLACEMENT_3D('',#873,#709,#710);
#599=AXIS2_PLACEMENT_3D('',#875,#711,#712);
#600=AXIS2_PLACEMENT_3D('',#877,#713,#714);
#601=AXIS2_PLACEMENT_3D('',#879,#716,#717);
#602=AXIS2_PLACEMENT_3D('',#885,#721,#722);
#603=AXIS2_PLACEMENT_3D('',#887,#723,#724);
#604=AXIS2_PLACEMENT_3D('',#889,#725,#726);
#605=AXIS2_PLACEMENT_3D('',#891,#728,#729);
#606=AXIS2_PLACEMENT_3D('',#897,#733,#734);
#607=AXIS2_PLACEMENT_3D('',#898,#735,#736);
#608=AXIS2_PLACEMENT_3D('',#899,#737,#738);
#609=AXIS2_PLACEMENT_3D('',#900,#739,#740);
#610=AXIS2_PLACEMENT_3D('',#909,#745,#746);
#611=AXIS2_PLACEMENT_3D('',#911,#747,#748);
#612=AXIS2_PLACEMENT_3D('',#913,#749,#750);
#613=AXIS2_PLACEMENT_3D('',#915,#752,#753);
#614=AXIS2_PLACEMENT_3D('',#921,#757,#758);
#615=AXIS2_PLACEMENT_3D('',#923,#759,#760);
#616=AXIS2_PLACEMENT_3D('',#925,#761,#762);
#617=AXIS2_PLACEMENT_3D('',#927,#764,#765);
#618=AXIS2_PLACEMENT_3D('',#933,#769,#770);
#619=AXIS2_PLACEMENT_3D('',#935,#771,#772);
#620=AXIS2_PLACEMENT_3D('',#937,#773,#774);
#621=AXIS2_PLACEMENT_3D('',#939,#776,#777);
#622=AXIS2_PLACEMENT_3D('',#945,#781,#782);
#623=AXIS2_PLACEMENT_3D('',#946,#783,#784);
#624=AXIS2_PLACEMENT_3D('',#947,#785,#786);
#625=AXIS2_PLACEMENT_3D('',#948,#787,#788);
#626=AXIS2_PLACEMENT_3D('',#949,#789,#790);
#627=DIRECTION('axis',(0.,0.,1.));
#628=DIRECTION('refdir',(1.,0.,0.));
#629=DIRECTION('center_axis',(1.85762540532433E-5,0.,0.999999999827461));
#630=DIRECTION('ref_axis',(0.,1.,0.));
#631=DIRECTION('center_axis',(-1.85762540534604E-5,0.,-0.999999999827461));
#632=DIRECTION('ref_axis',(0.,1.,0.));
#633=DIRECTION('',(-1.85762540532432E-5,0.,-0.999999999827461));
#634=DIRECTION('center_axis',(-1.85762540534604E-5,0.,-0.999999999827461));
#635=DIRECTION('ref_axis',(0.,1.,0.));
#636=DIRECTION('center_axis',(-0.999999999827461,-2.46251086752836E-15,
1.85762540532433E-5));
#637=DIRECTION('ref_axis',(2.46252230316035E-15,-1.,6.15581972548386E-16));
#638=DIRECTION('',(2.46252230316035E-15,-1.,6.15581972548386E-16));
#639=DIRECTION('',(1.85762540532433E-5,0.,0.999999999827461));
#640=DIRECTION('',(2.46252230316035E-15,-1.,6.15581972548386E-16));
#641=DIRECTION('',(1.85762540532433E-5,0.,0.999999999827461));
#642=DIRECTION('center_axis',(1.85762540532433E-5,0.,0.999999999827461));
#643=DIRECTION('ref_axis',(0.999999999827461,1.74838271594519E-14,-1.85762540532433E-5));
#644=DIRECTION('center_axis',(-1.85762540534604E-5,-3.20185853254378E-32,
-0.999999999827461));
#645=DIRECTION('ref_axis',(0.999999999827461,1.74838271594519E-14,-1.85762540534604E-5));
#646=DIRECTION('center_axis',(-1.85762540534604E-5,-3.20185853254378E-32,
-0.999999999827461));
#647=DIRECTION('ref_axis',(0.999999999827461,1.74838271594519E-14,-1.85762540534604E-5));
#648=DIRECTION('',(1.85762540532433E-5,0.,0.999999999827461));
#649=DIRECTION('center_axis',(-7.38753260131041E-15,-1.,1.37232682452237E-19));
#650=DIRECTION('ref_axis',(0.999999999827461,-7.38753260258505E-15,-1.85762540534604E-5));
#651=DIRECTION('',(0.999999999827461,-7.38753260258505E-15,-1.85762540534604E-5));
#652=DIRECTION('',(0.999999999827461,-7.38753260258505E-15,-1.85762540534604E-5));
#653=DIRECTION('',(1.85762540532433E-5,0.,0.999999999827461));
#654=DIRECTION('center_axis',(1.85762540532433E-5,0.,0.999999999827461));
#655=DIRECTION('ref_axis',(-6.55643518366314E-15,1.,1.21794005676363E-19));
#656=DIRECTION('center_axis',(-1.85762540534604E-5,-4.84582029601054E-32,
-0.999999999827461));
#657=DIRECTION('ref_axis',(-6.55643518366314E-15,1.,1.21794005677738E-19));
#658=DIRECTION('center_axis',(-1.85762540534604E-5,-4.84582029601054E-32,
-0.999999999827461));
#659=DIRECTION('ref_axis',(-6.55643518366314E-15,1.,1.21794005677738E-19));
#660=DIRECTION('',(1.85762540532433E-5,0.,0.999999999827461));
#661=DIRECTION('center_axis',(0.999999999827461,-8.31097417790822E-15,-1.85762540532433E-5));
#662=DIRECTION('ref_axis',(8.31097417648312E-15,1.,-1.53909566100229E-19));
#663=DIRECTION('',(8.31097417648312E-15,1.,-1.53909566100229E-19));
#664=DIRECTION('',(8.31097417648312E-15,1.,-1.53909566100229E-19));
#665=DIRECTION('',(1.85762540532433E-5,0.,0.999999999827461));
#666=DIRECTION('center_axis',(1.85762540532433E-5,0.,0.999999999827461));
#667=DIRECTION('ref_axis',(-0.999999999827461,0.,1.85762540532433E-5));
#668=DIRECTION('center_axis',(-1.85762540534604E-5,-1.71702266702556E-32,
-0.999999999827461));
#669=DIRECTION('ref_axis',(-0.999999999827461,0.,1.85762540534604E-5));
#670=DIRECTION('center_axis',(-1.85762540534604E-5,-1.71702266702556E-32,
-0.999999999827461));
#671=DIRECTION('ref_axis',(-0.999999999827461,0.,1.85762540534604E-5));
#672=DIRECTION('',(1.85762540532433E-5,0.,0.999999999827461));
#673=DIRECTION('center_axis',(4.92502173420694E-15,1.,-9.1488454968158E-20));
#674=DIRECTION('ref_axis',(-0.999999999827461,4.92502173505669E-15,1.85762540534604E-5));
#675=DIRECTION('',(-0.999999999827461,4.92502173505669E-15,1.85762540534604E-5));
#676=DIRECTION('',(-0.999999999827461,4.92502173505669E-15,1.85762540534604E-5));
#677=DIRECTION('',(1.85762540532433E-5,0.,0.999999999827461));
#678=DIRECTION('center_axis',(1.85762540532433E-5,0.,0.999999999827461));
#679=DIRECTION('ref_axis',(-2.62257407346521E-14,-1.,4.87176022705445E-19));
#680=DIRECTION('center_axis',(-1.85762540534604E-5,-5.01964486102273E-32,
-0.999999999827461));
#681=DIRECTION('ref_axis',(-2.62257407346521E-14,-1.,4.87176022711189E-19));
#682=DIRECTION('center_axis',(-1.85762540534604E-5,-5.01964486102272E-32,
-0.999999999827461));
#683=DIRECTION('ref_axis',(-2.62257407346521E-14,-1.,4.87176022711189E-19));
#684=DIRECTION('center_axis',(1.85762540532433E-5,0.,0.999999999827461));
#685=DIRECTION('ref_axis',(0.,1.,0.));
#686=DIRECTION('center_axis',(-1.85762540534604E-5,0.,-0.999999999827461));
#687=DIRECTION('ref_axis',(0.,1.,0.));
#688=DIRECTION('',(-1.85762540532432E-5,0.,-0.999999999827461));
#689=DIRECTION('center_axis',(-1.85762540534604E-5,0.,-0.999999999827461));
#690=DIRECTION('ref_axis',(0.,1.,0.));
#691=DIRECTION('center_axis',(-0.999999999827461,4.30939401817463E-15,1.85762540532433E-5));
#692=DIRECTION('ref_axis',(-4.30938258138309E-15,-1.,6.15707291972308E-16));
#693=DIRECTION('',(-4.30938258138309E-15,-1.,6.15707291972308E-16));
#694=DIRECTION('',(1.85762540532433E-5,0.,0.999999999827461));
#695=DIRECTION('',(-4.30938258138309E-15,-1.,6.15707291972308E-16));
#696=DIRECTION('',(1.85762540532433E-5,0.,0.999999999827461));
#697=DIRECTION('center_axis',(1.85762540532433E-5,0.,0.999999999827461));
#698=DIRECTION('ref_axis',(0.999999999827461,-2.28134555800856E-68,-1.85762540532433E-5));
#699=DIRECTION('center_axis',(-1.85762540534604E-5,-4.92951558064768E-32,
-0.999999999827461));
#700=DIRECTION('ref_axis',(0.999999999827461,-2.28134555800856E-68,-1.85762540534604E-5));
#701=DIRECTION('center_axis',(-1.85762540534604E-5,-4.92951558064768E-32,
-0.999999999827461));
#702=DIRECTION('ref_axis',(0.999999999827461,-2.28134555800856E-68,-1.85762540534604E-5));
#703=DIRECTION('',(1.85762540532433E-5,0.,0.999999999827461));
#704=DIRECTION('center_axis',(-1.47750652026208E-14,-1.,2.74465364904474E-19));
#705=DIRECTION('ref_axis',(0.999999999827461,-1.47750652051701E-14,-1.85762540534604E-5));
#706=DIRECTION('',(0.999999999827461,-1.47750652051701E-14,-1.85762540534604E-5));
#707=DIRECTION('',(0.999999999827461,-1.477506520517E-14,-1.85762540534604E-5));
#708=DIRECTION('',(1.85762540532433E-5,0.,0.999999999827461));
#709=DIRECTION('center_axis',(1.85762540532433E-5,0.,0.999999999827461));
#710=DIRECTION('ref_axis',(2.1854783945543E-15,1.,-4.05980018921197E-20));
#711=DIRECTION('center_axis',(-1.85762540534604E-5,-4.83951232884329E-32,
-0.999999999827461));
#712=DIRECTION('ref_axis',(2.1854783945543E-15,1.,-4.05980018926426E-20));
#713=DIRECTION('center_axis',(-1.85762540534604E-5,-4.83951232884329E-32,
-0.999999999827461));
#714=DIRECTION('ref_axis',(2.1854783945543E-15,1.,-4.05980018926426E-20));
#715=DIRECTION('',(1.85762540532433E-5,0.,0.999999999827461));
#716=DIRECTION('center_axis',(0.999999999827461,7.07971874414397E-15,-1.85762540532433E-5));
#717=DIRECTION('ref_axis',(-7.0797187429313E-15,1.,1.31037452357921E-19));
#718=DIRECTION('',(-7.0797187429313E-15,1.,1.31037452357921E-19));
#719=DIRECTION('',(-7.07971874293131E-15,1.,1.31037452357921E-19));
#720=DIRECTION('',(1.85762540532433E-5,0.,0.999999999827461));
#721=DIRECTION('center_axis',(1.85762540532433E-5,0.,0.999999999827461));
#722=DIRECTION('ref_axis',(-0.999999999827461,-1.74838271594519E-14,1.85762540532433E-5));
#723=DIRECTION('center_axis',(-1.85762540534604E-5,-1.72927444147208E-32,
-0.999999999827461));
#724=DIRECTION('ref_axis',(-0.999999999827461,-1.74838271594519E-14,1.85762540534604E-5));
#725=DIRECTION('center_axis',(-1.85762540534604E-5,-1.72927444147208E-32,
-0.999999999827461));
#726=DIRECTION('ref_axis',(-0.999999999827461,-1.74838271594519E-14,1.85762540534604E-5));
#727=DIRECTION('',(1.85762540532433E-5,0.,0.999999999827461));
#728=DIRECTION('center_axis',(1.72375760697243E-14,1.,-3.20209592388553E-19));
#729=DIRECTION('ref_axis',(-0.999999999827461,1.72375760726984E-14,1.85762540534604E-5));
#730=DIRECTION('',(-0.999999999827461,1.72375760726984E-14,1.85762540534604E-5));
#731=DIRECTION('',(-0.999999999827461,1.72375760726984E-14,1.85762540534604E-5));
#732=DIRECTION('',(1.85762540532433E-5,0.,0.999999999827461));
#733=DIRECTION('center_axis',(1.85762540532433E-5,0.,0.999999999827461));
#734=DIRECTION('ref_axis',(8.74191357821752E-15,-1.,-1.62392007568484E-19));
#735=DIRECTION('center_axis',(-1.85762540534604E-5,-5.01290976501386E-32,
-0.999999999827461));
#736=DIRECTION('ref_axis',(8.74191357821752E-15,-1.,-1.62392007570332E-19));
#737=DIRECTION('center_axis',(-1.85762540534604E-5,-5.01290976501386E-32,
-0.999999999827461));
#738=DIRECTION('ref_axis',(8.74191357821753E-15,-1.,-1.62392007570332E-19));
#739=DIRECTION('center_axis',(4.37095678910866E-16,1.,-8.11960037842403E-21));
#740=DIRECTION('ref_axis',(-0.999999999827461,4.37095678986282E-16,1.85762540534604E-5));
#741=DIRECTION('',(0.999999999827461,-4.37095678986282E-16,-1.85762540534604E-5));
#742=DIRECTION('',(1.85762540532433E-5,0.,0.999999999827461));
#743=DIRECTION('',(-0.999999999827461,4.37095678986282E-16,1.85762540534604E-5));
#744=DIRECTION('',(1.85762540532433E-5,0.,0.999999999827461));
#745=DIRECTION('center_axis',(1.85762540532433E-5,0.,0.999999999827461));
#746=DIRECTION('ref_axis',(0.999999999827461,3.49676543189025E-15,-1.85762540532433E-5));
#747=DIRECTION('center_axis',(1.85762540534604E-5,0.,0.999999999827461));
#748=DIRECTION('ref_axis',(0.999999999827461,3.49676543189025E-15,-1.85762540534604E-5));
#749=DIRECTION('center_axis',(1.85762540534604E-5,0.,0.999999999827461));
#750=DIRECTION('ref_axis',(0.999999999827461,3.49676543189025E-15,-1.85762540534604E-5));
#751=DIRECTION('',(1.85762540532433E-5,0.,0.999999999827461));
#752=DIRECTION('center_axis',(0.999999999827461,-2.18547839493141E-16,-1.85762540532433E-5));
#753=DIRECTION('ref_axis',(2.18547839455433E-16,1.,-4.05980018925947E-21));
#754=DIRECTION('',(-2.18547839455433E-16,-1.,4.05980018925947E-21));
#755=DIRECTION('',(2.18547839455433E-16,1.,-4.05980018925947E-21));
#756=DIRECTION('',(1.85762540532433E-5,0.,0.999999999827461));
#757=DIRECTION('center_axis',(1.85762540532433E-5,0.,0.999999999827461));
#758=DIRECTION('ref_axis',(6.99353086257382E-15,-1.,-1.29913606054784E-19));
#759=DIRECTION('center_axis',(1.85762540534604E-5,0.,0.999999999827461));
#760=DIRECTION('ref_axis',(6.99353086257382E-15,-1.,-1.29913606056302E-19));
#761=DIRECTION('center_axis',(1.85762540534604E-5,0.,0.999999999827461));
#762=DIRECTION('ref_axis',(6.99353086257382E-15,-1.,-1.29913606056302E-19));
#763=DIRECTION('',(1.85762540532433E-5,0.,0.999999999827461));
#764=DIRECTION('center_axis',(4.37095678910866E-16,-1.,-8.11960037842403E-21));
#765=DIRECTION('ref_axis',(0.999999999827461,4.37095678986282E-16,-1.85762540534604E-5));
#766=DIRECTION('',(-0.999999999827461,-4.37095678986282E-16,1.85762540534604E-5));
#767=DIRECTION('',(0.999999999827461,4.37095678986282E-16,-1.85762540534604E-5));
#768=DIRECTION('',(1.85762540532433E-5,0.,0.999999999827461));
#769=DIRECTION('center_axis',(1.85762540532433E-5,0.,0.999999999827461));
#770=DIRECTION('ref_axis',(-0.999999999827461,3.49676543189028E-15,1.85762540532433E-5));
#771=DIRECTION('center_axis',(1.85762540534604E-5,0.,0.999999999827461));
#772=DIRECTION('ref_axis',(-0.999999999827461,3.49676543189028E-15,1.85762540534604E-5));
#773=DIRECTION('center_axis',(1.85762540534604E-5,0.,0.999999999827461));
#774=DIRECTION('ref_axis',(-0.999999999827461,3.49676543189027E-15,1.85762540534604E-5));
#775=DIRECTION('',(1.85762540532433E-5,0.,0.999999999827461));
#776=DIRECTION('center_axis',(-0.999999999827461,-2.45866319429784E-16,
1.85762540532433E-5));
#777=DIRECTION('ref_axis',(2.45866319387362E-16,-1.,-4.5672752129169E-21));
#778=DIRECTION('',(-2.45866319387362E-16,1.,4.5672752129169E-21));
#779=DIRECTION('',(2.45866319387362E-16,-1.,-4.5672752129169E-21));
#780=DIRECTION('',(1.85762540532433E-5,0.,0.999999999827461));
#781=DIRECTION('center_axis',(1.85762540532433E-5,0.,0.999999999827461));
#782=DIRECTION('ref_axis',(8.74191357821734E-16,1.,-1.62392007568481E-20));
#783=DIRECTION('center_axis',(1.85762540534604E-5,0.,0.999999999827461));
#784=DIRECTION('ref_axis',(8.74191357821734E-16,1.,-1.62392007570379E-20));
#785=DIRECTION('center_axis',(1.85762540534604E-5,0.,0.999999999827461));
#786=DIRECTION('ref_axis',(8.74191357821734E-16,1.,-1.62392007570379E-20));
#787=DIRECTION('center_axis',(1.85762540534604E-5,0.,0.999999999827461));
#788=DIRECTION('ref_axis',(0.,1.,0.));
#789=DIRECTION('center_axis',(1.85762540534604E-5,0.,0.999999999827461));
#790=DIRECTION('ref_axis',(0.,1.,0.));
#791=CARTESIAN_POINT('',(0.,0.,0.));
#792=CARTESIAN_POINT('Origin',(0.866419370054779,2.43749999202142,-0.55334761874567));
#793=CARTESIAN_POINT('',(0.866422272594475,2.34374999202142,-0.397097618772629));
#794=CARTESIAN_POINT('Origin',(0.866422272594475,2.43749999202142,-0.397097618772629));
#795=CARTESIAN_POINT('',(0.866419370054779,2.34374999202142,-0.55334761874567));
#796=CARTESIAN_POINT('',(0.866419370054779,2.34374999202142,-0.55334761874567));
#797=CARTESIAN_POINT('Origin',(0.866419370054779,2.43749999202142,-0.55334761874567));
#798=CARTESIAN_POINT('Origin',(0.457419370128299,2.57100000000052,-0.553340021057762));
#799=CARTESIAN_POINT('',(0.457419370128299,2.57100000000052,-0.553340021057762));
#800=CARTESIAN_POINT('',(0.4574193701283,2.42900000000052,-0.553340021057762));
#801=CARTESIAN_POINT('',(0.457419370128299,2.57100000000052,-0.553340021057762));
#802=CARTESIAN_POINT('',(0.457422272667996,2.42900000000052,-0.397090021084721));
#803=CARTESIAN_POINT('',(0.4574193701283,2.42900000000052,-0.553340021057762));
#804=CARTESIAN_POINT('',(0.457422272667995,2.57100000000052,-0.397090021084721));
#805=CARTESIAN_POINT('',(0.457422272667995,2.57100000000052,-0.397090021084721));
#806=CARTESIAN_POINT('',(0.457419370128299,2.57100000000052,-0.553340021057762));
#807=CARTESIAN_POINT('Origin',(0.437419370131751,2.57100000000052,-0.553339649532681));
#808=CARTESIAN_POINT('',(0.437419370131751,2.59100000000052,-0.553339649532681));
#809=CARTESIAN_POINT('Origin',(0.437419370131751,2.57100000000052,-0.553339649532681));
#810=CARTESIAN_POINT('',(0.437422272671446,2.59100000000052,-0.39708964955964));
#811=CARTESIAN_POINT('Origin',(0.437422272671447,2.57100000000052,-0.39708964955964));
#812=CARTESIAN_POINT('',(0.437419370131751,2.59100000000052,-0.553339649532681));
#813=CARTESIAN_POINT('Origin',(0.295419370156251,2.59100000000052,-0.553337011704605));
#814=CARTESIAN_POINT('',(0.295419370156251,2.59100000000052,-0.553337011704605));
#815=CARTESIAN_POINT('',(0.295419370156251,2.59100000000052,-0.553337011704605));
#816=CARTESIAN_POINT('',(0.295422272695947,2.59100000000052,-0.397087011731565));
#817=CARTESIAN_POINT('',(0.295422272695947,2.59100000000052,-0.397087011731565));
#818=CARTESIAN_POINT('',(0.295419370156251,2.59100000000052,-0.553337011704605));
#819=CARTESIAN_POINT('Origin',(0.295419370156251,2.57100000000052,-0.553337011704605));
#820=CARTESIAN_POINT('',(0.275419370159702,2.57100000000052,-0.553336640179524));
#821=CARTESIAN_POINT('Origin',(0.295419370156251,2.57100000000052,-0.553337011704605));
#822=CARTESIAN_POINT('',(0.275422272699398,2.57100000000052,-0.397086640206484));
#823=CARTESIAN_POINT('Origin',(0.295422272695947,2.57100000000052,-0.397087011731565));
#824=CARTESIAN_POINT('',(0.275419370159702,2.57100000000052,-0.553336640179524));
#825=CARTESIAN_POINT('Origin',(0.275419370159701,2.42900000000052,-0.553336640179524));
#826=CARTESIAN_POINT('',(0.275419370159701,2.42900000000052,-0.553336640179524));
#827=CARTESIAN_POINT('',(0.275419370159701,2.42900000000052,-0.553336640179524));
#828=CARTESIAN_POINT('',(0.275422272699397,2.42900000000052,-0.397086640206484));
#829=CARTESIAN_POINT('',(0.275422272699397,2.42900000000052,-0.397086640206484));
#830=CARTESIAN_POINT('',(0.275419370159701,2.42900000000052,-0.553336640179524));
#831=CARTESIAN_POINT('Origin',(0.295419370156251,2.42900000000052,-0.553337011704605));
#832=CARTESIAN_POINT('',(0.295419370156251,2.40900000000052,-0.553337011704605));
#833=CARTESIAN_POINT('Origin',(0.295419370156251,2.42900000000052,-0.553337011704605));
#834=CARTESIAN_POINT('',(0.295422272695947,2.40900000000052,-0.397087011731565));
#835=CARTESIAN_POINT('Origin',(0.295422272695947,2.42900000000052,-0.397087011731565));
#836=CARTESIAN_POINT('',(0.295419370156251,2.40900000000052,-0.553337011704605));
#837=CARTESIAN_POINT('Origin',(0.43741937013175,2.40900000000052,-0.553339649532681));
#838=CARTESIAN_POINT('',(0.43741937013175,2.40900000000052,-0.553339649532681));
#839=CARTESIAN_POINT('',(0.43741937013175,2.40900000000052,-0.553339649532681));
#840=CARTESIAN_POINT('',(0.437422272671446,2.40900000000052,-0.39708964955964));
#841=CARTESIAN_POINT('',(0.437422272671446,2.40900000000052,-0.39708964955964));
#842=CARTESIAN_POINT('',(0.43741937013175,2.40900000000052,-0.553339649532681));
#843=CARTESIAN_POINT('Origin',(0.437419370131751,2.42900000000052,-0.553339649532681));
#844=CARTESIAN_POINT('Origin',(0.437419370131751,2.42900000000052,-0.553339649532681));
#845=CARTESIAN_POINT('Origin',(0.437422272671447,2.42900000000052,-0.39708964955964));
#846=CARTESIAN_POINT('Origin',(0.866419370054779,2.06249999202142,-0.55334761874567));
#847=CARTESIAN_POINT('',(0.866422272594475,1.96874999202143,-0.397097618772629));
#848=CARTESIAN_POINT('Origin',(0.866422272594475,2.06249999202142,-0.397097618772629));
#849=CARTESIAN_POINT('',(0.866419370054779,1.96874999202143,-0.55334761874567));
#850=CARTESIAN_POINT('',(0.866419370054779,1.96874999202143,-0.55334761874567));
#851=CARTESIAN_POINT('Origin',(0.866419370054779,2.06249999202142,-0.55334761874567));
#852=CARTESIAN_POINT('Origin',(0.457419370128299,2.07100000000052,-0.553340021057762));
#853=CARTESIAN_POINT('',(0.457419370128299,2.07100000000052,-0.553340021057762));
#854=CARTESIAN_POINT('',(0.457419370128298,1.92900000000052,-0.553340021057762));
#855=CARTESIAN_POINT('',(0.457419370128299,2.07100000000052,-0.553340021057762));
#856=CARTESIAN_POINT('',(0.457422272667994,1.92900000000052,-0.397090021084721));
#857=CARTESIAN_POINT('',(0.457419370128298,1.92900000000052,-0.553340021057762));
#858=CARTESIAN_POINT('',(0.457422272667995,2.07100000000052,-0.397090021084721));
#859=CARTESIAN_POINT('',(0.457422272667995,2.07100000000052,-0.397090021084721));
#860=CARTESIAN_POINT('',(0.457419370128299,2.07100000000052,-0.553340021057762));
#861=CARTESIAN_POINT('Origin',(0.43741937013175,2.07100000000052,-0.553339649532681));
#862=CARTESIAN_POINT('',(0.43741937013175,2.09100000000052,-0.553339649532681));
#863=CARTESIAN_POINT('Origin',(0.43741937013175,2.07100000000052,-0.553339649532681));
#864=CARTESIAN_POINT('',(0.437422272671446,2.09100000000052,-0.39708964955964));
#865=CARTESIAN_POINT('Origin',(0.437422272671446,2.07100000000052,-0.39708964955964));
#866=CARTESIAN_POINT('',(0.43741937013175,2.09100000000052,-0.553339649532681));
#867=CARTESIAN_POINT('Origin',(0.29541937015625,2.09100000000052,-0.553337011704605));
#868=CARTESIAN_POINT('',(0.29541937015625,2.09100000000052,-0.553337011704605));
#869=CARTESIAN_POINT('',(0.29541937015625,2.09100000000052,-0.553337011704605));
#870=CARTESIAN_POINT('',(0.295422272695946,2.09100000000052,-0.397087011731565));
#871=CARTESIAN_POINT('',(0.295422272695946,2.09100000000052,-0.397087011731565));
#872=CARTESIAN_POINT('',(0.29541937015625,2.09100000000052,-0.553337011704605));
#873=CARTESIAN_POINT('Origin',(0.29541937015625,2.07100000000052,-0.553337011704605));
#874=CARTESIAN_POINT('',(0.275419370159701,2.07100000000052,-0.553336640179524));
#875=CARTESIAN_POINT('Origin',(0.29541937015625,2.07100000000052,-0.553337011704605));
#876=CARTESIAN_POINT('',(0.275422272699396,2.07100000000052,-0.397086640206484));
#877=CARTESIAN_POINT('Origin',(0.295422272695946,2.07100000000052,-0.397087011731565));
#878=CARTESIAN_POINT('',(0.275419370159701,2.07100000000052,-0.553336640179524));
#879=CARTESIAN_POINT('Origin',(0.275419370159702,1.92900000000052,-0.553336640179524));
#880=CARTESIAN_POINT('',(0.275419370159702,1.92900000000052,-0.553336640179524));
#881=CARTESIAN_POINT('',(0.275419370159702,1.92900000000052,-0.553336640179524));
#882=CARTESIAN_POINT('',(0.275422272699397,1.92900000000052,-0.397086640206484));
#883=CARTESIAN_POINT('',(0.275422272699397,1.92900000000052,-0.397086640206484));
#884=CARTESIAN_POINT('',(0.275419370159702,1.92900000000052,-0.553336640179524));
#885=CARTESIAN_POINT('Origin',(0.29541937015625,1.92900000000052,-0.553337011704605));
#886=CARTESIAN_POINT('',(0.29541937015625,1.90900000000052,-0.553337011704605));
#887=CARTESIAN_POINT('Origin',(0.29541937015625,1.92900000000052,-0.553337011704605));
#888=CARTESIAN_POINT('',(0.295422272695946,1.90900000000052,-0.397087011731565));
#889=CARTESIAN_POINT('Origin',(0.295422272695946,1.92900000000052,-0.397087011731565));
#890=CARTESIAN_POINT('',(0.29541937015625,1.90900000000052,-0.553337011704605));
#891=CARTESIAN_POINT('Origin',(0.43741937013175,1.90900000000052,-0.553339649532681));
#892=CARTESIAN_POINT('',(0.43741937013175,1.90900000000052,-0.553339649532681));
#893=CARTESIAN_POINT('',(0.43741937013175,1.90900000000052,-0.553339649532681));
#894=CARTESIAN_POINT('',(0.437422272671446,1.90900000000052,-0.39708964955964));
#895=CARTESIAN_POINT('',(0.437422272671446,1.90900000000052,-0.39708964955964));
#896=CARTESIAN_POINT('',(0.43741937013175,1.90900000000052,-0.553339649532681));
#897=CARTESIAN_POINT('Origin',(0.437419370131749,1.92900000000052,-0.553339649532681));
#898=CARTESIAN_POINT('Origin',(0.437419370131749,1.92900000000052,-0.553339649532681));
#899=CARTESIAN_POINT('Origin',(0.437422272671445,1.92900000000052,-0.39708964955964));
#900=CARTESIAN_POINT('Origin',(1.06141937002684,2.74999999202142,-0.55335124111521));
#901=CARTESIAN_POINT('',(0.261419370164871,2.74999999202143,-0.553336380111968));
#902=CARTESIAN_POINT('',(1.06141937002684,2.74999999202142,-0.55335124111521));
#903=CARTESIAN_POINT('',(0.261419370164871,2.74999999202143,-0.553336380111968));
#904=CARTESIAN_POINT('',(0.261422272704567,2.74999999202143,-0.397086380138927));
#905=CARTESIAN_POINT('',(0.261419370164871,2.74999999202143,-0.553336380111968));
#906=CARTESIAN_POINT('',(1.06142227256654,2.74999999202142,-0.39710124114217));
#907=CARTESIAN_POINT('',(0.261422272704567,2.74999999202143,-0.397086380138927));
#908=CARTESIAN_POINT('',(1.06141937002684,2.74999999202142,-0.55335124111521));
#909=CARTESIAN_POINT('Origin',(1.06141937002684,2.64999999202142,-0.55335124111521));
#910=CARTESIAN_POINT('',(1.16141937000959,2.64999999202143,-0.553353098740616));
#911=CARTESIAN_POINT('Origin',(1.06141937002684,2.64999999202142,-0.55335124111521));
#912=CARTESIAN_POINT('',(1.16142227254928,2.64999999202143,-0.397103098767575));
#913=CARTESIAN_POINT('Origin',(1.06142227256654,2.64999999202142,-0.39710124114217));
#914=CARTESIAN_POINT('',(1.16141937000959,2.64999999202143,-0.553353098740616));
#915=CARTESIAN_POINT('Origin',(1.16141937000959,1.84999999202143,-0.553353098740616));
#916=CARTESIAN_POINT('',(1.16141937000959,1.84999999202143,-0.553353098740616));
#917=CARTESIAN_POINT('',(1.16141937000959,2.64999999202143,-0.553353098740616));
#918=CARTESIAN_POINT('',(1.16142227254928,1.84999999202143,-0.397103098767575));
#919=CARTESIAN_POINT('',(1.16142227254928,2.64999999202143,-0.397103098767575));
#920=CARTESIAN_POINT('',(1.16141937000959,1.84999999202143,-0.553353098740616));
#921=CARTESIAN_POINT('Origin',(1.06141937002684,1.84999999202143,-0.55335124111521));
#922=CARTESIAN_POINT('',(1.06141937002684,1.74999999202143,-0.55335124111521));
#923=CARTESIAN_POINT('Origin',(1.06141937002684,1.84999999202143,-0.55335124111521));
#924=CARTESIAN_POINT('',(1.06142227256654,1.74999999202143,-0.39710124114217));
#925=CARTESIAN_POINT('Origin',(1.06142227256654,1.84999999202143,-0.39710124114217));
#926=CARTESIAN_POINT('',(1.06141937002684,1.74999999202143,-0.55335124111521));
#927=CARTESIAN_POINT('Origin',(0.261419370164871,1.74999999202143,-0.553336380111968));
#928=CARTESIAN_POINT('',(0.261419370164871,1.74999999202143,-0.553336380111968));
#929=CARTESIAN_POINT('',(1.06141937002684,1.74999999202143,-0.55335124111521));
#930=CARTESIAN_POINT('',(0.261422272704567,1.74999999202143,-0.397086380138927));
#931=CARTESIAN_POINT('',(1.06142227256654,1.74999999202143,-0.39710124114217));
#932=CARTESIAN_POINT('',(0.261419370164871,1.74999999202143,-0.553336380111968));
#933=CARTESIAN_POINT('Origin',(0.261419370164871,1.84999999202142,-0.553336380111968));
#934=CARTESIAN_POINT('',(0.161419370182125,1.84999999202142,-0.553334522486562));
#935=CARTESIAN_POINT('Origin',(0.261419370164871,1.84999999202142,-0.553336380111968));
#936=CARTESIAN_POINT('',(0.161422272721821,1.84999999202142,-0.397084522513521));
#937=CARTESIAN_POINT('Origin',(0.261422272704567,1.84999999202142,-0.397086380138927));
#938=CARTESIAN_POINT('',(0.161419370182125,1.84999999202142,-0.553334522486562));
#939=CARTESIAN_POINT('Origin',(0.161419370182125,2.64999999202143,-0.553334522486562));
#940=CARTESIAN_POINT('',(0.161419370182125,2.64999999202143,-0.553334522486562));
#941=CARTESIAN_POINT('',(0.161419370182125,1.84999999202142,-0.553334522486562));
#942=CARTESIAN_POINT('',(0.161422272721821,2.64999999202143,-0.397084522513521));
#943=CARTESIAN_POINT('',(0.161422272721821,1.84999999202142,-0.397084522513521));
#944=CARTESIAN_POINT('',(0.161419370182125,2.64999999202143,-0.553334522486562));
#945=CARTESIAN_POINT('Origin',(0.261419370164871,2.64999999202143,-0.553336380111968));
#946=CARTESIAN_POINT('Origin',(0.261419370164871,2.64999999202143,-0.553336380111968));
#947=CARTESIAN_POINT('Origin',(0.261422272704567,2.64999999202143,-0.397086380138927));
#948=CARTESIAN_POINT('Origin',(0.661422272635552,2.24999999202143,-0.397093810640548));
#949=CARTESIAN_POINT('Origin',(0.661419370095856,2.24999999202143,-0.553343810613589));
#950=UNCERTAINTY_MEASURE_WITH_UNIT(LENGTH_MEASURE(0.000393700787401575),
#955,'DISTANCE_ACCURACY_VALUE',
'Maximum model space distance between geometric entities at asserted c
onnectivities');
#951=UNCERTAINTY_MEASURE_WITH_UNIT(LENGTH_MEASURE(0.000393700787401575),
#955,'DISTANCE_ACCURACY_VALUE',
'Maximum model space distance between geometric entities at asserted c
onnectivities');
#952=(
GEOMETRIC_REPRESENTATION_CONTEXT(3)
GLOBAL_UNCERTAINTY_ASSIGNED_CONTEXT((#950))
GLOBAL_UNIT_ASSIGNED_CONTEXT((#955,#959,#960))
REPRESENTATION_CONTEXT('','3D')
);
#953=(
GEOMETRIC_REPRESENTATION_CONTEXT(3)
GLOBAL_UNCERTAINTY_ASSIGNED_CONTEXT((#951))
GLOBAL_UNIT_ASSIGNED_CONTEXT((#955,#959,#960))
REPRESENTATION_CONTEXT('','3D')
);
#954=DIMENSIONAL_EXPONENTS(1.,0.,0.,0.,0.,0.,0.);
#955=(
CONVERSION_BASED_UNIT('inch',#958)
LENGTH_UNIT()
NAMED_UNIT(#954)
);
#956=(
LENGTH_UNIT()
NAMED_UNIT(*)
SI_UNIT(.MILLI.,.METRE.)
);
#957=(
LENGTH_UNIT()
NAMED_UNIT(*)
SI_UNIT($,.METRE.)
);
#958=LENGTH_MEASURE_WITH_UNIT(LENGTH_MEASURE(25.4),#956);
#959=(
NAMED_UNIT(*)
PLANE_ANGLE_UNIT()
SI_UNIT($,.RADIAN.)
);
#960=(
NAMED_UNIT(*)
SI_UNIT($,.STERADIAN.)
SOLID_ANGLE_UNIT()
);
#961=SHAPE_DEFINITION_REPRESENTATION(#962,#963);
#962=PRODUCT_DEFINITION_SHAPE('',$,#965);
#963=SHAPE_REPRESENTATION('',(#570),#952);
#964=PRODUCT_DEFINITION_CONTEXT('part definition',#969,'design');
#965=PRODUCT_DEFINITION('Load Cell Mount','Load Cell Mount v7',#966,#964);
#966=PRODUCT_DEFINITION_FORMATION('',$,#971);
#967=PRODUCT_RELATED_PRODUCT_CATEGORY('Load Cell Mount v7',
'Load Cell Mount v7',(#971));
#968=APPLICATION_PROTOCOL_DEFINITION('international standard',
'automotive_design',2009,#969);
#969=APPLICATION_CONTEXT(
'Core Data for Automotive Mechanical Design Process');
#970=PRODUCT_CONTEXT('part definition',#969,'mechanical');
#971=PRODUCT('Load Cell Mount','Load Cell Mount v7',$,(#970));
#972=PRESENTATION_STYLE_ASSIGNMENT((#974));
#973=PRESENTATION_STYLE_ASSIGNMENT((#975));
#974=SURFACE_STYLE_USAGE(.BOTH.,#976);
#975=SURFACE_STYLE_USAGE(.BOTH.,#977);
#976=SURFACE_SIDE_STYLE('',(#978));
#977=SURFACE_SIDE_STYLE('',(#979));
#978=SURFACE_STYLE_FILL_AREA(#980);
#979=SURFACE_STYLE_FILL_AREA(#981);
#980=FILL_AREA_STYLE('Steel - Satin',(#982));
#981=FILL_AREA_STYLE('Nylon 12 (with Formlabs Fuse 1 3D Printer)',(#983));
#982=FILL_AREA_STYLE_COLOUR('Steel - Satin',#984);
#983=FILL_AREA_STYLE_COLOUR(
'Nylon 12 (with Formlabs Fuse 1 3D Printer)',#985);
#984=COLOUR_RGB('Steel - Satin',0.627450980392157,0.627450980392157,0.627450980392157);
#985=COLOUR_RGB('Nylon 12 (with Formlabs Fuse 1 3D Printer)',0.247058823529412,
0.247058823529412,0.247058823529412);
ENDSEC;
END-ISO-10303-21;
