ISO-10303-21;
HEADER;
/* Generated by software containing ST-Developer
 * from STEP Tools, Inc. (www.steptools.com) 
 */

FILE_DESCRIPTION(
/* description */ (''),
/* implementation_level */ '2;1');

FILE_NAME(
/* name */ 'ServoPlate.step',
/* time_stamp */ '2026-07-10T21:37:36-04:00',
/* author */ (''),
/* organization */ (''),
/* preprocessor_version */ 'ST-DEVELOPER v20.1',
/* originating_system */ 'Autodesk Translation Framework v15.8.0.0',
/* authorisation */ '');

FILE_SCHEMA (('AUTOMOTIVE_DESIGN { 1 0 10303 214 3 1 1 }'));
ENDSEC;

DATA;
#10=MECHANICAL_DESIGN_GEOMETRIC_PRESENTATION_REPRESENTATION('',(#13),#1027);
#11=SHAPE_REPRESENTATION_RELATIONSHIP('SRR','None',#1037,#12);
#12=ADVANCED_BREP_SHAPE_REPRESENTATION('',(#14),#1026);
#13=STYLED_ITEM('',(#1047),#14);
#14=MANIFOLD_SOLID_BREP('ServoPlate',#568);
#15=FACE_BOUND('',#148,.T.);
#16=FACE_BOUND('',#149,.T.);
#17=FACE_BOUND('',#150,.T.);
#18=FACE_BOUND('',#151,.T.);
#19=FACE_BOUND('',#152,.T.);
#20=FACE_BOUND('',#153,.T.);
#21=FACE_BOUND('',#156,.T.);
#22=FACE_BOUND('',#157,.T.);
#23=FACE_BOUND('',#158,.T.);
#24=FACE_BOUND('',#159,.T.);
#25=FACE_BOUND('',#160,.T.);
#26=FACE_BOUND('',#161,.T.);
#27=PLANE('',#589);
#28=PLANE('',#602);
#29=PLANE('',#634);
#30=PLANE('',#637);
#31=PLANE('',#657);
#32=PLANE('',#664);
#33=LINE('',#872,#63);
#34=LINE('',#879,#64);
#35=LINE('',#883,#65);
#36=LINE('',#887,#66);
#37=LINE('',#891,#67);
#38=LINE('',#910,#68);
#39=LINE('',#914,#69);
#40=LINE('',#918,#70);
#41=LINE('',#922,#71);
#42=LINE('',#938,#72);
#43=LINE('',#947,#73);
#44=LINE('',#955,#74);
#45=LINE('',#963,#75);
#46=LINE('',#968,#76);
#47=LINE('',#971,#77);
#48=LINE('',#974,#78);
#49=LINE('',#975,#79);
#50=LINE('',#978,#80);
#51=LINE('',#982,#81);
#52=LINE('',#983,#82);
#53=LINE('',#994,#83);
#54=LINE('',#1001,#84);
#55=LINE('',#1008,#85);
#56=LINE('',#1009,#86);
#57=LINE('',#1011,#87);
#58=LINE('',#1014,#88);
#59=LINE('',#1016,#89);
#60=LINE('',#1018,#90);
#61=LINE('',#1020,#91);
#62=LINE('',#1022,#92);
#63=VECTOR('',#677,0.3775);
#64=VECTOR('',#684,0.393700787401575);
#65=VECTOR('',#687,0.393700787401575);
#66=VECTOR('',#690,0.393700787401575);
#67=VECTOR('',#693,0.393700787401575);
#68=VECTOR('',#714,0.393700787401575);
#69=VECTOR('',#717,0.393700787401575);
#70=VECTOR('',#720,0.393700787401575);
#71=VECTOR('',#723,0.393700787401575);
#72=VECTOR('',#740,0.393700787401575);
#73=VECTOR('',#753,0.393700787401575);
#74=VECTOR('',#764,0.393700787401575);
#75=VECTOR('',#775,0.393700787401575);
#76=VECTOR('',#782,0.393700787401575);
#77=VECTOR('',#785,0.393700787401575);
#78=VECTOR('',#788,0.393700787401575);
#79=VECTOR('',#789,0.393700787401575);
#80=VECTOR('',#792,0.393700787401575);
#81=VECTOR('',#797,0.393700787401575);
#82=VECTOR('',#798,0.393700787401575);
#83=VECTOR('',#815,0.393700787401575);
#84=VECTOR('',#826,0.393700787401575);
#85=VECTOR('',#839,0.393700787401575);
#86=VECTOR('',#840,0.393700787401575);
#87=VECTOR('',#843,0.393700787401575);
#88=VECTOR('',#848,0.0849999999999998);
#89=VECTOR('',#851,0.085);
#90=VECTOR('',#854,0.0849999999999998);
#91=VECTOR('',#857,0.085);
#92=VECTOR('',#860,0.085);
#93=CYLINDRICAL_SURFACE('',#586,0.3775);
#94=CYLINDRICAL_SURFACE('',#612,0.01);
#95=CYLINDRICAL_SURFACE('',#618,0.01);
#96=CYLINDRICAL_SURFACE('',#623,0.01);
#97=CYLINDRICAL_SURFACE('',#628,0.01);
#98=CYLINDRICAL_SURFACE('',#632,0.0999999999999998);
#99=CYLINDRICAL_SURFACE('',#635,0.0999999999999998);
#100=CYLINDRICAL_SURFACE('',#638,0.01);
#101=CYLINDRICAL_SURFACE('',#644,0.01);
#102=CYLINDRICAL_SURFACE('',#649,0.01);
#103=CYLINDRICAL_SURFACE('',#653,0.01);
#104=CYLINDRICAL_SURFACE('',#656,0.0999999999999999);
#105=CYLINDRICAL_SURFACE('',#658,0.1);
#106=CYLINDRICAL_SURFACE('',#659,0.0849999999999998);
#107=CYLINDRICAL_SURFACE('',#660,0.085);
#108=CYLINDRICAL_SURFACE('',#661,0.0849999999999998);
#109=CYLINDRICAL_SURFACE('',#662,0.085);
#110=CYLINDRICAL_SURFACE('',#663,0.085);
#111=FACE_OUTER_BOUND('',#145,.T.);
#112=FACE_OUTER_BOUND('',#146,.T.);
#113=FACE_OUTER_BOUND('',#147,.T.);
#114=FACE_OUTER_BOUND('',#154,.T.);
#115=FACE_OUTER_BOUND('',#155,.T.);
#116=FACE_OUTER_BOUND('',#162,.T.);
#117=FACE_OUTER_BOUND('',#163,.T.);
#118=FACE_OUTER_BOUND('',#164,.T.);
#119=FACE_OUTER_BOUND('',#165,.T.);
#120=FACE_OUTER_BOUND('',#166,.T.);
#121=FACE_OUTER_BOUND('',#167,.T.);
#122=FACE_OUTER_BOUND('',#168,.T.);
#123=FACE_OUTER_BOUND('',#169,.T.);
#124=FACE_OUTER_BOUND('',#170,.T.);
#125=FACE_OUTER_BOUND('',#171,.T.);
#126=FACE_OUTER_BOUND('',#172,.T.);
#127=FACE_OUTER_BOUND('',#173,.T.);
#128=FACE_OUTER_BOUND('',#174,.T.);
#129=FACE_OUTER_BOUND('',#175,.T.);
#130=FACE_OUTER_BOUND('',#176,.T.);
#131=FACE_OUTER_BOUND('',#177,.T.);
#132=FACE_OUTER_BOUND('',#178,.T.);
#133=FACE_OUTER_BOUND('',#179,.T.);
#134=FACE_OUTER_BOUND('',#180,.T.);
#135=FACE_OUTER_BOUND('',#181,.T.);
#136=FACE_OUTER_BOUND('',#182,.T.);
#137=FACE_OUTER_BOUND('',#183,.T.);
#138=FACE_OUTER_BOUND('',#184,.T.);
#139=FACE_OUTER_BOUND('',#185,.T.);
#140=FACE_OUTER_BOUND('',#186,.T.);
#141=FACE_OUTER_BOUND('',#187,.T.);
#142=FACE_OUTER_BOUND('',#188,.T.);
#143=FACE_OUTER_BOUND('',#189,.T.);
#144=FACE_OUTER_BOUND('',#190,.T.);
#145=EDGE_LOOP('',(#366,#367,#368,#369));
#146=EDGE_LOOP('',(#370,#371,#372,#373,#374));
#147=EDGE_LOOP('',(#375,#376,#377,#378,#379,#380,#381,#382));
#148=EDGE_LOOP('',(#383));
#149=EDGE_LOOP('',(#384));
#150=EDGE_LOOP('',(#385));
#151=EDGE_LOOP('',(#386));
#152=EDGE_LOOP('',(#387));
#153=EDGE_LOOP('',(#388));
#154=EDGE_LOOP('',(#389,#390,#391,#392,#393));
#155=EDGE_LOOP('',(#394,#395,#396,#397,#398,#399,#400,#401));
#156=EDGE_LOOP('',(#402));
#157=EDGE_LOOP('',(#403));
#158=EDGE_LOOP('',(#404));
#159=EDGE_LOOP('',(#405));
#160=EDGE_LOOP('',(#406));
#161=EDGE_LOOP('',(#407));
#162=EDGE_LOOP('',(#408,#409,#410,#411));
#163=EDGE_LOOP('',(#412,#413,#414,#415));
#164=EDGE_LOOP('',(#416,#417,#418,#419));
#165=EDGE_LOOP('',(#420,#421,#422,#423));
#166=EDGE_LOOP('',(#424,#425,#426,#427));
#167=EDGE_LOOP('',(#428,#429,#430,#431));
#168=EDGE_LOOP('',(#432,#433,#434,#435));
#169=EDGE_LOOP('',(#436,#437,#438,#439));
#170=EDGE_LOOP('',(#440,#441,#442,#443));
#171=EDGE_LOOP('',(#444,#445,#446,#447));
#172=EDGE_LOOP('',(#448,#449,#450,#451));
#173=EDGE_LOOP('',(#452,#453,#454,#455));
#174=EDGE_LOOP('',(#456,#457,#458,#459));
#175=EDGE_LOOP('',(#460,#461,#462,#463));
#176=EDGE_LOOP('',(#464,#465,#466,#467));
#177=EDGE_LOOP('',(#468,#469,#470,#471));
#178=EDGE_LOOP('',(#472,#473,#474,#475));
#179=EDGE_LOOP('',(#476,#477,#478,#479));
#180=EDGE_LOOP('',(#480,#481,#482,#483));
#181=EDGE_LOOP('',(#484,#485,#486,#487));
#182=EDGE_LOOP('',(#488,#489,#490,#491));
#183=EDGE_LOOP('',(#492,#493,#494,#495));
#184=EDGE_LOOP('',(#496,#497,#498,#499));
#185=EDGE_LOOP('',(#500,#501,#502,#503));
#186=EDGE_LOOP('',(#504,#505,#506,#507));
#187=EDGE_LOOP('',(#508,#509,#510,#511));
#188=EDGE_LOOP('',(#512,#513,#514,#515));
#189=EDGE_LOOP('',(#516,#517,#518,#519));
#190=EDGE_LOOP('',(#520,#521,#522,#523));
#191=CIRCLE('',#583,0.3875);
#192=CIRCLE('',#584,0.01);
#193=CIRCLE('',#585,0.3775);
#194=CIRCLE('',#587,0.3775);
#195=CIRCLE('',#588,0.3775);
#196=CIRCLE('',#590,0.09);
#197=CIRCLE('',#591,0.0899999999999999);
#198=CIRCLE('',#592,0.0899999999999998);
#199=CIRCLE('',#593,0.0899999999999998);
#200=CIRCLE('',#594,0.085);
#201=CIRCLE('',#595,0.085);
#202=CIRCLE('',#596,0.0849999999999998);
#203=CIRCLE('',#597,0.085);
#204=CIRCLE('',#598,0.0849999999999998);
#205=CIRCLE('',#600,0.3875);
#206=CIRCLE('',#601,0.01);
#207=CIRCLE('',#603,0.0899999999999998);
#208=CIRCLE('',#604,0.0899999999999998);
#209=CIRCLE('',#605,0.0899999999999999);
#210=CIRCLE('',#606,0.09);
#211=CIRCLE('',#607,0.085);
#212=CIRCLE('',#608,0.085);
#213=CIRCLE('',#609,0.0849999999999998);
#214=CIRCLE('',#610,0.085);
#215=CIRCLE('',#611,0.0849999999999998);
#216=CIRCLE('',#613,0.01);
#217=CIRCLE('',#614,0.01);
#218=CIRCLE('',#616,0.00999999999999977);
#219=CIRCLE('',#617,0.0999999999999998);
#220=CIRCLE('',#619,0.00999999999998963);
#221=CIRCLE('',#621,0.0100000000000001);
#222=CIRCLE('',#622,0.0999999999999998);
#223=CIRCLE('',#624,0.0100000000000005);
#224=CIRCLE('',#626,0.00999999999999995);
#225=CIRCLE('',#627,0.0999999999999999);
#226=CIRCLE('',#629,0.0100000000000001);
#227=CIRCLE('',#631,0.1);
#228=CIRCLE('',#633,0.0999999999999998);
#229=CIRCLE('',#636,0.0999999999999998);
#230=CIRCLE('',#639,0.00999999999999999);
#231=CIRCLE('',#640,0.00999999999999925);
#232=CIRCLE('',#642,0.00999999999999995);
#233=CIRCLE('',#643,0.1);
#234=CIRCLE('',#645,0.0100000000000001);
#235=CIRCLE('',#647,0.0100000000000001);
#236=CIRCLE('',#648,0.0999999999999999);
#237=CIRCLE('',#650,0.0100000000000001);
#238=CIRCLE('',#652,0.00999999999999977);
#239=CIRCLE('',#654,0.0100000000000001);
#240=VERTEX_POINT('',#865);
#241=VERTEX_POINT('',#867);
#242=VERTEX_POINT('',#871);
#243=VERTEX_POINT('',#873);
#244=VERTEX_POINT('',#877);
#245=VERTEX_POINT('',#878);
#246=VERTEX_POINT('',#880);
#247=VERTEX_POINT('',#882);
#248=VERTEX_POINT('',#884);
#249=VERTEX_POINT('',#886);
#250=VERTEX_POINT('',#888);
#251=VERTEX_POINT('',#890);
#252=VERTEX_POINT('',#893);
#253=VERTEX_POINT('',#895);
#254=VERTEX_POINT('',#897);
#255=VERTEX_POINT('',#899);
#256=VERTEX_POINT('',#901);
#257=VERTEX_POINT('',#904);
#258=VERTEX_POINT('',#908);
#259=VERTEX_POINT('',#909);
#260=VERTEX_POINT('',#911);
#261=VERTEX_POINT('',#913);
#262=VERTEX_POINT('',#915);
#263=VERTEX_POINT('',#917);
#264=VERTEX_POINT('',#919);
#265=VERTEX_POINT('',#921);
#266=VERTEX_POINT('',#924);
#267=VERTEX_POINT('',#926);
#268=VERTEX_POINT('',#928);
#269=VERTEX_POINT('',#930);
#270=VERTEX_POINT('',#932);
#271=VERTEX_POINT('',#935);
#272=VERTEX_POINT('',#937);
#273=VERTEX_POINT('',#941);
#274=VERTEX_POINT('',#945);
#275=VERTEX_POINT('',#949);
#276=VERTEX_POINT('',#953);
#277=VERTEX_POINT('',#957);
#278=VERTEX_POINT('',#961);
#279=VERTEX_POINT('',#967);
#280=VERTEX_POINT('',#969);
#281=VERTEX_POINT('',#973);
#282=VERTEX_POINT('',#977);
#283=VERTEX_POINT('',#981);
#284=VERTEX_POINT('',#988);
#285=VERTEX_POINT('',#992);
#286=VERTEX_POINT('',#996);
#287=EDGE_CURVE('',#240,#240,#191,.T.);
#288=EDGE_CURVE('',#240,#241,#192,.T.);
#289=EDGE_CURVE('',#241,#241,#193,.T.);
#290=EDGE_CURVE('',#241,#242,#33,.T.);
#291=EDGE_CURVE('',#243,#242,#194,.T.);
#292=EDGE_CURVE('',#242,#243,#195,.T.);
#293=EDGE_CURVE('',#244,#245,#34,.T.);
#294=EDGE_CURVE('',#246,#244,#196,.T.);
#295=EDGE_CURVE('',#247,#246,#35,.T.);
#296=EDGE_CURVE('',#248,#247,#197,.T.);
#297=EDGE_CURVE('',#249,#248,#36,.T.);
#298=EDGE_CURVE('',#250,#249,#198,.T.);
#299=EDGE_CURVE('',#251,#250,#37,.T.);
#300=EDGE_CURVE('',#245,#251,#199,.T.);
#301=EDGE_CURVE('',#252,#252,#200,.T.);
#302=EDGE_CURVE('',#253,#253,#201,.T.);
#303=EDGE_CURVE('',#254,#254,#202,.T.);
#304=EDGE_CURVE('',#255,#255,#203,.T.);
#305=EDGE_CURVE('',#256,#256,#204,.T.);
#306=EDGE_CURVE('',#257,#257,#205,.T.);
#307=EDGE_CURVE('',#257,#243,#206,.T.);
#308=EDGE_CURVE('',#258,#259,#38,.T.);
#309=EDGE_CURVE('',#260,#258,#207,.T.);
#310=EDGE_CURVE('',#261,#260,#39,.T.);
#311=EDGE_CURVE('',#262,#261,#208,.T.);
#312=EDGE_CURVE('',#263,#262,#40,.T.);
#313=EDGE_CURVE('',#264,#263,#209,.T.);
#314=EDGE_CURVE('',#265,#264,#41,.T.);
#315=EDGE_CURVE('',#259,#265,#210,.T.);
#316=EDGE_CURVE('',#266,#266,#211,.T.);
#317=EDGE_CURVE('',#267,#267,#212,.T.);
#318=EDGE_CURVE('',#268,#268,#213,.T.);
#319=EDGE_CURVE('',#269,#269,#214,.T.);
#320=EDGE_CURVE('',#270,#270,#215,.T.);
#321=EDGE_CURVE('',#259,#271,#216,.T.);
#322=EDGE_CURVE('',#271,#272,#42,.T.);
#323=EDGE_CURVE('',#272,#258,#217,.T.);
#324=EDGE_CURVE('',#273,#260,#218,.T.);
#325=EDGE_CURVE('',#272,#273,#219,.T.);
#326=EDGE_CURVE('',#274,#261,#220,.T.);
#327=EDGE_CURVE('',#273,#274,#43,.T.);
#328=EDGE_CURVE('',#275,#262,#221,.T.);
#329=EDGE_CURVE('',#274,#275,#222,.T.);
#330=EDGE_CURVE('',#276,#263,#223,.T.);
#331=EDGE_CURVE('',#275,#276,#44,.T.);
#332=EDGE_CURVE('',#277,#264,#224,.T.);
#333=EDGE_CURVE('',#276,#277,#225,.T.);
#334=EDGE_CURVE('',#278,#265,#226,.T.);
#335=EDGE_CURVE('',#277,#278,#45,.T.);
#336=EDGE_CURVE('',#278,#271,#227,.T.);
#337=EDGE_CURVE('',#274,#279,#46,.T.);
#338=EDGE_CURVE('',#280,#279,#228,.T.);
#339=EDGE_CURVE('',#275,#280,#47,.T.);
#340=EDGE_CURVE('',#273,#281,#48,.T.);
#341=EDGE_CURVE('',#279,#281,#49,.T.);
#342=EDGE_CURVE('',#272,#282,#50,.T.);
#343=EDGE_CURVE('',#281,#282,#229,.T.);
#344=EDGE_CURVE('',#271,#283,#51,.T.);
#345=EDGE_CURVE('',#282,#283,#52,.T.);
#346=EDGE_CURVE('',#245,#282,#230,.T.);
#347=EDGE_CURVE('',#283,#244,#231,.T.);
#348=EDGE_CURVE('',#284,#246,#232,.T.);
#349=EDGE_CURVE('',#283,#284,#233,.T.);
#350=EDGE_CURVE('',#285,#247,#234,.T.);
#351=EDGE_CURVE('',#284,#285,#53,.T.);
#352=EDGE_CURVE('',#286,#248,#235,.T.);
#353=EDGE_CURVE('',#285,#286,#236,.T.);
#354=EDGE_CURVE('',#280,#249,#237,.T.);
#355=EDGE_CURVE('',#286,#280,#54,.T.);
#356=EDGE_CURVE('',#279,#250,#238,.T.);
#357=EDGE_CURVE('',#281,#251,#239,.T.);
#358=EDGE_CURVE('',#276,#286,#55,.T.);
#359=EDGE_CURVE('',#277,#285,#56,.T.);
#360=EDGE_CURVE('',#278,#284,#57,.T.);
#361=EDGE_CURVE('',#256,#270,#58,.T.);
#362=EDGE_CURVE('',#255,#269,#59,.T.);
#363=EDGE_CURVE('',#254,#268,#60,.T.);
#364=EDGE_CURVE('',#253,#267,#61,.T.);
#365=EDGE_CURVE('',#252,#266,#62,.T.);
#366=ORIENTED_EDGE('',*,*,#287,.T.);
#367=ORIENTED_EDGE('',*,*,#288,.T.);
#368=ORIENTED_EDGE('',*,*,#289,.T.);
#369=ORIENTED_EDGE('',*,*,#288,.F.);
#370=ORIENTED_EDGE('',*,*,#289,.F.);
#371=ORIENTED_EDGE('',*,*,#290,.T.);
#372=ORIENTED_EDGE('',*,*,#291,.F.);
#373=ORIENTED_EDGE('',*,*,#292,.F.);
#374=ORIENTED_EDGE('',*,*,#290,.F.);
#375=ORIENTED_EDGE('',*,*,#293,.F.);
#376=ORIENTED_EDGE('',*,*,#294,.F.);
#377=ORIENTED_EDGE('',*,*,#295,.F.);
#378=ORIENTED_EDGE('',*,*,#296,.F.);
#379=ORIENTED_EDGE('',*,*,#297,.F.);
#380=ORIENTED_EDGE('',*,*,#298,.F.);
#381=ORIENTED_EDGE('',*,*,#299,.F.);
#382=ORIENTED_EDGE('',*,*,#300,.F.);
#383=ORIENTED_EDGE('',*,*,#301,.T.);
#384=ORIENTED_EDGE('',*,*,#302,.T.);
#385=ORIENTED_EDGE('',*,*,#303,.T.);
#386=ORIENTED_EDGE('',*,*,#304,.T.);
#387=ORIENTED_EDGE('',*,*,#305,.T.);
#388=ORIENTED_EDGE('',*,*,#287,.F.);
#389=ORIENTED_EDGE('',*,*,#306,.T.);
#390=ORIENTED_EDGE('',*,*,#307,.T.);
#391=ORIENTED_EDGE('',*,*,#291,.T.);
#392=ORIENTED_EDGE('',*,*,#292,.T.);
#393=ORIENTED_EDGE('',*,*,#307,.F.);
#394=ORIENTED_EDGE('',*,*,#308,.F.);
#395=ORIENTED_EDGE('',*,*,#309,.F.);
#396=ORIENTED_EDGE('',*,*,#310,.F.);
#397=ORIENTED_EDGE('',*,*,#311,.F.);
#398=ORIENTED_EDGE('',*,*,#312,.F.);
#399=ORIENTED_EDGE('',*,*,#313,.F.);
#400=ORIENTED_EDGE('',*,*,#314,.F.);
#401=ORIENTED_EDGE('',*,*,#315,.F.);
#402=ORIENTED_EDGE('',*,*,#316,.F.);
#403=ORIENTED_EDGE('',*,*,#317,.F.);
#404=ORIENTED_EDGE('',*,*,#318,.F.);
#405=ORIENTED_EDGE('',*,*,#319,.F.);
#406=ORIENTED_EDGE('',*,*,#320,.F.);
#407=ORIENTED_EDGE('',*,*,#306,.F.);
#408=ORIENTED_EDGE('',*,*,#321,.T.);
#409=ORIENTED_EDGE('',*,*,#322,.T.);
#410=ORIENTED_EDGE('',*,*,#323,.T.);
#411=ORIENTED_EDGE('',*,*,#308,.T.);
#412=ORIENTED_EDGE('',*,*,#324,.T.);
#413=ORIENTED_EDGE('',*,*,#309,.T.);
#414=ORIENTED_EDGE('',*,*,#323,.F.);
#415=ORIENTED_EDGE('',*,*,#325,.T.);
#416=ORIENTED_EDGE('',*,*,#326,.T.);
#417=ORIENTED_EDGE('',*,*,#310,.T.);
#418=ORIENTED_EDGE('',*,*,#324,.F.);
#419=ORIENTED_EDGE('',*,*,#327,.T.);
#420=ORIENTED_EDGE('',*,*,#328,.T.);
#421=ORIENTED_EDGE('',*,*,#311,.T.);
#422=ORIENTED_EDGE('',*,*,#326,.F.);
#423=ORIENTED_EDGE('',*,*,#329,.T.);
#424=ORIENTED_EDGE('',*,*,#330,.T.);
#425=ORIENTED_EDGE('',*,*,#312,.T.);
#426=ORIENTED_EDGE('',*,*,#328,.F.);
#427=ORIENTED_EDGE('',*,*,#331,.T.);
#428=ORIENTED_EDGE('',*,*,#332,.T.);
#429=ORIENTED_EDGE('',*,*,#313,.T.);
#430=ORIENTED_EDGE('',*,*,#330,.F.);
#431=ORIENTED_EDGE('',*,*,#333,.T.);
#432=ORIENTED_EDGE('',*,*,#334,.T.);
#433=ORIENTED_EDGE('',*,*,#314,.T.);
#434=ORIENTED_EDGE('',*,*,#332,.F.);
#435=ORIENTED_EDGE('',*,*,#335,.T.);
#436=ORIENTED_EDGE('',*,*,#334,.F.);
#437=ORIENTED_EDGE('',*,*,#336,.T.);
#438=ORIENTED_EDGE('',*,*,#321,.F.);
#439=ORIENTED_EDGE('',*,*,#315,.T.);
#440=ORIENTED_EDGE('',*,*,#329,.F.);
#441=ORIENTED_EDGE('',*,*,#337,.T.);
#442=ORIENTED_EDGE('',*,*,#338,.F.);
#443=ORIENTED_EDGE('',*,*,#339,.F.);
#444=ORIENTED_EDGE('',*,*,#327,.F.);
#445=ORIENTED_EDGE('',*,*,#340,.T.);
#446=ORIENTED_EDGE('',*,*,#341,.F.);
#447=ORIENTED_EDGE('',*,*,#337,.F.);
#448=ORIENTED_EDGE('',*,*,#325,.F.);
#449=ORIENTED_EDGE('',*,*,#342,.T.);
#450=ORIENTED_EDGE('',*,*,#343,.F.);
#451=ORIENTED_EDGE('',*,*,#340,.F.);
#452=ORIENTED_EDGE('',*,*,#322,.F.);
#453=ORIENTED_EDGE('',*,*,#344,.T.);
#454=ORIENTED_EDGE('',*,*,#345,.F.);
#455=ORIENTED_EDGE('',*,*,#342,.F.);
#456=ORIENTED_EDGE('',*,*,#346,.T.);
#457=ORIENTED_EDGE('',*,*,#345,.T.);
#458=ORIENTED_EDGE('',*,*,#347,.T.);
#459=ORIENTED_EDGE('',*,*,#293,.T.);
#460=ORIENTED_EDGE('',*,*,#348,.T.);
#461=ORIENTED_EDGE('',*,*,#294,.T.);
#462=ORIENTED_EDGE('',*,*,#347,.F.);
#463=ORIENTED_EDGE('',*,*,#349,.T.);
#464=ORIENTED_EDGE('',*,*,#350,.T.);
#465=ORIENTED_EDGE('',*,*,#295,.T.);
#466=ORIENTED_EDGE('',*,*,#348,.F.);
#467=ORIENTED_EDGE('',*,*,#351,.T.);
#468=ORIENTED_EDGE('',*,*,#352,.T.);
#469=ORIENTED_EDGE('',*,*,#296,.T.);
#470=ORIENTED_EDGE('',*,*,#350,.F.);
#471=ORIENTED_EDGE('',*,*,#353,.T.);
#472=ORIENTED_EDGE('',*,*,#354,.T.);
#473=ORIENTED_EDGE('',*,*,#297,.T.);
#474=ORIENTED_EDGE('',*,*,#352,.F.);
#475=ORIENTED_EDGE('',*,*,#355,.T.);
#476=ORIENTED_EDGE('',*,*,#356,.T.);
#477=ORIENTED_EDGE('',*,*,#298,.T.);
#478=ORIENTED_EDGE('',*,*,#354,.F.);
#479=ORIENTED_EDGE('',*,*,#338,.T.);
#480=ORIENTED_EDGE('',*,*,#357,.T.);
#481=ORIENTED_EDGE('',*,*,#299,.T.);
#482=ORIENTED_EDGE('',*,*,#356,.F.);
#483=ORIENTED_EDGE('',*,*,#341,.T.);
#484=ORIENTED_EDGE('',*,*,#346,.F.);
#485=ORIENTED_EDGE('',*,*,#300,.T.);
#486=ORIENTED_EDGE('',*,*,#357,.F.);
#487=ORIENTED_EDGE('',*,*,#343,.T.);
#488=ORIENTED_EDGE('',*,*,#333,.F.);
#489=ORIENTED_EDGE('',*,*,#358,.T.);
#490=ORIENTED_EDGE('',*,*,#353,.F.);
#491=ORIENTED_EDGE('',*,*,#359,.F.);
#492=ORIENTED_EDGE('',*,*,#335,.F.);
#493=ORIENTED_EDGE('',*,*,#359,.T.);
#494=ORIENTED_EDGE('',*,*,#351,.F.);
#495=ORIENTED_EDGE('',*,*,#360,.F.);
#496=ORIENTED_EDGE('',*,*,#336,.F.);
#497=ORIENTED_EDGE('',*,*,#360,.T.);
#498=ORIENTED_EDGE('',*,*,#349,.F.);
#499=ORIENTED_EDGE('',*,*,#344,.F.);
#500=ORIENTED_EDGE('',*,*,#305,.F.);
#501=ORIENTED_EDGE('',*,*,#361,.T.);
#502=ORIENTED_EDGE('',*,*,#320,.T.);
#503=ORIENTED_EDGE('',*,*,#361,.F.);
#504=ORIENTED_EDGE('',*,*,#304,.F.);
#505=ORIENTED_EDGE('',*,*,#362,.T.);
#506=ORIENTED_EDGE('',*,*,#319,.T.);
#507=ORIENTED_EDGE('',*,*,#362,.F.);
#508=ORIENTED_EDGE('',*,*,#303,.F.);
#509=ORIENTED_EDGE('',*,*,#363,.T.);
#510=ORIENTED_EDGE('',*,*,#318,.T.);
#511=ORIENTED_EDGE('',*,*,#363,.F.);
#512=ORIENTED_EDGE('',*,*,#302,.F.);
#513=ORIENTED_EDGE('',*,*,#364,.T.);
#514=ORIENTED_EDGE('',*,*,#317,.T.);
#515=ORIENTED_EDGE('',*,*,#364,.F.);
#516=ORIENTED_EDGE('',*,*,#301,.F.);
#517=ORIENTED_EDGE('',*,*,#365,.T.);
#518=ORIENTED_EDGE('',*,*,#316,.T.);
#519=ORIENTED_EDGE('',*,*,#365,.F.);
#520=ORIENTED_EDGE('',*,*,#331,.F.);
#521=ORIENTED_EDGE('',*,*,#339,.T.);
#522=ORIENTED_EDGE('',*,*,#355,.F.);
#523=ORIENTED_EDGE('',*,*,#358,.F.);
#524=TOROIDAL_SURFACE('',#582,0.3875,0.01);
#525=TOROIDAL_SURFACE('',#599,0.3875,0.01);
#526=TOROIDAL_SURFACE('',#615,0.0899999999999998,0.01);
#527=TOROIDAL_SURFACE('',#620,0.0899999999999998,0.01);
#528=TOROIDAL_SURFACE('',#625,0.0899999999999999,0.01);
#529=TOROIDAL_SURFACE('',#630,0.09,0.01);
#530=TOROIDAL_SURFACE('',#641,0.09,0.01);
#531=TOROIDAL_SURFACE('',#646,0.0899999999999999,0.01);
#532=TOROIDAL_SURFACE('',#651,0.0899999999999998,0.01);
#533=TOROIDAL_SURFACE('',#655,0.0899999999999998,0.01);
#534=ADVANCED_FACE('',(#111),#524,.T.);
#535=ADVANCED_FACE('',(#112),#93,.F.);
#536=ADVANCED_FACE('',(#113,#15,#16,#17,#18,#19,#20),#27,.T.);
#537=ADVANCED_FACE('',(#114),#525,.T.);
#538=ADVANCED_FACE('',(#115,#21,#22,#23,#24,#25,#26),#28,.F.);
#539=ADVANCED_FACE('',(#116),#94,.T.);
#540=ADVANCED_FACE('',(#117),#526,.T.);
#541=ADVANCED_FACE('',(#118),#95,.T.);
#542=ADVANCED_FACE('',(#119),#527,.T.);
#543=ADVANCED_FACE('',(#120),#96,.T.);
#544=ADVANCED_FACE('',(#121),#528,.T.);
#545=ADVANCED_FACE('',(#122),#97,.T.);
#546=ADVANCED_FACE('',(#123),#529,.T.);
#547=ADVANCED_FACE('',(#124),#98,.T.);
#548=ADVANCED_FACE('',(#125),#29,.T.);
#549=ADVANCED_FACE('',(#126),#99,.T.);
#550=ADVANCED_FACE('',(#127),#30,.T.);
#551=ADVANCED_FACE('',(#128),#100,.T.);
#552=ADVANCED_FACE('',(#129),#530,.T.);
#553=ADVANCED_FACE('',(#130),#101,.T.);
#554=ADVANCED_FACE('',(#131),#531,.T.);
#555=ADVANCED_FACE('',(#132),#102,.T.);
#556=ADVANCED_FACE('',(#133),#532,.T.);
#557=ADVANCED_FACE('',(#134),#103,.T.);
#558=ADVANCED_FACE('',(#135),#533,.T.);
#559=ADVANCED_FACE('',(#136),#104,.T.);
#560=ADVANCED_FACE('',(#137),#31,.T.);
#561=ADVANCED_FACE('',(#138),#105,.T.);
#562=ADVANCED_FACE('',(#139),#106,.F.);
#563=ADVANCED_FACE('',(#140),#107,.F.);
#564=ADVANCED_FACE('',(#141),#108,.F.);
#565=ADVANCED_FACE('',(#142),#109,.F.);
#566=ADVANCED_FACE('',(#143),#110,.F.);
#567=ADVANCED_FACE('',(#144),#32,.T.);
#568=CLOSED_SHELL('',(#534,#535,#536,#537,#538,#539,#540,#541,#542,#543,
#544,#545,#546,#547,#548,#549,#550,#551,#552,#553,#554,#555,#556,#557,#558,
#559,#560,#561,#562,#563,#564,#565,#566,#567));
#569=DERIVED_UNIT_ELEMENT(#571,1.);
#570=DERIVED_UNIT_ELEMENT(#1031,-3.);
#571=(
MASS_UNIT()
NAMED_UNIT(*)
SI_UNIT(.KILO.,.GRAM.)
);
#572=DERIVED_UNIT((#569,#570));
#573=MEASURE_REPRESENTATION_ITEM('density measure',
POSITIVE_RATIO_MEASURE(7850.),#572);
#574=PROPERTY_DEFINITION_REPRESENTATION(#579,#576);
#575=PROPERTY_DEFINITION_REPRESENTATION(#580,#577);
#576=REPRESENTATION('material name',(#578),#1026);
#577=REPRESENTATION('density',(#573),#1026);
#578=DESCRIPTIVE_REPRESENTATION_ITEM('Steel','Steel');
#579=PROPERTY_DEFINITION('material property','material name',#1039);
#580=PROPERTY_DEFINITION('material property','density of part',#1039);
#581=AXIS2_PLACEMENT_3D('',#863,#665,#666);
#582=AXIS2_PLACEMENT_3D('',#864,#667,#668);
#583=AXIS2_PLACEMENT_3D('',#866,#669,#670);
#584=AXIS2_PLACEMENT_3D('',#868,#671,#672);
#585=AXIS2_PLACEMENT_3D('',#869,#673,#674);
#586=AXIS2_PLACEMENT_3D('',#870,#675,#676);
#587=AXIS2_PLACEMENT_3D('',#874,#678,#679);
#588=AXIS2_PLACEMENT_3D('',#875,#680,#681);
#589=AXIS2_PLACEMENT_3D('',#876,#682,#683);
#590=AXIS2_PLACEMENT_3D('',#881,#685,#686);
#591=AXIS2_PLACEMENT_3D('',#885,#688,#689);
#592=AXIS2_PLACEMENT_3D('',#889,#691,#692);
#593=AXIS2_PLACEMENT_3D('',#892,#694,#695);
#594=AXIS2_PLACEMENT_3D('',#894,#696,#697);
#595=AXIS2_PLACEMENT_3D('',#896,#698,#699);
#596=AXIS2_PLACEMENT_3D('',#898,#700,#701);
#597=AXIS2_PLACEMENT_3D('',#900,#702,#703);
#598=AXIS2_PLACEMENT_3D('',#902,#704,#705);
#599=AXIS2_PLACEMENT_3D('',#903,#706,#707);
#600=AXIS2_PLACEMENT_3D('',#905,#708,#709);
#601=AXIS2_PLACEMENT_3D('',#906,#710,#711);
#602=AXIS2_PLACEMENT_3D('',#907,#712,#713);
#603=AXIS2_PLACEMENT_3D('',#912,#715,#716);
#604=AXIS2_PLACEMENT_3D('',#916,#718,#719);
#605=AXIS2_PLACEMENT_3D('',#920,#721,#722);
#606=AXIS2_PLACEMENT_3D('',#923,#724,#725);
#607=AXIS2_PLACEMENT_3D('',#925,#726,#727);
#608=AXIS2_PLACEMENT_3D('',#927,#728,#729);
#609=AXIS2_PLACEMENT_3D('',#929,#730,#731);
#610=AXIS2_PLACEMENT_3D('',#931,#732,#733);
#611=AXIS2_PLACEMENT_3D('',#933,#734,#735);
#612=AXIS2_PLACEMENT_3D('',#934,#736,#737);
#613=AXIS2_PLACEMENT_3D('',#936,#738,#739);
#614=AXIS2_PLACEMENT_3D('',#939,#741,#742);
#615=AXIS2_PLACEMENT_3D('',#940,#743,#744);
#616=AXIS2_PLACEMENT_3D('',#942,#745,#746);
#617=AXIS2_PLACEMENT_3D('',#943,#747,#748);
#618=AXIS2_PLACEMENT_3D('',#944,#749,#750);
#619=AXIS2_PLACEMENT_3D('',#946,#751,#752);
#620=AXIS2_PLACEMENT_3D('',#948,#754,#755);
#621=AXIS2_PLACEMENT_3D('',#950,#756,#757);
#622=AXIS2_PLACEMENT_3D('',#951,#758,#759);
#623=AXIS2_PLACEMENT_3D('',#952,#760,#761);
#624=AXIS2_PLACEMENT_3D('',#954,#762,#763);
#625=AXIS2_PLACEMENT_3D('',#956,#765,#766);
#626=AXIS2_PLACEMENT_3D('',#958,#767,#768);
#627=AXIS2_PLACEMENT_3D('',#959,#769,#770);
#628=AXIS2_PLACEMENT_3D('',#960,#771,#772);
#629=AXIS2_PLACEMENT_3D('',#962,#773,#774);
#630=AXIS2_PLACEMENT_3D('',#964,#776,#777);
#631=AXIS2_PLACEMENT_3D('',#965,#778,#779);
#632=AXIS2_PLACEMENT_3D('',#966,#780,#781);
#633=AXIS2_PLACEMENT_3D('',#970,#783,#784);
#634=AXIS2_PLACEMENT_3D('',#972,#786,#787);
#635=AXIS2_PLACEMENT_3D('',#976,#790,#791);
#636=AXIS2_PLACEMENT_3D('',#979,#793,#794);
#637=AXIS2_PLACEMENT_3D('',#980,#795,#796);
#638=AXIS2_PLACEMENT_3D('',#984,#799,#800);
#639=AXIS2_PLACEMENT_3D('',#985,#801,#802);
#640=AXIS2_PLACEMENT_3D('',#986,#803,#804);
#641=AXIS2_PLACEMENT_3D('',#987,#805,#806);
#642=AXIS2_PLACEMENT_3D('',#989,#807,#808);
#643=AXIS2_PLACEMENT_3D('',#990,#809,#810);
#644=AXIS2_PLACEMENT_3D('',#991,#811,#812);
#645=AXIS2_PLACEMENT_3D('',#993,#813,#814);
#646=AXIS2_PLACEMENT_3D('',#995,#816,#817);
#647=AXIS2_PLACEMENT_3D('',#997,#818,#819);
#648=AXIS2_PLACEMENT_3D('',#998,#820,#821);
#649=AXIS2_PLACEMENT_3D('',#999,#822,#823);
#650=AXIS2_PLACEMENT_3D('',#1000,#824,#825);
#651=AXIS2_PLACEMENT_3D('',#1002,#827,#828);
#652=AXIS2_PLACEMENT_3D('',#1003,#829,#830);
#653=AXIS2_PLACEMENT_3D('',#1004,#831,#832);
#654=AXIS2_PLACEMENT_3D('',#1005,#833,#834);
#655=AXIS2_PLACEMENT_3D('',#1006,#835,#836);
#656=AXIS2_PLACEMENT_3D('',#1007,#837,#838);
#657=AXIS2_PLACEMENT_3D('',#1010,#841,#842);
#658=AXIS2_PLACEMENT_3D('',#1012,#844,#845);
#659=AXIS2_PLACEMENT_3D('',#1013,#846,#847);
#660=AXIS2_PLACEMENT_3D('',#1015,#849,#850);
#661=AXIS2_PLACEMENT_3D('',#1017,#852,#853);
#662=AXIS2_PLACEMENT_3D('',#1019,#855,#856);
#663=AXIS2_PLACEMENT_3D('',#1021,#858,#859);
#664=AXIS2_PLACEMENT_3D('',#1023,#861,#862);
#665=DIRECTION('axis',(0.,0.,1.));
#666=DIRECTION('refdir',(1.,0.,0.));
#667=DIRECTION('center_axis',(0.,0.,-1.));
#668=DIRECTION('ref_axis',(-1.,0.,0.));
#669=DIRECTION('center_axis',(0.,0.,1.));
#670=DIRECTION('ref_axis',(-1.,0.,0.));
#671=DIRECTION('center_axis',(0.,-1.,0.));
#672=DIRECTION('ref_axis',(1.,0.,0.));
#673=DIRECTION('center_axis',(0.,0.,-1.));
#674=DIRECTION('ref_axis',(-1.,0.,0.));
#675=DIRECTION('center_axis',(0.,0.,-1.));
#676=DIRECTION('ref_axis',(-1.,0.,0.));
#677=DIRECTION('',(0.,0.,-1.));
#678=DIRECTION('center_axis',(0.,0.,1.));
#679=DIRECTION('ref_axis',(-1.,0.,0.));
#680=DIRECTION('center_axis',(0.,0.,1.));
#681=DIRECTION('ref_axis',(-1.,0.,0.));
#682=DIRECTION('center_axis',(0.,0.,1.));
#683=DIRECTION('ref_axis',(1.,0.,0.));
#684=DIRECTION('',(-1.,2.68981956299252E-16,0.));
#685=DIRECTION('center_axis',(0.,0.,-1.));
#686=DIRECTION('ref_axis',(0.707106781186548,-0.707106781186547,0.));
#687=DIRECTION('',(0.,-1.,0.));
#688=DIRECTION('center_axis',(0.,0.,-1.));
#689=DIRECTION('ref_axis',(0.70710678118655,0.707106781186545,0.));
#690=DIRECTION('',(1.,2.13555763332562E-16,0.));
#691=DIRECTION('center_axis',(0.,0.,-1.));
#692=DIRECTION('ref_axis',(-0.707106781186548,0.707106781186548,0.));
#693=DIRECTION('',(-6.9935308637805E-15,1.,0.));
#694=DIRECTION('center_axis',(0.,0.,-1.));
#695=DIRECTION('ref_axis',(-0.707106781186542,-0.707106781186553,0.));
#696=DIRECTION('center_axis',(0.,0.,-1.));
#697=DIRECTION('ref_axis',(1.,0.,0.));
#698=DIRECTION('center_axis',(0.,0.,-1.));
#699=DIRECTION('ref_axis',(1.,0.,0.));
#700=DIRECTION('center_axis',(0.,0.,-1.));
#701=DIRECTION('ref_axis',(1.,0.,0.));
#702=DIRECTION('center_axis',(0.,0.,-1.));
#703=DIRECTION('ref_axis',(1.,0.,0.));
#704=DIRECTION('center_axis',(0.,0.,-1.));
#705=DIRECTION('ref_axis',(1.,0.,0.));
#706=DIRECTION('center_axis',(0.,0.,1.));
#707=DIRECTION('ref_axis',(1.,0.,0.));
#708=DIRECTION('center_axis',(0.,0.,-1.));
#709=DIRECTION('ref_axis',(-1.,0.,0.));
#710=DIRECTION('center_axis',(0.,-1.,0.));
#711=DIRECTION('ref_axis',(-1.,0.,0.));
#712=DIRECTION('center_axis',(0.,0.,1.));
#713=DIRECTION('ref_axis',(1.,0.,0.));
#714=DIRECTION('',(1.,-2.68981956299252E-16,0.));
#715=DIRECTION('center_axis',(0.,0.,1.));
#716=DIRECTION('ref_axis',(-0.707106781186542,-0.707106781186553,0.));
#717=DIRECTION('',(6.9935308637805E-15,-1.,0.));
#718=DIRECTION('center_axis',(0.,0.,1.));
#719=DIRECTION('ref_axis',(-0.707106781186548,0.707106781186548,0.));
#720=DIRECTION('',(-1.,-2.13555763332562E-16,0.));
#721=DIRECTION('center_axis',(0.,0.,1.));
#722=DIRECTION('ref_axis',(0.70710678118655,0.707106781186545,0.));
#723=DIRECTION('',(0.,1.,0.));
#724=DIRECTION('center_axis',(0.,0.,1.));
#725=DIRECTION('ref_axis',(0.707106781186548,-0.707106781186547,0.));
#726=DIRECTION('center_axis',(0.,0.,-1.));
#727=DIRECTION('ref_axis',(1.,0.,0.));
#728=DIRECTION('center_axis',(0.,0.,-1.));
#729=DIRECTION('ref_axis',(1.,0.,0.));
#730=DIRECTION('center_axis',(0.,0.,-1.));
#731=DIRECTION('ref_axis',(1.,0.,0.));
#732=DIRECTION('center_axis',(0.,0.,-1.));
#733=DIRECTION('ref_axis',(1.,0.,0.));
#734=DIRECTION('center_axis',(0.,0.,-1.));
#735=DIRECTION('ref_axis',(1.,0.,0.));
#736=DIRECTION('center_axis',(-1.,2.68981956299252E-16,0.));
#737=DIRECTION('ref_axis',(0.,-0.707106781186552,-0.707106781186543));
#738=DIRECTION('center_axis',(-1.,-1.74838271594526E-14,0.));
#739=DIRECTION('ref_axis',(0.,0.,-1.));
#740=DIRECTION('',(-1.,2.68981956299252E-16,0.));
#741=DIRECTION('center_axis',(1.,0.,0.));
#742=DIRECTION('ref_axis',(0.,-1.,0.));
#743=DIRECTION('center_axis',(0.,0.,1.));
#744=DIRECTION('ref_axis',(1.,0.,0.));
#745=DIRECTION('center_axis',(8.74191357972584E-15,-1.,0.));
#746=DIRECTION('ref_axis',(-1.,-8.74191357972584E-15,0.));
#747=DIRECTION('center_axis',(0.,0.,-1.));
#748=DIRECTION('ref_axis',(-0.707106781186542,-0.707106781186553,0.));
#749=DIRECTION('center_axis',(6.9935308637805E-15,-1.,0.));
#750=DIRECTION('ref_axis',(-0.707106781186564,0.,-0.707106781186531));
#751=DIRECTION('center_axis',(0.,-1.,0.));
#752=DIRECTION('ref_axis',(-1.,0.,0.));
#753=DIRECTION('',(-6.9935308637805E-15,1.,0.));
#754=DIRECTION('center_axis',(0.,0.,1.));
#755=DIRECTION('ref_axis',(1.,0.,0.));
#756=DIRECTION('center_axis',(-1.,0.,0.));
#757=DIRECTION('ref_axis',(0.,1.,0.));
#758=DIRECTION('center_axis',(0.,0.,-1.));
#759=DIRECTION('ref_axis',(-0.707106781186548,0.707106781186548,0.));
#760=DIRECTION('center_axis',(1.,2.13555763332562E-16,0.));
#761=DIRECTION('ref_axis',(-1.93170824149082E-16,0.707106781186564,-0.707106781186531));
#762=DIRECTION('center_axis',(-1.,0.,0.));
#763=DIRECTION('ref_axis',(0.,1.,0.));
#764=DIRECTION('',(1.,2.13555763332562E-16,0.));
#765=DIRECTION('center_axis',(0.,0.,1.));
#766=DIRECTION('ref_axis',(1.,0.,0.));
#767=DIRECTION('center_axis',(0.,1.,0.));
#768=DIRECTION('ref_axis',(1.,0.,0.));
#769=DIRECTION('center_axis',(0.,0.,-1.));
#770=DIRECTION('ref_axis',(0.70710678118655,0.707106781186545,0.));
#771=DIRECTION('center_axis',(0.,-1.,0.));
#772=DIRECTION('ref_axis',(0.707106781186552,0.,-0.707106781186543));
#773=DIRECTION('center_axis',(0.,1.,0.));
#774=DIRECTION('ref_axis',(1.,0.,0.));
#775=DIRECTION('',(0.,-1.,0.));
#776=DIRECTION('center_axis',(0.,0.,1.));
#777=DIRECTION('ref_axis',(1.,0.,0.));
#778=DIRECTION('center_axis',(0.,0.,-1.));
#779=DIRECTION('ref_axis',(0.707106781186548,-0.707106781186547,0.));
#780=DIRECTION('center_axis',(0.,0.,1.));
#781=DIRECTION('ref_axis',(0.,1.,0.));
#782=DIRECTION('',(0.,0.,1.));
#783=DIRECTION('center_axis',(0.,0.,1.));
#784=DIRECTION('ref_axis',(-0.707106781186548,0.707106781186548,0.));
#785=DIRECTION('',(0.,0.,1.));
#786=DIRECTION('center_axis',(-1.,-6.9935308637805E-15,0.));
#787=DIRECTION('ref_axis',(6.9935308637805E-15,-1.,0.));
#788=DIRECTION('',(0.,0.,1.));
#789=DIRECTION('',(6.9935308637805E-15,-1.,0.));
#790=DIRECTION('center_axis',(0.,0.,1.));
#791=DIRECTION('ref_axis',(-1.,-7.86772222175309E-15,0.));
#792=DIRECTION('',(0.,0.,1.));
#793=DIRECTION('center_axis',(0.,0.,1.));
#794=DIRECTION('ref_axis',(-0.707106781186542,-0.707106781186553,0.));
#795=DIRECTION('center_axis',(-2.68981956299252E-16,-1.,0.));
#796=DIRECTION('ref_axis',(1.,-2.68981956299252E-16,0.));
#797=DIRECTION('',(0.,0.,1.));
#798=DIRECTION('',(1.,-2.68981956299252E-16,0.));
#799=DIRECTION('center_axis',(1.,-2.68981956299252E-16,0.));
#800=DIRECTION('ref_axis',(0.,-0.707106781186552,0.707106781186543));
#801=DIRECTION('center_axis',(1.,0.,0.));
#802=DIRECTION('ref_axis',(0.,0.,1.));
#803=DIRECTION('center_axis',(-1.,-1.74838271594526E-14,0.));
#804=DIRECTION('ref_axis',(1.74838271594526E-14,-1.,0.));
#805=DIRECTION('center_axis',(0.,0.,1.));
#806=DIRECTION('ref_axis',(1.,0.,0.));
#807=DIRECTION('center_axis',(8.74191357972569E-15,-1.,0.));
#808=DIRECTION('ref_axis',(1.,8.74191357972569E-15,0.));
#809=DIRECTION('center_axis',(0.,0.,1.));
#810=DIRECTION('ref_axis',(0.707106781186548,-0.707106781186547,0.));
#811=DIRECTION('center_axis',(0.,1.,0.));
#812=DIRECTION('ref_axis',(0.707106781186552,0.,0.707106781186543));
#813=DIRECTION('center_axis',(0.,-1.,0.));
#814=DIRECTION('ref_axis',(1.,0.,0.));
#815=DIRECTION('',(0.,1.,0.));
#816=DIRECTION('center_axis',(0.,0.,1.));
#817=DIRECTION('ref_axis',(1.,0.,0.));
#818=DIRECTION('center_axis',(1.,-8.74191357972554E-15,0.));
#819=DIRECTION('ref_axis',(8.74191357972554E-15,1.,0.));
#820=DIRECTION('center_axis',(0.,0.,1.));
#821=DIRECTION('ref_axis',(0.70710678118655,0.707106781186545,0.));
#822=DIRECTION('center_axis',(-1.,-2.13555763332562E-16,0.));
#823=DIRECTION('ref_axis',(-1.93170824149082E-16,0.707106781186565,0.70710678118653));
#824=DIRECTION('center_axis',(1.,0.,0.));
#825=DIRECTION('ref_axis',(0.,1.,0.));
#826=DIRECTION('',(-1.,-2.13555763332562E-16,0.));
#827=DIRECTION('center_axis',(0.,0.,1.));
#828=DIRECTION('ref_axis',(1.,0.,0.));
#829=DIRECTION('center_axis',(0.,1.,0.));
#830=DIRECTION('ref_axis',(-1.,0.,0.));
#831=DIRECTION('center_axis',(6.9935308637805E-15,-1.,0.));
#832=DIRECTION('ref_axis',(-0.707106781186565,0.,0.70710678118653));
#833=DIRECTION('center_axis',(0.,1.,0.));
#834=DIRECTION('ref_axis',(-1.,0.,0.));
#835=DIRECTION('center_axis',(0.,0.,1.));
#836=DIRECTION('ref_axis',(1.,0.,0.));
#837=DIRECTION('center_axis',(0.,0.,1.));
#838=DIRECTION('ref_axis',(1.,-3.49676543189026E-15,0.));
#839=DIRECTION('',(0.,0.,1.));
#840=DIRECTION('',(0.,0.,1.));
#841=DIRECTION('center_axis',(1.,0.,0.));
#842=DIRECTION('ref_axis',(0.,1.,0.));
#843=DIRECTION('',(0.,0.,1.));
#844=DIRECTION('center_axis',(0.,0.,1.));
#845=DIRECTION('ref_axis',(0.,-1.,0.));
#846=DIRECTION('center_axis',(0.,0.,1.));
#847=DIRECTION('ref_axis',(1.,0.,0.));
#848=DIRECTION('',(0.,0.,-1.));
#849=DIRECTION('center_axis',(0.,0.,1.));
#850=DIRECTION('ref_axis',(1.,0.,0.));
#851=DIRECTION('',(0.,0.,-1.));
#852=DIRECTION('center_axis',(0.,0.,1.));
#853=DIRECTION('ref_axis',(1.,0.,0.));
#854=DIRECTION('',(0.,0.,-1.));
#855=DIRECTION('center_axis',(0.,0.,1.));
#856=DIRECTION('ref_axis',(1.,0.,0.));
#857=DIRECTION('',(0.,0.,-1.));
#858=DIRECTION('center_axis',(0.,0.,1.));
#859=DIRECTION('ref_axis',(1.,0.,0.));
#860=DIRECTION('',(0.,0.,-1.));
#861=DIRECTION('center_axis',(-2.13555763332562E-16,1.,0.));
#862=DIRECTION('ref_axis',(-1.,-2.13555763332562E-16,0.));
#863=CARTESIAN_POINT('',(0.,0.,0.));
#864=CARTESIAN_POINT('Origin',(-1.1584147882616,1.47870332277209,0.1775));
#865=CARTESIAN_POINT('',(-0.770914788261602,1.47870332277209,0.1875));
#866=CARTESIAN_POINT('Origin',(-1.1584147882616,1.47870332277209,0.1875));
#867=CARTESIAN_POINT('',(-0.780914788261602,1.47870332277209,0.1775));
#868=CARTESIAN_POINT('Origin',(-0.770914788261602,1.47870332277209,0.1775));
#869=CARTESIAN_POINT('Origin',(-1.1584147882616,1.47870332277209,0.1775));
#870=CARTESIAN_POINT('Origin',(-1.1584147882616,1.47870332277209,0.1875));
#871=CARTESIAN_POINT('',(-0.780914788261602,1.47870332277209,0.00999999999999999));
#872=CARTESIAN_POINT('',(-0.780914788261602,1.47870332277209,0.1875));
#873=CARTESIAN_POINT('',(-1.5359147882616,1.47870332277209,0.00999999999999999));
#874=CARTESIAN_POINT('Origin',(-1.1584147882616,1.47870332277209,0.00999999999999999));
#875=CARTESIAN_POINT('Origin',(-1.1584147882616,1.47870332277209,0.00999999999999999));
#876=CARTESIAN_POINT('Origin',(-0.761013213458455,1.70787655111854,0.1875));
#877=CARTESIAN_POINT('',(0.776388361344694,0.592876551118544,0.1875));
#878=CARTESIAN_POINT('',(-2.2984147882616,0.592876551118544,0.1875));
#879=CARTESIAN_POINT('',(-1.52971400086003,0.592876551118544,0.1875));
#880=CARTESIAN_POINT('',(0.866388361344695,0.682876551118545,0.1875));
#881=CARTESIAN_POINT('Origin',(0.776388361344695,0.682876551118544,0.1875));
#882=CARTESIAN_POINT('',(0.866388361344694,2.73287655111854,0.1875));
#883=CARTESIAN_POINT('',(0.866388361344694,1.19537655111854,0.1875));
#884=CARTESIAN_POINT('',(0.776388361344695,2.82287655111854,0.1875));
#885=CARTESIAN_POINT('Origin',(0.776388361344695,2.73287655111854,0.1875));
#886=CARTESIAN_POINT('',(-2.2984147882616,2.82287655111854,0.1875));
#887=CARTESIAN_POINT('',(0.00768757394311982,2.82287655111854,0.1875));
#888=CARTESIAN_POINT('',(-2.3884147882616,2.73287655111854,0.1875));
#889=CARTESIAN_POINT('Origin',(-2.2984147882616,2.73287655111854,0.1875));
#890=CARTESIAN_POINT('',(-2.3884147882616,0.682876551118544,0.1875));
#891=CARTESIAN_POINT('',(-2.38841478826161,2.22037655111854,0.1875));
#892=CARTESIAN_POINT('Origin',(-2.2984147882616,0.682876551118544,0.1875));
#893=CARTESIAN_POINT('',(0.654085211738401,0.783663952693352,0.1875));
#894=CARTESIAN_POINT('Origin',(0.739085211738401,0.783663952693352,0.1875));
#895=CARTESIAN_POINT('',(0.654085211738396,2.66950194578715,0.1875));
#896=CARTESIAN_POINT('Origin',(0.739085211738396,2.66950194578715,0.1875));
#897=CARTESIAN_POINT('',(-1.84591478826161,0.783675174133609,0.1875));
#898=CARTESIAN_POINT('Origin',(-1.76091478826161,0.783675174133609,0.1875));
#899=CARTESIAN_POINT('',(0.654085211738398,1.6694907243469,0.1875));
#900=CARTESIAN_POINT('Origin',(0.739085211738398,1.6694907243469,0.1875));
#901=CARTESIAN_POINT('',(-2.3459147882616,2.66950194578715,0.1875));
#902=CARTESIAN_POINT('Origin',(-2.2609147882616,2.66950194578715,0.1875));
#903=CARTESIAN_POINT('Origin',(-1.1584147882616,1.47870332277209,0.00999999999999999));
#904=CARTESIAN_POINT('',(-1.5459147882616,1.47870332277209,0.));
#905=CARTESIAN_POINT('Origin',(-1.1584147882616,1.47870332277209,0.));
#906=CARTESIAN_POINT('Origin',(-1.5459147882616,1.47870332277209,0.00999999999999999));
#907=CARTESIAN_POINT('Origin',(-0.761013213458455,1.70787655111854,0.));
#908=CARTESIAN_POINT('',(-2.2984147882616,0.592876551118544,0.));
#909=CARTESIAN_POINT('',(0.776388361344694,0.592876551118544,0.));
#910=CARTESIAN_POINT('',(-1.52971400086003,0.592876551118544,0.));
#911=CARTESIAN_POINT('',(-2.3884147882616,0.682876551118544,0.));
#912=CARTESIAN_POINT('Origin',(-2.2984147882616,0.682876551118544,0.));
#913=CARTESIAN_POINT('',(-2.38841478826161,2.73287655111854,0.));
#914=CARTESIAN_POINT('',(-2.38841478826161,2.22037655111854,0.));
#915=CARTESIAN_POINT('',(-2.2984147882616,2.82287655111854,0.));
#916=CARTESIAN_POINT('Origin',(-2.2984147882616,2.73287655111854,0.));
#917=CARTESIAN_POINT('',(0.776388361344695,2.82287655111854,0.));
#918=CARTESIAN_POINT('',(0.00768757394311982,2.82287655111854,0.));
#919=CARTESIAN_POINT('',(0.866388361344695,2.73287655111854,0.));
#920=CARTESIAN_POINT('Origin',(0.776388361344695,2.73287655111854,0.));
#921=CARTESIAN_POINT('',(0.866388361344694,0.682876551118545,0.));
#922=CARTESIAN_POINT('',(0.866388361344694,1.19537655111854,0.));
#923=CARTESIAN_POINT('Origin',(0.776388361344695,0.682876551118544,0.));
#924=CARTESIAN_POINT('',(0.654085211738401,0.783663952693352,0.));
#925=CARTESIAN_POINT('Origin',(0.739085211738401,0.783663952693352,0.));
#926=CARTESIAN_POINT('',(0.654085211738396,2.66950194578715,0.));
#927=CARTESIAN_POINT('Origin',(0.739085211738396,2.66950194578715,0.));
#928=CARTESIAN_POINT('',(-1.84591478826161,0.783675174133609,0.));
#929=CARTESIAN_POINT('Origin',(-1.76091478826161,0.783675174133609,0.));
#930=CARTESIAN_POINT('',(0.654085211738398,1.6694907243469,0.));
#931=CARTESIAN_POINT('Origin',(0.739085211738398,1.6694907243469,0.));
#932=CARTESIAN_POINT('',(-2.3459147882616,2.66950194578715,0.));
#933=CARTESIAN_POINT('Origin',(-2.2609147882616,2.66950194578715,0.));
#934=CARTESIAN_POINT('Origin',(-1.52971400086003,0.592876551118544,0.01));
#935=CARTESIAN_POINT('',(0.776388361344695,0.582876551118544,0.01));
#936=CARTESIAN_POINT('Origin',(0.776388361344694,0.592876551118544,0.01));
#937=CARTESIAN_POINT('',(-2.2984147882616,0.582876551118544,0.01));
#938=CARTESIAN_POINT('',(-1.52971400086003,0.582876551118544,0.01));
#939=CARTESIAN_POINT('Origin',(-2.2984147882616,0.592876551118544,0.01));
#940=CARTESIAN_POINT('Origin',(-2.2984147882616,0.682876551118544,0.01));
#941=CARTESIAN_POINT('',(-2.3984147882616,0.682876551118544,0.01));
#942=CARTESIAN_POINT('Origin',(-2.3884147882616,0.682876551118544,0.01));
#943=CARTESIAN_POINT('Origin',(-2.2984147882616,0.682876551118544,0.01));
#944=CARTESIAN_POINT('Origin',(-2.38841478826161,2.22037655111854,0.01));
#945=CARTESIAN_POINT('',(-2.3984147882616,2.73287655111854,0.01));
#946=CARTESIAN_POINT('Origin',(-2.38841478826161,2.73287655111854,0.01));
#947=CARTESIAN_POINT('',(-2.39841478826161,2.22037655111854,0.01));
#948=CARTESIAN_POINT('Origin',(-2.2984147882616,2.73287655111854,0.01));
#949=CARTESIAN_POINT('',(-2.2984147882616,2.83287655111854,0.01));
#950=CARTESIAN_POINT('Origin',(-2.2984147882616,2.82287655111854,0.01));
#951=CARTESIAN_POINT('Origin',(-2.2984147882616,2.73287655111854,0.01));
#952=CARTESIAN_POINT('Origin',(0.00768757394311982,2.82287655111854,0.01));
#953=CARTESIAN_POINT('',(0.776388361344695,2.83287655111854,0.01));
#954=CARTESIAN_POINT('Origin',(0.776388361344695,2.82287655111854,0.01));
#955=CARTESIAN_POINT('',(0.00768757394311982,2.83287655111854,0.01));
#956=CARTESIAN_POINT('Origin',(0.776388361344695,2.73287655111854,0.01));
#957=CARTESIAN_POINT('',(0.876388361344695,2.73287655111854,0.01));
#958=CARTESIAN_POINT('Origin',(0.866388361344695,2.73287655111854,0.01));
#959=CARTESIAN_POINT('Origin',(0.776388361344695,2.73287655111854,0.01));
#960=CARTESIAN_POINT('Origin',(0.866388361344694,1.19537655111854,0.01));
#961=CARTESIAN_POINT('',(0.876388361344695,0.682876551118545,0.01));
#962=CARTESIAN_POINT('Origin',(0.866388361344694,0.682876551118545,0.01));
#963=CARTESIAN_POINT('',(0.876388361344695,1.19537655111854,0.01));
#964=CARTESIAN_POINT('Origin',(0.776388361344695,0.682876551118544,0.01));
#965=CARTESIAN_POINT('Origin',(0.776388361344695,0.682876551118544,0.01));
#966=CARTESIAN_POINT('Origin',(-2.2984147882616,2.73287655111854,0.));
#967=CARTESIAN_POINT('',(-2.3984147882616,2.73287655111854,0.1775));
#968=CARTESIAN_POINT('',(-2.3984147882616,2.73287655111854,0.));
#969=CARTESIAN_POINT('',(-2.2984147882616,2.83287655111854,0.1775));
#970=CARTESIAN_POINT('Origin',(-2.2984147882616,2.73287655111854,0.1775));
#971=CARTESIAN_POINT('',(-2.2984147882616,2.83287655111854,0.));
#972=CARTESIAN_POINT('Origin',(-2.39841478826161,2.73287655111854,0.));
#973=CARTESIAN_POINT('',(-2.3984147882616,0.682876551118544,0.1775));
#974=CARTESIAN_POINT('',(-2.3984147882616,0.682876551118544,0.));
#975=CARTESIAN_POINT('',(-2.39841478826161,2.22037655111854,0.1775));
#976=CARTESIAN_POINT('Origin',(-2.2984147882616,0.682876551118544,0.));
#977=CARTESIAN_POINT('',(-2.2984147882616,0.582876551118544,0.1775));
#978=CARTESIAN_POINT('',(-2.2984147882616,0.582876551118544,0.));
#979=CARTESIAN_POINT('Origin',(-2.2984147882616,0.682876551118544,0.1775));
#980=CARTESIAN_POINT('Origin',(-2.2984147882616,0.582876551118544,0.));
#981=CARTESIAN_POINT('',(0.776388361344695,0.582876551118544,0.1775));
#982=CARTESIAN_POINT('',(0.776388361344695,0.582876551118544,0.));
#983=CARTESIAN_POINT('',(-1.52971400086003,0.582876551118544,0.1775));
#984=CARTESIAN_POINT('Origin',(-1.52971400086003,0.592876551118544,0.1775));
#985=CARTESIAN_POINT('Origin',(-2.2984147882616,0.592876551118544,0.1775));
#986=CARTESIAN_POINT('Origin',(0.776388361344694,0.592876551118544,0.1775));
#987=CARTESIAN_POINT('Origin',(0.776388361344695,0.682876551118544,0.1775));
#988=CARTESIAN_POINT('',(0.876388361344695,0.682876551118545,0.1775));
#989=CARTESIAN_POINT('Origin',(0.866388361344695,0.682876551118545,0.1775));
#990=CARTESIAN_POINT('Origin',(0.776388361344695,0.682876551118544,0.1775));
#991=CARTESIAN_POINT('Origin',(0.866388361344694,1.19537655111854,0.1775));
#992=CARTESIAN_POINT('',(0.876388361344695,2.73287655111854,0.1775));
#993=CARTESIAN_POINT('Origin',(0.866388361344694,2.73287655111854,0.1775));
#994=CARTESIAN_POINT('',(0.876388361344695,1.19537655111854,0.1775));
#995=CARTESIAN_POINT('Origin',(0.776388361344695,2.73287655111854,0.1775));
#996=CARTESIAN_POINT('',(0.776388361344695,2.83287655111854,0.1775));
#997=CARTESIAN_POINT('Origin',(0.776388361344695,2.82287655111854,0.1775));
#998=CARTESIAN_POINT('Origin',(0.776388361344695,2.73287655111854,0.1775));
#999=CARTESIAN_POINT('Origin',(0.00768757394311982,2.82287655111854,0.1775));
#1000=CARTESIAN_POINT('Origin',(-2.2984147882616,2.82287655111854,0.1775));
#1001=CARTESIAN_POINT('',(0.00768757394311982,2.83287655111854,0.1775));
#1002=CARTESIAN_POINT('Origin',(-2.2984147882616,2.73287655111854,0.1775));
#1003=CARTESIAN_POINT('Origin',(-2.3884147882616,2.73287655111854,0.1775));
#1004=CARTESIAN_POINT('Origin',(-2.38841478826161,2.22037655111854,0.1775));
#1005=CARTESIAN_POINT('Origin',(-2.3884147882616,0.682876551118544,0.1775));
#1006=CARTESIAN_POINT('Origin',(-2.2984147882616,0.682876551118544,0.1775));
#1007=CARTESIAN_POINT('Origin',(0.776388361344695,2.73287655111854,0.));
#1008=CARTESIAN_POINT('',(0.776388361344695,2.83287655111854,0.));
#1009=CARTESIAN_POINT('',(0.876388361344695,2.73287655111854,0.));
#1010=CARTESIAN_POINT('Origin',(0.876388361344695,0.682876551118545,0.));
#1011=CARTESIAN_POINT('',(0.876388361344695,0.682876551118545,0.));
#1012=CARTESIAN_POINT('Origin',(0.776388361344695,0.682876551118544,0.));
#1013=CARTESIAN_POINT('Origin',(-2.2609147882616,2.66950194578715,0.));
#1014=CARTESIAN_POINT('',(-2.3459147882616,2.66950194578715,0.));
#1015=CARTESIAN_POINT('Origin',(0.739085211738398,1.6694907243469,0.));
#1016=CARTESIAN_POINT('',(0.654085211738398,1.6694907243469,0.));
#1017=CARTESIAN_POINT('Origin',(-1.76091478826161,0.783675174133609,0.));
#1018=CARTESIAN_POINT('',(-1.84591478826161,0.783675174133609,0.));
#1019=CARTESIAN_POINT('Origin',(0.739085211738396,2.66950194578715,0.));
#1020=CARTESIAN_POINT('',(0.654085211738396,2.66950194578715,0.));
#1021=CARTESIAN_POINT('Origin',(0.739085211738401,0.783663952693352,0.));
#1022=CARTESIAN_POINT('',(0.654085211738401,0.783663952693352,0.));
#1023=CARTESIAN_POINT('Origin',(0.776388361344695,2.83287655111854,0.));
#1024=UNCERTAINTY_MEASURE_WITH_UNIT(LENGTH_MEASURE(0.000393700787401575),
#1029,'DISTANCE_ACCURACY_VALUE',
'Maximum model space distance between geometric entities at asserted c
onnectivities');
#1025=UNCERTAINTY_MEASURE_WITH_UNIT(LENGTH_MEASURE(0.000393700787401575),
#1029,'DISTANCE_ACCURACY_VALUE',
'Maximum model space distance between geometric entities at asserted c
onnectivities');
#1026=(
GEOMETRIC_REPRESENTATION_CONTEXT(3)
GLOBAL_UNCERTAINTY_ASSIGNED_CONTEXT((#1024))
GLOBAL_UNIT_ASSIGNED_CONTEXT((#1029,#1033,#1034))
REPRESENTATION_CONTEXT('','3D')
);
#1027=(
GEOMETRIC_REPRESENTATION_CONTEXT(3)
GLOBAL_UNCERTAINTY_ASSIGNED_CONTEXT((#1025))
GLOBAL_UNIT_ASSIGNED_CONTEXT((#1029,#1033,#1034))
REPRESENTATION_CONTEXT('','3D')
);
#1028=DIMENSIONAL_EXPONENTS(1.,0.,0.,0.,0.,0.,0.);
#1029=(
CONVERSION_BASED_UNIT('inch',#1032)
LENGTH_UNIT()
NAMED_UNIT(#1028)
);
#1030=(
LENGTH_UNIT()
NAMED_UNIT(*)
SI_UNIT(.MILLI.,.METRE.)
);
#1031=(
LENGTH_UNIT()
NAMED_UNIT(*)
SI_UNIT($,.METRE.)
);
#1032=LENGTH_MEASURE_WITH_UNIT(LENGTH_MEASURE(25.4),#1030);
#1033=(
NAMED_UNIT(*)
PLANE_ANGLE_UNIT()
SI_UNIT($,.RADIAN.)
);
#1034=(
NAMED_UNIT(*)
SI_UNIT($,.STERADIAN.)
SOLID_ANGLE_UNIT()
);
#1035=SHAPE_DEFINITION_REPRESENTATION(#1036,#1037);
#1036=PRODUCT_DEFINITION_SHAPE('',$,#1039);
#1037=SHAPE_REPRESENTATION('',(#581),#1026);
#1038=PRODUCT_DEFINITION_CONTEXT('part definition',#1043,'design');
#1039=PRODUCT_DEFINITION('ServoPlate','ServoPlate v36',#1040,#1038);
#1040=PRODUCT_DEFINITION_FORMATION('',$,#1045);
#1041=PRODUCT_RELATED_PRODUCT_CATEGORY('ServoPlate v36',
'ServoPlate v36',(#1045));
#1042=APPLICATION_PROTOCOL_DEFINITION('international standard',
'automotive_design',2009,#1043);
#1043=APPLICATION_CONTEXT(
'Core Data for Automotive Mechanical Design Process');
#1044=PRODUCT_CONTEXT('part definition',#1043,'mechanical');
#1045=PRODUCT('ServoPlate','ServoPlate v36',$,(#1044));
#1046=PRESENTATION_STYLE_ASSIGNMENT((#1048));
#1047=PRESENTATION_STYLE_ASSIGNMENT((#1049));
#1048=SURFACE_STYLE_USAGE(.BOTH.,#1050);
#1049=SURFACE_STYLE_USAGE(.BOTH.,#1051);
#1050=SURFACE_SIDE_STYLE('',(#1052));
#1051=SURFACE_SIDE_STYLE('',(#1053));
#1052=SURFACE_STYLE_FILL_AREA(#1054);
#1053=SURFACE_STYLE_FILL_AREA(#1055);
#1054=FILL_AREA_STYLE('Steel - Satin',(#1056));
#1055=FILL_AREA_STYLE('Nylon 12 (with Formlabs Fuse 1 3D Printer)',(#1057));
#1056=FILL_AREA_STYLE_COLOUR('Steel - Satin',#1058);
#1057=FILL_AREA_STYLE_COLOUR(
'Nylon 12 (with Formlabs Fuse 1 3D Printer)',#1059);
#1058=COLOUR_RGB('Steel - Satin',0.627450980392157,0.627450980392157,0.627450980392157);
#1059=COLOUR_RGB('Nylon 12 (with Formlabs Fuse 1 3D Printer)',0.247058823529412,
0.247058823529412,0.247058823529412);
ENDSEC;
END-ISO-10303-21;
