ISO-10303-21;
HEADER;
/* Generated by software containing ST-Developer
 * from STEP Tools, Inc. (www.steptools.com) 
 */

FILE_DESCRIPTION(
/* description */ (''),
/* implementation_level */ '2;1');

FILE_NAME(
/* name */ 'Winch2.step',
/* time_stamp */ '2026-07-10T21:26:48-04:00',
/* author */ (''),
/* organization */ (''),
/* preprocessor_version */ 'ST-DEVELOPER v20.1',
/* originating_system */ 'Autodesk Translation Framework v15.8.0.0',
/* authorisation */ '');

FILE_SCHEMA (('AUTOMOTIVE_DESIGN { 1 0 10303 214 3 1 1 }'));
ENDSEC;

DATA;
#10=MECHANICAL_DESIGN_GEOMETRIC_PRESENTATION_REPRESENTATION('',(#13),#417);
#11=SHAPE_REPRESENTATION_RELATIONSHIP('SRR','None',#427,#12);
#12=ADVANCED_BREP_SHAPE_REPRESENTATION('',(#14),#416);
#13=STYLED_ITEM('',(#437),#14);
#14=MANIFOLD_SOLID_BREP('Winch2',#245);
#15=FACE_BOUND('',#59,.T.);
#16=FACE_BOUND('',#61,.T.);
#17=FACE_BOUND('',#62,.T.);
#18=FACE_BOUND('',#63,.T.);
#19=FACE_BOUND('',#65,.T.);
#20=FACE_BOUND('',#66,.T.);
#21=CIRCLE('',#267,0.085);
#22=CIRCLE('',#268,0.085);
#23=CIRCLE('',#270,0.085);
#24=CIRCLE('',#271,0.085);
#25=CIRCLE('',#273,1.4375);
#26=CIRCLE('',#274,1.4375);
#27=CIRCLE('',#276,0.375);
#28=CIRCLE('',#277,0.375);
#29=CYLINDRICAL_SURFACE('',#266,0.085);
#30=CYLINDRICAL_SURFACE('',#269,0.085);
#31=CYLINDRICAL_SURFACE('',#272,1.4375);
#32=CYLINDRICAL_SURFACE('',#275,0.375);
#33=FACE_OUTER_BOUND('',#47,.T.);
#34=FACE_OUTER_BOUND('',#48,.T.);
#35=FACE_OUTER_BOUND('',#49,.T.);
#36=FACE_OUTER_BOUND('',#50,.T.);
#37=FACE_OUTER_BOUND('',#51,.T.);
#38=FACE_OUTER_BOUND('',#52,.T.);
#39=FACE_OUTER_BOUND('',#53,.T.);
#40=FACE_OUTER_BOUND('',#54,.T.);
#41=FACE_OUTER_BOUND('',#55,.T.);
#42=FACE_OUTER_BOUND('',#56,.T.);
#43=FACE_OUTER_BOUND('',#57,.T.);
#44=FACE_OUTER_BOUND('',#58,.T.);
#45=FACE_OUTER_BOUND('',#60,.T.);
#46=FACE_OUTER_BOUND('',#64,.T.);
#47=EDGE_LOOP('',(#161,#162,#163,#164,#165,#166));
#48=EDGE_LOOP('',(#167,#168,#169,#170));
#49=EDGE_LOOP('',(#171,#172,#173,#174));
#50=EDGE_LOOP('',(#175,#176,#177,#178));
#51=EDGE_LOOP('',(#179,#180,#181,#182));
#52=EDGE_LOOP('',(#183,#184,#185,#186));
#53=EDGE_LOOP('',(#187,#188,#189,#190));
#54=EDGE_LOOP('',(#191,#192,#193,#194));
#55=EDGE_LOOP('',(#195,#196,#197,#198));
#56=EDGE_LOOP('',(#199,#200,#201,#202));
#57=EDGE_LOOP('',(#203,#204,#205,#206));
#58=EDGE_LOOP('',(#207));
#59=EDGE_LOOP('',(#208,#209,#210,#211,#212,#213));
#60=EDGE_LOOP('',(#214));
#61=EDGE_LOOP('',(#215));
#62=EDGE_LOOP('',(#216));
#63=EDGE_LOOP('',(#217));
#64=EDGE_LOOP('',(#218));
#65=EDGE_LOOP('',(#219));
#66=EDGE_LOOP('',(#220));
#67=LINE('',#353,#89);
#68=LINE('',#355,#90);
#69=LINE('',#357,#91);
#70=LINE('',#359,#92);
#71=LINE('',#361,#93);
#72=LINE('',#362,#94);
#73=LINE('',#366,#95);
#74=LINE('',#367,#96);
#75=LINE('',#368,#97);
#76=LINE('',#371,#98);
#77=LINE('',#372,#99);
#78=LINE('',#375,#100);
#79=LINE('',#376,#101);
#80=LINE('',#379,#102);
#81=LINE('',#380,#103);
#82=LINE('',#383,#104);
#83=LINE('',#384,#105);
#84=LINE('',#386,#106);
#85=LINE('',#391,#107);
#86=LINE('',#397,#108);
#87=LINE('',#403,#109);
#88=LINE('',#409,#110);
#89=VECTOR('',#285,0.393700787401575);
#90=VECTOR('',#286,0.393700787401575);
#91=VECTOR('',#287,0.393700787401575);
#92=VECTOR('',#288,0.393700787401575);
#93=VECTOR('',#289,0.393700787401575);
#94=VECTOR('',#290,0.393700787401575);
#95=VECTOR('',#293,0.393700787401575);
#96=VECTOR('',#294,0.393700787401575);
#97=VECTOR('',#295,0.393700787401575);
#98=VECTOR('',#298,0.393700787401575);
#99=VECTOR('',#299,0.393700787401575);
#100=VECTOR('',#302,0.393700787401575);
#101=VECTOR('',#303,0.393700787401575);
#102=VECTOR('',#306,0.393700787401575);
#103=VECTOR('',#307,0.393700787401575);
#104=VECTOR('',#310,0.393700787401575);
#105=VECTOR('',#311,0.393700787401575);
#106=VECTOR('',#314,0.393700787401575);
#107=VECTOR('',#319,0.085);
#108=VECTOR('',#326,0.085);
#109=VECTOR('',#333,1.4375);
#110=VECTOR('',#340,0.375);
#111=VERTEX_POINT('',#351);
#112=VERTEX_POINT('',#352);
#113=VERTEX_POINT('',#354);
#114=VERTEX_POINT('',#356);
#115=VERTEX_POINT('',#358);
#116=VERTEX_POINT('',#360);
#117=VERTEX_POINT('',#364);
#118=VERTEX_POINT('',#365);
#119=VERTEX_POINT('',#370);
#120=VERTEX_POINT('',#374);
#121=VERTEX_POINT('',#378);
#122=VERTEX_POINT('',#382);
#123=VERTEX_POINT('',#388);
#124=VERTEX_POINT('',#390);
#125=VERTEX_POINT('',#394);
#126=VERTEX_POINT('',#396);
#127=VERTEX_POINT('',#400);
#128=VERTEX_POINT('',#402);
#129=VERTEX_POINT('',#406);
#130=VERTEX_POINT('',#408);
#131=EDGE_CURVE('',#111,#112,#67,.T.);
#132=EDGE_CURVE('',#113,#111,#68,.T.);
#133=EDGE_CURVE('',#114,#113,#69,.T.);
#134=EDGE_CURVE('',#115,#114,#70,.T.);
#135=EDGE_CURVE('',#116,#115,#71,.T.);
#136=EDGE_CURVE('',#112,#116,#72,.T.);
#137=EDGE_CURVE('',#117,#118,#73,.T.);
#138=EDGE_CURVE('',#117,#113,#74,.T.);
#139=EDGE_CURVE('',#118,#111,#75,.T.);
#140=EDGE_CURVE('',#119,#117,#76,.T.);
#141=EDGE_CURVE('',#119,#114,#77,.T.);
#142=EDGE_CURVE('',#120,#119,#78,.T.);
#143=EDGE_CURVE('',#120,#115,#79,.T.);
#144=EDGE_CURVE('',#121,#120,#80,.T.);
#145=EDGE_CURVE('',#121,#116,#81,.T.);
#146=EDGE_CURVE('',#122,#121,#82,.T.);
#147=EDGE_CURVE('',#122,#112,#83,.T.);
#148=EDGE_CURVE('',#118,#122,#84,.T.);
#149=EDGE_CURVE('',#123,#123,#21,.T.);
#150=EDGE_CURVE('',#123,#124,#85,.T.);
#151=EDGE_CURVE('',#124,#124,#22,.T.);
#152=EDGE_CURVE('',#125,#125,#23,.T.);
#153=EDGE_CURVE('',#125,#126,#86,.T.);
#154=EDGE_CURVE('',#126,#126,#24,.T.);
#155=EDGE_CURVE('',#127,#127,#25,.T.);
#156=EDGE_CURVE('',#127,#128,#87,.T.);
#157=EDGE_CURVE('',#128,#128,#26,.T.);
#158=EDGE_CURVE('',#129,#129,#27,.T.);
#159=EDGE_CURVE('',#129,#130,#88,.T.);
#160=EDGE_CURVE('',#130,#130,#28,.T.);
#161=ORIENTED_EDGE('',*,*,#131,.F.);
#162=ORIENTED_EDGE('',*,*,#132,.F.);
#163=ORIENTED_EDGE('',*,*,#133,.F.);
#164=ORIENTED_EDGE('',*,*,#134,.F.);
#165=ORIENTED_EDGE('',*,*,#135,.F.);
#166=ORIENTED_EDGE('',*,*,#136,.F.);
#167=ORIENTED_EDGE('',*,*,#137,.F.);
#168=ORIENTED_EDGE('',*,*,#138,.T.);
#169=ORIENTED_EDGE('',*,*,#132,.T.);
#170=ORIENTED_EDGE('',*,*,#139,.F.);
#171=ORIENTED_EDGE('',*,*,#140,.F.);
#172=ORIENTED_EDGE('',*,*,#141,.T.);
#173=ORIENTED_EDGE('',*,*,#133,.T.);
#174=ORIENTED_EDGE('',*,*,#138,.F.);
#175=ORIENTED_EDGE('',*,*,#142,.F.);
#176=ORIENTED_EDGE('',*,*,#143,.T.);
#177=ORIENTED_EDGE('',*,*,#134,.T.);
#178=ORIENTED_EDGE('',*,*,#141,.F.);
#179=ORIENTED_EDGE('',*,*,#144,.F.);
#180=ORIENTED_EDGE('',*,*,#145,.T.);
#181=ORIENTED_EDGE('',*,*,#135,.T.);
#182=ORIENTED_EDGE('',*,*,#143,.F.);
#183=ORIENTED_EDGE('',*,*,#146,.F.);
#184=ORIENTED_EDGE('',*,*,#147,.T.);
#185=ORIENTED_EDGE('',*,*,#136,.T.);
#186=ORIENTED_EDGE('',*,*,#145,.F.);
#187=ORIENTED_EDGE('',*,*,#148,.F.);
#188=ORIENTED_EDGE('',*,*,#139,.T.);
#189=ORIENTED_EDGE('',*,*,#131,.T.);
#190=ORIENTED_EDGE('',*,*,#147,.F.);
#191=ORIENTED_EDGE('',*,*,#149,.F.);
#192=ORIENTED_EDGE('',*,*,#150,.T.);
#193=ORIENTED_EDGE('',*,*,#151,.T.);
#194=ORIENTED_EDGE('',*,*,#150,.F.);
#195=ORIENTED_EDGE('',*,*,#152,.F.);
#196=ORIENTED_EDGE('',*,*,#153,.T.);
#197=ORIENTED_EDGE('',*,*,#154,.T.);
#198=ORIENTED_EDGE('',*,*,#153,.F.);
#199=ORIENTED_EDGE('',*,*,#155,.F.);
#200=ORIENTED_EDGE('',*,*,#156,.T.);
#201=ORIENTED_EDGE('',*,*,#157,.T.);
#202=ORIENTED_EDGE('',*,*,#156,.F.);
#203=ORIENTED_EDGE('',*,*,#158,.F.);
#204=ORIENTED_EDGE('',*,*,#159,.T.);
#205=ORIENTED_EDGE('',*,*,#160,.F.);
#206=ORIENTED_EDGE('',*,*,#159,.F.);
#207=ORIENTED_EDGE('',*,*,#158,.T.);
#208=ORIENTED_EDGE('',*,*,#137,.T.);
#209=ORIENTED_EDGE('',*,*,#148,.T.);
#210=ORIENTED_EDGE('',*,*,#146,.T.);
#211=ORIENTED_EDGE('',*,*,#144,.T.);
#212=ORIENTED_EDGE('',*,*,#142,.T.);
#213=ORIENTED_EDGE('',*,*,#140,.T.);
#214=ORIENTED_EDGE('',*,*,#155,.T.);
#215=ORIENTED_EDGE('',*,*,#149,.T.);
#216=ORIENTED_EDGE('',*,*,#152,.T.);
#217=ORIENTED_EDGE('',*,*,#160,.T.);
#218=ORIENTED_EDGE('',*,*,#157,.F.);
#219=ORIENTED_EDGE('',*,*,#151,.F.);
#220=ORIENTED_EDGE('',*,*,#154,.F.);
#221=PLANE('',#259);
#222=PLANE('',#260);
#223=PLANE('',#261);
#224=PLANE('',#262);
#225=PLANE('',#263);
#226=PLANE('',#264);
#227=PLANE('',#265);
#228=PLANE('',#278);
#229=PLANE('',#279);
#230=PLANE('',#280);
#231=ADVANCED_FACE('',(#33),#221,.F.);
#232=ADVANCED_FACE('',(#34),#222,.F.);
#233=ADVANCED_FACE('',(#35),#223,.F.);
#234=ADVANCED_FACE('',(#36),#224,.F.);
#235=ADVANCED_FACE('',(#37),#225,.F.);
#236=ADVANCED_FACE('',(#38),#226,.F.);
#237=ADVANCED_FACE('',(#39),#227,.F.);
#238=ADVANCED_FACE('',(#40),#29,.F.);
#239=ADVANCED_FACE('',(#41),#30,.F.);
#240=ADVANCED_FACE('',(#42),#31,.T.);
#241=ADVANCED_FACE('',(#43),#32,.T.);
#242=ADVANCED_FACE('',(#44,#15),#228,.T.);
#243=ADVANCED_FACE('',(#45,#16,#17,#18),#229,.T.);
#244=ADVANCED_FACE('',(#46,#19,#20),#230,.F.);
#245=CLOSED_SHELL('',(#231,#232,#233,#234,#235,#236,#237,#238,#239,#240,
#241,#242,#243,#244));
#246=DERIVED_UNIT_ELEMENT(#248,1.);
#247=DERIVED_UNIT_ELEMENT(#421,-3.);
#248=(
MASS_UNIT()
NAMED_UNIT(*)
SI_UNIT(.KILO.,.GRAM.)
);
#249=DERIVED_UNIT((#246,#247));
#250=MEASURE_REPRESENTATION_ITEM('density measure',
POSITIVE_RATIO_MEASURE(7850.),#249);
#251=PROPERTY_DEFINITION_REPRESENTATION(#256,#253);
#252=PROPERTY_DEFINITION_REPRESENTATION(#257,#254);
#253=REPRESENTATION('material name',(#255),#416);
#254=REPRESENTATION('density',(#250),#416);
#255=DESCRIPTIVE_REPRESENTATION_ITEM('Steel','Steel');
#256=PROPERTY_DEFINITION('material property','material name',#429);
#257=PROPERTY_DEFINITION('material property','density of part',#429);
#258=AXIS2_PLACEMENT_3D('',#349,#281,#282);
#259=AXIS2_PLACEMENT_3D('',#350,#283,#284);
#260=AXIS2_PLACEMENT_3D('',#363,#291,#292);
#261=AXIS2_PLACEMENT_3D('',#369,#296,#297);
#262=AXIS2_PLACEMENT_3D('',#373,#300,#301);
#263=AXIS2_PLACEMENT_3D('',#377,#304,#305);
#264=AXIS2_PLACEMENT_3D('',#381,#308,#309);
#265=AXIS2_PLACEMENT_3D('',#385,#312,#313);
#266=AXIS2_PLACEMENT_3D('',#387,#315,#316);
#267=AXIS2_PLACEMENT_3D('',#389,#317,#318);
#268=AXIS2_PLACEMENT_3D('',#392,#320,#321);
#269=AXIS2_PLACEMENT_3D('',#393,#322,#323);
#270=AXIS2_PLACEMENT_3D('',#395,#324,#325);
#271=AXIS2_PLACEMENT_3D('',#398,#327,#328);
#272=AXIS2_PLACEMENT_3D('',#399,#329,#330);
#273=AXIS2_PLACEMENT_3D('',#401,#331,#332);
#274=AXIS2_PLACEMENT_3D('',#404,#334,#335);
#275=AXIS2_PLACEMENT_3D('',#405,#336,#337);
#276=AXIS2_PLACEMENT_3D('',#407,#338,#339);
#277=AXIS2_PLACEMENT_3D('',#410,#341,#342);
#278=AXIS2_PLACEMENT_3D('',#411,#343,#344);
#279=AXIS2_PLACEMENT_3D('',#412,#345,#346);
#280=AXIS2_PLACEMENT_3D('',#413,#347,#348);
#281=DIRECTION('axis',(0.,0.,1.));
#282=DIRECTION('refdir',(1.,0.,0.));
#283=DIRECTION('center_axis',(0.,0.,-1.));
#284=DIRECTION('ref_axis',(-1.,0.,0.));
#285=DIRECTION('',(0.437546612375593,-0.899195730638576,0.));
#286=DIRECTION('',(0.997499651895313,-0.0706713836622017,0.));
#287=DIRECTION('',(0.55995303951972,0.828524346976374,0.));
#288=DIRECTION('',(-0.437546612375593,0.899195730638576,0.));
#289=DIRECTION('',(-0.997499651895313,0.0706713836622023,0.));
#290=DIRECTION('',(-0.55995303951972,-0.828524346976374,0.));
#291=DIRECTION('center_axis',(0.0706713836622017,0.997499651895313,0.));
#292=DIRECTION('ref_axis',(0.997499651895313,-0.0706713836622017,0.));
#293=DIRECTION('',(0.997499651895313,-0.0706713836622017,0.));
#294=DIRECTION('',(0.,0.,-1.));
#295=DIRECTION('',(0.,0.,-1.));
#296=DIRECTION('center_axis',(-0.828524346976374,0.55995303951972,0.));
#297=DIRECTION('ref_axis',(0.55995303951972,0.828524346976374,0.));
#298=DIRECTION('',(0.55995303951972,0.828524346976374,0.));
#299=DIRECTION('',(0.,0.,-1.));
#300=DIRECTION('center_axis',(-0.899195730638576,-0.437546612375593,0.));
#301=DIRECTION('ref_axis',(-0.437546612375593,0.899195730638576,0.));
#302=DIRECTION('',(-0.437546612375593,0.899195730638576,0.));
#303=DIRECTION('',(0.,0.,-1.));
#304=DIRECTION('center_axis',(-0.0706713836622023,-0.997499651895313,0.));
#305=DIRECTION('ref_axis',(-0.997499651895313,0.0706713836622023,0.));
#306=DIRECTION('',(-0.997499651895313,0.0706713836622023,0.));
#307=DIRECTION('',(0.,0.,-1.));
#308=DIRECTION('center_axis',(0.828524346976374,-0.55995303951972,0.));
#309=DIRECTION('ref_axis',(-0.55995303951972,-0.828524346976374,0.));
#310=DIRECTION('',(-0.55995303951972,-0.828524346976374,0.));
#311=DIRECTION('',(0.,0.,-1.));
#312=DIRECTION('center_axis',(0.899195730638576,0.437546612375593,0.));
#313=DIRECTION('ref_axis',(0.437546612375593,-0.899195730638576,0.));
#314=DIRECTION('',(0.437546612375593,-0.899195730638576,0.));
#315=DIRECTION('center_axis',(0.,0.,1.));
#316=DIRECTION('ref_axis',(1.,0.,0.));
#317=DIRECTION('center_axis',(0.,0.,-1.));
#318=DIRECTION('ref_axis',(1.,0.,0.));
#319=DIRECTION('',(0.,0.,-1.));
#320=DIRECTION('center_axis',(0.,0.,-1.));
#321=DIRECTION('ref_axis',(1.,0.,0.));
#322=DIRECTION('center_axis',(0.,0.,1.));
#323=DIRECTION('ref_axis',(1.,0.,0.));
#324=DIRECTION('center_axis',(0.,0.,-1.));
#325=DIRECTION('ref_axis',(1.,0.,0.));
#326=DIRECTION('',(0.,0.,-1.));
#327=DIRECTION('center_axis',(0.,0.,-1.));
#328=DIRECTION('ref_axis',(1.,0.,0.));
#329=DIRECTION('center_axis',(0.,0.,1.));
#330=DIRECTION('ref_axis',(1.,0.,0.));
#331=DIRECTION('center_axis',(0.,0.,1.));
#332=DIRECTION('ref_axis',(1.,0.,0.));
#333=DIRECTION('',(0.,0.,-1.));
#334=DIRECTION('center_axis',(0.,0.,1.));
#335=DIRECTION('ref_axis',(1.,0.,0.));
#336=DIRECTION('center_axis',(0.,0.,1.));
#337=DIRECTION('ref_axis',(-1.,0.,0.));
#338=DIRECTION('center_axis',(0.,0.,1.));
#339=DIRECTION('ref_axis',(-1.,0.,0.));
#340=DIRECTION('',(0.,0.,-1.));
#341=DIRECTION('center_axis',(0.,0.,-1.));
#342=DIRECTION('ref_axis',(-1.,0.,0.));
#343=DIRECTION('center_axis',(0.,0.,1.));
#344=DIRECTION('ref_axis',(-1.,0.,0.));
#345=DIRECTION('center_axis',(0.,0.,1.));
#346=DIRECTION('ref_axis',(1.,0.,0.));
#347=DIRECTION('center_axis',(0.,0.,1.));
#348=DIRECTION('ref_axis',(1.,0.,0.));
#349=CARTESIAN_POINT('',(0.,0.,0.));
#350=CARTESIAN_POINT('Origin',(0.,-1.09273919746571E-17,0.276574803149606));
#351=CARTESIAN_POINT('',(0.0509557265962945,0.0753957155748501,0.276574803149606));
#352=CARTESIAN_POINT('',(0.0907724683224734,-0.00643109591326042,0.276574803149606));
#353=CARTESIAN_POINT('',(0.0907724683224734,-0.00643109591326042,0.276574803149606));
#354=CARTESIAN_POINT('',(-0.039816741726179,0.0818268114881104,0.276574803149606));
#355=CARTESIAN_POINT('',(0.0509557265962945,0.0753957155748501,0.276574803149606));
#356=CARTESIAN_POINT('',(-0.0907724683224734,0.00643109591326038,0.276574803149606));
#357=CARTESIAN_POINT('',(-0.039816741726179,0.0818268114881104,0.276574803149606));
#358=CARTESIAN_POINT('',(-0.0509557265962945,-0.07539571557485,0.276574803149606));
#359=CARTESIAN_POINT('',(-0.0907724683224734,0.00643109591326038,0.276574803149606));
#360=CARTESIAN_POINT('',(0.0398167417261789,-0.0818268114881104,0.276574803149606));
#361=CARTESIAN_POINT('',(-0.0509557265962945,-0.07539571557485,0.276574803149606));
#362=CARTESIAN_POINT('',(0.0398167417261789,-0.0818268114881104,0.276574803149606));
#363=CARTESIAN_POINT('Origin',(-0.039816741726179,0.0818268114881104,0.375));
#364=CARTESIAN_POINT('',(-0.039816741726179,0.0818268114881104,0.375));
#365=CARTESIAN_POINT('',(0.0509557265962945,0.0753957155748501,0.375));
#366=CARTESIAN_POINT('',(-0.0171236246455606,0.0802190375097953,0.375));
#367=CARTESIAN_POINT('',(-0.039816741726179,0.0818268114881104,0.375));
#368=CARTESIAN_POINT('',(0.0509557265962945,0.0753957155748501,0.375));
#369=CARTESIAN_POINT('Origin',(-0.0907724683224734,0.00643109591326038,
0.375));
#370=CARTESIAN_POINT('',(-0.0907724683224734,0.00643109591326038,0.375));
#371=CARTESIAN_POINT('',(-0.0780335366733998,0.0252800248069729,0.375));
#372=CARTESIAN_POINT('',(-0.0907724683224734,0.00643109591326038,0.375));
#373=CARTESIAN_POINT('Origin',(-0.0509557265962945,-0.07539571557485,0.375));
#374=CARTESIAN_POINT('',(-0.0509557265962945,-0.07539571557485,0.375));
#375=CARTESIAN_POINT('',(-0.0609099120278392,-0.0549390127028224,0.375));
#376=CARTESIAN_POINT('',(-0.0509557265962945,-0.07539571557485,0.375));
#377=CARTESIAN_POINT('Origin',(0.0398167417261789,-0.0818268114881104,0.375));
#378=CARTESIAN_POINT('',(0.0398167417261789,-0.0818268114881104,0.375));
#379=CARTESIAN_POINT('',(0.0171236246455606,-0.0802190375097953,0.375));
#380=CARTESIAN_POINT('',(0.0398167417261789,-0.0818268114881104,0.375));
#381=CARTESIAN_POINT('Origin',(0.0907724683224734,-0.00643109591326041,
0.375));
#382=CARTESIAN_POINT('',(0.0907724683224734,-0.00643109591326042,0.375));
#383=CARTESIAN_POINT('',(0.0780335366733998,-0.0252800248069729,0.375));
#384=CARTESIAN_POINT('',(0.0907724683224734,-0.00643109591326042,0.375));
#385=CARTESIAN_POINT('Origin',(0.0509557265962945,0.0753957155748501,0.375));
#386=CARTESIAN_POINT('',(0.0609099120278392,0.0549390127028224,0.375));
#387=CARTESIAN_POINT('Origin',(0.883883476483185,0.883883476483185,0.));
#388=CARTESIAN_POINT('',(0.798883476483185,0.883883476483185,0.125));
#389=CARTESIAN_POINT('Origin',(0.883883476483185,0.883883476483185,0.125));
#390=CARTESIAN_POINT('',(0.798883476483185,0.883883476483185,0.));
#391=CARTESIAN_POINT('',(0.798883476483185,0.883883476483185,0.));
#392=CARTESIAN_POINT('Origin',(0.883883476483185,0.883883476483185,0.));
#393=CARTESIAN_POINT('Origin',(-0.883883476483185,-0.883883476483185,0.));
#394=CARTESIAN_POINT('',(-0.968883476483185,-0.883883476483185,0.125));
#395=CARTESIAN_POINT('Origin',(-0.883883476483185,-0.883883476483185,0.125));
#396=CARTESIAN_POINT('',(-0.968883476483185,-0.883883476483185,0.));
#397=CARTESIAN_POINT('',(-0.968883476483185,-0.883883476483185,0.));
#398=CARTESIAN_POINT('Origin',(-0.883883476483185,-0.883883476483185,0.));
#399=CARTESIAN_POINT('Origin',(0.,0.,0.));
#400=CARTESIAN_POINT('',(-1.4375,-1.74838271594513E-16,0.125));
#401=CARTESIAN_POINT('Origin',(0.,0.,0.125));
#402=CARTESIAN_POINT('',(-1.4375,-1.76042977377432E-16,0.));
#403=CARTESIAN_POINT('',(-1.4375,-1.76042977377432E-16,0.));
#404=CARTESIAN_POINT('Origin',(0.,0.,0.));
#405=CARTESIAN_POINT('Origin',(0.,0.,0.125));
#406=CARTESIAN_POINT('',(0.375,4.59242549680257E-17,0.375));
#407=CARTESIAN_POINT('Origin',(0.,0.,0.375));
#408=CARTESIAN_POINT('',(0.375,4.59242549680257E-17,0.125));
#409=CARTESIAN_POINT('',(0.375,4.59242549680257E-17,0.125));
#410=CARTESIAN_POINT('Origin',(0.,0.,0.125));
#411=CARTESIAN_POINT('Origin',(0.,0.,0.375));
#412=CARTESIAN_POINT('Origin',(0.,0.,0.125));
#413=CARTESIAN_POINT('Origin',(0.,0.,0.));
#414=UNCERTAINTY_MEASURE_WITH_UNIT(LENGTH_MEASURE(0.000393700787401575),
#419,'DISTANCE_ACCURACY_VALUE',
'Maximum model space distance between geometric entities at asserted c
onnectivities');
#415=UNCERTAINTY_MEASURE_WITH_UNIT(LENGTH_MEASURE(0.000393700787401575),
#419,'DISTANCE_ACCURACY_VALUE',
'Maximum model space distance between geometric entities at asserted c
onnectivities');
#416=(
GEOMETRIC_REPRESENTATION_CONTEXT(3)
GLOBAL_UNCERTAINTY_ASSIGNED_CONTEXT((#414))
GLOBAL_UNIT_ASSIGNED_CONTEXT((#419,#423,#424))
REPRESENTATION_CONTEXT('','3D')
);
#417=(
GEOMETRIC_REPRESENTATION_CONTEXT(3)
GLOBAL_UNCERTAINTY_ASSIGNED_CONTEXT((#415))
GLOBAL_UNIT_ASSIGNED_CONTEXT((#419,#423,#424))
REPRESENTATION_CONTEXT('','3D')
);
#418=DIMENSIONAL_EXPONENTS(1.,0.,0.,0.,0.,0.,0.);
#419=(
CONVERSION_BASED_UNIT('inch',#422)
LENGTH_UNIT()
NAMED_UNIT(#418)
);
#420=(
LENGTH_UNIT()
NAMED_UNIT(*)
SI_UNIT(.MILLI.,.METRE.)
);
#421=(
LENGTH_UNIT()
NAMED_UNIT(*)
SI_UNIT($,.METRE.)
);
#422=LENGTH_MEASURE_WITH_UNIT(LENGTH_MEASURE(25.4),#420);
#423=(
NAMED_UNIT(*)
PLANE_ANGLE_UNIT()
SI_UNIT($,.RADIAN.)
);
#424=(
NAMED_UNIT(*)
SI_UNIT($,.STERADIAN.)
SOLID_ANGLE_UNIT()
);
#425=SHAPE_DEFINITION_REPRESENTATION(#426,#427);
#426=PRODUCT_DEFINITION_SHAPE('',$,#429);
#427=SHAPE_REPRESENTATION('',(#258),#416);
#428=PRODUCT_DEFINITION_CONTEXT('part definition',#433,'design');
#429=PRODUCT_DEFINITION('Winch2','Winch2 v20',#430,#428);
#430=PRODUCT_DEFINITION_FORMATION('',$,#435);
#431=PRODUCT_RELATED_PRODUCT_CATEGORY('Winch2 v20','Winch2 v20',(#435));
#432=APPLICATION_PROTOCOL_DEFINITION('international standard',
'automotive_design',2009,#433);
#433=APPLICATION_CONTEXT(
'Core Data for Automotive Mechanical Design Process');
#434=PRODUCT_CONTEXT('part definition',#433,'mechanical');
#435=PRODUCT('Winch2','Winch2 v20',$,(#434));
#436=PRESENTATION_STYLE_ASSIGNMENT((#438));
#437=PRESENTATION_STYLE_ASSIGNMENT((#439));
#438=SURFACE_STYLE_USAGE(.BOTH.,#440);
#439=SURFACE_STYLE_USAGE(.BOTH.,#441);
#440=SURFACE_SIDE_STYLE('',(#442));
#441=SURFACE_SIDE_STYLE('',(#443));
#442=SURFACE_STYLE_FILL_AREA(#444);
#443=SURFACE_STYLE_FILL_AREA(#445);
#444=FILL_AREA_STYLE('Steel - Satin',(#446));
#445=FILL_AREA_STYLE('Nylon 12 (with Formlabs Fuse 1 3D Printer)',(#447));
#446=FILL_AREA_STYLE_COLOUR('Steel - Satin',#448);
#447=FILL_AREA_STYLE_COLOUR(
'Nylon 12 (with Formlabs Fuse 1 3D Printer)',#449);
#448=COLOUR_RGB('Steel - Satin',0.627450980392157,0.627450980392157,0.627450980392157);
#449=COLOUR_RGB('Nylon 12 (with Formlabs Fuse 1 3D Printer)',0.247058823529412,
0.247058823529412,0.247058823529412);
ENDSEC;
END-ISO-10303-21;
